<svg width="671" height="479" viewBox="0 0 671 479" fill="none" xmlns="http://www.w3.org/2000/svg">
<g clip-path="url(#clip0)">
<path opacity="0.1" d="M225.075 478.731C258.045 478.731 284.772 474.443 284.772 469.154C284.772 463.864 258.045 459.577 225.075 459.577C192.106 459.577 165.379 463.864 165.379 469.154C165.379 474.443 192.106 478.731 225.075 478.731Z" fill="#28DF99"/>
<path opacity="0.1" d="M549.576 479C590.716 479 624.068 474.712 624.068 469.423C624.068 464.134 590.716 459.846 549.576 459.846C508.435 459.846 475.084 464.134 475.084 469.423C475.084 474.712 508.435 479 549.576 479Z" fill="#28DF99"/>
<path opacity="0.1" d="M8.47939 206.962H70.657V291.614H13.0314C12.8782 292.483 12.7312 293.358 12.5719 294.233H70.657V362.502C70.5528 362.472 70.4609 362.435 70.3629 362.398C68.721 361.75 67.0914 361.064 65.4617 360.33L64.4202 359.859C62.7865 359.088 61.1528 358.272 59.519 357.411C58.9493 357.111 58.3795 356.799 57.8159 356.481C48.7461 351.406 40.5068 344.976 33.3835 337.412C33.1752 337.21 32.9792 336.996 32.7709 336.8C31.7784 335.723 30.8043 334.634 29.8608 333.52L28.8193 332.296C27.7043 330.932 26.626 329.53 25.5784 328.111C25.4252 327.903 25.2782 327.695 25.1189 327.499C20.8582 321.598 17.3205 315.208 14.5814 308.467C14.4956 308.265 14.4221 308.045 14.3424 307.855C13.5011 305.693 12.7557 303.51 12.1063 301.307C11.8244 300.383 11.5549 299.471 11.3221 298.511C11.2363 298.229 11.1628 297.954 11.0954 297.678C7.61555 284.111 7.20508 270.018 7.20508 256.023C7.20508 254.389 7.20508 252.749 7.20508 251.127C7.20508 245.466 7.27247 239.769 7.37049 234.078C7.37049 232.603 7.43176 231.135 7.46239 229.654C7.54816 225.896 7.67069 222.139 7.82998 218.381C7.86674 217.335 7.91575 216.295 7.97089 215.254C7.97089 214.655 8.00152 214.055 8.06279 213.455C8.20982 211.277 8.33235 209.116 8.47939 206.962Z" fill="#28DF99"/>
<path opacity="0.1" d="M70.6569 112.709H36.5508C42.0949 104.042 48.1525 95.7124 54.6913 87.7663C59.7579 81.5488 65.1063 75.4905 70.6569 69.6525V112.709Z" fill="#28DF99"/>
<path opacity="0.1" d="M70.6573 115.329V204.343H8.67578C8.67578 204.086 8.71867 203.823 8.73705 203.566C8.79218 202.862 8.84732 202.159 8.90859 201.461C8.97598 200.641 9.04949 199.815 9.12914 199.013C9.20878 198.212 9.29456 197.232 9.38645 196.345C9.47835 195.458 9.56412 194.558 9.66827 193.671C9.77242 192.783 9.86432 191.896 9.97459 191.015C10.0849 190.134 10.1829 189.24 10.2993 188.359C10.3912 187.625 10.4892 186.897 10.5872 186.162C10.7281 185.128 10.8752 184.088 11.0345 183.06C11.0345 182.907 11.0774 182.747 11.1019 182.601C12.2201 175.075 13.7437 167.614 15.6661 160.252C17.6784 152.529 20.248 144.962 23.3548 137.61C26.6568 129.919 30.5229 122.482 34.9216 115.359L70.6573 115.329Z" fill="#28DF99"/>
<path opacity="0.1" d="M85.5 206.956V291.614H218.304V206.956H85.5ZM85.5 294.227V366.927C86.2597 367.086 87.0132 367.239 87.7607 367.368C88.7777 367.563 89.7885 367.741 90.8239 367.894C91.02 367.924 91.2221 367.955 91.4366 367.973C91.8409 368.041 92.2575 368.096 92.6619 368.151C93.685 368.292 94.702 368.408 95.7251 368.5C96.2091 368.549 96.6992 368.591 97.1893 368.628L98.3717 368.72C99.015 368.769 99.6522 368.806 100.283 368.824C100.675 368.824 101.067 368.861 101.472 368.873C101.778 368.873 102.084 368.873 102.403 368.873C102.722 368.873 103.175 368.873 103.561 368.873C104.088 368.873 104.615 368.873 105.135 368.873H105.84C106.367 368.873 106.894 368.873 107.414 368.824H107.451C107.813 368.824 108.18 368.824 108.548 368.775C108.65 368.781 108.752 368.781 108.854 368.775C109.16 368.775 109.467 368.775 109.761 368.732H109.975L112.028 368.573C112.702 368.512 113.382 368.432 114.068 368.359L115.465 368.194C121.147 367.398 126.767 366.204 132.282 364.62C144.669 361.168 156.788 356.34 169.169 352.803C185.178 348.244 202.865 346.004 218.334 351.579V294.227H85.5ZM218.304 112.709V0.00610153C203.764 -0.151246 189.264 1.54742 175.155 5.06083C141.527 13.4997 111.354 31.8032 85.5 55.1798V112.703H92.1656V115.316H85.5V204.343H218.304V115.323H119.533V112.709H218.304ZM388.883 74.6399C380.563 74.3461 372.293 71.7147 364.812 67.6514C350.507 59.8796 339.081 47.8792 326.313 37.7514C299.786 16.6573 266.887 3.92872 233.136 0.771043V112.709H422.72L423.191 112.214L388.883 74.6399ZM406.154 71.5801L424.466 91.6522V66.3173C418.333 67.0761 412.96 68.8814 406.178 71.5556L406.154 71.5801ZM424.466 384.98V294.227H385.446C385.342 293.841 385.238 293.45 385.115 293.058C385.232 293.45 385.33 293.841 385.44 294.227H233.16V359.859C234.606 360.93 236.034 362.056 237.449 363.2C238.974 364.424 240.481 365.715 241.995 366.982L243.52 368.243C244.249 368.855 244.984 369.467 245.726 370.042C247.196 371.233 248.681 372.408 250.18 373.567C250.921 374.179 251.681 374.729 252.434 375.305C264.397 384.441 277.017 392.686 290.192 399.972C293.145 401.604 296.124 403.197 299.13 404.752C301.134 405.774 303.149 406.79 305.171 407.775C308.21 409.256 311.273 410.684 314.361 412.058C342.828 424.823 372.93 433.582 403.807 438.085C410.665 439.097 417.549 439.892 424.46 440.471V384.973H425.072L424.466 384.98ZM233.16 115.323V204.343H424.49V115.323H233.16ZM233.16 206.956V291.614H424.49V206.956H233.16ZM439.341 66.2072V94.4672L462.713 68.8508C454.969 67.6024 447.178 66.711 439.341 66.1766V66.2072ZM439.341 206.987V291.614H625.432V206.956L439.341 206.987ZM624.752 391.699L625.408 294.227H439.341V441.444C451.327 441.947 463.332 441.804 475.303 441.016H475.511C481.229 440.657 486.921 440.135 492.586 439.449H492.715C522.937 435.936 552.489 428.06 580.446 416.067L624.752 391.699ZM661.315 220.897C660.617 219.25 659.888 217.617 659.146 216.001C657.762 212.941 656.298 209.967 654.79 206.993H640.271V291.614H676.981C676.962 267.65 670.891 243.172 661.334 220.866L661.315 220.897ZM640.271 294.258V378.095C650.612 368.194 659.349 356.866 665.64 343.918C673.207 328.325 676.668 311.441 676.95 294.245L640.271 294.258ZM640.271 182.319V204.349H653.43C649.449 196.766 645.063 189.401 640.289 182.289L640.271 182.319ZM514.065 82.8156C513.097 82.4484 512.129 82.0751 511.155 81.7141C500.882 77.9244 490.383 74.773 479.72 72.2777L443.954 111.486L443.268 112.214L443.727 112.716H571.023C553.294 100.526 534.181 90.4788 514.084 82.785L514.065 82.8156ZM574.754 115.353H441.951L439.341 117.74V204.343H462.217H462.254H625.457V162.394C610.693 144.559 593.654 128.734 574.773 115.323L574.754 115.353Z" fill="#28DF99"/>
<path opacity="0.1" d="M70.6573 160.228V204.343H8.67578C8.67578 204.086 8.71867 203.823 8.73705 203.566C8.79218 202.862 8.84732 202.159 8.90859 201.461C8.97598 200.641 9.04949 199.815 9.12914 199.013C9.20878 198.212 9.29456 197.232 9.38645 196.345C9.47835 195.458 9.56412 194.558 9.66827 193.671C9.77242 192.784 9.86432 191.896 9.97459 191.015C10.0849 190.134 10.1829 189.24 10.2993 188.359C10.3912 187.625 10.4892 186.897 10.5872 186.162C10.7281 185.128 10.8752 184.088 11.0345 183.06C11.0345 182.907 11.0774 182.748 11.1019 182.601C12.2201 175.075 13.7437 167.614 15.6661 160.252L70.6573 160.228Z" fill="#28DF99"/>
<path opacity="0.1" d="M8.47939 206.962H70.657V291.614H13.0314C12.8782 292.483 12.7312 293.358 12.5719 294.233H70.657V362.502C70.5528 362.472 70.4609 362.435 70.3629 362.398C68.721 361.75 67.0914 361.064 65.4617 360.33L64.4202 359.859C62.7865 359.088 61.1528 358.272 59.519 357.411C58.9493 357.111 58.3795 356.799 57.8159 356.481C48.7461 351.406 40.5068 344.976 33.3835 337.412C33.1752 337.21 32.9792 336.996 32.7709 336.8C31.7784 335.723 30.8043 334.634 29.8608 333.52L28.8193 332.296C27.7043 330.932 26.626 329.53 25.5784 328.111C25.4252 327.903 25.2782 327.695 25.1189 327.499C20.8582 321.598 17.3205 315.208 14.5814 308.467C14.4956 308.265 14.4221 308.045 14.3424 307.855C13.5011 305.693 12.7557 303.51 12.1063 301.307C11.8244 300.383 11.5549 299.471 11.3221 298.511C11.2363 298.229 11.1628 297.954 11.0954 297.678C7.61555 284.111 7.20508 270.018 7.20508 256.023C7.20508 254.389 7.20508 252.749 7.20508 251.127C7.20508 245.466 7.27247 239.769 7.37049 234.078C7.37049 232.603 7.43176 231.135 7.46239 229.654C7.54816 225.896 7.67069 222.139 7.82998 218.381C7.86674 217.335 7.91575 216.295 7.97089 215.254C7.97089 214.655 8.00152 214.055 8.06279 213.455C8.20982 211.277 8.33235 209.116 8.47939 206.962Z" fill="#28DF99"/>
<path opacity="0.1" d="M132.251 128.07V204.343H85.5V128.07H92.1656V102.245H119.526V128.07H132.251Z" fill="#28DF99"/>
<path opacity="0.1" d="M132.253 206.956H85.5078V291.608H132.253V206.956Z" fill="#28DF99"/>
<path opacity="0.1" d="M85.5 294.233H132.251V364.608C126.736 366.19 121.117 367.383 115.434 368.175L114.037 368.347C113.351 368.426 112.671 368.494 111.997 368.561C111.323 368.628 110.625 368.677 109.945 368.72H109.73C109.436 368.72 109.118 368.757 108.83 368.763H108.517C108.15 368.763 107.782 368.8 107.414 368.812C106.894 368.842 106.373 368.848 105.84 368.855C105.613 368.855 105.399 368.855 105.172 368.855C104.645 368.855 104.124 368.855 103.598 368.855H102.44C102.127 368.855 101.827 368.855 101.502 368.855L100.32 368.812C99.7073 368.812 99.0456 368.744 98.4085 368.702L97.2322 368.616L95.768 368.481C94.7387 368.39 93.7156 368.273 92.7047 368.133L91.4794 367.961L90.8668 367.876C89.8437 367.716 88.8328 367.545 87.8036 367.349C87.05 367.221 86.3026 367.062 85.5429 366.909L85.5 294.233Z" fill="#28DF99"/>
<path opacity="0.1" d="M424.491 119.062H385.943V204.337H424.491V119.062Z" fill="#28DF99"/>
<path opacity="0.1" d="M424.498 206.956V291.614H233.162V255.099H335.076V276.639H385.944V206.956H424.498Z" fill="#28DF99"/>
<path opacity="0.1" d="M425.105 384.998H424.492V440.533C417.589 439.949 410.707 439.156 403.846 438.152C372.954 433.635 342.839 424.857 314.362 412.071C306.141 408.374 298.086 404.34 290.2 399.966C277.025 392.676 264.404 384.431 252.436 375.298C249.43 372.997 246.463 370.644 243.534 368.236C241.506 366.566 239.491 364.852 237.451 363.188C236.035 362.044 234.608 360.918 233.162 359.841V294.233H385.436C385.331 293.841 385.227 293.45 385.117 293.064C385.233 293.45 385.344 293.841 385.448 294.233H424.492V384.961C424.7 384.967 424.902 384.986 425.105 384.998Z" fill="#28DF99"/>
<path opacity="0.1" d="M525.027 112.709H499.908V104.913H511.169V81.6896C512.145 82.0445 513.117 82.4096 514.085 82.785V104.913H525.027V112.709Z" fill="#28DF99"/>
<path opacity="0.1" d="M585.544 204.343H462.23C462.23 204.343 462.23 204.343 462.273 204.374L462.218 204.343H439.342V119.068H445.824V182.099H475.445V144.77H499.914V115.329H525.033V144.794H549.502V182.123H585.544V204.343Z" fill="#28DF99"/>
<path opacity="0.1" d="M439.342 206.956V291.614H585.544V206.956H439.342ZM625.231 391.264L625.433 324.255H585.544V294.27H439.342V441.444C451.328 441.947 463.333 441.804 475.304 441.016H475.513C481.231 440.657 486.922 440.135 492.587 439.449H492.716C522.938 435.936 552.49 428.06 580.447 416.067" fill="#28DF99"/>
<path opacity="0.1" d="M642.87 294.233H676.976C676.676 311.423 673.221 328.307 665.66 343.899C659.369 356.854 650.626 368.181 640.297 378.077V324.225H642.87V294.233Z" fill="#28DF99"/>
<path opacity="0.1" d="M676.994 291.614H642.869V220.866H661.334C670.892 243.172 676.963 267.65 676.994 291.614Z" fill="#28DF99"/>
<path opacity="0.1" d="M424.498 142.769H403.846V169.505H424.498V142.769Z" fill="#28DF99"/>
<path opacity="0.1" d="M424.498 198.187H403.846V204.343H424.498V198.187Z" fill="#28DF99"/>
<path opacity="0.1" d="M424.498 206.956H403.846V224.917H424.498V206.956Z" fill="#28DF99"/>
<path opacity="0.1" d="M424.498 253.605H403.846V280.342H424.498V253.605Z" fill="#28DF99"/>
<path opacity="0.1" d="M424.498 309.024H403.846V335.76H424.498V309.024Z" fill="#28DF99"/>
<path opacity="0.1" d="M424.492 384.961C424.7 384.961 424.902 384.961 425.105 384.998H424.492V391.209H403.846V364.442H424.492V384.961Z" fill="#28DF99"/>
<path opacity="0.1" d="M424.492 419.849V440.502C417.589 439.919 410.707 439.125 403.846 438.122V419.849H424.492Z" fill="#28DF99"/>
<path opacity="0.1" d="M321.671 289.65H233.162V291.614H321.671V289.65Z" fill="#28DF99"/>
<path opacity="0.1" d="M321.671 294.227H233.162V301.754H321.671V294.227Z" fill="#28DF99"/>
<path opacity="0.1" d="M321.671 326.428H233.162V338.532H321.671V326.428Z" fill="#28DF99"/>
<path opacity="0.1" d="M321.664 363.206V375.311H252.435C249.429 373.018 246.459 370.664 243.527 368.249C241.499 366.578 239.49 364.865 237.443 363.206H321.664Z" fill="#28DF99"/>
<path opacity="0.1" d="M321.665 399.979V412.071H314.356C306.142 408.37 298.09 404.334 290.199 399.96L321.665 399.979Z" fill="#28DF99"/>
<path opacity="0.1" d="M492.734 215.163H475.311V232.567H492.734V215.163Z" fill="#28DF99"/>
<path opacity="0.1" d="M115.478 134.073H98.0547V151.477H115.478V134.073Z" fill="#28DF99"/>
<path opacity="0.1" d="M115.478 174.498H98.0547V191.902H115.478V174.498Z" fill="#28DF99"/>
<path opacity="0.1" d="M115.478 214.924H98.0547V232.328H115.478V214.924Z" fill="#28DF99"/>
<path opacity="0.1" d="M115.478 255.344H98.0547V272.747H115.478V255.344Z" fill="#28DF99"/>
<path opacity="0.1" d="M115.478 295.769H98.0547V313.173H115.478V295.769Z" fill="#28DF99"/>
<path opacity="0.1" d="M115.478 336.195H98.0547V353.599H115.478V336.195Z" fill="#28DF99"/>
<path opacity="0.1" d="M559.25 215.163H541.826V232.567H559.25V215.163Z" fill="#28DF99"/>
<path opacity="0.1" d="M492.734 258.091H475.311V275.495H492.734V258.091Z" fill="#28DF99"/>
<path opacity="0.1" d="M559.25 258.091H541.826V275.495H559.25V258.091Z" fill="#28DF99"/>
<path opacity="0.1" d="M492.734 301.014H475.311V318.418H492.734V301.014Z" fill="#28DF99"/>
<path opacity="0.1" d="M559.25 301.014H541.826V318.418H559.25V301.014Z" fill="#28DF99"/>
<path opacity="0.1" d="M492.734 343.942H475.311V361.346H492.734V343.942Z" fill="#28DF99"/>
<path opacity="0.1" d="M559.25 343.942H541.826V361.346H559.25V343.942Z" fill="#28DF99"/>
<path opacity="0.1" d="M492.734 386.87H475.311V404.274H492.734V386.87Z" fill="#28DF99"/>
<path opacity="0.1" d="M559.25 386.87H541.826V404.274H559.25V386.87Z" fill="#28DF99"/>
<path opacity="0.1" d="M475.311 441.016V429.793H492.728V439.419L475.311 441.016Z" fill="#28DF99"/>
<path opacity="0.1" d="M11.0273 182.588V192.545H70.6563V182.588H11.0273ZM16.97 191.921H12.1056V183.2H17.0068L16.97 191.921ZM22.9066 191.921H18.0054V183.2H22.9066V191.921ZM28.8309 191.921H23.9297V183.2H28.8309V191.921ZM34.7674 191.921H29.8724V183.2H34.7736L34.7674 191.921ZM40.6979 191.921H35.7967V183.2H40.6979V191.921ZM46.6344 191.921H41.7332V183.2H46.6344V191.921ZM52.571 191.921H47.6698V183.2H52.571V191.921ZM58.5014 191.921H53.6002V183.2H58.5014V191.921ZM64.4318 191.921H59.5306V183.2H64.4318V191.921ZM70.3622 191.921H65.4611V183.2H70.3622V191.921Z" fill="#28DF99"/>
<path opacity="0.1" d="M11.0273 211.558V221.515H70.6563V211.558H11.0273ZM16.97 220.884H12.1056V212.189H17.0068L16.97 220.884ZM22.9066 220.884H18.0054V212.189H22.9066V220.884ZM28.8309 220.884H23.9297V212.189H28.8309V220.884ZM34.7674 220.884H29.8724V212.189H34.7736L34.7674 220.884ZM40.6979 220.884H35.7967V212.189H40.6979V220.884ZM46.6344 220.884H41.7332V212.189H46.6344V220.884ZM52.571 220.884H47.6698V212.189H52.571V220.884ZM58.5014 220.884H53.6002V212.189H58.5014V220.884ZM64.4318 220.884H59.5306V212.189H64.4318V220.884ZM70.3622 220.884H65.4611V212.189H70.3622V220.884Z" fill="#28DF99"/>
<path opacity="0.1" d="M11.0273 240.54V250.515H70.6563V240.54H11.0273ZM16.97 249.866H12.1056V241.164H17.0068L16.97 249.866ZM22.9066 249.866H18.0054V241.164H22.9066V249.866ZM28.8309 249.866H23.9297V241.164H28.8309V249.866ZM34.7674 249.866H29.8724V241.164H34.7736L34.7674 249.866ZM40.6979 249.866H35.7967V241.164H40.6979V249.866ZM46.6344 249.866H41.7332V241.164H46.6344V249.866ZM52.571 249.866H47.6698V241.164H52.571V249.866ZM58.5014 249.866H53.6002V241.164H58.5014V249.866ZM64.4318 249.866H59.5306V241.164H64.4318V249.866ZM70.3622 249.866H65.4611V241.164H70.3622V249.866Z" fill="#28DF99"/>
<path opacity="0.1" d="M11.0273 269.522V279.467H70.6563V269.522H11.0273ZM16.97 278.849H12.1056V270.141H17.0068L16.97 278.849ZM22.9066 278.849H18.0054V270.141H22.9066V278.849ZM28.8309 278.849H23.9297V270.141H28.8309V278.849ZM34.7674 278.849H29.8724V270.141H34.7736L34.7674 278.849ZM40.6979 278.849H35.7967V270.141H40.6979V278.849ZM46.6344 278.849H41.7332V270.141H46.6344V278.849ZM52.571 278.849H47.6698V270.141H52.571V278.849ZM58.5014 278.849H53.6002V270.141H58.5014V278.849ZM64.4318 278.849H59.5306V270.141H64.4318V278.849ZM70.3622 278.849H65.4611V270.141H70.3622V278.849Z" fill="#28DF99"/>
<path opacity="0.1" d="M11.2852 298.498C11.5241 299.435 11.7936 300.371 12.0755 301.295V299.122H16.9766V307.824H14.3545C14.4342 308.026 14.5138 308.247 14.5934 308.436H70.6568V298.498H11.2852ZM22.9255 307.824H18.0243V299.122H22.9255V307.824ZM28.8498 307.824H23.9486V299.122H28.8498V307.824ZM34.7863 307.824H29.8729V299.122H34.7741L34.7863 307.824ZM40.7167 307.824H35.8156V299.122H40.7167V307.824ZM46.6533 307.824H41.7521V299.122H46.6533V307.824ZM52.5898 307.824H47.6887V299.122H52.5898V307.824ZM58.5203 307.824H53.6191V299.122H58.5203V307.824ZM64.4507 307.824H59.5495V299.122H64.4507V307.824ZM70.3811 307.824H65.4799V299.122H70.3811V307.824Z" fill="#28DF99"/>
<path opacity="0.1" d="M25.1309 327.48C25.284 327.676 25.4311 327.897 25.5903 328.092H28.8313V332.272C29.1805 332.688 29.5235 333.104 29.8789 333.496V328.068H34.7801V336.8H32.7951C32.9911 337.002 33.181 337.217 33.4077 337.412H70.6751V327.48H25.1309ZM40.6982 336.8H35.797V328.105H40.6982V336.8ZM46.6348 336.8H41.7336V328.105H46.6348V336.8ZM52.5713 336.8H47.6702V328.105H52.5713V336.8ZM58.5018 336.8H53.6006V328.105H58.5018V336.8ZM64.4322 336.8H59.531V328.105H64.4322V336.8ZM70.3626 336.8H65.4614V328.105H70.3626V336.8Z" fill="#28DF99"/>
<path opacity="0.1" d="M57.8398 356.456C58.3974 356.775 58.9671 357.068 59.543 357.387V357.081H64.4442V359.834L65.4857 360.318V357.081H70.3869V362.374C70.4809 362.421 70.5794 362.458 70.6809 362.484V356.456H57.8398Z" fill="#28DF99"/>
<path opacity="0.1" d="M462.23 204.343H462.267H462.23ZM424.491 384.955H425.104H424.491ZM385.116 293.058C385.233 293.45 385.331 293.841 385.441 294.227C385.343 293.841 385.239 293.45 385.116 293.058ZM462.23 204.325H462.267H462.23ZM92.1914 112.691V115.304H119.558V112.691H92.1914ZM424.491 384.955H425.104H424.491ZM385.116 293.058C385.233 293.45 385.331 293.841 385.441 294.227C385.343 293.841 385.239 293.45 385.116 293.058ZM462.23 204.325H462.267H462.23ZM424.491 384.937H425.104H424.491ZM385.116 293.058C385.233 293.45 385.331 293.841 385.441 294.227C385.343 293.841 385.239 293.45 385.116 293.058Z" fill="#28DF99"/>
<path d="M282.799 232.34C282.799 232.34 280.385 232.004 280.385 228.491C280.385 224.978 278.657 218.418 278.657 218.418C278.657 218.388 277.162 206.993 275.098 205.182C273.033 203.37 270.38 192.735 270.38 192.735C270.38 192.735 269.927 186.964 269.002 185.722C268.077 184.479 266.827 181.438 264.983 177.099C263.139 172.76 255.45 169.756 255.45 169.756C255.45 169.756 241.549 161.702 237.61 159.077C237.252 158.861 236.917 158.609 236.611 158.324C235.925 157.425 232.935 157.407 232.935 157.407C232.623 155.436 232.323 153.172 232.225 151.122C232.225 150.901 232.225 150.681 232.194 150.461C236.587 147.867 239.895 143.778 241.512 138.944C241.586 138.711 241.647 138.467 241.714 138.234C241.978 138.147 242.22 138.007 242.426 137.821C242.631 137.636 242.796 137.41 242.909 137.157C243.264 136.368 243.271 135.444 243.712 134.709C244.226 133.84 245.207 133.375 245.978 132.72C247.927 131.068 248.429 128.284 248.337 125.75C248.276 123.7 247.945 121.632 248.074 119.594L248.111 119.08C248.147 118.774 248.19 118.468 248.245 118.174C248.545 116.657 249.201 115.225 249.569 113.719C249.936 112.214 249.973 110.519 249.115 109.221C247.859 107.318 245.243 106.939 242.946 106.743C240.342 106.523 238.014 106.81 236.348 104.65C235.568 103.521 234.69 102.462 233.726 101.486C233.382 101.168 230.05 99.1363 230.05 99.0017C226.797 97.4969 223.11 97.2144 219.665 98.2062C217.938 98.708 216.308 99.528 214.556 99.938C210.776 100.831 206.426 99.8646 203.216 102.025C201.427 103.249 200.355 105.195 199.35 107.092C198.533 108.654 197.704 110.215 196.863 111.773C195.509 114.337 194.13 116.944 193.56 119.784C193.441 120.402 193.367 121.027 193.34 121.656V121.687C193.34 121.913 193.34 122.14 193.34 122.366V122.654C193.34 122.868 193.34 123.076 193.377 123.266C193.413 123.455 193.407 123.517 193.426 123.645C193.444 123.774 193.475 124.061 193.511 124.257C193.548 124.453 193.622 124.796 193.695 125.065C193.726 125.181 193.769 125.291 193.805 125.401C193.867 125.609 193.94 125.811 194.02 126.013C194.063 126.117 194.106 126.228 194.155 126.332C194.247 126.546 194.357 126.754 194.467 126.943C194.516 127.029 194.553 127.109 194.602 127.188C194.773 127.473 194.961 127.747 195.166 128.008C196.477 129.642 198.406 130.683 199.834 132.212C199.834 132.274 199.834 132.335 199.834 132.39C199.834 132.561 199.834 132.726 199.834 132.898C199.91 136.31 200.819 139.652 202.482 142.632C204.146 145.613 206.513 148.143 209.379 150.002C209.379 150.234 209.41 150.473 209.422 150.706C209.541 152.522 209.519 154.345 209.354 156.158C209.105 155.865 208.793 155.631 208.441 155.474C208.089 155.317 207.706 155.242 207.32 155.252C207.057 155.24 206.793 155.262 206.536 155.32L206.481 155.277V155.332C205.133 155.662 203.473 157.064 201.886 161.048C201.886 161.048 197.059 166.482 193.383 166.255C189.707 166.029 180.401 171.91 180.401 171.91C180.401 171.91 171.321 177.797 169.373 183.794C168.284 187.195 166.979 190.522 165.464 193.757L154.241 216.858L152.17 235.186C152.17 235.186 153.316 243.337 153.089 244.579C152.862 245.821 157.8 257.026 157.8 257.026C157.8 257.026 174.115 285.66 180.781 287.128L181.258 286.792C181.544 286.94 181.846 287.054 182.159 287.128L183.531 286.161C183.614 287.239 183.579 288.322 183.427 289.393C182.508 292.22 183.77 310.67 185.375 314.287C186.981 317.903 186.411 365.324 186.411 365.324L186.184 369.509C186.184 369.509 186.184 369.644 186.239 369.876L186.184 370.868L186.35 370.954C186.521 372.281 186.465 373.628 186.184 374.937C185.608 376.773 185.375 381.963 185.375 381.963C185.375 381.963 180.787 411.263 182.962 417.15C185.136 423.037 186.987 429.487 186.987 429.487C186.987 429.487 189.284 436.83 187.097 438.085C184.91 439.339 178.691 441.444 179.972 444.504C181.136 447.331 185.553 454.907 186.209 456.015L186.153 456.596L185.253 466.345C185.399 467.632 185.748 468.888 186.288 470.065C187.275 472.189 189.192 474.392 192.837 474.153C193.45 474.11 194.161 474.037 194.847 473.945C201.519 473.052 209.734 470.078 209.734 470.078C209.308 469.807 208.917 469.484 208.57 469.117C208.242 468.8 207.982 468.419 207.807 467.998C207.631 467.577 207.542 467.125 207.547 466.669C207.645 464.894 204.318 456.437 203.491 454.357C203.363 454.057 203.295 453.885 203.295 453.885C203.295 453.885 210.88 445.967 209.618 438.948C209.618 438.948 201.225 434.052 203.988 431.366C206.751 428.679 211.689 420.962 211.689 420.962C211.689 420.962 211.915 392.109 211.689 387.801C211.452 384.81 211.594 381.802 212.111 378.848C212.203 378.401 212.314 377.967 212.43 377.538C216.251 378.108 220.109 378.4 223.972 378.413C225.381 378.413 226.815 378.413 228.261 378.328C228.261 378.736 228.279 379.176 228.316 379.649C228.634 386.797 229.229 399.33 229.713 403.987C230.399 410.663 234.191 428.655 234.191 428.655C234.191 428.655 226.956 433.293 235.453 444.724C235.453 444.724 235.453 448.867 234.89 449.467C234.288 451.428 233.803 453.422 233.438 455.44C233.082 457.594 232.935 459.772 233.511 460.905C234.89 463.609 243.16 463.389 243.16 463.389L243.362 463.352C244.924 463.191 246.502 463.341 248.005 463.794C249.508 464.247 250.905 464.993 252.117 465.99C255.26 468.511 267.188 467.403 273.646 466.602C276.176 466.284 277.867 465.99 277.867 465.99C277.949 465.704 277.978 465.405 277.953 465.109C277.885 463.524 276.642 460.048 268.211 456.945C268.211 456.945 260.284 451.621 260.394 446.983H260.229H259.31C259.977 446.946 260.406 446.983 260.406 446.983C260.406 446.983 257.3 435.661 258.568 434.744C259.837 433.826 256.038 421.281 256.038 421.281C256.038 421.281 253.863 400.229 253.747 398.755C253.752 397.489 253.944 396.231 254.317 395.022L253.747 383.48C253.747 383.48 253.637 379.643 253.747 378.395C253.728 377.311 253.64 376.23 253.483 375.158C253.428 374.729 253.373 374.283 253.312 373.842C256.283 373.089 258.213 372.392 258.213 372.392L257.87 332.217C260.394 327.321 260.86 316.582 260.847 308.963C260.847 304.067 260.627 300.444 260.627 300.444L264.076 294.821C264.076 294.821 264.873 288.089 263.61 286.614C263.053 285.947 263.304 285.256 263.764 284.687C264.002 284.498 264.254 284.326 264.517 284.173C264.517 284.173 264.48 284.117 264.438 284.038C264.678 283.837 264.934 283.655 265.203 283.493C265.203 283.493 263.978 281.596 265.075 280.795C266.104 281.492 267.023 282.018 267.721 282.447C267.672 282.894 267.623 283.151 267.623 283.151L267.917 282.539C268.591 282.918 269.002 283.151 269.002 283.151C269.002 283.151 274.405 272.399 274.289 270.814C274.173 269.229 277.965 262.552 277.965 262.552C277.965 262.552 278.424 259.046 280.495 257.577C282.566 256.108 282.1 245.467 282.1 245.467C282.1 245.467 282.676 239.922 284.055 237.658C285.433 235.394 282.799 232.34 282.799 232.34ZM179.408 227.622L179.512 230.186C178.9 229.201 178.459 228.491 178.459 228.491L179.408 227.622Z" fill="url(#paint0_linear)"/>
<path d="M269.295 278.506L267.972 284.136C267.972 284.136 257.373 278.732 255.461 271.866C253.55 265 258.659 262.393 258.659 262.393L268.535 266.573L269.295 278.506Z" fill="white"/>
<path opacity="0.1" d="M269.295 278.506L267.972 284.136C267.972 284.136 257.373 278.732 255.461 271.866C253.55 265 258.659 262.393 258.659 262.393L268.535 266.573L269.295 278.506Z" fill="black"/>
<path d="M209.813 470.114C209.813 470.114 200.011 473.713 193.272 474.166C189.694 474.404 187.813 472.214 186.845 470.102C186.316 468.929 185.975 467.679 185.834 466.4L186.71 456.7L187.176 451.536L201.493 447.821L203.521 454.014L203.711 454.485C204.526 456.554 207.791 464.968 207.693 466.724C207.689 467.174 207.776 467.62 207.949 468.035C208.121 468.451 208.376 468.827 208.698 469.142C209.027 469.512 209.401 469.839 209.813 470.114Z" fill="white"/>
<path d="M276.769 465.182C276.793 465.477 276.764 465.773 276.683 466.057C276.683 466.057 255.718 469.551 251.43 466.057C250.221 465.036 248.811 464.279 247.292 463.835C245.773 463.39 244.177 463.267 242.608 463.475C242.608 463.475 234.496 463.695 233.142 461.027C232.579 459.907 232.726 457.735 233.075 455.593C233.431 453.586 233.906 451.602 234.496 449.651L234.821 449.394L236.751 447.846L259.345 447.178H259.517C259.406 451.793 267.187 457.086 267.187 457.086C275.452 460.146 276.671 463.603 276.769 465.182Z" fill="white"/>
<path opacity="0.1" d="M276.77 465.182C276.791 465.477 276.76 465.773 276.678 466.057C276.678 466.057 255.719 469.551 251.43 466.057C250.222 465.037 248.814 464.281 247.296 463.836C245.777 463.391 244.183 463.268 242.614 463.475C242.614 463.475 234.497 463.695 233.149 461.027C232.585 459.901 232.726 457.735 233.076 455.593C236.2 455.905 241.132 456.682 243.068 458.536C245.996 461.357 250.959 464.172 254.004 464.393C256.387 464.546 270.643 464.999 276.77 465.182Z" fill="black"/>
<path opacity="0.1" d="M209.814 470.114C209.814 470.114 200.011 473.713 193.272 474.166C189.694 474.404 187.813 472.213 186.852 470.096C189.345 470.934 192.806 471.816 194.626 471.008C196.783 470.053 204.428 469.435 208.717 469.172C209.043 469.529 209.412 469.845 209.814 470.114Z" fill="black"/>
<path d="M224.357 180.141C216.27 177.001 205.867 166.629 208.465 161.782C209.042 160.559 209.384 159.239 209.476 157.89C209.643 156.059 209.667 154.217 209.549 152.382C209.367 149.377 209.005 146.385 208.465 143.423C208.465 143.423 233.712 143.992 232.242 147.707C231.813 148.796 231.745 150.687 231.862 152.805C231.978 154.922 232.284 157.315 232.603 159.34C233.044 162.119 233.485 164.236 233.485 164.236C233.485 164.236 231.941 166.396 231.035 166.512C230.128 166.629 235.96 184.614 224.357 180.141Z" fill="#CF6F80"/>
<path opacity="0.1" d="M203.692 454.485L203.502 454.693C195.955 445.575 186.826 456.939 186.826 456.939L186.691 456.7L187.157 451.536L201.475 447.821L203.502 454.014L203.692 454.485Z" fill="black"/>
<path opacity="0.1" d="M259.523 447.821C259.523 447.821 254.009 447.705 251.069 450.299C248.128 452.894 233.914 450.862 234.527 450.299C234.709 450.02 234.818 449.701 234.846 449.369L236.775 447.821L259.37 447.154C259.456 447.564 259.523 447.821 259.523 447.821Z" fill="black"/>
<path d="M213.086 376.216C212.675 377.231 212.363 378.282 212.154 379.356C211.644 382.297 211.502 385.29 211.732 388.266C211.958 392.549 211.732 421.256 211.732 421.256C211.732 421.256 206.886 428.912 204.184 431.61C201.482 434.309 209.698 439.156 209.698 439.156C210.923 446.132 203.498 454.014 203.498 454.014C195.95 444.896 186.821 456.266 186.821 456.266C186.821 456.266 181.859 447.699 180.621 444.639C179.384 441.579 185.468 439.462 187.606 438.22C189.744 436.977 187.502 429.652 187.502 429.652C187.502 429.652 185.694 423.233 183.55 417.376C181.406 411.52 185.915 382.367 185.915 382.367C185.915 382.367 186.148 377.189 186.705 375.384C186.986 374.081 187.042 372.74 186.871 371.419C186.834 370.972 186.791 370.599 186.76 370.348C186.73 370.097 186.705 369.981 186.705 369.981L186.791 369.834L189.854 364.13C189.854 364.13 214.556 372.624 213.086 376.216Z" fill="#28DF99"/>
<path d="M259.524 447.148C259.524 447.148 254.01 447.032 251.069 449.596C248.129 452.16 233.915 450.159 234.528 449.596C235.14 449.033 235.091 444.865 235.091 444.865C226.753 433.495 233.866 428.881 233.866 428.881C233.866 428.881 230.141 410.981 229.467 404.342C228.996 399.703 228.414 387.238 228.101 380.121C227.966 377.061 227.887 374.956 227.887 374.956L234.699 373.585L235.575 373.408L252.007 370.115C252.007 370.115 252.46 373.175 252.766 375.678C252.919 376.747 253.005 377.824 253.024 378.903C252.913 380.127 253.024 383.958 253.024 383.958L253.581 395.444C253.217 396.649 253.029 397.9 253.024 399.159C253.134 400.621 255.272 421.562 255.272 421.562C255.272 421.562 258.991 434.058 257.723 434.958C256.454 435.857 259.524 447.148 259.524 447.148Z" fill="#28DF99"/>
<path opacity="0.1" d="M232.242 147.707C231.813 148.796 231.745 150.687 231.862 152.805C228.48 154.839 224.592 155.879 220.646 155.805C216.699 155.731 212.853 154.547 209.549 152.388C209.367 149.381 209.005 146.387 208.465 143.423C208.465 143.423 233.712 143.98 232.242 147.707Z" fill="black"/>
<path d="M242.002 134.183C242.007 136.388 241.66 138.58 240.973 140.676C239.438 145.372 236.291 149.374 232.087 151.976C227.883 154.579 222.894 155.613 218.001 154.896C213.108 154.179 208.626 151.757 205.348 148.059C202.069 144.36 200.205 139.623 200.085 134.685C200.085 134.513 200.085 134.354 200.085 134.183C200.038 131.403 200.545 128.642 201.577 126.06C202.609 123.478 204.145 121.127 206.096 119.144C208.048 117.162 210.374 115.587 212.941 114.512C215.508 113.437 218.264 112.884 221.047 112.884C223.83 112.884 226.586 113.437 229.152 114.512C231.719 115.587 234.046 117.162 235.997 119.144C237.949 121.127 239.485 123.478 240.517 126.06C241.549 128.642 242.056 131.403 242.009 134.183H242.002Z" fill="#CF6F80"/>
<path opacity="0.1" d="M224.357 180.141C216.27 177.001 205.867 166.629 208.465 161.782C209.042 160.559 209.384 159.239 209.476 157.89L220.546 166.978L227.395 172.589L232.603 159.346C233.044 162.125 233.485 164.242 233.485 164.242C233.485 164.242 231.941 166.402 231.035 166.519C230.128 166.635 235.96 184.614 224.357 180.141Z" fill="black"/>
<path d="M252.987 220.303L243.742 375.433L231.685 376.223L200.465 286.272L205.587 179.48L206.665 156.917L220.547 168.305L227.403 173.917L232.764 160.289L242.731 168.966L252.987 220.303Z" fill="#28DF99"/>
<path opacity="0.1" d="M213.085 376.216C212.675 377.23 212.363 378.282 212.154 379.356C203.381 378.003 194.86 375.344 186.876 371.468L186.711 371.382L186.766 370.397L186.797 369.883L189.86 364.179C189.86 364.179 214.556 372.624 213.085 376.216Z" fill="black"/>
<path opacity="0.1" d="M234.84 379.38C232.597 379.761 230.335 380.019 228.064 380.151C227.929 377.092 227.85 374.986 227.85 374.986L234.662 373.616L234.84 379.38Z" fill="black"/>
<path opacity="0.1" d="M252.73 375.708C248.374 376.841 241.647 378.113 235.625 377.318L235.539 373.438L251.97 370.146C251.97 370.146 252.424 373.175 252.73 375.708Z" fill="black"/>
<path opacity="0.1" d="M235.514 378.028C210.395 382.311 187.391 370.03 187.391 370.03L187.611 365.868C187.611 365.868 188.181 318.693 186.6 315.076C185.02 311.46 183.788 293.119 184.683 290.304C185.577 287.489 181.417 245.277 181.417 245.277L180.743 228.142L156.078 218.161L167.106 195.201C168.595 191.982 169.876 188.67 170.941 185.287C172.859 179.327 181.76 173.47 181.76 173.47C181.76 173.47 190.889 167.62 194.497 167.84C198.106 168.061 202.835 162.663 202.835 162.663C206.327 153.772 209.489 157.798 209.489 157.798C209.489 158.22 209.489 157.798 209.317 159.114C208.092 168.875 229.13 199.717 229.43 200.262L231.434 249.01L233.462 310.701L235.514 378.028Z" fill="black"/>
<path d="M234.839 378.028C209.72 382.311 186.709 370.03 186.709 370.03L186.936 365.868C186.936 365.868 187.506 318.693 185.919 315.076C184.332 311.46 183.107 293.119 184.008 290.304C184.908 287.489 180.742 245.277 180.742 245.277L180.062 228.142L155.385 218.124L166.412 195.164C167.899 191.943 169.18 188.632 170.248 185.25C172.159 179.29 181.067 173.434 181.067 173.434C181.067 173.434 190.195 167.583 193.798 167.804C197.4 168.024 202.136 162.626 202.136 162.626C205.634 153.735 209.488 157.761 209.488 157.761C209.488 158.184 209.12 158.373 209.316 159.077C212.012 168.544 228.455 199.68 228.755 200.225L230.783 248.973L232.811 310.664L234.839 378.028Z" fill="white"/>
<path opacity="0.1" d="M228.069 201.614C225.368 200.488 211.056 184.167 211.056 184.167V180.453C210.535 179.229 207.442 179.975 204.93 180.832L206.008 158.269L207.233 159.285C209.917 168.746 227.757 201.069 228.069 201.614Z" fill="black"/>
<path d="M228.751 200.262C226.043 199.136 211.732 182.815 211.732 182.815V179.1C211.211 177.876 208.117 178.623 205.605 179.48L206.69 156.917L207.915 157.933C210.605 167.394 228.451 199.723 228.751 200.262Z" fill="white"/>
<path opacity="0.1" d="M187.39 281.657C187.727 281.657 204.857 279.858 204.857 279.858C204.857 279.858 215.229 300.23 214.549 305.187C213.869 310.144 212.637 314.532 208.465 313.754C204.293 312.977 186.012 314.366 186.012 314.366L187.39 281.657Z" fill="black"/>
<path d="M186.71 280.305C187.047 280.305 204.177 278.506 204.177 278.506C204.177 278.506 214.543 298.884 213.869 303.835C213.195 308.785 211.952 313.179 207.786 312.402C203.62 311.625 185.332 313.014 185.332 313.014L186.71 280.305Z" fill="white"/>
<path d="M199.619 270.74C199.619 270.74 215.34 279.179 215.677 281.755C216.014 284.332 207.676 280.629 205.874 280.183C204.689 279.897 203.482 279.709 202.266 279.62L190.252 279.944L199.619 270.74Z" fill="#CF6F80"/>
<path opacity="0.1" d="M223.683 202.667C224.597 202.667 225.338 201.927 225.338 201.014C225.338 200.102 224.597 199.362 223.683 199.362C222.77 199.362 222.029 200.102 222.029 201.014C222.029 201.927 222.77 202.667 223.683 202.667Z" fill="black"/>
<path d="M223.683 201.993C224.597 201.993 225.338 201.254 225.338 200.341C225.338 199.429 224.597 198.689 223.683 198.689C222.77 198.689 222.029 199.429 222.029 200.341C222.029 201.254 222.77 201.993 223.683 201.993Z" fill="#3F3D56"/>
<path opacity="0.1" d="M226.728 274.192C227.642 274.192 228.382 273.452 228.382 272.539C228.382 271.627 227.642 270.887 226.728 270.887C225.815 270.887 225.074 271.627 225.074 272.539C225.074 273.452 225.815 274.192 226.728 274.192Z" fill="black"/>
<path d="M226.728 273.512C227.642 273.512 228.382 272.773 228.382 271.86C228.382 270.948 227.642 270.208 226.728 270.208C225.815 270.208 225.074 270.948 225.074 271.86C225.074 272.773 225.815 273.512 226.728 273.512Z" fill="#3F3D56"/>
<path opacity="0.1" d="M225.332 238.429C226.245 238.429 226.986 237.689 226.986 236.777C226.986 235.864 226.245 235.125 225.332 235.125C224.418 235.125 223.678 235.864 223.678 236.777C223.678 237.689 224.418 238.429 225.332 238.429Z" fill="black"/>
<path d="M225.332 237.756C226.245 237.756 226.986 237.016 226.986 236.104C226.986 235.191 226.245 234.451 225.332 234.451C224.418 234.451 223.678 235.191 223.678 236.104C223.678 237.016 224.418 237.756 225.332 237.756Z" fill="#3F3D56"/>
<path d="M263.463 279.277C263.463 279.277 264.59 280.966 263.463 281.755C262.336 282.545 263.573 284.454 263.573 284.454C263.573 284.454 260.761 286.1 261.999 287.581C263.236 289.062 262.452 295.751 262.452 295.751L259.07 301.344C259.07 301.344 259.272 304.948 259.285 309.819C259.285 317.42 258.837 328.105 256.362 332.976L256.705 372.942C256.705 372.942 244.863 377.263 234.95 375.947L233.48 311.814C233.48 311.814 235.624 275.446 236.414 268.47C236.877 264.848 237.065 261.197 236.978 257.546C236.978 257.546 236.641 246.629 235.508 241.562C235.508 241.562 234.282 219.611 234.16 213.535C234.105 210.628 234.258 202.146 234.429 194.081C234.619 185.263 234.834 176.946 234.834 176.946L232.598 159.273C232.598 159.273 234.834 159.047 235.508 159.946C235.81 160.228 236.138 160.48 236.488 160.699C240.348 163.306 253.985 171.322 253.985 171.322C253.985 171.322 261.533 174.321 263.34 178.617C265.148 182.913 266.404 185.96 267.28 187.184C268.156 188.408 268.634 194.16 268.634 194.16C268.634 194.16 271.231 204.747 273.259 206.54C275.287 208.333 276.77 219.74 276.77 219.74L258.85 233.815C258.85 233.815 257.275 257.228 256.938 258.134C256.601 259.04 263.463 279.277 263.463 279.277Z" fill="white"/>
<path d="M264.143 279.277C264.143 279.277 265.264 280.966 264.143 281.755C263.022 282.545 264.247 284.454 264.247 284.454C264.247 284.454 261.453 286.119 262.679 287.599C263.904 289.08 263.132 295.769 263.132 295.769L259.75 301.362C259.75 301.362 259.952 304.967 259.971 309.838C259.971 317.438 259.523 328.123 257.048 332.994L257.385 372.961C257.385 372.961 245.524 377.281 235.624 375.965L234.16 311.833C234.16 311.833 236.304 275.464 237.094 268.488C237.557 264.866 237.744 261.215 237.652 257.565C237.652 257.565 237.315 246.648 236.188 241.581C236.188 241.581 234.962 219.63 234.834 213.553C234.779 210.646 234.938 202.165 235.103 194.099C235.293 185.281 235.508 176.964 235.508 176.964L232.555 159.053C232.555 159.053 235.508 159.053 236.188 159.964C236.487 160.249 236.815 160.502 237.168 160.717C241.028 163.324 254.671 171.341 254.671 171.341C254.671 171.341 262.213 174.339 264.02 178.635C265.828 182.931 267.084 185.979 267.966 187.202C268.848 188.426 269.314 194.179 269.314 194.179C269.314 194.179 271.911 204.766 273.939 206.559C275.967 208.352 277.431 219.734 277.431 219.734L259.511 233.809C259.511 233.809 257.937 257.222 257.594 258.128C257.251 259.033 264.143 279.277 264.143 279.277Z" fill="white"/>
<path opacity="0.1" d="M242.681 182.16L244.299 186.872L235.783 195.439C235.973 186.627 236.187 178.305 236.187 178.305L233.234 160.393C233.234 160.393 236.187 160.393 236.867 161.305C237.166 161.589 237.494 161.839 237.848 162.051L245.089 182.919L242.681 182.16Z" fill="black"/>
<path d="M242.002 180.808L243.625 185.52L235.109 194.087C235.299 185.269 235.514 176.952 235.514 176.952L232.555 159.04C232.555 159.04 235.514 159.04 236.188 159.952C236.488 160.236 236.817 160.488 237.168 160.705L244.416 181.566L242.002 180.808Z" fill="white"/>
<path opacity="0.1" d="M242.002 134.183C242.007 136.388 241.66 138.58 240.973 140.676C240.857 140.694 240.739 140.688 240.626 140.66C240.512 140.632 240.405 140.581 240.312 140.51C240.152 135.003 237.438 129.832 234.099 125.432C233.162 124.104 232.025 122.927 230.73 121.944C229.42 120.961 227.791 120.501 226.159 120.653C224.321 120.904 222.698 122.152 220.842 122.311C218.391 122.513 216.198 120.818 213.766 120.732C212.777 120.742 211.801 120.961 210.904 121.377C210.008 121.793 209.21 122.395 208.564 123.143C207.286 124.653 206.337 126.412 205.777 128.308C204.813 131.183 204.289 134.187 204.22 137.218C204.19 138.932 204.024 141.08 202.432 141.704C202.551 140.444 202.408 139.172 202.01 137.97C201.613 136.769 200.97 135.662 200.122 134.721L200.085 134.685C200.085 134.513 200.085 134.354 200.085 134.183C200.038 131.403 200.545 128.642 201.577 126.06C202.609 123.478 204.145 121.127 206.096 119.144C208.048 117.162 210.374 115.587 212.941 114.512C215.508 113.437 218.264 112.884 221.047 112.884C223.83 112.884 226.586 113.437 229.152 114.512C231.719 115.587 234.046 117.162 235.997 119.144C237.949 121.127 239.485 123.478 240.517 126.06C241.549 128.642 242.056 131.403 242.009 134.183H242.002Z" fill="black"/>
<path d="M229.725 100.936C226.541 99.4397 222.92 99.1568 219.542 100.14C217.845 100.642 216.246 101.456 214.525 101.866C210.849 102.753 206.56 101.792 203.405 103.94C201.653 105.164 200.599 107.098 199.619 108.977L197.169 113.64C195.833 116.192 194.485 118.786 193.928 121.595C193.37 124.404 193.707 127.549 195.49 129.807C196.789 131.454 198.706 132.488 200.115 134.036C200.96 134.978 201.6 136.084 201.996 137.284C202.393 138.484 202.537 139.754 202.419 141.012C204.018 140.4 204.171 138.246 204.208 136.533C204.276 133.502 204.801 130.498 205.764 127.623C206.323 125.726 207.273 123.967 208.551 122.458C209.198 121.71 209.995 121.109 210.892 120.693C211.789 120.277 212.764 120.057 213.753 120.047C216.203 120.132 218.403 121.821 220.829 121.62C222.667 121.467 224.297 120.212 226.147 119.967C227.778 119.813 229.408 120.274 230.717 121.258C232.012 122.24 233.147 123.417 234.081 124.747C237.426 129.147 240.14 134.305 240.299 139.825C240.991 140.333 241.99 139.672 242.333 138.889C242.676 138.106 242.688 137.188 243.123 136.441C243.626 135.578 244.587 135.119 245.341 134.471C247.252 132.824 247.73 130.052 247.657 127.537C247.583 125.022 247.093 122.47 247.571 119.998C247.859 118.48 248.508 117.06 248.864 115.561C249.219 114.062 249.262 112.379 248.423 111.088C247.197 109.191 244.618 108.817 242.37 108.64C239.815 108.42 237.53 108.701 235.9 106.553C235.135 105.432 234.274 104.38 233.327 103.408C233.002 103.09 229.725 101.07 229.725 100.936Z" fill="#512E4E"/>
<path opacity="0.1" d="M163.135 229.984L156.733 218.161L154.705 236.403C154.705 236.403 155.832 244.506 155.606 245.748C155.379 246.99 160.225 258.128 160.225 258.128C160.225 258.128 176.234 286.608 182.77 288.077L204.856 272.313L198.999 264.884C198.999 264.884 196.972 264.094 196.463 264.884C196.463 264.884 185.589 246.195 184.461 244.842C183.334 243.49 183.555 240.791 183.555 240.791C183.555 240.791 181.864 238.992 182.427 237.303C182.991 235.614 179.162 229.758 179.162 229.758L182.654 226.496L163.135 229.984Z" fill="black"/>
<path d="M157.07 216.815L155.379 218.161L153.352 236.404C153.352 236.404 154.479 244.506 154.252 245.748C154.025 246.99 158.878 258.128 158.878 258.128C158.878 258.128 174.88 286.608 181.417 288.077L203.509 272.313L197.646 264.884C197.646 264.884 195.618 264.094 195.11 264.884C195.11 264.884 184.235 246.195 183.108 244.842C181.981 243.49 182.207 240.791 182.207 240.791C182.207 240.791 180.516 238.992 181.08 237.303C181.644 235.614 177.808 229.758 177.808 229.758L181.301 226.496L157.07 216.815Z" fill="white"/>
<path opacity="0.1" d="M261.998 288.279C263.224 289.766 262.452 296.442 262.452 296.442L259.07 302.035C259.07 302.035 259.272 305.646 259.284 310.511L253.599 312.286C253.085 312.446 252.54 312.481 252.01 312.388C251.48 312.296 250.98 312.078 250.551 311.752C250.122 311.427 249.778 311.004 249.546 310.519C249.314 310.034 249.202 309.5 249.218 308.963L250.199 277.38L263.462 282.447C262.335 283.23 263.573 285.152 263.573 285.152C263.573 285.152 260.761 286.792 261.998 288.279Z" fill="black"/>
<path d="M262.678 287.6C263.903 289.087 263.131 295.769 263.131 295.769L259.75 301.362C259.75 301.362 259.952 304.967 259.97 309.838L254.181 311.643C253.677 311.799 253.144 311.833 252.625 311.742C252.106 311.651 251.617 311.437 251.197 311.118C250.778 310.8 250.44 310.386 250.213 309.911C249.986 309.436 249.876 308.914 249.892 308.388L250.878 276.707L264.148 281.774C263.015 282.557 264.253 284.472 264.253 284.472C264.253 284.472 261.453 286.119 262.678 287.6Z" fill="white"/>
<path d="M267.072 272.545C267.072 272.545 266.171 278.292 263.917 278.628C261.662 278.965 260.651 287.924 258.403 287.606C256.155 287.287 257.643 279.277 257.723 277.723C257.803 276.168 255.272 269.731 257.165 268.268C259.059 266.805 265.05 268.268 265.05 268.268L267.072 272.545Z" fill="#CF6F80"/>
<path opacity="0.1" d="M271.868 228.295L276.119 219.728C276.119 219.728 277.81 226.257 277.81 229.745C277.81 233.234 280.175 233.576 280.175 233.576C280.175 233.576 282.767 236.636 281.4 238.864C280.034 241.091 279.483 246.635 279.483 246.635C279.483 246.635 279.93 257.216 277.902 258.679C275.874 260.141 275.452 263.635 275.452 263.635C275.452 263.635 271.727 270.275 271.843 271.854C271.96 273.433 266.66 284.124 266.66 284.124C266.66 284.124 269.252 270.838 254.15 265.098C254.15 265.098 254.034 260.588 255.161 259.352C256.288 258.116 258.046 257.553 256.944 251.305C255.841 245.057 256.625 237.591 256.625 236.091C256.625 234.592 260.007 225.241 260.007 225.241L271.868 228.295Z" fill="black"/>
<path d="M273.706 218.504L277.419 219.728C277.419 219.728 279.116 226.257 279.116 229.745C279.116 233.234 281.48 233.576 281.48 233.576C281.48 233.576 284.072 236.636 282.706 238.864C281.34 241.091 280.794 246.635 280.794 246.635C280.794 246.635 281.242 257.216 279.214 258.679C277.186 260.141 276.732 263.635 276.732 263.635C276.732 263.635 273.014 270.275 273.13 271.854C273.246 273.433 267.941 284.124 267.941 284.124C267.941 284.124 270.539 270.838 255.431 265.098C255.431 265.098 255.32 260.588 256.448 259.352C257.575 258.116 259.333 257.553 258.23 251.305C257.128 245.057 257.912 237.591 257.912 236.091C257.912 234.592 261.294 225.242 261.294 225.242L273.706 218.504Z" fill="white"/>
<path opacity="0.1" d="M191.703 440.563C191.703 440.563 197.621 436.849 201.505 439.547C205.39 442.246 191.703 440.563 191.703 440.563Z" fill="black"/>
<path opacity="0.1" d="M237.689 429.077C237.689 429.077 242.928 428.404 247.326 433.134C251.725 437.864 237.689 429.077 237.689 429.077Z" fill="black"/>
<g opacity="0.1">
<path opacity="0.1" d="M245.353 133.13C244.6 133.779 243.632 134.244 243.129 135.107C242.7 135.847 242.688 136.759 242.345 137.555C242.002 138.35 241.003 138.999 240.311 138.497C240.152 132.99 237.432 127.819 234.093 123.412C233.159 122.083 232.025 120.906 230.729 119.924C229.418 118.94 227.786 118.479 226.153 118.633C224.315 118.884 222.697 120.132 220.841 120.285C218.391 120.493 216.191 118.798 213.759 118.713C212.771 118.722 211.796 118.943 210.9 119.36C210.004 119.777 209.207 120.38 208.564 121.13C207.285 122.637 206.335 124.394 205.776 126.289C204.813 129.164 204.289 132.168 204.22 135.199C204.183 136.906 204.024 139.036 202.443 139.672C202.48 140.124 202.48 140.578 202.443 141.031C204.036 140.419 204.196 138.265 204.232 136.551C204.301 133.52 204.825 130.516 205.788 127.641C206.348 125.744 207.297 123.985 208.576 122.476C209.221 121.729 210.018 121.127 210.913 120.711C211.809 120.296 212.783 120.075 213.771 120.065C216.222 120.151 218.427 121.84 220.853 121.638C222.691 121.485 224.321 120.23 226.165 119.986C227.798 119.832 229.43 120.292 230.742 121.277C232.037 122.258 233.171 123.435 234.105 124.765C237.444 129.165 240.164 134.324 240.323 139.843C241.016 140.351 242.014 139.69 242.357 138.907C242.7 138.124 242.713 137.206 243.142 136.459C243.644 135.596 244.612 135.137 245.365 134.489C247.277 132.843 247.755 130.071 247.681 127.555C247.681 127.476 247.681 127.396 247.681 127.323C247.565 129.501 246.983 131.723 245.353 133.13Z" fill="black"/>
<path opacity="0.1" d="M200.128 132.696C198.719 131.148 196.795 130.113 195.502 128.473C194.414 127.021 193.792 125.274 193.719 123.461C193.527 125.726 194.16 127.984 195.502 129.82C196.795 131.466 198.719 132.5 200.128 134.048C201.481 135.563 202.293 137.482 202.437 139.507C202.531 138.275 202.375 137.036 201.978 135.866C201.581 134.696 200.952 133.617 200.128 132.696Z" fill="black"/>
<path opacity="0.1" d="M248.875 114.221C248.514 115.72 247.871 117.146 247.576 118.658C247.402 119.668 247.339 120.694 247.387 121.717C247.407 121.134 247.471 120.553 247.576 119.979C247.871 118.462 248.514 117.042 248.875 115.543C249.086 114.716 249.154 113.859 249.077 113.009C249.039 113.418 248.972 113.822 248.875 114.221Z" fill="black"/>
</g>
<path opacity="0.1" d="M81.3175 465.445C114.287 465.445 141.014 461.157 141.014 455.868C141.014 450.579 114.287 446.291 81.3175 446.291C48.3481 446.291 21.6211 450.579 21.6211 455.868C21.6211 461.157 48.3481 465.445 81.3175 465.445Z" fill="#28DF99"/>
<path d="M83.2397 272.405H79.3984V358.794H83.2397V272.405Z" fill="#535461"/>
<path d="M107.378 358.531L107.139 362.423L106.796 367.931L106.655 370.219L106.318 375.727L106.171 378.016L105.828 383.523L101.956 445.985C101.788 448.673 100.601 451.195 98.6363 453.039C96.6719 454.883 94.0778 455.91 91.382 455.911H71.2504C68.5552 455.91 65.9618 454.883 63.9984 453.039C62.0349 451.195 60.849 448.672 60.6822 445.985L56.8287 383.48L56.4856 377.973L56.3447 375.684L56.0016 370.176L55.8607 367.888L55.5176 362.38L55.2725 358.488C55.23 357.739 55.3411 356.989 55.599 356.285C55.857 355.58 56.2564 354.935 56.7727 354.39C57.289 353.845 57.9114 353.412 58.6016 353.115C59.2917 352.819 60.0352 352.667 60.7864 352.668H101.962C102.711 352.675 103.45 352.834 104.134 353.137C104.818 353.44 105.433 353.88 105.94 354.429C106.448 354.978 106.837 355.626 107.085 356.331C107.332 357.037 107.432 357.785 107.378 358.531Z" fill="#3F3D56"/>
<path d="M107.14 362.423L106.797 367.912H55.8372L55.4941 362.423H107.14Z" fill="#9D9CB5"/>
<path d="M106.657 370.201L106.32 375.696H56.3216L55.9785 370.201H106.657Z" fill="#9D9CB5"/>
<path d="M106.171 377.991L105.834 383.48H56.804L56.4609 377.991H106.171Z" fill="#9D9CB5"/>
<path d="M49.6306 304.783C71.9984 320.951 81.3351 346.237 81.3351 346.237C81.3351 346.237 54.3786 345.313 32.0048 329.145C9.63087 312.977 0.3125 287.697 0.3125 287.697C0.3125 287.697 27.2567 288.615 49.6306 304.783Z" fill="#28DF99"/>
<path d="M0.292969 287.697C0.292969 287.697 28.2787 303.21 37.254 316.055C46.2293 328.9 81.334 346.237 81.334 346.237" stroke="#535461" stroke-width="2" stroke-miterlimit="10"/>
<path d="M64.0708 272.215C76.2441 281.009 81.3352 294.772 81.3352 294.772C81.3352 294.772 66.6623 294.27 54.4829 285.476C42.3035 276.682 37.2246 262.913 37.2246 262.913C37.2246 262.913 51.8914 263.415 64.0708 272.215Z" fill="#28DF99"/>
<path d="M37.2246 262.913C37.2246 262.913 52.455 271.358 57.3378 278.347C62.2206 285.335 81.3352 294.772 81.3352 294.772" stroke="#535461" stroke-width="2" stroke-miterlimit="10"/>
<path d="M99.0103 294.074C85.0235 309.428 82.0645 329.494 82.0645 329.494C82.0645 329.494 101.786 324.659 115.76 309.299C129.735 293.939 132.706 273.88 132.706 273.88C132.706 273.88 112.997 278.72 99.0103 294.074Z" fill="#28DF99"/>
<path d="M132.718 273.886C132.718 273.886 114.498 289.625 109.866 300.469C105.235 311.313 82.0645 329.494 82.0645 329.494" stroke="#535461" stroke-width="2" stroke-miterlimit="10"/>
<path d="M612.446 288.67C612.446 288.67 602.331 238.405 606.203 232.15C606.203 232.15 606.344 226.337 606.111 218.926C606.111 218.645 606.111 218.363 606.111 218.076C606.792 218.529 607.503 218.938 608.237 219.299C611.805 221.13 615.9 221.658 619.816 220.793L616.753 217.384C616.018 216.57 615.252 215.689 615.093 214.612C614.933 213.535 615.374 212.574 615.754 211.613C618.664 204.27 618.818 195.035 613.212 189.43C608.476 184.718 607.324 178.635 602.184 174.333C598.429 171.182 596.364 166.561 594.416 162.094C592.768 158.318 591.107 154.512 590.164 150.51C589.429 147.383 589.135 144.145 588.124 141.092C587.113 138.038 585.22 135.07 582.261 133.706C581.207 133.222 580.037 132.947 579.075 132.304C577.813 131.454 577.053 130.071 576.14 128.859C571.503 122.739 555.972 126.344 548.62 128.828C546.622 129.454 544.771 130.478 543.18 131.839L543.247 131.729C543.303 131.637 543.37 131.545 543.431 131.454C542.627 132.104 541.932 132.878 541.373 133.748C540.301 135.444 539.853 137.42 538.959 139.256C537.881 141.428 531.883 147.493 534.462 149.935C534.643 150.099 534.85 150.231 535.075 150.326C536.043 150.729 537.109 150.835 538.138 150.632L538.028 150.895C537.147 153.05 536.695 155.355 536.698 157.682C536.698 167.736 545 175.887 555.249 175.887C557.176 175.889 559.092 175.594 560.928 175.012C560.971 175.245 561.008 175.477 561.051 175.71C561.051 175.802 561.082 175.894 561.094 175.985L560.769 176.438C560.753 176.41 560.734 176.384 560.714 176.359L551.095 189.785C549.625 190.819 541.158 196.939 540.68 201.528C540.178 206.552 539.676 212.433 539.676 212.433L539.608 213.694C539.188 214.045 538.696 214.3 538.167 214.443C537.639 214.586 537.085 214.612 536.545 214.52C533.543 214.031 533.543 225.535 533.543 225.535C533.543 225.535 531.546 227.371 530.174 225.78C528.801 224.189 525.174 229.58 525.174 229.58L502.445 230.559L501.924 230.59L500.699 226.802C500.567 226.402 500.283 226.071 499.908 225.88C499.533 225.688 499.097 225.652 498.696 225.78C498.601 225.811 498.509 225.85 498.42 225.896L498.334 225.945L498.175 226.055L498.095 226.129C498.051 226.169 498.01 226.212 497.973 226.257L497.899 226.343L497.863 226.38C497.721 226.575 497.627 226.801 497.589 227.039C497.551 227.277 497.569 227.521 497.642 227.75L498.696 231C494.309 231.881 489.825 234.366 493.482 241.207L474.943 237.787L480.941 242.817L511.904 249.199C511.494 249.934 511.763 250.999 513.044 252.498C518.558 258.966 528.605 260.723 532.649 261.175C533.716 263.561 535.05 265.819 536.625 267.907L536.276 274.351C536.276 274.351 526.038 323.466 524.163 325.957C525.11 324.886 525.976 323.746 526.755 322.548C523.784 332.639 519.63 346.451 518.539 348.519C516.787 351.824 515.164 365.195 517.161 366.052C517.774 366.315 519.526 366.187 522.025 365.997V367.104L521.915 409.078C521.915 409.078 522.417 434.823 521.039 437.277C519.661 439.731 519.293 444.878 519.293 444.878C519.293 444.878 513.779 455.03 509.411 459.112C509.381 459.143 509.348 459.172 509.313 459.197L509.178 458.243C509.178 458.243 503.928 464.864 492.312 464.491C492.312 464.491 485.322 469.031 495.688 469.276C506.054 469.521 519.293 468.909 519.293 468.909C519.293 468.909 528.538 454.834 536.282 456.67V467.336H538.653V456.499C539.752 455.775 540.693 454.837 541.419 453.74C542.144 452.643 542.639 451.41 542.874 450.116C543.077 448.782 542.928 447.419 542.442 446.16C541.957 444.901 541.151 443.79 540.105 442.938C539.634 442.513 539.257 441.996 538.997 441.419C538.736 440.842 538.598 440.217 538.591 439.584L538.506 439.658C538.506 439.443 538.45 439.223 538.426 438.997C537.746 433.489 536.894 422.125 539.902 413.717C544.025 402.188 545.275 386.13 542.273 376.571C541.305 373.516 540.509 370.408 539.89 367.264C539.817 366.866 539.749 366.486 539.688 366.131C541.74 366.409 543.772 366.818 545.772 367.355C552.725 369.271 567.937 369.626 580.925 369.522C580.956 369.877 580.993 370.25 581.036 370.623C581.267 373.218 581.751 375.784 582.481 378.285C584.111 383.18 584.858 404.764 584.858 404.764C584.858 404.764 586.96 422.511 585.814 429.732C585.202 433.746 584.589 437.779 584.24 441.83V441.91C584.24 441.91 580.797 451.701 578.279 457.019C578.217 457.153 578.15 457.288 578.089 457.416C577.417 457.478 576.757 457.624 576.122 457.851C576.122 457.851 572.746 464.582 569.383 465.696C566.02 466.81 567.135 470.476 574.75 469.129C582.365 467.783 593.864 466.681 593.864 466.681L594.361 459.815L596.701 456.89L596.088 463.738L598.582 463.248L598.251 454.92L602.08 450.134C602.08 450.134 606.705 446.022 599.832 437.932V438.109C599.758 437.993 599.691 437.871 599.611 437.754V437.718C598.471 435.955 597.565 432.669 599.225 426.837C602.227 416.299 603.973 406.735 603.973 406.735C603.973 406.735 610.675 381.112 602.619 368.989H602.974C602.149 367.283 601.565 365.471 601.241 363.604C601.2 363.384 601.163 363.157 601.13 362.925C607.091 362.582 612.942 361.505 617.715 359.18C617.696 359.155 614.823 298.352 612.446 288.67ZM536.766 246.262V246.384L535.54 246.446L536.766 246.262ZM532.563 246.843C532.361 246.888 532.173 246.978 532.011 247.107C531.485 247.851 531.154 248.716 531.05 249.622L529.138 249.193C529.138 249.193 527.796 248.906 525.867 248.581L524.954 247.663C527.466 247.455 530.076 247.149 532.563 246.843Z" fill="url(#paint1_linear)"/>
<path d="M595.805 455.005L595.076 463.677L597.521 463.187L597.153 453.781L595.805 455.005Z" fill="#1D2366"/>
<path d="M540.037 413.833C537.09 422.217 537.924 433.532 538.585 439.027C538.83 441.059 539.057 442.295 539.057 442.295C539.057 442.295 534.652 452.319 534.284 452.698C533.917 453.078 521.321 460.758 521.321 460.758L512.517 465.892C512.517 465.892 503.585 461.982 507.867 460.635C508.742 460.285 509.53 459.748 510.177 459.063C514.465 454.993 519.85 444.878 519.85 444.878C519.85 444.878 520.218 439.743 521.566 437.302C522.914 434.86 522.424 409.201 522.424 409.201L522.528 367.374V361.921L539.284 362.044C539.389 363.895 539.631 365.736 540.007 367.551C540.608 370.685 541.387 373.783 542.341 376.828C545.294 386.369 544.068 402.347 540.037 413.833Z" fill="#FFB0B1"/>
<path opacity="0.1" d="M539.057 442.295C539.057 442.295 534.652 452.319 534.284 452.698C533.917 453.078 521.321 460.758 521.321 460.758L512.517 465.892C512.517 465.892 503.585 461.982 507.867 460.635C508.742 460.285 509.53 459.748 510.177 459.063L510.557 461.737L513.491 461.615L538.61 439.04C538.83 441.059 539.057 442.295 539.057 442.295Z" fill="black"/>
<path d="M538.75 439.609L513.491 462.336L510.556 462.459L509.944 458.175C509.944 458.175 504.81 464.772 493.402 464.405C493.402 464.405 486.553 468.927 496.704 469.172C506.856 469.417 519.819 468.805 519.819 468.805C519.819 468.805 528.874 454.73 536.453 456.566V467.195H538.781V456.468C539.863 455.74 540.787 454.801 541.497 453.707C542.206 452.614 542.687 451.388 542.91 450.104C543.112 448.781 542.969 447.428 542.496 446.176C542.023 444.925 541.235 443.816 540.208 442.956C539.75 442.527 539.384 442.008 539.133 441.433C538.883 440.857 538.752 440.236 538.75 439.609Z" fill="#1D2366"/>
<path d="M598.133 426.904C596.504 432.718 597.392 435.992 598.507 437.748V437.785C599.937 439.953 600.932 442.379 601.435 444.926L601.533 445.477L590.04 462.214L583.804 464.662C583.804 464.662 573.775 461.241 575.606 460.262C576.066 460.023 576.783 458.75 577.604 456.994C580.054 451.701 583.436 441.934 583.436 441.934V441.854C583.791 437.822 584.355 433.801 584.98 429.799C586.101 422.596 584.042 404.917 584.042 404.917C584.042 404.917 583.307 383.419 581.714 378.53C580.995 376.044 580.517 373.494 580.287 370.917C579.956 367.857 579.883 365.336 579.883 365.336C579.883 365.336 586.487 356.157 598.593 366.07C599.561 366.861 600.413 367.784 601.123 368.812C609.486 380.696 602.753 406.875 602.753 406.875C602.753 406.875 601.068 416.397 598.133 426.904Z" fill="#FFB0B1"/>
<path opacity="0.1" d="M601.553 445.477L590.06 462.214L583.823 464.662C583.823 464.662 573.794 461.241 575.626 460.262C576.085 460.023 576.802 458.75 577.623 456.994C581.869 456.957 584.068 460.996 584.068 460.996L589.447 460.14C589.447 460.14 596.542 446.212 598.135 445.361C599.727 444.51 598.38 439.003 598.38 439.003V437.601C598.422 437.65 598.459 437.705 598.508 437.754V437.791C599.938 439.96 600.933 442.385 601.437 444.933L601.553 445.477Z" fill="black"/>
<path d="M584.434 461.357C584.434 461.357 581.371 455.74 575.502 457.814C575.502 457.814 572.2 464.546 568.898 465.635C565.595 466.724 566.698 470.396 574.16 469.056C581.622 467.716 592.87 466.608 592.87 466.608L593.361 459.76L600.945 450.11C600.945 450.11 605.466 446.016 598.74 437.956V439.358C598.74 439.358 600.087 444.865 598.495 445.716C596.902 446.566 589.832 460.501 589.832 460.501L584.434 461.357Z" fill="#1D2366"/>
<path opacity="0.1" d="M539.302 362.031C539.407 363.882 539.649 365.723 540.025 367.539C533.126 366.529 526.724 367.031 522.527 367.361V361.909L539.302 362.031Z" fill="black"/>
<path opacity="0.1" d="M601.804 370.335C601.804 370.335 592.002 370.813 580.313 370.911C579.982 367.851 579.908 365.33 579.908 365.33C579.908 365.33 586.513 356.15 598.618 366.064C599.587 366.855 600.438 367.778 601.149 368.806C601.339 369.327 601.558 369.838 601.804 370.335Z" fill="black"/>
<path d="M601.804 369.234C601.804 369.234 558.87 371.309 545.784 367.643C532.698 363.977 519.728 367.153 517.774 366.303C515.819 365.452 517.406 352.13 519.121 348.831C520.837 345.533 530.247 312.175 530.247 312.175L539.302 265.018L548.841 262.393L549.515 262.203L566.136 257.626L578.315 254.266C578.315 254.266 602.533 348.709 600.457 355.673C599.702 358.34 599.581 361.145 600.101 363.867C600.419 365.726 600.992 367.532 601.804 369.234Z" fill="#1D2366"/>
<path d="M507.738 232.769C507.738 232.769 499.161 241.948 505.655 247.064C512.149 252.18 516.419 247.553 516.419 247.553L507.738 232.769Z" fill="#C7DAF5"/>
<path opacity="0.1" d="M507.738 232.769C507.738 232.769 499.161 241.948 505.655 247.064C512.149 252.18 516.419 247.553 516.419 247.553L507.738 232.769Z" fill="black"/>
<path d="M577.034 172.418C577.034 172.418 576.03 173.372 574.516 174.78C572.36 176.793 569.168 179.737 566.338 182.203C562.417 185.611 559.182 188.114 560.34 185.979C561.498 183.843 561.277 180.122 560.701 176.64C560.658 176.408 560.622 176.175 560.579 175.949C560.102 173.391 559.47 170.866 558.686 168.385C558.686 168.385 565.02 160.209 568.525 156.984C569.83 155.76 570.742 155.259 570.798 156.109C570.859 157.254 571.717 159.781 572.783 162.461C572.813 162.547 572.844 162.626 572.881 162.712C573.591 164.548 574.394 166.433 575.098 168.061C576.177 170.557 577.034 172.418 577.034 172.418Z" fill="#FFB0B1"/>
<path opacity="0.1" d="M572.881 162.712C572.285 165.91 570.841 168.89 568.698 171.34C566.556 173.791 563.794 175.621 560.701 176.64C560.214 173.847 559.541 171.089 558.686 168.385C558.686 168.385 570.614 152.994 570.798 156.109C570.84 157.29 571.772 159.909 572.881 162.712Z" fill="black"/>
<path opacity="0.1" d="M559.512 180.753L561.056 178.58C561.056 178.58 562.079 184.81 565.84 182.062C569.602 179.314 569.786 202.74 569.786 202.74L565.748 263.036L536.574 261.292L537.401 232.157L540.703 217.47L548.87 196.119L553.728 189.063L559.512 180.753Z" fill="black"/>
<path d="M569.787 203.113L566.111 257.632L565.725 263.409L549.459 262.436L548.847 262.399L536.594 261.665L537.421 232.524L540.723 217.837L548.89 196.486L553.748 189.43L559.531 181.089L561.075 178.923C561.075 178.923 562.098 185.153 565.86 182.405L565.94 182.35C569.615 180.024 569.787 203.113 569.787 203.113Z" fill="#1D2366"/>
<path d="M541.133 212.733C541.133 212.733 539.668 215.793 536.728 215.297C533.787 214.802 533.793 226.312 533.793 226.312C533.793 226.312 531.839 228.148 530.491 226.557C529.143 224.966 525.59 230.345 525.59 230.345L503.326 231.324C503.326 231.324 513.233 235.847 511.291 249.53C511.291 249.53 544.925 247.449 546.028 244.273C547.131 241.097 541.133 212.733 541.133 212.733Z" fill="white"/>
<path opacity="0.03" d="M541.133 212.733C541.133 212.733 539.668 215.793 536.728 215.297C533.787 214.802 533.793 226.312 533.793 226.312C533.793 226.312 531.839 228.148 530.491 226.557C529.143 224.966 525.59 230.345 525.59 230.345L503.326 231.324C503.326 231.324 513.233 235.847 511.291 249.53C511.291 249.53 544.925 247.449 546.028 244.273C547.131 241.097 541.133 212.733 541.133 212.733Z" fill="black"/>
<path d="M476.432 238.515L482.301 243.521L530.614 253.661L524.622 247.553L476.432 238.515Z" fill="white"/>
<path d="M559.605 182.68C558.802 183.904 556.505 190.17 554.587 195.641C552.988 200.2 551.653 204.209 551.653 204.209C551.653 204.209 548.534 224.489 546.941 228.154C545.349 231.82 546.212 246.115 546.212 246.115L540.276 281.419C540.276 281.419 537.586 299.624 533.433 310.499C529.334 321.202 524.77 326.22 524.629 326.379C526.467 323.894 536.484 274.975 536.484 274.975L539.792 213.278C539.792 213.278 540.276 207.415 540.766 202.403C541.256 197.391 551.181 190.55 551.181 190.55L560.751 176.958C561.712 178.243 561.069 180.483 559.605 182.68Z" fill="white"/>
<path d="M534.651 261.971C534.651 261.971 520.56 261.359 513.735 253.171C506.911 244.983 529.511 249.903 529.511 249.903L535.386 251.25L534.651 261.971Z" fill="#FFB0B1"/>
<path opacity="0.1" d="M600.455 355.679C599.701 358.346 599.58 361.151 600.1 363.873C584.729 364.962 568.285 360.813 568.285 360.813C565.222 363.628 557.153 367.777 557.153 367.777L552.755 313.314C549.943 305.97 548.84 267.497 548.84 267.497C548.84 267.497 549.091 265.483 549.452 262.467C549.452 262.393 549.452 262.314 549.483 262.24C550.58 253.813 552.755 237.995 553.821 235.859C555.291 232.921 549.299 225.107 549.299 225.107L552.026 201.883L552.356 199.08C558.103 196.516 562.508 188.328 562.508 188.328L565.89 182.411C569.566 180.055 569.756 203.144 569.756 203.144L566.08 257.663L578.259 254.303C578.259 254.303 602.532 348.715 600.455 355.679Z" fill="black"/>
<path d="M616.232 359.443C599.476 367.753 569.022 360.055 569.022 360.055C565.958 362.87 557.89 367.019 557.89 367.019L553.485 312.555C550.679 305.211 549.576 266.738 549.576 266.738C549.576 266.738 553.117 238.031 554.588 235.1C555.016 234.243 554.808 232.97 554.3 231.6C551.8 225.075 550.88 218.053 551.616 211.105L552.793 201.124L553.117 198.328C558.87 195.758 563.275 187.57 563.275 187.57L566.338 182.209L571.975 172.332L574.646 167.657L575.099 168.067L578.561 171.2C578.561 171.2 580.031 172.424 582.236 174.26C587.033 178.299 595.323 185.409 599.599 189.76C603.36 193.591 604.549 208.492 604.892 219.709C605.119 227.096 604.984 232.885 604.984 232.885C601.192 239.121 611.11 289.184 611.11 289.184C613.42 298.859 616.232 359.443 616.232 359.443Z" fill="white"/>
<path opacity="0.03" d="M584.067 187.447C584.067 187.447 572.567 209.312 573.903 217.623C575.238 225.933 579.037 235.339 577.205 237.536C576.576 238.368 575.762 239.044 574.828 239.51C573.893 239.976 572.864 240.219 571.82 240.222C569.982 240.344 565.081 243.765 565.081 244.132C565.081 244.5 560.553 244.5 556.504 246.213C552.454 247.927 546.475 248.9 546.475 248.9C546.475 248.9 534.834 248.532 533.75 249.634C532.665 250.735 531.55 257.326 533.872 262.583C536.194 267.84 538.774 271.762 540.722 272.478C542.67 273.194 555.033 269.057 565.062 268.078C575.091 267.099 585.978 259.162 585.978 259.162C585.978 259.162 597.968 254.878 600.069 247.676C602.17 240.473 597.502 200.886 597.502 200.886C597.502 200.886 593.973 182.435 584.067 187.447Z" fill="black"/>
<path opacity="0.03" d="M582.598 185.611C582.598 185.611 571.098 207.483 572.446 215.787C573.794 224.091 577.58 233.503 575.742 235.706C575.115 236.539 574.303 237.216 573.369 237.682C572.436 238.148 571.407 238.391 570.363 238.392C568.525 238.515 563.624 241.936 563.624 242.303C563.624 242.67 559.096 242.67 555.047 244.377C550.997 246.085 545.018 247.064 545.018 247.064C545.018 247.064 533.378 246.697 532.299 247.798C531.221 248.9 530.094 255.496 532.422 260.747C534.75 265.998 537.323 269.926 539.271 270.642C541.219 271.358 553.583 267.221 563.612 266.248C573.641 265.275 584.528 257.326 584.528 257.326C584.528 257.326 596.511 253.043 598.588 245.846C600.665 238.649 596.021 199.05 596.021 199.05C596.021 199.05 592.504 180.606 582.598 185.611Z" fill="black"/>
<path d="M583.707 186.346C583.707 186.346 572.207 208.217 573.555 216.521C574.903 224.825 578.689 234.237 576.857 236.434C576.23 237.269 575.417 237.947 574.483 238.415C573.548 238.882 572.517 239.126 571.472 239.127C569.634 239.249 564.733 242.67 564.733 243.031C564.733 243.392 560.212 243.398 556.156 245.112C552.1 246.825 546.127 247.798 546.127 247.798C546.127 247.798 534.487 247.431 533.402 248.532C532.318 249.634 531.203 256.231 533.525 261.481C535.847 266.732 538.426 270.661 540.374 271.377C542.322 272.093 554.686 267.956 564.715 266.977C574.744 265.998 585.63 258.06 585.63 258.06C585.63 258.06 597.62 253.777 599.721 246.574C601.823 239.371 597.185 199.784 597.185 199.784C597.185 199.784 593.607 181.364 583.707 186.346Z" fill="white"/>
<path opacity="0.1" d="M583.455 245.008C583.455 245.008 574.265 243.172 577.463 246.232C580.661 249.291 580.643 251.972 584.557 251.849C588.472 251.727 583.455 245.008 583.455 245.008Z" fill="black"/>
<path opacity="0.1" d="M598.986 310.842C598.986 310.842 594.832 313.65 602.778 320.125C610.724 326.599 598.986 310.842 598.986 310.842Z" fill="black"/>
<path opacity="0.1" d="M591.057 333.93C591.057 334.298 589.587 347.393 595.089 350.667C600.59 353.941 591.057 333.93 591.057 333.93Z" fill="black"/>
<path d="M503.705 231.294C499.27 231.447 489.688 232.799 494.657 242.058C499.049 250.252 506.432 244.775 510.585 240.62C509.572 236.746 507.11 233.408 503.705 231.294Z" fill="#FFB0B1"/>
<path d="M510.643 240.546L510.826 240.357L510.643 240.546Z" fill="#FFB0B1"/>
<path opacity="0.1" d="M582.235 174.633C577.53 177.846 573.584 180.557 572.812 181.12C570.705 182.68 566.686 191.841 564.094 196.516C562.03 200.28 555.321 201.247 552.791 201.486L553.116 198.689C558.868 196.119 563.273 187.931 563.273 187.931L574.644 168.018L578.559 171.573C578.559 171.573 580.029 172.797 582.235 174.633Z" fill="black"/>
<path d="M582.235 174.266C577.53 177.479 573.584 180.19 572.812 180.759C570.705 182.313 566.686 191.474 564.094 196.149C562.03 199.913 555.321 200.88 552.791 201.118L553.116 198.322C558.868 195.752 563.273 187.564 563.273 187.564L574.644 167.651L578.559 171.194C578.559 171.194 580.029 172.406 582.235 174.266Z" fill="#DCE7FF"/>
<path d="M573.18 158.673C573.183 162.347 572.067 165.934 569.982 168.96C567.519 172.538 563.854 175.115 559.652 176.225C555.449 177.334 550.988 176.902 547.077 175.006C543.166 173.111 540.065 169.878 538.337 165.895C536.608 161.911 536.366 157.44 537.655 153.294C538.944 149.147 541.679 145.6 545.363 143.295C549.046 140.99 553.435 140.08 557.733 140.731C562.03 141.382 565.952 143.55 568.786 146.842C571.62 150.134 573.179 154.331 573.18 158.673Z" fill="#FFB0B1"/>
<path opacity="0.1" d="M604.892 219.716C602.404 218.187 600.378 216.013 599.029 213.425C598.006 211.405 597.326 209.074 595.58 207.642C594.005 206.357 591.904 206.045 589.943 205.469C583.498 203.566 578.095 197.691 577.893 190.984C577.795 187.827 578.781 184.675 578.334 181.548C578.079 179.778 577.375 178.103 576.287 176.683C575.747 176.004 575.155 175.367 574.517 174.78C573.659 173.972 572.759 173.189 571.974 172.332C571.48 171.802 571.049 171.216 570.688 170.588C570.396 170.074 570.16 169.53 569.983 168.966C568.758 165.221 569.873 160.778 568.525 156.99L568.452 156.782C567.943 155.436 566.908 154.09 565.468 153.986C564.028 153.882 562.797 155.075 561.425 155.607C558.551 156.721 555.451 154.824 553.056 152.89C550.66 150.956 547.959 148.747 544.914 149.176C542.898 149.463 541.305 150.834 539.449 151.544C539.03 151.706 538.597 151.831 538.156 151.917C539.727 148.004 542.614 144.759 546.319 142.741C550.025 140.722 554.319 140.055 558.463 140.856C562.608 141.656 566.344 143.872 569.03 147.125C571.715 150.378 573.183 154.463 573.181 158.679C573.183 159.953 573.05 161.222 572.783 162.467C572.814 162.553 572.844 162.633 572.881 162.718C573.592 164.554 574.394 166.439 575.099 168.067L578.56 171.2C578.56 171.2 580.031 172.424 582.236 174.26C587.033 178.299 595.322 185.409 599.599 189.76C603.36 193.603 604.537 208.498 604.892 219.716Z" fill="black"/>
<path d="M539.234 140.364C540.11 138.583 540.545 136.588 541.592 134.899C543.13 132.451 545.813 130.884 548.57 129.936C555.769 127.458 570.981 123.859 575.527 129.936C576.421 131.16 577.163 132.518 578.4 133.363C579.344 134.005 580.483 134.281 581.519 134.764C584.416 136.123 586.267 139.085 587.253 142.108C588.239 145.131 588.533 148.374 589.256 151.489C590.181 155.485 591.805 159.273 593.422 163.036C595.328 167.479 597.349 172.087 601.025 175.227C606.043 179.51 607.152 185.575 611.808 190.274C617.322 195.855 617.144 205.065 614.301 212.378C613.928 213.339 613.505 214.343 613.652 215.365C613.799 216.386 614.559 217.317 615.275 218.131L618.29 221.527C611.158 223.246 603.09 219.526 599.769 212.996C598.746 210.977 598.066 208.651 596.314 207.213C594.746 205.928 592.638 205.622 590.684 205.047C584.239 203.138 578.835 197.257 578.633 190.55C578.535 187.398 579.521 184.247 579.074 181.126C578.825 179.344 578.118 177.657 577.022 176.23C575.337 174.033 572.794 172.558 571.422 170.111C569.1 166.017 570.865 160.699 569.192 156.305C568.677 154.959 567.648 153.612 566.208 153.508C564.769 153.404 563.537 154.598 562.159 155.13C559.292 156.244 556.192 154.353 553.796 152.413C551.401 150.473 548.699 148.27 545.648 148.705C543.632 148.986 542.046 150.357 540.189 151.073C538.817 151.599 536.036 152.07 534.835 150.914C532.298 148.582 538.174 142.542 539.234 140.364Z" fill="#591D4B"/>
<path opacity="0.1" d="M601.474 210.977C600.444 208.958 599.77 206.632 598.018 205.2C596.45 203.915 594.342 203.603 592.382 203.028C585.943 201.124 580.539 195.244 580.331 188.537C580.233 185.385 581.219 182.227 580.778 179.106C580.522 177.336 579.815 175.661 578.726 174.241C577.035 172.044 574.493 170.57 573.126 168.122C570.804 164.034 572.569 158.716 570.89 154.316C570.382 152.976 569.346 151.63 567.913 151.52C566.479 151.409 565.236 152.615 563.863 153.147C560.996 154.261 557.89 152.364 555.501 150.43C553.111 148.497 550.397 146.287 547.352 146.716C545.337 147.003 543.744 148.374 541.894 149.084C540.521 149.61 537.734 150.088 536.533 148.931C534.009 146.483 539.884 140.455 540.938 138.289C541.814 136.502 542.249 134.513 543.303 132.824C543.358 132.733 543.419 132.641 543.48 132.549C542.692 133.201 542.012 133.974 541.465 134.838C540.417 136.527 539.982 138.509 539.106 140.303C538.046 142.469 532.171 148.515 534.701 150.944C535.926 152.107 538.683 151.63 540.056 151.103C541.894 150.387 543.499 149.017 545.514 148.735C548.578 148.301 551.273 150.51 553.663 152.444C556.052 154.377 559.176 156.274 562.031 155.161C563.404 154.628 564.604 153.429 566.075 153.539C567.545 153.649 568.525 154.989 569.058 156.336C570.731 160.729 568.967 166.047 571.288 170.141C572.661 172.546 575.203 174.052 576.888 176.261C577.984 177.688 578.692 179.375 578.94 181.156C579.388 184.277 578.401 187.429 578.499 190.581C578.702 197.312 584.105 203.168 590.55 205.078C592.492 205.653 594.612 205.959 596.18 207.244C597.939 208.682 598.631 211.008 599.636 213.027C602.956 219.557 611.025 223.277 618.156 221.558L616.735 219.954C610.553 220.046 604.298 216.533 601.474 210.977Z" fill="black"/>
<path opacity="0.1" d="M559.237 183.047C558.435 184.271 556.137 190.538 554.22 196.009C552.425 195.311 550.795 190.862 550.795 190.862L560.364 177.264C561.345 178.611 560.701 180.844 559.237 183.047Z" fill="black"/>
<path d="M559.604 182.68C558.802 183.904 556.504 190.17 554.587 195.641C552.792 194.95 551.162 190.495 551.162 190.495L560.732 176.903C561.712 178.243 561.069 180.483 559.604 182.68Z" fill="#DCE7FF"/>
<path d="M503.964 245.197L498.659 228.485C498.596 228.289 498.572 228.083 498.589 227.878C498.607 227.674 498.664 227.474 498.759 227.292C498.853 227.109 498.983 226.947 499.14 226.815C499.297 226.682 499.479 226.582 499.676 226.521C500.07 226.397 500.498 226.435 500.865 226.625C501.232 226.816 501.509 227.143 501.636 227.536L506.942 244.23L506.415 247.725L503.964 245.197Z" fill="#BE8B87"/>
<path opacity="0.1" d="M499.161 227.016C499.556 226.891 499.985 226.928 500.354 227.118C500.723 227.309 501.001 227.637 501.127 228.032L506.433 244.726L506.035 247.345L506.421 247.749L506.947 244.255L501.611 227.561C501.485 227.167 501.208 226.84 500.84 226.65C500.473 226.459 500.046 226.422 499.651 226.545C499.319 226.653 499.032 226.868 498.836 227.157C498.94 227.101 499.049 227.054 499.161 227.016Z" fill="white"/>
<path d="M503.965 245.197L506.942 244.255L506.507 247.119L506.416 247.749L505.546 246.843L503.965 245.197Z" fill="#EFC8C4"/>
<path d="M505.545 246.843C505.597 246.778 505.661 246.724 505.735 246.684C505.778 246.657 505.828 246.643 505.879 246.643C505.93 246.643 505.98 246.657 506.023 246.684C506.065 246.735 506.1 246.79 506.127 246.85C506.167 246.917 506.223 246.975 506.288 247.018C506.354 247.062 506.429 247.09 506.507 247.1L506.415 247.712L505.545 246.843Z" fill="#727A9C"/>
<path d="M498.627 234.421C498.627 234.421 509.269 234.36 506.763 238.882C504.257 243.404 500.342 243.949 500.342 243.949L498.627 234.421Z" fill="#FFB0B1"/>
<path d="M432.443 31.4666H431.984C413.702 31.4666 397.535 41.1293 388.235 55.3878C378.935 41.1293 362.767 31.4666 344.486 31.4666H344.026C330.306 31.5971 317.193 37.1308 307.535 46.865C297.877 56.5991 292.455 69.7472 292.447 83.452C292.447 100.47 299.909 124.618 314.46 144.488C342.182 182.35 388.235 215.475 388.235 215.475C388.235 215.475 434.287 182.356 462.004 144.488C476.56 124.618 484.016 100.47 484.016 83.452C484.009 69.7483 478.588 56.6011 468.931 46.8671C459.274 37.1331 446.162 31.5988 432.443 31.4666ZM425.87 147.401C423.788 147.393 421.757 146.757 420.043 145.575C418.33 144.393 417.014 142.722 416.269 140.78H405.34C404.62 140.775 403.92 140.546 403.336 140.125C402.753 139.704 402.316 139.111 402.087 138.43L398.729 128.326L388.106 165.405C387.899 166.118 387.466 166.746 386.872 167.193C386.277 167.64 385.554 167.882 384.81 167.883H384.596C383.819 167.846 383.079 167.543 382.5 167.026C381.92 166.51 381.535 165.81 381.41 165.044L370.462 99.2709L362.461 138.191C362.277 138.93 361.851 139.587 361.25 140.056C360.65 140.526 359.909 140.78 359.146 140.78H343.75C343.289 140.799 342.828 140.725 342.396 140.562C341.964 140.399 341.569 140.151 341.236 139.831C340.902 139.512 340.637 139.129 340.456 138.704C340.274 138.28 340.181 137.823 340.181 137.362C340.181 136.901 340.274 136.444 340.456 136.02C340.637 135.595 340.902 135.212 341.236 134.892C341.569 134.573 341.964 134.325 342.396 134.162C342.828 133.999 343.289 133.925 343.75 133.944H356.451L367.785 81.6161C367.971 80.8424 368.42 80.1574 369.056 79.678C369.691 79.1986 370.474 78.9547 371.27 78.9879C372.066 79.0211 372.825 79.3295 373.419 79.8602C374.012 80.391 374.403 81.1111 374.524 81.8976L385.704 148.992L395.225 115.818C395.423 115.119 395.842 114.504 396.42 114.062C396.997 113.621 397.702 113.378 398.429 113.37H398.497C399.217 113.371 399.918 113.598 400.501 114.02C401.084 114.442 401.519 115.037 401.744 115.72L407.815 133.963H416.135C416.726 132.167 417.803 130.571 419.245 129.348C420.688 128.125 422.441 127.325 424.311 127.035C426.18 126.744 428.094 126.976 429.84 127.703C431.586 128.43 433.097 129.625 434.206 131.156C435.315 132.687 435.98 134.495 436.125 136.379C436.271 138.263 435.893 140.151 435.032 141.834C434.172 143.517 432.862 144.93 431.249 145.917C429.635 146.903 427.78 147.425 425.888 147.426L425.87 147.401Z" fill="#FF414D"/>
</g>
<defs>
<linearGradient id="paint0_linear" x1="218.305" y1="474.184" x2="218.305" y2="97.6248" gradientUnits="userSpaceOnUse">
<stop stop-color="#808080" stop-opacity="0.25"/>
<stop offset="0.54" stop-color="#808080" stop-opacity="0.12"/>
<stop offset="1" stop-color="#808080" stop-opacity="0.1"/>
</linearGradient>
<linearGradient id="paint1_linear" x1="136752" y1="284119" x2="136752" y2="90827.8" gradientUnits="userSpaceOnUse">
<stop stop-color="#808080" stop-opacity="0.25"/>
<stop offset="0.54" stop-color="#808080" stop-opacity="0.12"/>
<stop offset="1" stop-color="#808080" stop-opacity="0.1"/>
</linearGradient>
<clipPath id="clip0">
<rect width="677" height="479" fill="white"/>
</clipPath>
</defs>
</svg>
