<svg width="6" height="10" viewBox="0 0 6 6" fill="none" xmlns="http://www.w3.org/2000/svg">
<path d="M3.41976 0.00868408C2.42936 0.190775 1.83424 0.723726 1.62106 1.63418C1.57664 1.8296 1.55444 2.16713 1.55444 2.7667V3.62386H0.777219H0V4.51211V5.40036H0.777219H1.55444V7.68761V9.97485H2.46489H3.37535V7.68761V5.40036H4.13036C4.87649 5.40036 4.88538 5.40036 4.90314 5.29822C4.93423 5.16498 5.10744 3.79707 5.10744 3.69936C5.10744 3.6283 5.03638 3.62386 4.23695 3.62386H3.37091L3.38423 2.85109C3.39756 2.14493 3.40644 2.06498 3.49082 1.94951C3.6818 1.69192 3.82392 1.64751 4.5434 1.62974L5.19626 1.61642V0.848081C5.19626 0.204099 5.18738 0.0753029 5.12965 0.0530966C5.04082 0.0220078 3.56632 -0.0179634 3.41976 0.00868408Z" fill="white"/>
</svg>
