<svg width="224" height="161" viewBox="0 0 224 161" fill="none" xmlns="http://www.w3.org/2000/svg">
<g clip-path="url(#clip0)">
<path d="M218.772 160.818H84.3748C82.9886 160.817 81.6597 160.266 80.6795 159.286C79.6994 158.306 79.148 156.977 79.1465 155.591V5.22737C79.148 3.84146 79.6994 2.51277 80.6795 1.53278C81.6597 0.5528 82.9886 0.00156017 84.3748 0H218.772C220.159 0.00156017 221.487 0.5528 222.468 1.53278C223.448 2.51277 223.999 3.84146 224.001 5.22737V155.591C223.999 156.977 223.448 158.306 222.468 159.286C221.487 160.266 220.159 160.817 218.772 160.818ZM84.3748 0.614984C83.1517 0.616368 81.9791 1.10276 81.1143 1.96745C80.2494 2.83214 79.763 4.00451 79.7616 5.22737V155.591C79.763 156.814 80.2494 157.986 81.1143 158.851C81.9791 159.716 83.1517 160.202 84.3748 160.203H218.772C219.995 160.202 221.168 159.716 222.033 158.851C222.898 157.986 223.384 156.814 223.386 155.591V5.22737C223.384 4.00451 222.898 2.83214 222.033 1.96745C221.168 1.10276 219.995 0.616368 218.772 0.614984H84.3748Z" fill="#3F3D56"/>
<path d="M223.692 12.7887H79.4531V13.4037H223.692V12.7887Z" fill="#3F3D56"/>
<path d="M86.5268 9.22481C87.8856 9.22481 88.9871 8.12346 88.9871 6.76487C88.9871 5.40628 87.8856 4.30493 86.5268 4.30493C85.1679 4.30493 84.0664 5.40628 84.0664 6.76487C84.0664 8.12346 85.1679 9.22481 86.5268 9.22481Z" fill="#28DF99"/>
<path d="M94.2162 9.22481C95.575 9.22481 96.6766 8.12346 96.6766 6.76487C96.6766 5.40628 95.575 4.30493 94.2162 4.30493C92.8574 4.30493 91.7559 5.40628 91.7559 6.76487C91.7559 8.12346 92.8574 9.22481 94.2162 9.22481Z" fill="#28DF99"/>
<path d="M101.904 9.22481C103.263 9.22481 104.364 8.12346 104.364 6.76487C104.364 5.40628 103.263 4.30493 101.904 4.30493C100.545 4.30493 99.4434 5.40628 99.4434 6.76487C99.4434 8.12346 100.545 9.22481 101.904 9.22481Z" fill="#28DF99"/>
<path d="M199.55 35.3616H103.596C102.535 35.3616 101.518 34.9405 100.769 34.1908C100.019 33.4411 99.5977 32.4244 99.5977 31.3642C99.5977 30.304 100.019 29.2873 100.769 28.5376C101.518 27.788 102.535 27.3668 103.596 27.3668H199.55C200.61 27.3668 201.627 27.788 202.377 28.5376C203.127 29.2873 203.548 30.304 203.548 31.3642C203.548 32.4244 203.127 33.4411 202.377 34.1908C201.627 34.9405 200.61 35.3616 199.55 35.3616ZM103.596 27.9818C102.699 27.9818 101.838 28.3382 101.204 28.9725C100.569 29.6068 100.213 30.4671 100.213 31.3642C100.213 32.2613 100.569 33.1216 101.204 33.7559C101.838 34.3903 102.699 34.7466 103.596 34.7466H199.55C200.447 34.7466 201.308 34.3903 201.942 33.7559C202.577 33.1216 202.933 32.2613 202.933 31.3642C202.933 30.4671 202.577 29.6068 201.942 28.9725C201.308 28.3382 200.447 27.9818 199.55 27.9818H103.596Z" fill="#3F3D56"/>
<path d="M175.823 66.9074H132.152C131.499 66.9074 130.873 66.6482 130.412 66.1869C129.951 65.7256 129.691 65.0999 129.691 64.4475C129.691 63.7951 129.951 63.1694 130.412 62.708C130.873 62.2467 131.499 61.9875 132.152 61.9875H175.823C176.476 61.9875 177.102 62.2467 177.563 62.708C178.024 63.1694 178.284 63.7951 178.284 64.4475C178.284 65.0999 178.024 65.7256 177.563 66.1869C177.102 66.6482 176.476 66.9074 175.823 66.9074Z" fill="#CCCCCC"/>
<path d="M201.042 75.2097H132.152C131.499 75.2097 130.873 74.9505 130.412 74.4892C129.951 74.0278 129.691 73.4021 129.691 72.7497C129.691 72.0973 129.951 71.4716 130.412 71.0103C130.873 70.549 131.499 70.2898 132.152 70.2898H201.042C201.695 70.2898 202.32 70.549 202.782 71.0103C203.243 71.4716 203.502 72.0973 203.502 72.7497C203.502 73.4021 203.243 74.0278 202.782 74.4892C202.32 74.9505 201.695 75.2097 201.042 75.2097Z" fill="#CCCCCC"/>
<path d="M115.789 75.6709H102.564C101.79 75.67 101.047 75.362 100.499 74.8143C99.9516 74.2667 99.6435 73.5242 99.6426 72.7497V64.4474C99.6435 63.6729 99.9516 62.9304 100.499 62.3828C101.047 61.8352 101.79 61.5271 102.564 61.5262H115.789C116.563 61.5271 117.306 61.8352 117.854 62.3828C118.401 62.9304 118.71 63.6729 118.71 64.4474V72.7497C118.71 73.5242 118.401 74.2667 117.854 74.8143C117.306 75.362 116.563 75.67 115.789 75.6709ZM102.564 62.1412C101.953 62.1419 101.366 62.3851 100.934 62.8174C100.502 63.2498 100.258 63.836 100.258 64.4474V72.7497C100.258 73.3611 100.502 73.9473 100.934 74.3797C101.366 74.812 101.953 75.0552 102.564 75.0559H115.789C116.4 75.0552 116.987 74.812 117.419 74.3797C117.851 73.9473 118.095 73.3611 118.095 72.7497V64.4474C118.095 63.836 117.851 63.2498 117.419 62.8174C116.987 62.3851 116.4 62.1419 115.789 62.1412H102.564Z" fill="#CCCCCC"/>
<path d="M175.823 96.1192H132.152C131.499 96.1192 130.873 95.8601 130.412 95.3987C129.951 94.9374 129.691 94.3117 129.691 93.6593C129.691 93.0069 129.951 92.3812 130.412 91.9198C130.873 91.4585 131.499 91.1993 132.152 91.1993H175.823C176.476 91.1993 177.102 91.4585 177.563 91.9198C178.024 92.3812 178.284 93.0069 178.284 93.6593C178.284 94.3117 178.024 94.9374 177.563 95.3987C177.102 95.8601 176.476 96.1192 175.823 96.1192Z" fill="#CCCCCC"/>
<path d="M201.042 104.421H132.152C131.499 104.421 130.873 104.162 130.412 103.701C129.951 103.24 129.691 102.614 129.691 101.962C129.691 101.309 129.951 100.683 130.412 100.222C130.873 99.7608 131.499 99.5016 132.152 99.5016H201.042C201.695 99.5016 202.32 99.7608 202.782 100.222C203.243 100.683 203.502 101.309 203.502 101.962C203.502 102.614 203.243 103.24 202.782 103.701C202.32 104.162 201.695 104.421 201.042 104.421Z" fill="#CCCCCC"/>
<path d="M115.789 104.883H102.564C101.79 104.882 101.047 104.574 100.499 104.026C99.9516 103.478 99.6435 102.736 99.6426 101.962V93.6592C99.6435 92.8847 99.9516 92.1422 100.499 91.5946C101.047 91.047 101.79 90.7389 102.564 90.738H115.789C116.563 90.7389 117.306 91.047 117.854 91.5946C118.401 92.1422 118.71 92.8847 118.71 93.6592V101.962C118.71 102.736 118.401 103.478 117.854 104.026C117.306 104.574 116.563 104.882 115.789 104.883ZM102.564 91.353C101.953 91.3537 101.366 91.5969 100.934 92.0292C100.502 92.4616 100.258 93.0478 100.258 93.6592V101.962C100.258 102.573 100.502 103.159 100.934 103.591C101.366 104.024 101.953 104.267 102.564 104.268H115.789C116.4 104.267 116.987 104.024 117.419 103.591C117.851 103.159 118.095 102.573 118.095 101.962V93.6592C118.095 93.0478 117.851 92.4616 117.419 92.0292C116.987 91.5969 116.4 91.3537 115.789 91.353H102.564Z" fill="#CCCCCC"/>
<path d="M175.823 125.331H132.152C131.499 125.331 130.873 125.072 130.412 124.61C129.951 124.149 129.691 123.523 129.691 122.871C129.691 122.219 129.951 121.593 130.412 121.132C130.873 120.67 131.499 120.411 132.152 120.411H175.823C176.476 120.411 177.102 120.67 177.563 121.132C178.024 121.593 178.284 122.219 178.284 122.871C178.284 123.523 178.024 124.149 177.563 124.61C177.102 125.072 176.476 125.331 175.823 125.331Z" fill="#F2F2F2"/>
<path d="M201.042 133.633H132.152C131.499 133.633 130.873 133.374 130.412 132.913C129.951 132.451 129.691 131.826 129.691 131.173C129.691 130.521 129.951 129.895 130.412 129.434C130.873 128.972 131.499 128.713 132.152 128.713H201.042C201.695 128.713 202.32 128.972 202.782 129.434C203.243 129.895 203.502 130.521 203.502 131.173C203.502 131.826 203.243 132.451 202.782 132.913C202.32 133.374 201.695 133.633 201.042 133.633Z" fill="#F2F2F2"/>
<path d="M115.789 134.094H102.564C101.79 134.094 101.047 133.786 100.499 133.238C99.9516 132.69 99.6435 131.948 99.6426 131.173V122.871C99.6435 122.097 99.9516 121.354 100.499 120.806C101.047 120.259 101.79 119.951 102.564 119.95H115.789C116.563 119.951 117.306 120.259 117.854 120.806C118.401 121.354 118.71 122.097 118.71 122.871V131.173C118.71 131.948 118.401 132.69 117.854 133.238C117.306 133.786 116.563 134.094 115.789 134.094Z" fill="#F2F2F2"/>
<path d="M109.176 73.1306L108.464 72.4883C105.936 70.1669 104.266 68.6602 104.266 66.7834C104.26 66.4263 104.325 66.0716 104.459 65.7402C104.592 65.4088 104.79 65.1076 105.042 64.8543C105.294 64.601 105.594 64.4008 105.925 64.2655C106.255 64.1302 106.61 64.0626 106.967 64.0667C107.388 64.0689 107.804 64.1629 108.186 64.342C108.567 64.5212 108.905 64.7812 109.176 65.104C109.447 64.7812 109.785 64.5211 110.167 64.342C110.549 64.1629 110.965 64.0689 111.386 64.0667C111.743 64.0626 112.098 64.1302 112.428 64.2655C112.759 64.4008 113.059 64.601 113.311 64.8543C113.563 65.1076 113.761 65.4088 113.894 65.7402C114.028 66.0716 114.093 66.4263 114.087 66.7834C114.087 68.6603 112.417 70.1669 109.889 72.4883L109.176 73.1306Z" fill="#28DF99"/>
<path d="M109.176 102.342L108.464 101.7C105.936 99.3786 104.266 97.8719 104.266 95.9951C104.26 95.638 104.325 95.2832 104.459 94.9519C104.592 94.6205 104.79 94.3193 105.042 94.066C105.294 93.8127 105.594 93.6124 105.925 93.4772C106.255 93.3419 106.61 93.2743 106.967 93.2784C107.388 93.2806 107.804 93.3746 108.186 93.5537C108.567 93.7328 108.905 93.9928 109.176 94.3157C109.447 93.9928 109.785 93.7328 110.167 93.5537C110.549 93.3746 110.965 93.2806 111.386 93.2784C111.743 93.2743 112.098 93.3419 112.428 93.4772C112.759 93.6124 113.059 93.8127 113.311 94.066C113.563 94.3193 113.761 94.6205 113.894 94.9519C114.028 95.2832 114.093 95.638 114.087 95.9951C114.087 97.8719 112.417 99.3786 109.889 101.7L109.176 102.342Z" fill="#28DF99"/>
<path d="M53.3083 97.4281H40.0838C39.3092 97.4272 38.5666 97.1191 38.0188 96.5715C37.4711 96.0239 37.163 95.2814 37.1621 94.5069V86.2046C37.163 85.4301 37.4711 84.6876 38.0188 84.14C38.5666 83.5924 39.3092 83.2843 40.0838 83.2834H53.3083C54.0829 83.2843 54.8255 83.5924 55.3732 84.14C55.921 84.6876 56.2291 85.4301 56.23 86.2046V94.5069C56.2291 95.2814 55.921 96.0239 55.3732 96.5715C54.8255 97.1191 54.0829 97.4272 53.3083 97.4281ZM40.0838 83.8984C39.4723 83.8991 38.886 84.1423 38.4535 84.5747C38.0211 85.007 37.7779 85.5932 37.7772 86.2046V94.5069C37.7779 95.1183 38.0211 95.7045 38.4535 96.1369C38.886 96.5692 39.4723 96.8124 40.0838 96.8131H53.3083C53.9198 96.8124 54.5061 96.5692 54.9385 96.1369C55.371 95.7045 55.6142 95.1183 55.6149 94.5069V86.2046C55.6142 85.5932 55.371 85.007 54.9385 84.5747C54.5061 84.1423 53.9198 83.8991 53.3083 83.8984H40.0838Z" fill="#3F3D56"/>
<path d="M46.6941 94.8878L45.982 94.2455C43.4531 91.9241 41.7836 90.4174 41.7836 88.5406C41.7774 88.1835 41.8428 87.8288 41.9761 87.4974C42.1094 87.1661 42.3078 86.8648 42.5597 86.6115C42.8115 86.3582 43.1116 86.158 43.4422 86.0227C43.7728 85.8874 44.1272 85.8198 44.4844 85.8239C44.9059 85.8261 45.3219 85.9201 45.7035 86.0992C46.0851 86.2783 46.4231 86.5384 46.6941 86.8612C46.965 86.5384 47.3031 86.2783 47.6846 86.0992C48.0662 85.9201 48.4822 85.8261 48.9038 85.8239C49.261 85.8198 49.6154 85.8874 49.946 86.0227C50.2766 86.158 50.5766 86.3582 50.8285 86.6115C51.0803 86.8648 51.2787 87.1661 51.412 87.4974C51.5453 87.8288 51.6108 88.1835 51.6045 88.5406C51.6045 90.4175 49.935 91.9241 47.4062 94.2455L46.6941 94.8878Z" fill="#28DF99"/>
<path d="M39.0487 157.469L42.4692 156.655L40.9585 143.077L35.9102 144.277L39.0487 157.469Z" fill="#FFB8B8"/>
<path d="M49.8203 158.262L39.0702 160.818L38.0822 156.666L44.6789 155.097C45.2243 154.967 45.79 154.946 46.3435 155.035C46.8971 155.124 47.4278 155.321 47.9052 155.615C48.3826 155.909 48.7975 156.294 49.1261 156.748C49.4547 157.202 49.6906 157.716 49.8203 158.262Z" fill="#2F2E41"/>
<path d="M35.6906 148.725L28.2617 123.269L37.545 120.967L42.991 147.927C43.031 148.124 43.0273 148.328 42.9802 148.524C42.9331 148.72 42.8438 148.903 42.7186 149.061C42.5933 149.219 42.435 149.347 42.2549 149.438C42.0748 149.528 41.8771 149.578 41.6756 149.584L37.0603 149.721C37.0464 149.721 37.0326 149.722 37.0187 149.722C36.7194 149.722 36.4281 149.624 36.1887 149.445C35.9492 149.265 35.7744 149.013 35.6906 148.725Z" fill="#2F2E41"/>
<path d="M17.8665 157.554L21.3823 157.554L23.0545 143.995L17.8652 143.995L17.8665 157.554Z" fill="#FFB8B8"/>
<path d="M28.1621 160.817L17.1121 160.818L17.1117 156.55L23.8924 156.549C25.0247 156.549 26.1107 156.999 26.9114 157.799C27.7121 158.6 28.162 159.685 28.1621 160.817Z" fill="#2F2E41"/>
<path d="M17.2476 152.286C17.1184 152.161 17.0153 152.011 16.9443 151.846C16.8734 151.681 16.8359 151.503 16.8341 151.323L13.6309 125.929C13.6296 125.563 13.7733 125.211 14.0308 124.95C14.2883 124.69 14.6384 124.542 15.0048 124.539L22.1547 124.487H22.1649C22.528 124.488 22.8762 124.631 23.1348 124.886C23.3935 125.14 23.542 125.486 23.5485 125.849L23.9286 150.865C23.9343 151.23 23.7954 151.583 23.5421 151.846C23.2888 152.109 22.9418 152.261 22.5767 152.269L18.2364 152.682C18.2297 152.682 18.223 152.682 18.2163 152.682C17.8538 152.683 17.5056 152.54 17.2476 152.286Z" fill="#2F2E41"/>
<path d="M18.7802 68.2353C22.952 68.2353 26.3339 64.854 26.3339 60.6829C26.3339 56.5119 22.952 53.1306 18.7802 53.1306C14.6084 53.1306 11.2266 56.5119 11.2266 60.6829C11.2266 64.854 14.6084 68.2353 18.7802 68.2353Z" fill="#FFB8B8"/>
<path d="M8.82973 124.603C3.91502 120.763 3.96704 116.284 5.64404 110.301C6.11647 108.616 6.62637 106.908 7.16615 105.099C9.67419 96.6972 12.5168 87.1738 11.4376 79.3105L11.59 79.2896L11.4376 79.3105C11.142 77.1569 11.8955 74.8915 13.5047 73.0955C15.114 71.2992 17.28 70.3039 19.4574 70.36C21.6309 70.418 23.7445 71.5289 25.2559 73.4081C26.76 75.2781 27.4779 81.8536 27.6907 82.7961C28.6676 87.1215 29.2573 89.7324 29.6801 93.8973C30.1803 98.8212 36.1702 113.543 38.0789 116.012C38.5854 116.664 38.9481 117.416 39.143 118.218C39.3379 119.02 39.3606 119.854 39.2096 120.665C39.069 121.437 38.764 122.17 38.3153 122.814C37.8666 123.458 37.2848 123.997 36.6092 124.397C33.5117 126.29 30.1079 127.629 26.5506 128.355C25.0076 128.654 23.4394 128.805 21.8676 128.805C16.9909 128.805 12.3311 127.338 8.82973 124.603Z" fill="#28DF99"/>
<path d="M40.2408 96.1496C40.0452 95.7762 39.7701 95.4503 39.4348 95.1947C39.0996 94.9391 38.7123 94.76 38.3004 94.6703C37.8885 94.5805 37.4619 94.5821 37.0507 94.675C36.6394 94.7679 36.2536 94.9498 35.9202 95.2079L30.1964 91.9424L27.3633 94.9361L35.5112 99.4341C35.982 99.9653 36.6313 100.305 37.3361 100.39C38.0409 100.474 38.7521 100.297 39.3351 99.8923C39.9181 99.4874 40.3323 98.8828 40.4992 98.193C40.6661 97.5032 40.5742 96.7762 40.2408 96.1496V96.1496Z" fill="#FFB8B8"/>
<path d="M31.5147 98.3632L21.2558 95.1408C19.8784 94.705 18.6679 93.8574 17.7875 92.7121C16.9071 91.5669 16.3991 90.1792 16.3322 88.7364L15.8908 78.7702C15.866 78.2095 15.9545 77.6497 16.1511 77.124C16.3477 76.5984 16.6484 76.1178 17.035 75.711C17.4217 75.3042 17.8864 74.9796 18.4014 74.7565C18.9165 74.5334 19.4712 74.4165 20.0325 74.4127C20.5937 74.4089 21.15 74.5184 21.668 74.7345C22.186 74.9506 22.6551 75.269 23.0472 75.6705C23.4393 76.0721 23.7463 76.5486 23.95 77.0715C24.1536 77.5945 24.2497 78.1531 24.2325 78.714L23.9503 87.8834L34.8687 92.3354C35.0615 92.4141 35.234 92.5352 35.3735 92.6897C35.513 92.8443 35.6158 93.0283 35.6743 93.2281C35.7327 93.4279 35.7454 93.6383 35.7112 93.8437C35.6771 94.049 35.597 94.244 35.477 94.4141L33.0606 97.8406C32.8919 98.0807 32.6511 98.2608 32.3731 98.3547C32.0952 98.4487 31.7944 98.4517 31.5147 98.3632H31.5147Z" fill="#2F2E41"/>
<path d="M6.60745 70.0808C6.95261 68.0111 6.93993 65.8659 6.92761 63.7912C6.92431 63.228 6.92093 62.665 6.92438 62.103C6.94045 59.4913 7.10256 56.7231 8.17048 54.1747C9.33279 51.4013 11.4852 49.3985 13.9281 48.8175C16.6824 48.1616 19.6709 49.6114 20.5707 51.9985C21.1655 51.6627 21.8274 51.463 22.5087 51.4139C23.19 51.3648 23.8738 51.4675 24.5106 51.7147C25.1474 51.9618 25.7214 52.3472 26.1911 52.843C26.6609 53.3388 27.0147 53.9327 27.2271 54.5819C27.4395 55.231 27.5051 55.9192 27.4192 56.5967C27.3333 57.2743 27.098 57.9243 26.7304 58.4999C26.3628 59.0756 25.8719 59.5624 25.2933 59.9254C24.7147 60.2884 24.0627 60.5184 23.3843 60.5989L23.2689 60.6091L22.3689 58.2705C22.3638 58.3114 22.3589 58.3529 22.3539 58.3946C22.2967 58.8796 22.2374 59.3809 21.837 59.6705C21.3371 60.0321 20.7145 61.222 20.8964 62.4275C21.0098 63.0443 21.1789 63.6496 21.4014 64.2359C21.6488 64.8796 21.8283 65.5474 21.9372 66.2283C22.0516 67.1012 21.8232 67.9844 21.2999 68.6925C21.1448 68.8991 20.9492 69.072 20.7251 69.2005C20.501 69.3291 20.253 69.4107 19.9964 69.4403L9.8511 70.4892L9.39752 67.1011L6.51172 70.6547L6.60745 70.0808Z" fill="#2F2E41"/>
<path d="M59.3564 161H0.307546C0.22598 161 0.147754 160.968 0.0900779 160.91C0.0324018 160.852 0 160.774 0 160.693C0 160.611 0.0324018 160.533 0.0900779 160.475C0.147754 160.417 0.22598 160.385 0.307546 160.385H59.3564C59.4379 160.385 59.5162 160.417 59.5738 160.475C59.6315 160.533 59.6639 160.611 59.6639 160.693C59.6639 160.774 59.6315 160.852 59.5738 160.91C59.5162 160.968 59.4379 161 59.3564 161Z" fill="#CCCCCC"/>
</g>
<defs>
<clipPath id="clip0">
<rect width="224" height="161" fill="white"/>
</clipPath>
</defs>
</svg>
