<svg width="133" height="101" viewBox="0 0 133 101" fill="none" xmlns="http://www.w3.org/2000/svg">
<g clip-path="url(#clip0)">
<path d="M79.9039 20.7982H2.72074C1.99936 20.7989 1.3077 21.0842 0.797608 21.5917C0.287511 22.0991 0.000652915 22.7872 0 23.5048V31.7672C0.000652915 32.4848 0.287511 33.1729 0.797608 33.6803C1.3077 34.1878 1.99936 34.4732 2.72074 34.4738H79.9039C80.6252 34.4732 81.3169 34.1878 81.827 33.6803C82.3371 33.1729 82.6239 32.4848 82.6246 31.7672V23.5048C82.6239 22.7872 82.3371 22.0991 81.827 21.5917C81.3169 21.0842 80.6252 20.7989 79.9039 20.7982ZM82.3382 31.7672C82.3373 32.4092 82.0805 33.0246 81.6242 33.4786C81.1679 33.9326 80.5492 34.188 79.9039 34.1889H2.72074C2.07539 34.188 1.45674 33.9326 1.00041 33.4786C0.544076 33.0246 0.287307 32.4092 0.286394 31.7672V23.5048C0.287307 22.8628 0.544076 22.2474 1.00041 21.7934C1.45674 21.3395 2.07539 21.084 2.72074 21.0831H79.9039C80.5492 21.084 81.1679 21.3395 81.6242 21.7934C82.0805 22.2474 82.3373 22.8628 82.3382 23.5048V31.7672Z" fill="#3F3D56"/>
<path d="M79.9039 53.9901H2.72074C1.99941 53.9892 1.30785 53.7038 0.797793 53.1964C0.287733 52.689 0.000819404 52.001 0 51.2834V43.0211C0.000819404 42.3035 0.287733 41.6155 0.797793 41.1081C1.30785 40.6007 1.99941 40.3153 2.72074 40.3145H79.9039C80.6252 40.3153 81.3167 40.6007 81.8268 41.1081C82.3369 41.6155 82.6238 42.3035 82.6246 43.0211V51.2834C82.6238 52.001 82.3369 52.689 81.8268 53.1964C81.3167 53.7038 80.6252 53.9892 79.9039 53.9901ZM2.72074 40.5994C2.07533 40.6001 1.45657 40.8555 1.0002 41.3095C0.543826 41.7635 0.287117 42.379 0.286394 43.0211V51.2834C0.287117 51.9255 0.543826 52.541 1.0002 52.995C1.45657 53.449 2.07533 53.7044 2.72074 53.7051H79.9039C80.5493 53.7044 81.168 53.449 81.6244 52.995C82.0808 52.541 82.3375 51.9255 82.3382 51.2834V43.0211C82.3375 42.379 82.0808 41.7635 81.6244 41.3095C81.168 40.8555 80.5493 40.6001 79.9039 40.5994H2.72074Z" fill="#3F3D56"/>
<path d="M79.9039 73.5063H2.72074C1.99941 73.5055 1.30785 73.22 0.797793 72.7126C0.287733 72.2052 0.000819404 71.5173 0 70.7997V62.5373C0.000819404 61.8197 0.287733 61.1318 0.797793 60.6243C1.30785 60.1169 1.99941 59.8315 2.72074 59.8307H79.9039C80.6252 59.8315 81.3167 60.1169 81.8268 60.6243C82.3369 61.1318 82.6238 61.8197 82.6246 62.5373V70.7997C82.6238 71.5173 82.3369 72.2052 81.8268 72.7126C81.3167 73.22 80.6252 73.5055 79.9039 73.5063ZM2.72074 60.1156C2.07533 60.1163 1.45657 60.3717 1.0002 60.8257C0.543826 61.2797 0.287117 61.8953 0.286394 62.5373V70.7997C0.287117 71.4417 0.543826 72.0573 1.0002 72.5113C1.45657 72.9653 2.07533 73.2207 2.72074 73.2214H79.9039C80.5493 73.2207 81.168 72.9653 81.6244 72.5113C82.0808 72.0573 82.3375 71.4417 82.3382 70.7997V62.5373C82.3375 61.8953 82.0808 61.2797 81.6244 60.8257C81.168 60.3717 80.5493 60.1163 79.9039 60.1156H2.72074Z" fill="#3F3D56"/>
<path d="M15.4411 32.2658H10.8588C10.2324 32.265 9.63186 32.0172 9.18891 31.5765C8.74596 31.1359 8.4968 30.5384 8.49609 29.9153V25.3567C8.4968 24.7335 8.74596 24.1361 9.18891 23.6954C9.63186 23.2548 10.2324 23.0069 10.8588 23.0062H15.4411C16.0676 23.0069 16.6681 23.2548 17.1111 23.6954C17.554 24.1361 17.8032 24.7335 17.8039 25.3567V29.9153C17.8032 30.5384 17.554 31.1359 17.1111 31.5765C16.6681 32.0172 16.0676 32.265 15.4411 32.2658Z" fill="#28DF99"/>
<path d="M72.9109 31.4823H22.3624C22.0585 31.4823 21.7672 31.3622 21.5523 31.1485C21.3375 30.9348 21.2168 30.6449 21.2168 30.3426C21.2168 30.0404 21.3375 29.7505 21.5523 29.5368C21.7672 29.3231 22.0585 29.203 22.3624 29.203H72.9109C73.2147 29.203 73.5061 29.3231 73.7209 29.5368C73.9357 29.7505 74.0564 30.0404 74.0564 30.3426C74.0564 30.6449 73.9357 30.9348 73.7209 31.1485C73.5061 31.3622 73.2147 31.4823 72.9109 31.4823Z" fill="#CCCCCC"/>
<path d="M56.4432 26.6389H22.3624C22.0585 26.6389 21.7672 26.5188 21.5523 26.3051C21.3375 26.0914 21.2168 25.8015 21.2168 25.4993C21.2168 25.197 21.3375 24.9071 21.5523 24.6934C21.7672 24.4797 22.0585 24.3596 22.3624 24.3596H56.4432C56.747 24.3596 57.0384 24.4797 57.2533 24.6934C57.4681 24.9071 57.5888 25.197 57.5888 25.4993C57.5888 25.8015 57.4681 26.0914 57.2533 26.3051C57.0384 26.5188 56.747 26.6389 56.4432 26.6389Z" fill="#CCCCCC"/>
<path d="M15.4411 51.782H10.8588C10.2324 51.7813 9.63186 51.5334 9.18891 51.0928C8.74596 50.6521 8.4968 50.0547 8.49609 49.4315V44.873C8.4968 44.2498 8.74596 43.6523 9.18891 43.2117C9.63186 42.771 10.2324 42.5232 10.8588 42.5225H15.4411C16.0676 42.5232 16.6681 42.771 17.1111 43.2117C17.554 43.6523 17.8032 44.2498 17.8039 44.873V49.4315C17.8032 50.0547 17.554 50.6521 17.1111 51.0928C16.6681 51.5334 16.0676 51.7813 15.4411 51.782Z" fill="#28DF99"/>
<path d="M72.9109 50.9986H22.3624C22.0585 50.9986 21.7672 50.8786 21.5523 50.6648C21.3375 50.4511 21.2168 50.1612 21.2168 49.859C21.2168 49.5567 21.3375 49.2669 21.5523 49.0531C21.7672 48.8394 22.0585 48.7194 22.3624 48.7194H72.9109C73.2147 48.7194 73.5061 48.8394 73.7209 49.0531C73.9357 49.2669 74.0564 49.5567 74.0564 49.859C74.0564 50.1612 73.9357 50.4511 73.7209 50.6648C73.5061 50.8786 73.2147 50.9986 72.9109 50.9986Z" fill="#CCCCCC"/>
<path d="M56.4432 46.1551H22.3624C22.0585 46.1551 21.7672 46.0351 21.5523 45.8213C21.3375 45.6076 21.2168 45.3177 21.2168 45.0155C21.2168 44.7132 21.3375 44.4234 21.5523 44.2096C21.7672 43.9959 22.0585 43.8759 22.3624 43.8759H56.4432C56.747 43.8759 57.0384 43.9959 57.2533 44.2096C57.4681 44.4234 57.5888 44.7132 57.5888 45.0155C57.5888 45.3177 57.4681 45.6076 57.2533 45.8213C57.0384 46.0351 56.747 46.1551 56.4432 46.1551Z" fill="#CCCCCC"/>
<path d="M15.4411 71.2982H10.8588C10.2324 71.2975 9.63186 71.0496 9.18891 70.609C8.74596 70.1683 8.4968 69.5709 8.49609 68.9477V64.3892C8.4968 63.766 8.74596 63.1686 9.18891 62.7279C9.63186 62.2873 10.2324 62.0394 10.8588 62.0387H15.4411C16.0676 62.0394 16.6681 62.2873 17.1111 62.7279C17.554 63.1686 17.8032 63.766 17.8039 64.3892V68.9477C17.8032 69.5709 17.554 70.1683 17.1111 70.609C16.6681 71.0496 16.0676 71.2975 15.4411 71.2982Z" fill="#28DF99"/>
<path d="M72.9109 70.5149H22.3624C22.0585 70.5149 21.7672 70.3948 21.5523 70.1811C21.3375 69.9674 21.2168 69.6775 21.2168 69.3752C21.2168 69.073 21.3375 68.7831 21.5523 68.5694C21.7672 68.3557 22.0585 68.2356 22.3624 68.2356H72.9109C73.2147 68.2356 73.5061 68.3557 73.7209 68.5694C73.9357 68.7831 74.0564 69.073 74.0564 69.3752C74.0564 69.6775 73.9357 69.9674 73.7209 70.1811C73.5061 70.3948 73.2147 70.5149 72.9109 70.5149Z" fill="#CCCCCC"/>
<path d="M56.4432 65.6714H22.3624C22.0585 65.6714 21.7672 65.5513 21.5523 65.3376C21.3375 65.1238 21.2168 64.834 21.2168 64.5317C21.2168 64.2295 21.3375 63.9396 21.5523 63.7259C21.7672 63.5122 22.0585 63.3921 22.3624 63.3921H56.4432C56.747 63.3921 57.0384 63.5122 57.2533 63.7259C57.4681 63.9396 57.5888 64.2295 57.5888 64.5317C57.5888 64.834 57.4681 65.1238 57.2533 65.3376C57.0384 65.5513 56.747 65.6714 56.4432 65.6714Z" fill="#CCCCCC"/>
<path d="M114.773 60.4699C119.006 60.4699 122.437 57.0565 122.437 52.8458C122.437 48.6352 119.006 45.2218 114.773 45.2218C110.541 45.2218 107.109 48.6352 107.109 52.8458C107.109 57.0565 110.541 60.4699 114.773 60.4699Z" fill="#28DF99"/>
<path d="M115.336 99.9762V82.4522C115.336 82.2067 115.434 81.9714 115.609 81.7978C115.783 81.6242 116.02 81.5265 116.267 81.5262H118.38C118.627 81.5265 118.864 81.6242 119.038 81.7978C119.213 81.9714 119.311 82.2067 119.311 82.4522V99.9762C119.311 100.222 119.213 100.457 119.038 100.631C118.864 100.804 118.627 100.902 118.38 100.902H116.267C116.02 100.902 115.783 100.804 115.609 100.631C115.434 100.457 115.336 100.222 115.336 99.9762Z" fill="#2F2E41"/>
<path d="M110.869 99.9762V82.4522C110.869 82.2067 110.968 81.9714 111.142 81.7978C111.317 81.6242 111.553 81.5265 111.8 81.5262H113.913C114.16 81.5265 114.397 81.6242 114.571 81.7978C114.746 81.9714 114.844 82.2067 114.844 82.4522V99.9762C114.844 100.222 114.746 100.457 114.571 100.631C114.397 100.804 114.16 100.902 113.913 100.902H111.8C111.553 100.902 111.317 100.804 111.142 100.631C110.968 100.457 110.869 100.222 110.869 99.9762Z" fill="#2F2E41"/>
<path d="M119.662 84.5125H110.059C109.793 84.5122 109.538 84.4071 109.351 84.2201C109.163 84.0332 109.057 83.7797 109.057 83.5154V67.9958C109.057 66.4645 109.668 64.9959 110.757 63.913C111.845 62.8302 113.321 62.2219 114.861 62.2219C116.4 62.2219 117.876 62.8302 118.965 63.913C120.053 64.9959 120.665 66.4645 120.665 67.9958V83.5154C120.664 83.7797 120.558 84.0332 120.371 84.2201C120.183 84.4071 119.928 84.5122 119.662 84.5125Z" fill="#2F2E41"/>
<path d="M108.301 56.2161L108.309 55.9312C107.776 55.9164 107.306 55.8832 106.953 55.6267C106.853 55.5498 106.771 55.4524 106.712 55.3411C106.653 55.2298 106.619 55.1072 106.612 54.9816C106.606 54.9048 106.618 54.8277 106.646 54.7562C106.675 54.6847 106.72 54.6207 106.777 54.5692C107.012 54.3724 107.389 54.4361 107.663 54.5614L107.9 54.6695L107.446 51.366L107.162 51.4046L107.549 54.2148C107.175 54.1056 106.829 54.1526 106.592 54.3517C106.501 54.4307 106.43 54.5296 106.384 54.6406C106.338 54.7516 106.318 54.8717 106.326 54.9916C106.334 55.1603 106.38 55.3252 106.459 55.4746C106.538 55.6241 106.649 55.7545 106.784 55.8568C107.238 56.1865 107.827 56.2029 108.301 56.2161Z" fill="#2F2E41"/>
<path d="M110.628 51.647H109.086V51.9319H110.628V51.647Z" fill="#2F2E41"/>
<path d="M117.805 83.5045C117.715 83.4224 117.642 83.3233 117.591 83.2129C117.539 83.1025 117.511 82.9831 117.506 82.8615L116.776 65.3528C116.771 65.2313 116.79 65.11 116.832 64.9958C116.874 64.8817 116.939 64.7769 117.021 64.6874C117.104 64.5979 117.204 64.5255 117.315 64.4744C117.426 64.4232 117.545 64.3943 117.668 64.3893L119.779 64.3021C120.026 64.2922 120.266 64.38 120.448 64.5463C120.629 64.7126 120.737 64.9437 120.748 65.189L121.477 82.6978C121.487 82.9431 121.399 83.1823 121.232 83.3629C121.065 83.5436 120.833 83.6509 120.586 83.6613L118.474 83.7484C118.407 83.7512 118.34 83.7468 118.273 83.7353C118.098 83.7047 117.936 83.6246 117.805 83.5045Z" fill="#28DF99"/>
<path d="M120.5 71.6544H117.064C116.817 71.6542 116.58 71.5565 116.406 71.3829C116.231 71.2093 116.133 70.974 116.133 70.7285V65.885C116.133 65.1861 116.412 64.5158 116.909 64.0215C117.406 63.5273 118.079 63.2496 118.782 63.2496C119.485 63.2496 120.158 63.5273 120.655 64.0215C121.152 64.5158 121.431 65.1861 121.431 65.885V70.7285C121.431 70.974 121.333 71.2093 121.158 71.3829C120.984 71.5565 120.747 71.6542 120.5 71.6544Z" fill="#2F2E41"/>
<path d="M98.4316 78.1429L97.0843 76.523C96.9272 76.3337 96.852 76.0901 96.8752 75.8457C96.8984 75.6013 97.0181 75.376 97.2081 75.2193L110.78 64.0486C110.971 63.8922 111.216 63.8173 111.461 63.8404C111.707 63.8635 111.933 63.9826 112.091 64.1717L113.438 65.7918C113.516 65.8854 113.575 65.9935 113.611 66.1097C113.647 66.2259 113.659 66.348 113.648 66.4691C113.636 66.5902 113.601 66.7078 113.544 66.8152C113.486 66.9227 113.408 67.0179 113.314 67.0954L99.7421 78.2661C99.5786 78.4005 99.374 78.4754 99.162 78.4785C98.9499 78.4816 98.7432 78.4126 98.5759 78.283C98.5229 78.2416 98.4745 78.1946 98.4316 78.1429Z" fill="#28DF99"/>
<path d="M108.44 70.867L106.263 68.2215C106.107 68.0314 106.033 67.7874 106.057 67.5431C106.082 67.2989 106.203 67.0742 106.393 66.9185L110.161 63.8503C110.43 63.631 110.74 63.4666 111.073 63.3665C111.406 63.2663 111.756 63.2325 112.102 63.2668C112.448 63.3011 112.784 63.4029 113.091 63.5664C113.397 63.7299 113.669 63.9519 113.889 64.2198C114.11 64.4876 114.275 64.796 114.375 65.1273C114.476 65.4587 114.51 65.8065 114.475 66.1509C114.441 66.4953 114.338 66.8296 114.174 67.1347C114.01 67.4397 113.786 67.7095 113.517 67.9287L109.75 70.9969C109.559 71.1522 109.313 71.2257 109.068 71.2014C108.822 71.177 108.596 71.0568 108.44 70.867Z" fill="#2F2E41"/>
<path d="M99.1908 71.5104L99.1522 71.544L98.2266 70.4919C98.1562 70.412 98.0707 70.3466 97.975 70.2995C97.8792 70.2524 97.7751 70.2245 97.6685 70.2175C97.5619 70.2104 97.455 70.2243 97.3538 70.2584C97.2526 70.2925 97.1591 70.346 97.0788 70.416L94.8382 72.3669C94.6759 72.5082 94.5767 72.7079 94.5623 72.9221C94.548 73.1362 94.6198 73.3472 94.7619 73.5087L99.8398 79.2803C99.9102 79.3602 99.9957 79.4256 100.091 79.4727C100.187 79.5198 100.291 79.5477 100.398 79.5547C100.505 79.5618 100.611 79.5479 100.713 79.5138C100.814 79.4798 100.907 79.4262 100.988 79.3562L103.228 77.4053C103.391 77.264 103.49 77.0643 103.504 76.8501C103.518 76.636 103.447 76.425 103.305 76.2635L99.811 72.2928L99.8496 72.2592L99.1908 71.5104Z" fill="#3F3D56"/>
<path d="M97.3257 70.752L97.0467 70.9949C97.0871 71.0151 97.1218 71.0447 97.148 71.0814C97.1741 71.118 97.1907 71.1605 97.1964 71.205C97.2022 71.2496 97.1968 71.2948 97.1808 71.3368C97.1648 71.3788 97.1387 71.4162 97.1047 71.4458L95.8804 72.5119C95.8464 72.5414 95.8056 72.5623 95.7617 72.5725C95.7177 72.5827 95.6719 72.582 95.6283 72.5704C95.5847 72.5589 95.5446 72.5368 95.5115 72.5062C95.4785 72.4757 95.4535 72.4374 95.4388 72.395L95.1783 72.6218C95.121 72.6717 95.0742 72.7323 95.0405 72.8001C95.0068 72.868 94.9868 72.9418 94.9817 73.0173C94.9767 73.0928 94.9867 73.1686 95.011 73.2403C95.0354 73.312 95.0738 73.3782 95.1239 73.4352L99.9604 78.9323C100.062 79.0473 100.205 79.1177 100.358 79.1278C100.511 79.1379 100.662 79.0871 100.778 78.9864L102.925 77.1166C103.041 77.0159 103.112 76.8737 103.122 76.7211C103.132 76.5686 103.081 76.4183 102.98 76.3032L98.1433 70.8061C98.042 70.6911 97.899 70.6208 97.7457 70.6106C97.5924 70.6005 97.4413 70.6514 97.3257 70.752Z" fill="white"/>
<path d="M116.695 54.1367C117.094 53.4735 117.406 52.7427 117.258 51.9569C117.126 51.2552 116.618 50.7087 115.888 50.6369C115.449 50.5938 115.011 50.7105 114.582 50.7865C114.23 50.848 113.872 50.8711 113.515 50.8553C112.797 50.8228 112.093 50.6452 111.446 50.3333C110.789 50.0275 110.206 49.5854 109.735 49.0367C109.265 48.488 108.917 47.8454 108.717 47.1521C108.282 45.5746 108.605 43.7832 109.639 42.4991L109.28 42.4049L109.748 43.9326C109.757 43.9639 109.773 43.9928 109.795 44.017C109.817 44.0412 109.844 44.0602 109.875 44.0725C109.905 44.0848 109.938 44.0901 109.97 44.088C110.003 44.0858 110.035 44.0764 110.063 44.0603C110.911 43.5278 111.858 43.172 112.847 43.0146C113.837 42.8572 114.848 42.9015 115.82 43.1447C116.369 43.2819 116.9 43.4849 117.4 43.7491C117.644 43.8781 117.861 43.5094 117.616 43.3801C116.677 42.8927 115.648 42.5998 114.592 42.5193C113.536 42.4388 112.474 42.5723 111.471 42.9118C110.9 43.1054 110.355 43.3672 109.847 43.6913L110.162 43.819L109.695 42.2912C109.684 42.2555 109.665 42.2231 109.638 42.1971C109.611 42.1711 109.578 42.1525 109.542 42.143C109.506 42.1335 109.468 42.1335 109.432 42.1429C109.396 42.1524 109.362 42.171 109.336 42.197C108.855 42.8041 108.502 43.5018 108.299 44.2481C108.096 44.9944 108.047 45.7738 108.156 46.5394C108.26 47.2939 108.524 48.018 108.929 48.6641C109.334 49.3103 109.873 49.8638 110.508 50.2886C111.143 50.7149 111.857 51.0118 112.608 51.162C113.359 51.3122 114.132 51.3127 114.883 51.1635C115.304 51.0831 115.78 50.9681 116.193 51.1432C116.343 51.215 116.474 51.3187 116.579 51.4469C116.684 51.5751 116.759 51.7247 116.799 51.885C117.033 52.673 116.635 53.4213 116.229 54.0765L116.695 54.1367Z" fill="#2F2E41"/>
<path d="M112.857 69.1262L112.851 69.1262C112.771 69.1259 112.694 69.0986 112.631 69.0487C112.569 68.9989 112.525 68.9293 112.508 68.8516L112.536 62.9158C112.518 62.8354 112.528 62.7513 112.564 62.6774C112.601 62.6035 112.661 62.5442 112.736 62.5093C113.775 62.024 114.848 61.9587 116.017 62.3103C116.107 62.3366 116.182 62.3967 116.228 62.4776C116.274 62.5586 116.286 62.654 116.262 62.7437L113.202 68.8612C113.183 68.9376 113.138 69.0052 113.076 69.0533C113.013 69.1013 112.936 69.127 112.857 69.1262Z" fill="#CCCCCC"/>
</g>
<defs>
<clipPath id="clip0">
<rect width="133" height="101" fill="white"/>
</clipPath>
</defs>
</svg>
