<svg width="11" height="11" viewBox="0 0 11 11" fill="none" xmlns="http://www.w3.org/2000/svg">
<path d="M3.44679 0.0180483C2.70921 0.0459576 2.20686 0.149617 1.72445 0.372884C1.21612 0.608111 0.719745 1.06461 0.460596 1.53507C0.275204 1.87196 0.127688 2.35039 0.0678848 2.81686C0.0240287 3.15974 -0.00188621 4.11061 0.000107251 5.50803C0.000107251 7.44766 0.0300091 8.09952 0.141643 8.57795C0.380857 9.60458 1.0068 10.3621 1.90585 10.709C2.55173 10.9581 3.0501 11 5.50005 11C7.55331 11 8.0756 10.9761 8.57596 10.8585C9.49693 10.6432 10.2226 10.101 10.6013 9.34742C10.7608 9.03246 10.8884 8.57795 10.9422 8.14138C10.9841 7.8025 11 7.13469 11 5.86685C11 4.21228 10.9741 3.06206 10.9342 2.78696C10.7668 1.67062 10.2106 0.827392 9.3554 0.398799C8.86899 0.155598 8.35668 0.0499439 7.49351 0.0160551C6.93335 -0.00587273 4.02689 -0.00587273 3.44679 0.0180483ZM7.81246 1.03072C8.03772 1.05465 8.30285 1.09053 8.40053 1.11046C8.84906 1.20216 9.22981 1.42344 9.477 1.73442C9.61056 1.90386 9.76406 2.17896 9.82785 2.36235C9.88167 2.51984 9.95942 2.93049 9.98732 3.19562C10.0192 3.5046 10.0352 6.63832 10.0073 7.21443C9.97935 7.78655 9.91955 8.3188 9.85376 8.54007C9.69229 9.10223 9.38929 9.46305 8.85903 9.72817C8.55602 9.87968 8.19321 9.95144 7.53338 9.9933C6.96524 10.0292 4.11261 10.0352 3.65013 10.0033C3.14777 9.96739 2.66735 9.90559 2.47 9.85376C2.23079 9.78798 1.95569 9.65242 1.77428 9.50889C1.55899 9.33546 1.31379 8.99458 1.21014 8.72347C1.13438 8.52014 1.03272 7.99187 1.01079 7.6809C0.978894 7.21044 0.966934 4.45548 0.992849 3.87339C1.02076 3.30526 1.07657 2.75108 1.13239 2.51784C1.23206 2.11118 1.44536 1.75834 1.7384 1.5251C2.1969 1.1603 2.59559 1.04867 3.69598 0.984875C3.76176 0.980888 4.62293 0.980888 5.60969 0.982882C7.30812 0.986869 7.42573 0.988862 7.81246 1.03072Z" fill="white"/>
<path d="M8.30155 1.88834C8.10818 1.93817 7.92279 2.09167 7.83109 2.27905C7.77528 2.39468 7.7693 2.42059 7.77727 2.56213C7.78524 2.7535 7.83707 2.87111 7.97661 3.00667C8.12612 3.15418 8.2258 3.19604 8.43112 3.19604C8.63446 3.19604 8.74011 3.15219 8.88762 3.00866C9.10092 2.80134 9.15475 2.52624 9.03713 2.27507C8.98331 2.16343 8.81586 1.99598 8.70423 1.94216C8.59259 1.88634 8.40122 1.86242 8.30155 1.88834Z" fill="white"/>
<path d="M5.13481 2.68975C4.21782 2.78743 3.39851 3.35756 2.95995 4.20279C2.77057 4.57157 2.68086 4.91046 2.65694 5.35102C2.60112 6.37366 3.05563 7.28068 3.91282 7.8548C4.40321 8.18172 4.85971 8.31728 5.47967 8.31529C5.96608 8.31529 6.3568 8.22957 6.73954 8.0382C7.32761 7.74516 7.84391 7.18898 8.09908 6.57101C8.39411 5.85935 8.36221 4.92242 8.01934 4.23867C7.83993 3.87586 7.47313 3.44328 7.12627 3.18214C6.61196 2.7954 5.87239 2.61201 5.13481 2.68975ZM5.78268 3.67452C6.49036 3.78017 7.08042 4.3204 7.26581 5.03206C7.30767 5.19353 7.31764 5.27526 7.31764 5.48856C7.31963 6.00288 7.16215 6.38961 6.79934 6.76039C6.53023 7.03549 6.21725 7.21091 5.87438 7.28068C5.68101 7.32055 5.29428 7.32254 5.09693 7.28467C4.5587 7.18101 4.0404 6.78232 3.80318 6.28595C3.54004 5.73974 3.57792 5.04004 3.89886 4.52373C4.00053 4.36027 4.27762 4.06723 4.42514 3.96756C4.82383 3.69844 5.28432 3.59877 5.78268 3.67452Z" fill="white"/>
</svg>
