<svg width="55" height="55" viewBox="0 0 55 55" fill="none" xmlns="http://www.w3.org/2000/svg">
<g clip-path="url(#clip0)">
<path d="M55 27.5C55.0049 31.2227 54.2514 34.9073 52.7854 38.3291L52.6942 38.539C50.2144 44.1805 45.9144 48.8275 40.482 51.7369C35.0495 54.6463 28.7984 55.65 22.7282 54.5875C22.563 54.5582 22.3981 54.5278 22.2335 54.4964C20.5325 54.1666 18.8668 53.6754 17.2591 53.0294C16.9979 52.9245 16.7387 52.8157 16.4813 52.7032C16.3055 52.6267 16.1298 52.5478 15.9557 52.4664C11.1928 50.2589 7.16018 46.7359 4.33323 42.3124C1.50628 37.889 0.0027961 32.7496 0 27.5C0 12.3123 12.3124 0 27.5 0C42.6876 0 55 12.3123 55 27.5Z" fill="#28DF99"/>
<path opacity="0.2" d="M18.0392 19.6508C17.5201 22.5796 18.6661 25.2315 18.6661 25.2315C18.6661 25.2315 20.6537 23.135 21.1728 20.2062C21.692 17.2774 20.546 14.6255 20.546 14.6255C20.546 14.6255 18.5584 16.722 18.0392 19.6508Z" fill="black"/>
<path d="M27.4436 33.59C33.3646 33.59 38.1645 28.79 38.1645 22.869C38.1645 16.948 33.3646 12.1481 27.4436 12.1481C21.5226 12.1481 16.7227 16.948 16.7227 22.869C16.7227 28.79 21.5226 33.59 27.4436 33.59Z" fill="#A0616A"/>
<path d="M23.2559 31.0772C23.2559 31.0772 24.596 37.4428 24.596 38.1129C24.596 38.7829 30.9615 41.7982 30.9615 41.7982L36.657 40.7931L38.6672 34.7626C38.6672 34.7626 35.3169 29.7371 35.3169 27.7269L23.2559 31.0772Z" fill="#A0616A"/>
<path d="M52.7852 38.3297L52.694 38.5396C50.2142 44.1811 45.9142 48.8281 40.4818 51.7374C35.0493 54.6468 28.7982 55.6505 22.728 54.588C22.5628 54.5587 22.3979 54.5283 22.2333 54.4969C20.5323 54.1671 18.8666 53.6759 17.2589 53.0299C16.9977 52.925 16.7385 52.8162 16.4811 52.7037C16.3054 52.6272 16.1296 52.5483 15.9555 52.4669C14.3773 51.7358 12.8722 50.8564 11.4603 49.8406L10.1895 46.1541L10.9038 45.609L12.3732 44.4871L13.941 43.2902L14.3486 42.9786L20.5003 38.2825L20.9543 37.9359L24.1518 35.4951L24.1526 35.4942C24.1526 35.4942 27.6105 41.1285 32.6361 39.4533C37.6618 37.778 37.552 32.9745 37.552 32.9745L52.7852 38.3297Z" fill="#2F2E41"/>
<path d="M18.1464 14.2318C18.1464 14.2318 21.5503 6.85677 28.0743 8.5587C34.5984 10.2606 38.2859 12.8135 38.5696 15.3664C38.8532 17.9193 38.4277 21.7487 38.4277 21.7487C38.4277 21.7487 37.7186 16.501 33.1801 17.6357C28.6416 18.7703 21.5503 17.9193 21.5503 17.9193L20.4156 28.1309C20.4156 28.1309 19.1392 26.2871 17.7209 27.4218C16.3026 28.5564 13.6079 16.501 18.1464 14.2318Z" fill="#2F2E41"/>
<path d="M17.2599 53.0296C16.9987 52.9247 16.7394 52.8159 16.4821 52.7034C16.3063 52.6269 16.1306 52.548 15.9565 52.4666C13.3464 51.2563 10.9418 49.6448 8.83008 47.6907C9.57779 46.6721 10.1904 46.1538 10.1904 46.1538H15.2161L15.9695 48.6874L17.2599 53.0296Z" fill="#2F2E41"/>
<path d="M48.3829 37.7776L52.6942 38.5391C51.5404 41.1675 49.9822 43.599 48.0762 45.7453L48.3829 37.7776Z" fill="#2F2E41"/>
</g>
<defs>
<clipPath id="clip0">
<rect width="55" height="55" fill="white"/>
</clipPath>
</defs>
</svg>
