<svg width="99" height="103" viewBox="0 0 99 103" fill="none" xmlns="http://www.w3.org/2000/svg">
<g clip-path="url(#clip0)">
<path d="M69.0549 12.5646L68.8652 12.7626L81.8797 25.0726L82.0693 24.8747L69.0549 12.5646Z" fill="#E6E6E6"/>
<path d="M82.0902 23.5399L81.8154 23.5564L81.8983 24.9013L80.542 24.8851L80.5391 25.1585L82.1909 25.1779L82.0902 23.5399Z" fill="#E6E6E6"/>
<path d="M70.3957 12.4787L70.3927 12.7521L69.0366 12.7359L69.1195 14.0808L68.8445 14.0973L68.7441 12.4591L70.3957 12.4787Z" fill="#E6E6E6"/>
<path d="M75.4679 20.3217C76.3033 20.3217 76.9806 19.6488 76.9806 18.8188C76.9806 17.9887 76.3033 17.3158 75.4679 17.3158C74.6324 17.3158 73.9551 17.9887 73.9551 18.8188C73.9551 19.6488 74.6324 20.3217 75.4679 20.3217Z" fill="#E6E6E6"/>
<path d="M30.2195 12.5647L17.2051 24.8748L17.3948 25.0727L30.4092 12.7626L30.2195 12.5647Z" fill="#E6E6E6"/>
<path d="M17.084 25.1779L18.7358 25.1585L18.7327 24.8851L17.3766 24.9013L17.4595 23.5564L17.1847 23.5399L17.084 25.1779Z" fill="#E6E6E6"/>
<path d="M30.5306 12.4591L30.4301 14.0973L30.1552 14.0808L30.238 12.7359L28.8819 12.7521L28.8789 12.4787L30.5306 12.4591Z" fill="#E6E6E6"/>
<path d="M23.8077 20.3217C24.6432 20.3217 25.3205 19.6488 25.3205 18.8188C25.3205 17.9887 24.6432 17.3158 23.8077 17.3158C22.9722 17.3158 22.2949 17.9887 22.2949 18.8188C22.2949 19.6488 22.9722 20.3217 23.8077 20.3217Z" fill="#E6E6E6"/>
<path d="M60.9147 31.1522H38.0854C37.7572 31.1519 37.4426 31.0222 37.2106 30.7917C36.9785 30.5611 36.848 30.2486 36.8477 29.9225V1.22969C36.848 0.903672 36.9785 0.591112 37.2106 0.36058C37.4426 0.130048 37.7572 0.000371271 38.0854 0H60.9147C61.2429 0.000371271 61.5575 0.130048 61.7895 0.36058C62.0216 0.591112 62.1521 0.903672 62.1525 1.22969V29.9225C62.1521 30.2486 62.0216 30.5611 61.7895 30.7917C61.5575 31.0222 61.2429 31.1519 60.9147 31.1522ZM38.0854 0.273266C37.8301 0.273551 37.5855 0.374408 37.405 0.553712C37.2245 0.733015 37.123 0.97612 37.1227 1.22969V29.9225C37.123 30.1761 37.2245 30.4192 37.405 30.5985C37.5855 30.7778 37.8301 30.8787 38.0854 30.879H60.9147C61.17 30.8787 61.4147 30.7778 61.5951 30.5985C61.7756 30.4192 61.8771 30.1761 61.8774 29.9225V1.22969C61.8771 0.97612 61.7756 0.733015 61.5951 0.553712C61.4147 0.374408 61.17 0.273551 60.9147 0.273266H38.0854Z" fill="#3F3D56"/>
<path d="M47.6011 13.7919H42.5759C42.4118 13.7917 42.2545 13.7269 42.1385 13.6116C42.0225 13.4964 41.9572 13.3401 41.957 13.1771V7.2855C41.9572 7.12249 42.0225 6.96621 42.1385 6.85094C42.2545 6.73567 42.4118 6.67083 42.5759 6.67065H47.6011C47.7652 6.67083 47.9225 6.73567 48.0385 6.85094C48.1545 6.96621 48.2198 7.12249 48.22 7.2855V13.1771C48.2198 13.3401 48.1545 13.4963 48.0385 13.6116C47.9225 13.7269 47.7652 13.7917 47.6011 13.7919Z" fill="#28DF99"/>
<path d="M57.3667 16.5246H52.3415C52.1774 16.5244 52.0201 16.4595 51.9041 16.3443C51.7881 16.229 51.7228 16.0727 51.7227 15.9097V10.0182C51.7228 9.85515 51.7881 9.69887 51.9041 9.5836C52.0201 9.46834 52.1774 9.4035 52.3415 9.40332H57.3667C57.5308 9.4035 57.6881 9.46834 57.8041 9.5836C57.9201 9.69887 57.9854 9.85515 57.9856 10.0182V15.9097C57.9854 16.0727 57.9201 16.229 57.8041 16.3443C57.6881 16.4595 57.5308 16.5244 57.3667 16.5246Z" fill="#CCCCCC"/>
<path d="M49.5269 24.8592H44.5017C44.3376 24.859 44.1803 24.7941 44.0643 24.6789C43.9483 24.5636 43.883 24.4073 43.8828 24.2443V18.3528C43.883 18.1898 43.9483 18.0335 44.0643 17.9182C44.1803 17.8029 44.3376 17.7381 44.5017 17.7379H49.5269C49.691 17.7381 49.8483 17.8029 49.9643 17.9182C50.0803 18.0335 50.1456 18.1898 50.1458 18.3528V24.2443C50.1456 24.4073 50.0803 24.5636 49.9643 24.6789C49.8483 24.7941 49.691 24.859 49.5269 24.8592Z" fill="#FF6584"/>
<path d="M97.7624 60.6555H74.933C74.6049 60.6552 74.2903 60.5255 74.0583 60.295C73.8262 60.0644 73.6957 59.7519 73.6953 59.4258V30.733C73.6957 30.407 73.8262 30.0944 74.0583 29.8639C74.2903 29.6333 74.6049 29.5037 74.933 29.5033H97.7624C98.0905 29.5037 98.4052 29.6333 98.6372 29.8639C98.8692 30.0944 98.9998 30.407 99.0001 30.733V59.4258C98.9998 59.7519 98.8692 60.0644 98.6372 60.295C98.4052 60.5255 98.0905 60.6552 97.7624 60.6555ZM74.933 29.7766C74.6778 29.7768 74.4331 29.8777 74.2526 30.057C74.0722 30.2363 73.9707 30.4794 73.9704 30.733V59.4258C73.9707 59.6794 74.0722 59.9225 74.2526 60.1018C74.4331 60.2811 74.6778 60.382 74.933 60.3823H97.7624C98.0176 60.382 98.2623 60.2811 98.4428 60.1018C98.6233 59.9225 98.7248 59.6794 98.7251 59.4258V30.733C98.7248 30.4794 98.6233 30.2363 98.4428 30.057C98.2623 29.8777 98.0176 29.7768 97.7624 29.7766H74.933Z" fill="#3F3D56"/>
<path d="M90.268 35.8567H82.429C82.2831 35.8567 82.1432 35.7991 82.04 35.6966C81.9369 35.5942 81.8789 35.4551 81.8789 35.3102C81.8789 35.1653 81.9369 35.0262 82.04 34.9237C82.1432 34.8213 82.2831 34.7637 82.429 34.7637H90.268C90.4139 34.7637 90.5538 34.8213 90.657 34.9237C90.7602 35.0262 90.8181 35.1653 90.8181 35.3102C90.8181 35.4551 90.7602 35.5942 90.657 35.6966C90.5538 35.7991 90.4139 35.8567 90.268 35.8567Z" fill="#28DF99"/>
<path d="M94.1169 41.0488H78.5764C78.5041 41.0489 78.4325 41.0348 78.3656 41.0074C78.2988 40.98 78.238 40.9398 78.1868 40.889C78.1357 40.8383 78.0951 40.778 78.0674 40.7116C78.0396 40.6452 78.0254 40.5741 78.0254 40.5022C78.0254 40.4304 78.0396 40.3592 78.0674 40.2929C78.0951 40.2265 78.1357 40.1662 78.1868 40.1154C78.238 40.0647 78.2988 40.0244 78.3656 39.997C78.4325 39.9696 78.5041 39.9556 78.5764 39.9557H94.1169C94.1892 39.9556 94.2609 39.9696 94.3277 39.997C94.3946 40.0244 94.4553 40.0647 94.5065 40.1154C94.5577 40.1662 94.5983 40.2265 94.626 40.2929C94.6537 40.3592 94.668 40.4304 94.668 40.5022C94.668 40.5741 94.6537 40.6452 94.626 40.7116C94.5983 40.778 94.5577 40.8383 94.5065 40.889C94.4553 40.9398 94.3946 40.98 94.3277 41.0074C94.2609 41.0348 94.1892 41.0489 94.1169 41.0488Z" fill="#CCCCCC"/>
<path d="M94.1169 43.918H78.5764C78.5041 43.9181 78.4325 43.9041 78.3656 43.8767C78.2988 43.8493 78.238 43.809 78.1868 43.7583C78.1357 43.7075 78.0951 43.6472 78.0674 43.5808C78.0396 43.5145 78.0254 43.4433 78.0254 43.3715C78.0254 43.2996 78.0396 43.2285 78.0674 43.1621C78.0951 43.0957 78.1357 43.0355 78.1868 42.9847C78.238 42.9339 78.2988 42.8937 78.3656 42.8663C78.4325 42.8389 78.5041 42.8248 78.5764 42.825H94.1169C94.1892 42.8248 94.2609 42.8389 94.3277 42.8663C94.3946 42.8937 94.4553 42.9339 94.5065 42.9847C94.5577 43.0355 94.5983 43.0957 94.626 43.1621C94.6537 43.2285 94.668 43.2996 94.668 43.3715C94.668 43.4433 94.6537 43.5145 94.626 43.5808C94.5983 43.6472 94.5577 43.7075 94.5065 43.7583C94.4553 43.809 94.3946 43.8493 94.3277 43.8767C94.2609 43.9041 94.1892 43.9181 94.1169 43.918Z" fill="#CCCCCC"/>
<path d="M94.1169 46.7874H78.5764C78.5041 46.7875 78.4325 46.7735 78.3656 46.7461C78.2988 46.7187 78.238 46.6784 78.1868 46.6277C78.1357 46.5769 78.0951 46.5166 78.0674 46.4502C78.0396 46.3839 78.0254 46.3127 78.0254 46.2409C78.0254 46.169 78.0396 46.0979 78.0674 46.0315C78.0951 45.9651 78.1357 45.9048 78.1868 45.8541C78.238 45.8033 78.2988 45.7631 78.3656 45.7357C78.4325 45.7083 78.5041 45.6942 78.5764 45.6943H94.1169C94.1892 45.6942 94.2609 45.7083 94.3277 45.7357C94.3946 45.7631 94.4553 45.8033 94.5065 45.8541C94.5577 45.9048 94.5983 45.9651 94.626 46.0315C94.6537 46.0979 94.668 46.169 94.668 46.2409C94.668 46.3127 94.6537 46.3839 94.626 46.4502C94.5983 46.5166 94.5577 46.5769 94.5065 46.6277C94.4553 46.6784 94.3946 46.7187 94.3277 46.7461C94.2609 46.7735 94.1892 46.7875 94.1169 46.7874Z" fill="#CCCCCC"/>
<path d="M94.1169 49.6567H78.5764C78.5041 49.6568 78.4325 49.6427 78.3656 49.6153C78.2988 49.5879 78.238 49.5477 78.1868 49.4969C78.1357 49.4462 78.0951 49.3859 78.0674 49.3195C78.0396 49.2531 78.0254 49.182 78.0254 49.1101C78.0254 49.0383 78.0396 48.9671 78.0674 48.9008C78.0951 48.8344 78.1357 48.7741 78.1868 48.7233C78.238 48.6726 78.2988 48.6323 78.3656 48.6049C78.4325 48.5775 78.5041 48.5635 78.5764 48.5636H94.1169C94.1892 48.5635 94.2609 48.5775 94.3277 48.6049C94.3946 48.6323 94.4553 48.6726 94.5065 48.7233C94.5577 48.7741 94.5983 48.8344 94.626 48.9008C94.6537 48.9671 94.668 49.0383 94.668 49.1101C94.668 49.182 94.6537 49.2531 94.626 49.3195C94.5983 49.3859 94.5577 49.4462 94.5065 49.4969C94.4553 49.5477 94.3946 49.5879 94.3277 49.6153C94.2609 49.6427 94.1892 49.6568 94.1169 49.6567Z" fill="#CCCCCC"/>
<path d="M94.1169 52.5259H78.5764C78.5041 52.526 78.4325 52.512 78.3656 52.4846C78.2988 52.4572 78.238 52.4169 78.1868 52.3662C78.1357 52.3154 78.0951 52.2551 78.0674 52.1888C78.0396 52.1224 78.0254 52.0512 78.0254 51.9794C78.0254 51.9075 78.0396 51.8364 78.0674 51.77C78.0951 51.7037 78.1357 51.6434 78.1868 51.5926C78.238 51.5418 78.2988 51.5016 78.3656 51.4742C78.4325 51.4468 78.5041 51.4327 78.5764 51.4329H94.1169C94.1892 51.4327 94.2609 51.4468 94.3277 51.4742C94.3946 51.5016 94.4553 51.5418 94.5065 51.5926C94.5577 51.6434 94.5983 51.7037 94.626 51.77C94.6537 51.8364 94.668 51.9075 94.668 51.9794C94.668 52.0512 94.6537 52.1224 94.626 52.1888C94.5983 52.2551 94.5577 52.3154 94.5065 52.3662C94.4553 52.4169 94.3946 52.4572 94.3277 52.4846C94.2609 52.512 94.1892 52.526 94.1169 52.5259Z" fill="#CCCCCC"/>
<path d="M94.1169 55.3952H78.5764C78.5041 55.3953 78.4325 55.3813 78.3656 55.3539C78.2988 55.3264 78.238 55.2862 78.1868 55.2354C78.1357 55.1847 78.0951 55.1244 78.0674 55.058C78.0396 54.9916 78.0254 54.9205 78.0254 54.8487C78.0254 54.7768 78.0396 54.7057 78.0674 54.6393C78.0951 54.5729 78.1357 54.5126 78.1868 54.4619C78.238 54.4111 78.2988 54.3709 78.3656 54.3435C78.4325 54.316 78.5041 54.302 78.5764 54.3021H94.1169C94.1892 54.302 94.2609 54.316 94.3277 54.3435C94.3946 54.3709 94.4553 54.4111 94.5065 54.4619C94.5577 54.5126 94.5983 54.5729 94.626 54.6393C94.6537 54.7057 94.668 54.7768 94.668 54.8487C94.668 54.9205 94.6537 54.9916 94.626 55.058C94.5983 55.1244 94.5577 55.1847 94.5065 55.2354C94.4553 55.2862 94.3946 55.3264 94.3277 55.3539C94.2609 55.3813 94.1892 55.3953 94.1169 55.3952Z" fill="#CCCCCC"/>
<path d="M24.0671 60.6555H1.23773C0.909581 60.6552 0.594975 60.5255 0.362935 60.295C0.130896 60.0644 0.000373264 59.7519 0 59.4258V30.733C0.000373264 30.407 0.130896 30.0944 0.362935 29.8639C0.594975 29.6333 0.909581 29.5037 1.23773 29.5033H24.0671C24.3952 29.5037 24.7098 29.6333 24.9419 29.8639C25.1739 30.0944 25.3044 30.407 25.3048 30.733V59.4258C25.3044 59.7519 25.1739 60.0644 24.9419 60.295C24.7098 60.5255 24.3952 60.6552 24.0671 60.6555ZM1.23773 29.7766C0.982503 29.7768 0.737808 29.8777 0.557332 30.057C0.376856 30.2363 0.275337 30.4794 0.27505 30.733V59.4258C0.275337 59.6794 0.376856 59.9225 0.557332 60.1018C0.737808 60.2811 0.982503 60.382 1.23773 60.3823H24.0671C24.3223 60.382 24.567 60.2811 24.7475 60.1018C24.9279 59.9225 25.0295 59.6794 25.0297 59.4258V30.733C25.0295 30.4794 24.9279 30.2363 24.7475 30.057C24.567 29.8777 24.3223 29.7768 24.0671 29.7766H1.23773Z" fill="#3F3D56"/>
<path d="M20.4459 36.2778H13.5696C13.4237 36.2778 13.2838 36.2202 13.1807 36.1177C13.0775 36.0152 13.0195 35.8762 13.0195 35.7312C13.0195 35.5863 13.0775 35.4473 13.1807 35.3448C13.2838 35.2423 13.4237 35.1847 13.5696 35.1847H20.4459C20.5918 35.1847 20.7318 35.2423 20.8349 35.3448C20.9381 35.4473 20.996 35.5863 20.996 35.7312C20.996 35.8762 20.9381 36.0152 20.8349 36.1177C20.7318 36.2202 20.5918 36.2778 20.4459 36.2778Z" fill="#3F3D56"/>
<path d="M20.4459 39.147H13.5696C13.4237 39.147 13.2838 39.0894 13.1807 38.9869C13.0775 38.8845 13.0195 38.7454 13.0195 38.6005C13.0195 38.4555 13.0775 38.3165 13.1807 38.214C13.2838 38.1115 13.4237 38.054 13.5696 38.054H20.4459C20.5918 38.054 20.7318 38.1115 20.8349 38.214C20.9381 38.3165 20.996 38.4555 20.996 38.6005C20.996 38.7454 20.9381 38.8845 20.8349 38.9869C20.7318 39.0894 20.5918 39.147 20.4459 39.147Z" fill="#3F3D56"/>
<path d="M10.0425 40.7808H5.01731C4.85323 40.7806 4.69592 40.7158 4.5799 40.6005C4.46388 40.4852 4.39862 40.329 4.39844 40.1659V34.2744C4.39862 34.1114 4.46388 33.9551 4.5799 33.8398C4.69592 33.7246 4.85323 33.6597 5.01731 33.6595H10.0425C10.2066 33.6597 10.3639 33.7246 10.4799 33.8398C10.5959 33.9551 10.6612 34.1114 10.6614 34.2744V40.1659C10.6612 40.329 10.5959 40.4852 10.4799 40.6005C10.3639 40.7158 10.2066 40.7806 10.0425 40.7808Z" fill="#28DF99"/>
<path d="M20.3981 45.0223H4.8577C4.78537 45.0224 4.71374 45.0083 4.64689 44.9809C4.58004 44.9535 4.51928 44.9133 4.4681 44.8625C4.41692 44.8118 4.37631 44.7515 4.3486 44.6851C4.3209 44.6187 4.30664 44.5476 4.30664 44.4757C4.30664 44.4039 4.3209 44.3327 4.3486 44.2664C4.37631 44.2 4.41692 44.1397 4.4681 44.0889C4.51928 44.0382 4.58004 43.9979 4.64689 43.9705C4.71374 43.9431 4.78537 43.9291 4.8577 43.9292H20.3981C20.4705 43.9291 20.5421 43.9431 20.609 43.9705C20.6758 43.9979 20.7366 44.0382 20.7877 44.0889C20.8389 44.1397 20.8795 44.2 20.9072 44.2664C20.9349 44.3327 20.9492 44.4039 20.9492 44.4757C20.9492 44.5476 20.9349 44.6187 20.9072 44.6851C20.8795 44.7515 20.8389 44.8118 20.7877 44.8625C20.7366 44.9133 20.6758 44.9535 20.609 44.9809C20.5421 45.0083 20.4705 45.0224 20.3981 45.0223Z" fill="#CCCCCC"/>
<path d="M20.3981 47.8915H4.8577C4.78537 47.8917 4.71374 47.8776 4.64689 47.8502C4.58004 47.8228 4.51928 47.7825 4.4681 47.7318C4.41692 47.681 4.37631 47.6207 4.3486 47.5544C4.3209 47.488 4.30664 47.4168 4.30664 47.345C4.30664 47.2731 4.3209 47.202 4.3486 47.1356C4.37631 47.0693 4.41692 47.009 4.4681 46.9582C4.51928 46.9074 4.58004 46.8672 4.64689 46.8398C4.71374 46.8124 4.78537 46.7983 4.8577 46.7985H20.3981C20.4705 46.7983 20.5421 46.8124 20.609 46.8398C20.6758 46.8672 20.7366 46.9074 20.7877 46.9582C20.8389 47.009 20.8795 47.0693 20.9072 47.1356C20.9349 47.202 20.9492 47.2731 20.9492 47.345C20.9492 47.4168 20.9349 47.488 20.9072 47.5544C20.8795 47.6207 20.8389 47.681 20.7877 47.7318C20.7366 47.7825 20.6758 47.8228 20.609 47.8502C20.5421 47.8776 20.4705 47.8917 20.3981 47.8915Z" fill="#CCCCCC"/>
<path d="M20.3981 50.7608H4.8577C4.78537 50.7609 4.71374 50.7469 4.64689 50.7195C4.58004 50.692 4.51928 50.6518 4.4681 50.6011C4.41692 50.5503 4.37631 50.49 4.3486 50.4236C4.3209 50.3573 4.30664 50.2861 4.30664 50.2143C4.30664 50.1424 4.3209 50.0713 4.3486 50.0049C4.37631 49.9385 4.41692 49.8782 4.4681 49.8275C4.51928 49.7767 4.58004 49.7365 4.64689 49.7091C4.71374 49.6816 4.78537 49.6676 4.8577 49.6677H20.3981C20.4705 49.6676 20.5421 49.6816 20.609 49.7091C20.6758 49.7365 20.7366 49.7767 20.7877 49.8275C20.8389 49.8782 20.8795 49.9385 20.9072 50.0049C20.9349 50.0713 20.9492 50.1424 20.9492 50.2143C20.9492 50.2861 20.9349 50.3573 20.9072 50.4236C20.8795 50.49 20.8389 50.5503 20.7877 50.6011C20.7366 50.6518 20.6758 50.692 20.609 50.7195C20.5421 50.7469 20.4705 50.7609 20.3981 50.7608Z" fill="#CCCCCC"/>
<path d="M20.3981 53.63H4.8577C4.78537 53.6302 4.71374 53.6161 4.64689 53.5887C4.58004 53.5613 4.51928 53.5211 4.4681 53.4703C4.41692 53.4195 4.37631 53.3593 4.3486 53.2929C4.3209 53.2265 4.30664 53.1554 4.30664 53.0835C4.30664 53.0117 4.3209 52.9405 4.3486 52.8742C4.37631 52.8078 4.41692 52.7475 4.4681 52.6967C4.51928 52.646 4.58004 52.6057 4.64689 52.5783C4.71374 52.5509 4.78537 52.5369 4.8577 52.537H20.3981C20.4705 52.5369 20.5421 52.5509 20.609 52.5783C20.6758 52.6057 20.7366 52.646 20.7877 52.6967C20.8389 52.7475 20.8795 52.8078 20.9072 52.8742C20.9349 52.9405 20.9492 53.0117 20.9492 53.0835C20.9492 53.1554 20.9349 53.2265 20.9072 53.2929C20.8795 53.3593 20.8389 53.4195 20.7877 53.4703C20.7366 53.5211 20.6758 53.5613 20.609 53.5887C20.5421 53.6161 20.4705 53.6302 20.3981 53.63Z" fill="#CCCCCC"/>
<path d="M20.3981 56.4993H4.8577C4.78537 56.4994 4.71374 56.4854 4.64689 56.458C4.58004 56.4306 4.51928 56.3903 4.4681 56.3396C4.41692 56.2888 4.37631 56.2285 4.3486 56.1621C4.3209 56.0958 4.30664 56.0246 4.30664 55.9528C4.30664 55.8809 4.3209 55.8098 4.3486 55.7434C4.37631 55.677 4.41692 55.6168 4.4681 55.566C4.51928 55.5152 4.58004 55.475 4.64689 55.4476C4.71374 55.4202 4.78537 55.4061 4.8577 55.4063H20.3981C20.4705 55.4061 20.5421 55.4202 20.609 55.4476C20.6758 55.475 20.7366 55.5152 20.7877 55.566C20.8389 55.6168 20.8795 55.677 20.9072 55.7434C20.9349 55.8098 20.9492 55.8809 20.9492 55.9528C20.9492 56.0246 20.9349 56.0958 20.9072 56.1621C20.8795 56.2285 20.8389 56.2888 20.7877 56.3396C20.7366 56.3903 20.6758 56.4306 20.609 56.458C20.5421 56.4854 20.4705 56.4994 20.3981 56.4993Z" fill="#CCCCCC"/>
<path d="M32.6973 77.2857V71.3941C32.6974 71.2311 32.7627 71.0748 32.8787 70.9596C32.9948 70.8443 33.1521 70.7795 33.3161 70.7793H38.3413C38.5054 70.7795 38.6627 70.8443 38.7787 70.9596C38.8948 71.0748 38.96 71.2311 38.9602 71.3941V77.2857C38.96 77.4487 38.8948 77.605 38.7787 77.7202C38.6627 77.8355 38.5054 77.9004 38.3413 77.9005H33.3161C33.1521 77.9004 32.9948 77.8355 32.8787 77.7202C32.7627 77.605 32.6974 77.4487 32.6973 77.2857Z" fill="#E6E6E6"/>
<path d="M34.5078 75.3239V69.4323C34.508 69.2693 34.5733 69.1131 34.6893 68.9978C34.8053 68.8825 34.9626 68.8177 35.1267 68.8175H40.1519C40.316 68.8177 40.4733 68.8825 40.5893 68.9978C40.7053 69.1131 40.7706 69.2693 40.7707 69.4323V75.3239C40.7706 75.4869 40.7053 75.6432 40.5893 75.7585C40.4733 75.8737 40.316 75.9386 40.1519 75.9387H35.1267C34.9626 75.9386 34.8053 75.8737 34.6893 75.7585C34.5733 75.6432 34.508 75.4869 34.5078 75.3239Z" fill="#28DF99"/>
<path d="M57.0344 73.4387C56.8453 73.3302 56.6824 73.1818 56.5573 73.0039C56.4322 72.8261 56.3479 72.6231 56.3103 72.4094C56.2726 72.1957 56.2826 71.9764 56.3396 71.7669C56.3965 71.5574 56.4989 71.3629 56.6397 71.197L55.082 59.8854L58.3268 60.0436L58.8362 71.0769C59.101 71.3304 59.2631 71.6715 59.2916 72.0357C59.3202 72.3999 59.2133 72.7619 58.9912 73.053C58.7691 73.3441 58.4472 73.5442 58.0866 73.6153C57.7259 73.6864 57.3515 73.6236 57.0344 73.4387V73.4387Z" fill="#A0616A"/>
<path d="M58.7727 60.1943C58.7062 60.2721 58.621 60.3319 58.525 60.3683L55.6091 61.474C55.4626 61.5295 55.3003 61.5272 55.1555 61.4674C55.0108 61.4077 54.8946 61.2951 54.8308 61.1528L52.2478 55.3856C51.9998 54.8506 51.9576 54.2439 52.1292 53.6801C52.256 53.2777 52.4897 52.9168 52.8058 52.6353C53.1218 52.3538 53.5084 52.1623 53.9248 52.0808C54.245 52.0153 54.5758 52.02 54.894 52.0944C55.2754 52.1789 55.6296 52.3565 55.9245 52.6111C56.2194 52.8658 56.4457 53.1895 56.5829 53.553L58.8796 59.5842C58.9182 59.6861 58.9287 59.7964 58.9099 59.9037C58.8911 60.011 58.8437 60.1113 58.7727 60.1943Z" fill="#CCCCCC"/>
<path d="M43.5771 101.048H41.5596L40.8281 93.2802L43.5774 93.3168L43.5771 101.048Z" fill="#A0616A"/>
<path d="M40.1178 100.475H44.0086V102.909H37.668C37.668 102.589 37.7313 102.273 37.8544 101.978C37.9776 101.682 38.158 101.414 38.3855 101.188C38.613 100.962 38.883 100.783 39.1803 100.66C39.4775 100.538 39.7961 100.475 40.1178 100.475Z" fill="#2F2E41"/>
<path d="M52.9577 101.048H50.9402L49.9805 93.3167L52.958 93.3168L52.9577 101.048Z" fill="#A0616A"/>
<path d="M49.4986 100.475H53.3895V102.909H47.0488C47.0488 102.589 47.1122 102.273 47.2353 101.978C47.3584 101.682 47.5389 101.414 47.7664 101.188C47.9938 100.962 48.2639 100.783 48.5611 100.66C48.8584 100.538 49.1769 100.475 49.4986 100.475Z" fill="#2F2E41"/>
<path d="M53.2099 98.2972L50.0412 98.0641C49.861 98.0506 49.692 97.9722 49.5658 97.8437C49.4397 97.7151 49.3652 97.5452 49.3563 97.3659L48.6497 82.8592C48.6429 82.7199 48.5852 82.588 48.4874 82.488C48.3897 82.3881 48.2585 82.327 48.1186 82.3163C47.9788 82.3056 47.8398 82.346 47.7277 82.4299C47.6157 82.5138 47.5383 82.6354 47.5102 82.772L44.5627 97.0624C44.5262 97.2382 44.4264 97.3947 44.2819 97.5025C44.1374 97.6104 43.9583 97.6621 43.7782 97.648L40.9139 97.4203C40.8157 97.4125 40.7201 97.3853 40.6327 97.3404C40.5452 97.2954 40.4676 97.2336 40.4045 97.1585C40.3414 97.0834 40.294 96.9966 40.2651 96.903C40.2361 96.8095 40.2263 96.7112 40.2361 96.6139L42.8934 70.2137C42.9038 70.1106 42.936 70.0107 42.9879 69.9208C43.0399 69.8308 43.1104 69.7528 43.1948 69.6918C43.2793 69.6309 43.3757 69.5883 43.4779 69.567C43.58 69.5457 43.6855 69.546 43.7875 69.5681L53.8926 71.7505C54.0599 71.787 54.2094 71.8799 54.3157 72.0134C54.422 72.147 54.4785 72.3129 54.4756 72.4832L54.005 97.5773C54.0013 97.7697 53.9219 97.953 53.7838 98.0879C53.6457 98.2229 53.46 98.2987 53.2663 98.2992C53.2475 98.2992 53.2287 98.2984 53.2099 98.2972Z" fill="#2F2E41"/>
<path d="M50.4383 48.14C52.6705 48.14 54.4801 46.3421 54.4801 44.1244C54.4801 41.9067 52.6705 40.1089 50.4383 40.1089C48.2061 40.1089 46.3965 41.9067 46.3965 44.1244C46.3965 46.3421 48.2061 48.14 50.4383 48.14Z" fill="#A0616A"/>
<path d="M44.1681 72.2496C43.7794 71.9033 43.4709 71.4776 43.2637 71.0016C43.0565 70.5255 42.9555 70.0106 42.9678 69.4921C42.9678 63.7207 47.9961 50.8265 48.1537 50.4242C48.1691 50.3273 48.3018 50.2854 48.9978 49.8183C49.6943 49.3508 50.6986 49.2789 51.9829 49.6048C52.1134 49.638 52.2323 49.7062 52.3266 49.8018C52.4209 49.8975 52.487 50.017 52.5177 50.1473L52.7566 50.4903C52.7774 50.5772 52.8184 50.6582 52.8764 50.7265C52.9344 50.7948 53.0077 50.8487 53.0905 50.8837C54.1261 51.3172 57.4181 53.3161 56.2964 60.839C55.2543 67.8272 54.8315 71.937 54.698 73.3797C54.6823 73.5508 54.6067 73.7111 54.4842 73.8326C54.3618 73.954 54.2003 74.029 54.028 74.0443C53.5202 74.0895 52.6487 74.1495 51.6107 74.1495C49.2046 74.1495 45.9043 73.827 44.1681 72.2496Z" fill="#CCCCCC"/>
<path d="M39.3381 70.1115C39.2419 69.9167 39.19 69.7033 39.1858 69.4864C39.1817 69.2694 39.2255 69.0542 39.3141 68.8559C39.4027 68.6576 39.534 68.4811 39.6988 68.3386C39.8635 68.1962 40.0577 68.0914 40.2677 68.0316L45.3185 57.7765L47.9241 59.7042L42.1589 69.1479C42.2366 69.5049 42.1799 69.8779 41.9993 70.1961C41.8188 70.5143 41.527 70.7557 41.1793 70.8745C40.8316 70.9933 40.4521 70.9812 40.1127 70.8406C39.7734 70.7 39.4977 70.4406 39.338 70.1115L39.3381 70.1115Z" fill="#A0616A"/>
<path d="M48.2085 60.0758C48.1097 60.1036 48.0053 60.1061 47.9052 60.0832L44.8638 59.387C44.711 59.352 44.5776 59.2602 44.4909 59.1305C44.4042 59.0007 44.3709 58.8429 44.3978 58.6895L45.4876 52.4706C45.5817 51.8891 45.8869 51.362 46.3455 50.9888C46.6765 50.7249 47.0731 50.5546 47.4934 50.4958C47.9136 50.437 48.3421 50.492 48.7336 50.6548C49.0362 50.7777 49.3083 50.9647 49.5308 51.2027C49.8001 51.484 49.9945 51.8275 50.0966 52.2022C50.1986 52.577 50.205 52.9711 50.1151 53.3489L48.6394 59.6284C48.6143 59.7344 48.5611 59.8318 48.4854 59.9104C48.4096 59.9891 48.314 60.0462 48.2085 60.0758Z" fill="#CCCCCC"/>
<path d="M49.4913 47.7526C49.2946 47.5532 49.1494 47.3095 49.068 47.0423C48.9867 46.775 48.9716 46.4922 49.0241 46.2179C49.165 45.4856 49.2478 45.0064 49.2635 44.8321C49.3172 44.2357 48.7104 43.7529 48.1099 43.6761C48.0867 43.6731 48.0672 43.6711 48.0509 43.6698C48.0662 43.6847 48.0826 43.6999 48.0971 43.7134C48.2111 43.8198 48.3531 43.9524 48.3193 44.0891C48.299 44.1714 48.2233 44.2298 48.0878 44.2674C47.1488 44.5285 46.4256 44.2888 45.8118 43.5127C45.6393 43.2922 45.5207 43.0348 45.4654 42.761C45.2456 41.6893 45.8314 40.7757 46.3616 40.1982C46.7988 39.7219 47.5075 39.1438 48.4012 39.0942C49.0962 39.0557 49.9227 39.453 50.17 40.1691C50.2867 39.9973 50.442 39.8549 50.6237 39.7531C50.8054 39.6513 51.0085 39.593 51.2169 39.5828C51.6914 39.5726 52.1584 39.7016 52.5594 39.9538C54.5192 41.0691 55.3614 43.7259 54.3987 45.7557C53.793 47.0324 52.4808 47.9829 50.9742 48.2362C50.8799 48.2521 50.7844 48.2601 50.6887 48.2602C50.465 48.2598 50.2437 48.2147 50.038 48.1275C49.8323 48.0403 49.6463 47.9128 49.4913 47.7526Z" fill="#2F2E41"/>
<path d="M30.5396 103H62.629C62.6726 103 62.7145 102.983 62.7453 102.952C62.7762 102.922 62.7935 102.88 62.7935 102.837C62.7935 102.793 62.7762 102.752 62.7453 102.721C62.7145 102.69 62.6726 102.673 62.629 102.673H30.5396C30.4959 102.673 30.4541 102.69 30.4232 102.721C30.3923 102.752 30.375 102.793 30.375 102.837C30.375 102.88 30.3923 102.922 30.4232 102.952C30.4541 102.983 30.4959 103 30.5396 103Z" fill="#3F3D56"/>
</g>
<defs>
<clipPath id="clip0">
<rect width="99" height="103" fill="white"/>
</clipPath>
</defs>
</svg>
