<svg width="11" height="15" viewBox="0 0 11 15" fill="none" xmlns="http://www.w3.org/2000/svg">
<path d="M3.77416 0.0765784C2.87966 0.264663 2.11348 0.684852 1.46053 1.33715C0.735875 2.06147 0.27919 2.93787 0.0489596 4.05837C-0.0265257 4.42653 -0.0114286 5.49902 0.0716052 5.91921C0.154639 6.31939 0.324481 6.84762 0.471677 7.16377C0.867975 7.99614 1.60773 8.81651 2.35503 9.26071C3.53638 9.95702 4.90266 10.0931 6.15949 9.64088C6.34066 9.57285 6.49917 9.53683 6.51427 9.55284C6.52937 9.56885 7.26912 10.7414 8.15985 12.162C9.05435 13.5827 9.81675 14.7752 9.85449 14.8112C10.1829 15.1193 10.6999 15.0393 10.9151 14.6511C10.9981 14.5071 11.0094 14.443 10.9943 14.2229L10.9792 13.9668L7.68807 8.73247L7.95227 8.45635C8.59766 7.78004 9.02416 6.96368 9.23929 5.98324C9.30345 5.6871 9.31855 5.49101 9.31855 4.93877C9.31855 4.33449 9.30723 4.21044 9.21664 3.82627C9.03925 3.06192 8.75241 2.42964 8.32592 1.86938C7.60881 0.912955 6.58221 0.264663 5.46125 0.0565694C5.01211 -0.0274684 4.2082 -0.015463 3.77416 0.0765784ZM5.35935 1.39317C6.19346 1.57325 7.00493 2.14551 7.48803 2.89385C8.24666 4.06237 8.27685 5.64708 7.56352 6.85963C7.32951 7.25581 6.80112 7.82006 6.46143 8.03216C5.81981 8.43634 5.28009 8.5804 4.51391 8.54839C3.93268 8.52438 3.6949 8.46435 3.23444 8.23625C2.24181 7.74803 1.53979 6.81161 1.29824 5.65909C1.21898 5.27892 1.23785 4.44654 1.33598 4.05837C1.66057 2.76979 2.61546 1.75333 3.79303 1.43719C4.18178 1.33314 4.21575 1.32914 4.64224 1.32114C4.88002 1.32114 5.14421 1.34515 5.35935 1.39317Z" fill="#7A7A7A"/>
</svg>
