<svg width="108" height="77" viewBox="0 0 108 77" fill="none" xmlns="http://www.w3.org/2000/svg">
<path opacity="0.1" d="M86.0031 77C94.1532 77 100.76 76.3609 100.76 75.5725C100.76 74.7841 94.1532 74.145 86.0031 74.145C77.8531 74.145 71.2461 74.7841 71.2461 75.5725C71.2461 76.3609 77.8531 77 86.0031 77Z" fill="#28DF99"/>
<path d="M12.8745 12.051C13.213 12.051 13.4873 11.7776 13.4873 11.4405C13.4873 11.1034 13.213 10.8301 12.8745 10.8301C12.5361 10.8301 12.2617 11.1034 12.2617 11.4405C12.2617 11.7776 12.5361 12.051 12.8745 12.051Z" fill="white"/>
<path d="M14.5249 12.051C14.8633 12.051 15.1377 11.7776 15.1377 11.4405C15.1377 11.1034 14.8633 10.8301 14.5249 10.8301C14.1865 10.8301 13.9121 11.1034 13.9121 11.4405C13.9121 11.7776 14.1865 12.051 14.5249 12.051Z" fill="white"/>
<path d="M16.1753 12.051C16.5137 12.051 16.7881 11.7776 16.7881 11.4405C16.7881 11.1034 16.5137 10.8301 16.1753 10.8301C15.8369 10.8301 15.5625 11.1034 15.5625 11.4405C15.5625 11.7776 15.8369 12.051 16.1753 12.051Z" fill="white"/>
<path d="M54.1342 33.1037H52.305V29.5518C52.305 25.5437 49.1081 22.2118 45.0986 22.151C44.1317 22.1409 43.1724 22.3221 42.276 22.6842C41.3795 23.0464 40.5636 23.5823 39.8753 24.2611C39.187 24.9399 38.6398 25.7481 38.2654 26.6392C37.891 27.5304 37.6967 28.4867 37.6937 29.4533V33.1037H35.8685C35.0619 33.1062 34.289 33.4276 33.7186 33.9978C33.1482 34.5679 32.8267 35.3405 32.8242 36.1469V50.7513C32.8267 51.5576 33.1482 52.3302 33.7186 52.9004C34.289 53.4706 35.0619 53.792 35.8685 53.7945H54.1342C54.9407 53.792 55.7135 53.4705 56.2836 52.9003C56.8538 52.3301 57.175 51.5575 57.1772 50.7513V36.1469C57.175 35.3407 56.8538 34.5681 56.2836 33.9979C55.7135 33.4277 54.9407 33.1062 54.1342 33.1037ZM46.0679 42.5975V47.8283C46.0696 48.1052 45.966 48.3725 45.778 48.576C45.59 48.7794 45.3317 48.9039 45.0554 48.9241C44.9111 48.9308 44.767 48.9083 44.6317 48.8577C44.4964 48.8072 44.3728 48.7298 44.2683 48.6301C44.1638 48.5304 44.0806 48.4106 44.0237 48.2779C43.9669 48.1452 43.9376 48.0023 43.9375 47.858V42.5948C43.4437 42.3541 43.046 41.9531 42.8094 41.4573C42.5729 40.9616 42.5114 40.4003 42.635 39.8651C42.7585 39.3299 43.0599 38.8524 43.49 38.5105C43.92 38.1685 44.4532 37.9824 45.0027 37.9824C45.5522 37.9824 46.0854 38.1685 46.5155 38.5105C46.9455 38.8524 47.2469 39.3299 47.3705 39.8651C47.4941 40.4003 47.4326 40.9616 47.196 41.4573C46.9594 41.9531 46.5618 42.3541 46.0679 42.5948V42.5975ZM50.1773 33.1037H39.8241V29.4533C39.8241 28.0814 40.3692 26.7657 41.3397 25.7956C42.3101 24.8256 43.6263 24.2806 44.9987 24.2806C46.3711 24.2806 47.6872 24.8256 48.6577 25.7956C49.6281 26.7657 50.1733 28.0814 50.1733 29.4533L50.1773 33.1037Z" fill="#28DF99"/>
<path d="M95.6253 76.0026C95.5755 75.7536 95.4905 75.513 95.3726 75.2879L94.2413 73.605H94.2479C94.2479 73.605 94.0697 72.7598 94.2479 72.3447C94.4261 71.9296 93.6125 70.9087 93.6125 70.9087C93.6125 70.9087 93.5135 70.6524 93.7718 70.3368C94.0301 70.0213 93.6125 69.0972 93.6125 69.0972C93.6125 69.0972 93.4145 67.1673 93.3947 66.8724C93.3749 66.5775 93.2156 64.9434 93.2156 64.9434L92.8385 61.479L92.1672 52.2971L92.155 52.1253C92.2379 52.0849 92.2822 52.0595 92.2822 52.0595L92.1484 46.9826L92.2643 46.8784C93.2769 45.9655 95.6121 43.8525 95.5885 43.8065C95.5649 43.7604 95.3057 40.2782 95.2755 39.4067C95.2496 38.7873 95.1136 38.1775 94.8739 37.6054C94.8154 37.4899 94.6467 36.7283 94.5769 36.4061C94.5581 36.3179 94.5458 36.2625 94.5458 36.2625C94.5458 36.2625 93.8614 34.9627 93.9208 34.372C93.9802 33.7813 94.0989 33.3389 92.6395 33.1323C92.6395 33.1323 91.414 32.9501 90.6843 32.4534C90.2527 32.1558 89.781 31.9205 89.2833 31.7546C89.2833 31.7546 88.8742 31.0033 88.5894 31.2578C88.4689 30.9898 88.3787 30.7091 88.3207 30.4211L88.3123 30.3685C88.8527 29.9931 89.2417 29.4386 89.4096 28.8039C89.4191 28.7682 89.4266 28.7316 89.4351 28.6959C89.4634 28.7055 89.4929 28.7108 89.5228 28.7119C89.7707 28.7119 89.9234 28.4367 90.1554 28.3494C90.2496 28.3127 90.3656 28.3071 90.4382 28.2329C90.4621 28.2043 90.48 28.1712 90.4907 28.1355C90.5014 28.0998 90.5047 28.0624 90.5004 28.0254C90.5028 27.9997 90.5028 27.974 90.5004 27.9484C90.5009 27.9393 90.5009 27.9302 90.5004 27.9211V27.9305C90.4372 27.5887 90.1714 27.2853 90.2006 26.9379C90.2289 26.611 90.5174 26.3237 90.4938 26.0053C90.4935 25.9801 90.4913 25.955 90.4872 25.9302V25.9414C90.4521 25.8171 90.3874 25.7031 90.2987 25.609C90.1972 25.4713 90.064 25.3598 89.9102 25.2841C89.7792 25.2268 89.6274 25.2136 89.5049 25.1451C89.1447 24.9497 89.1457 24.4407 88.9317 24.0932C88.84 23.9482 88.7098 23.8312 88.5556 23.7551C88.4014 23.679 88.2291 23.6469 88.0577 23.6622C87.79 23.6885 87.5477 23.8303 87.2828 23.8763C86.9207 23.9402 86.5521 23.8228 86.209 23.6885C85.8658 23.5542 85.5179 23.4067 85.1493 23.4067C84.7807 23.4067 84.3819 23.5946 84.2706 23.9411C84.2112 24.1289 84.2405 24.3308 84.1952 24.5215C84.1141 24.8577 83.8181 25.0981 83.5117 25.2653C83.3232 25.3695 83.0988 25.4888 83.0403 25.686C83.0403 25.6804 83.0403 25.6757 83.0403 25.671C83.0361 25.6867 83.033 25.7027 83.0309 25.7189C83.029 25.7398 83.029 25.7609 83.0309 25.7818C83.0309 25.917 83.1026 26.0457 83.1506 26.1743C83.2402 26.4191 83.2382 26.6879 83.145 26.9313C83.0752 27.1097 82.9564 27.2666 82.8885 27.444C82.8566 27.5267 82.8356 27.6132 82.8263 27.7014V27.6863C82.824 27.7264 82.824 27.7665 82.8263 27.8066C82.8252 27.9437 82.8575 28.0791 82.9206 28.201C82.9639 28.2852 83.0236 28.3599 83.0963 28.4207C83.169 28.4815 83.2532 28.5272 83.3439 28.555C83.5325 28.5982 83.6503 28.4142 83.8492 28.4611C83.8848 28.4697 83.9198 28.4806 83.9539 28.494C83.9605 28.5363 83.9671 28.5785 83.9746 28.6198C84.0949 29.2519 84.433 29.8222 84.9306 30.2323C84.9306 30.2549 84.9381 30.2774 84.9409 30.3009C85.0012 30.6753 85.0273 31.0544 85.0192 31.4335C85.0192 31.4335 84.7222 31.0005 84.3149 31.8363C84.3149 31.8363 83.2525 32.4468 82.8857 32.5163C82.519 32.5858 81.217 33.0375 81.217 33.0375C81.0206 33.1789 80.7844 33.2549 80.542 33.2544C80.1357 33.2544 79.7982 34.14 79.8472 34.6218C79.8962 35.1036 79.818 35.4586 79.4399 35.4783C79.0619 35.498 79.2683 36.2615 79.2712 36.2747L79.2363 36.439C79.1627 36.7752 79.0025 37.4965 78.9459 37.6092C78.7062 38.1813 78.5699 38.7911 78.5434 39.4104C78.5141 40.2819 78.2605 43.7511 78.2313 43.8102C78.2115 43.8487 79.8114 45.3053 80.9361 46.3233L81.0992 46.4698L80.5816 51.2857C80.5967 51.4712 80.6521 51.6513 80.7439 51.8134C80.8357 51.9756 80.9617 52.1159 81.1133 52.2248C81.1133 52.2811 81.1133 52.3384 81.1077 52.3976C81.085 52.9611 81.0398 53.6429 80.9493 53.8213C80.7909 54.1369 80.8305 55.8292 80.8305 55.8292C80.8305 55.8292 80.6712 59.2739 80.4732 59.6486C80.2752 60.0233 80.2347 60.8094 80.2941 60.9634C80.3535 61.1174 80.0951 65.2543 80.0951 65.2543L79.8972 67.1053C79.8972 67.1053 79.9566 68.8765 79.7774 68.9159C79.5983 68.9554 79.4993 70.1762 79.4993 70.1762C79.4993 70.1762 78.8648 71.0421 79.142 71.3567C79.4192 71.6713 79.1015 71.8103 79.0722 71.8882C79.043 71.9662 78.467 72.2639 78.8837 73.3646C78.8875 73.3754 78.8919 73.3861 78.8969 73.3965C78.5066 73.9365 77.2697 75.6786 77.3451 75.9434C77.4008 76.1119 77.5188 76.2529 77.6751 76.3378C77.9664 76.5116 78.466 76.5923 79.2608 76.3378C80.5807 75.9143 80.4864 75.6091 80.4864 75.6091C80.4931 75.4664 80.5546 75.3317 80.6581 75.2328C80.7616 75.1339 80.8992 75.0783 81.0426 75.0775C81.5885 75.0381 81.9958 74.5366 81.9958 74.5366L81.9316 74.299L81.844 73.9703C81.8543 73.8764 81.9213 73.712 82.2211 73.6209C82.6783 73.4829 82.5586 72.617 82.5586 72.617C82.5586 72.617 82.519 71.7117 82.717 71.5934C82.9149 71.475 82.8367 69.979 82.8367 69.979C82.8367 69.979 83.0554 68.8962 83.3722 68.1674C83.689 67.4387 84.0679 63.1093 84.0679 63.1093C84.0679 63.1093 84.3253 60.9831 84.5638 60.3727C84.8024 59.7622 85.0211 58.0502 85.0211 58.0502C85.0211 58.0502 86.4908 55.215 86.5097 54.5848C86.5097 54.5848 86.6983 53.9941 86.8868 54.644C87.0754 55.2939 87.6052 56.8491 87.6052 56.8491L88.1209 58.7583L88.7365 61.6123L89.1343 64.0146C89.1343 64.0146 89.074 64.9199 89.2286 65.2355C89.3832 65.551 89.6057 66.2779 89.4869 66.416C89.3682 66.554 89.7245 67.2039 89.8245 67.341C89.9244 67.4781 89.8245 70.3922 89.8245 70.3922C89.8245 70.3922 90.2808 72.8725 90.936 73.3035C90.9817 73.3334 91.0303 73.3586 91.0812 73.3786C91.0717 73.6472 91.0623 74.0069 91.0746 74.1948C91.0731 74.2367 91.0802 74.2786 91.0953 74.3178C91.1547 74.3967 91.8297 74.9282 91.9692 74.9282C92.1088 74.9282 92.6037 75.2729 92.6245 75.44C92.6452 75.6072 94.0754 76.3153 94.2781 76.336C94.4808 76.3566 95.4631 76.5322 95.5979 76.2571C95.6313 76.1766 95.6408 76.0883 95.6253 76.0026ZM92.1116 40.5298L92.2134 40.6172C92.2134 40.6172 92.3181 41.4295 92.3925 41.6728C92.467 41.916 92.3775 42.3893 92.3775 42.3893C92.3843 42.566 92.4196 42.7404 92.4821 42.9058C92.5707 43.0833 92.303 43.4693 92.303 43.4693H92.0645L91.99 40.4284L92.1116 40.5298ZM85.0192 31.4504V31.4325C85.0173 31.4382 85.0164 31.4447 85.0164 31.4504H85.0192ZM81.3566 43.1566C81.3199 43.0779 81.3145 42.9883 81.3415 42.9058C81.3627 42.8613 81.3794 42.8147 81.3914 42.7668C81.4207 42.6435 81.439 42.5178 81.4461 42.3912C81.4463 42.3896 81.4463 42.3881 81.4461 42.3865C81.4376 42.3414 81.3613 41.9057 81.432 41.6746C81.5027 41.4436 81.6102 40.6191 81.6102 40.6191L81.678 40.5618L81.8355 40.4256C81.8355 40.4256 81.8355 40.3749 81.8468 40.2913C81.8798 41.005 81.9062 41.7939 81.8638 41.8334C81.7846 41.9113 81.4961 42.6786 81.5659 42.7086C81.5885 42.719 81.5574 43.026 81.5046 43.4393C81.4453 43.3506 81.3957 43.2558 81.3566 43.1566Z" fill="url(#paint0_linear)"/>
<path d="M88.9535 32.2009V33.3692L86.5475 34.5741C86.5475 34.5741 84.1585 33.1344 84.7478 32.5615C85.1249 32.199 85.0523 31.2036 84.9505 30.5189C84.8911 30.1208 84.8223 29.8287 84.8223 29.8287C84.8223 29.8287 89.1137 28.6078 88.4651 29.5347C88.2483 29.8447 88.2313 30.2457 88.3039 30.6429C88.451 31.4308 88.9535 32.2009 88.9535 32.2009Z" fill="#C37098"/>
<path d="M82.3635 43.6253L82.0534 47.4307C82.0534 47.4307 81.5886 47.0109 80.9871 46.4643C79.8718 45.451 78.288 44.0019 78.3068 43.9634C78.336 43.9042 78.5896 40.452 78.617 39.5842C78.6428 38.9683 78.7774 38.3617 79.0148 37.7924C79.0714 37.6797 79.2307 36.9622 79.2977 36.6269C79.3203 36.5227 79.3344 36.4551 79.3344 36.4551L79.8548 36.2466C79.8548 36.2466 82.0232 38.6564 82.0232 38.7005C82.0232 38.7447 81.8752 40.5957 81.8752 40.5957L81.7215 40.729L81.6546 40.7863C81.6546 40.7863 81.5509 41.5949 81.4773 41.8372C81.4038 42.0795 81.483 42.5002 81.4915 42.5453C81.4845 42.6718 81.4666 42.7975 81.4377 42.921C81.4254 42.9684 81.4087 43.0147 81.3878 43.059C81.3612 43.1412 81.3666 43.2304 81.4029 43.3088C81.4447 43.4177 81.4992 43.5214 81.565 43.6178L82.3635 43.6253Z" fill="#3F3D56"/>
<path d="M95.505 43.9633C95.5277 44.0093 93.2151 46.112 92.2129 47.0201L91.7585 47.4305L91.4512 43.6252H92.2478C92.2478 43.6252 92.5137 43.2429 92.425 43.0664C92.3633 42.9018 92.3286 42.7283 92.3223 42.5527C92.3223 42.5527 92.41 42.0831 92.3364 41.8399C92.2629 41.5967 92.1592 40.789 92.1592 40.789L92.0583 40.7026L91.9386 40.5984C91.9386 40.5984 91.7906 38.7473 91.7906 38.7032C91.7906 38.6591 93.9589 36.2493 93.9589 36.2493L94.4755 36.4549C94.4755 36.4549 94.4869 36.5103 94.5057 36.5986C94.5755 36.9189 94.7423 37.6767 94.7998 37.7923C95.0372 38.3616 95.1719 38.9682 95.1977 39.5841C95.2222 40.4519 95.4749 43.9041 95.505 43.9633Z" fill="#3F3D56"/>
<path d="M95.5141 76.2637C95.3755 76.5379 94.4025 76.3576 94.2017 76.3425C94.0009 76.3275 92.583 75.6166 92.5632 75.4504C92.5434 75.2842 92.0522 74.9414 91.9146 74.9414C91.777 74.9414 91.1085 74.4117 91.0491 74.3338C91.0341 74.2949 91.0273 74.2533 91.0293 74.2117C91.0086 73.8896 91.0491 73.0603 91.0491 73.0603L93.901 73.2171L95.2868 75.2935C95.4037 75.5176 95.4881 75.7569 95.5376 76.0045C95.5544 76.0913 95.5463 76.1812 95.5141 76.2637Z" fill="#3F3D56"/>
<path opacity="0.1" d="M95.5141 76.2637C95.3755 76.5379 94.4025 76.3576 94.2017 76.3425C94.0009 76.3275 92.583 75.6166 92.5632 75.4504C92.5434 75.2842 92.0522 74.9414 91.9146 74.9414C91.777 74.9414 91.1085 74.4117 91.0491 74.3338C91.0341 74.2949 91.0273 74.2533 91.0293 74.2117C91.0086 73.8896 91.0491 73.0603 91.0491 73.0603L93.901 73.2171L95.2868 75.2935C95.4037 75.5176 95.4881 75.7569 95.5376 76.0045C95.5544 76.0913 95.5463 76.1812 95.5141 76.2637Z" fill="black"/>
<path opacity="0.1" d="M95.5144 76.2637C95.3758 76.5379 94.4029 76.3576 94.202 76.3426C94.0012 76.3275 92.5833 75.6166 92.5635 75.4504C92.5437 75.2842 92.0525 74.9414 91.9149 74.9414C91.7772 74.9414 91.1088 74.4117 91.0494 74.3338C91.0344 74.2949 91.0276 74.2533 91.0296 74.2117L91.9535 74.7939C91.9535 74.7939 92.5437 75.1696 92.7012 75.3922C92.8586 75.6147 94.0993 76.0777 94.202 76.0871C94.2784 76.0946 95.093 75.9387 95.5379 76.0045C95.5548 76.0913 95.5466 76.1812 95.5144 76.2637Z" fill="black"/>
<path d="M82.0317 74.5497C82.0317 74.5497 81.6282 75.0493 81.0889 75.0878C80.9466 75.0889 80.8101 75.1443 80.7077 75.2427C80.6052 75.3411 80.5446 75.4749 80.5383 75.6165C80.5383 75.6165 80.6326 75.9208 79.3288 76.3425C78.5416 76.5951 78.0466 76.5153 77.7581 76.3425C77.6033 76.2574 77.4865 76.1172 77.431 75.9499C77.3424 75.6372 79.0827 73.2565 79.0827 73.2565L80.6666 73.1626L81.7979 73.6716L81.9713 74.3168L82.0317 74.5497Z" fill="#3F3D56"/>
<path opacity="0.1" d="M82.0317 74.5497C82.0317 74.5497 81.6282 75.0493 81.0889 75.0878C80.9466 75.0889 80.8101 75.1443 80.7077 75.2427C80.6052 75.3411 80.5446 75.4749 80.5383 75.6165C80.5383 75.6165 80.6326 75.9208 79.3288 76.3425C78.5416 76.5951 78.0466 76.5153 77.7581 76.3425C77.6033 76.2574 77.4865 76.1172 77.431 75.9499C77.3424 75.6372 79.0827 73.2565 79.0827 73.2565L80.6666 73.1626L81.7979 73.6716L81.9713 74.3168L82.0317 74.5497Z" fill="black"/>
<path opacity="0.1" d="M82.0333 74.5499C82.0333 74.5499 81.6298 75.0495 81.0905 75.088C80.9482 75.0891 80.8118 75.1445 80.7093 75.2429C80.6069 75.3413 80.5462 75.4751 80.54 75.6167C80.54 75.6167 80.6342 75.921 79.3304 76.3427C78.5432 76.5953 78.0483 76.5155 77.7598 76.3427C78.5017 76.2657 80.1412 75.7989 80.3052 75.6374C80.5023 75.4411 80.7483 74.9021 80.9152 74.8927C81.0311 74.8852 81.6204 74.532 81.9739 74.3132L82.0333 74.5499Z" fill="black"/>
<path d="M94.1757 72.3655C93.9985 72.7768 94.1757 73.6192 94.1757 73.6192C94.1757 73.6192 91.536 73.7563 90.8911 73.3252C90.2463 72.8942 89.79 70.4252 89.79 70.4252C89.79 70.4252 89.8843 67.5261 89.79 67.389C89.6957 67.2519 89.3375 66.6058 89.4553 66.4687C89.5732 66.3316 89.361 65.6066 89.1998 65.2929C89.0386 64.9792 89.1055 64.0786 89.1055 64.0786L88.7115 61.6876L88.1024 58.8477L87.5849 56.9469C87.5849 56.9469 87.0541 55.3992 86.874 54.7531C86.694 54.1069 86.5035 54.6939 86.5035 54.6939C86.4847 55.3212 85.029 58.1424 85.029 58.1424C85.029 58.1424 84.8122 59.8469 84.5765 60.4536C84.3408 61.0602 84.0844 63.177 84.0844 63.177C84.0844 63.177 83.7073 67.4867 83.3962 68.2117C83.0851 68.9367 82.8711 70.0139 82.8711 70.0139C82.8711 70.0139 82.9502 71.5033 82.7532 71.6207C82.5562 71.7381 82.5882 72.6397 82.5882 72.6397C82.5882 72.6397 82.7061 73.5009 82.2535 73.6389C81.801 73.777 81.8764 74.07 81.8764 74.07C81.8764 74.07 79.3593 74.4813 78.9463 73.3835C78.5334 72.2856 79.1038 71.9936 79.1349 71.9147C79.166 71.8358 79.4799 71.6996 79.2046 71.385C78.9294 71.0704 79.5582 70.2102 79.5582 70.2102C79.5582 70.2102 79.6572 68.9959 79.8335 68.9564C80.0098 68.917 79.9523 67.1542 79.9523 67.1542L80.1484 65.3126C80.1484 65.3126 80.4048 61.1983 80.3454 61.0415C80.286 60.8846 80.3256 60.1023 80.5226 59.7267C80.7197 59.351 80.8762 55.9251 80.8762 55.9251C80.8762 55.9251 80.8366 54.2412 80.994 53.9276C81.0883 53.7501 81.1279 53.0673 81.1505 52.5104C81.1675 52.085 81.1713 51.7328 81.1713 51.7328L83.3735 50.9101L86.2018 50.0095L88.5814 51.1459L92.063 51.8117L92.1064 52.4099L92.771 61.5486L93.1481 64.9961C93.1481 64.9961 93.3055 66.6218 93.3253 66.9157C93.3451 67.2096 93.5412 69.1302 93.5412 69.1302C93.5412 69.1302 93.9542 70.0505 93.6987 70.3642C93.4432 70.6778 93.5412 70.9277 93.5412 70.9277C93.5412 70.9277 94.353 71.9541 94.1757 72.3655Z" fill="#3F3D56"/>
<path opacity="0.1" d="M88.467 29.5345C88.2502 29.8444 88.2332 30.2454 88.3058 30.6427C87.8104 30.9908 87.2138 31.1672 86.6079 31.1446C86.0021 31.1221 85.4204 30.9018 84.9524 30.5178C84.893 30.1196 84.8242 29.8275 84.8242 29.8275C84.8242 29.8275 89.1157 28.6085 88.467 29.5345Z" fill="black"/>
<path d="M89.4719 28.3364C89.4719 28.8806 89.3099 29.4126 89.0063 29.8651C88.7028 30.3176 88.2714 30.6703 87.7666 30.8786C87.2619 31.0868 86.7065 31.1413 86.1707 31.0352C85.6348 30.929 85.1426 30.6669 84.7563 30.2821C84.37 29.8973 84.1069 29.407 84.0003 28.8732C83.8938 28.3394 83.9485 27.7862 84.1575 27.2834C84.3666 26.7806 84.7207 26.3508 85.1749 26.0485C85.6292 25.7461 86.1632 25.5847 86.7096 25.5847C87.0728 25.583 87.4328 25.653 87.7687 25.7907C88.1046 25.9283 88.4099 26.1309 88.6667 26.3868C88.9236 26.6427 89.127 26.9467 89.2652 27.2813C89.4034 27.616 89.4736 27.9745 89.4719 28.3364Z" fill="#C37098"/>
<path opacity="0.1" d="M90.0454 32.9089L89.1404 48.9633L84.2239 47.9349L83.25 41.4991L84.2145 32.8591L84.9404 32.9521L86.2207 33.1146L87.4887 33.1925L88.8632 33.0404L90.0454 32.9089Z" fill="black"/>
<path d="M90.0454 33.0264L89.1404 49.0807L84.2239 48.0524L83.25 41.6166L84.2145 32.9775L84.9404 33.0696L86.2207 33.232L87.4887 33.31L88.8632 33.1579L90.0454 33.0264Z" fill="#28DF99"/>
<path d="M86.0039 33.4573L87.7745 33.5164L87.2767 34.2105C87.2767 34.2105 87.3115 35.6126 87.5482 36.0145C87.7848 36.4165 87.7151 42.626 87.7151 42.626L87.2437 43.5172L86.4376 42.518L86.448 34.3194L86.0039 33.4573Z" fill="#3F3D56"/>
<path opacity="0.1" d="M86.0039 33.4573L87.7745 33.5164L87.2767 34.2105C87.2767 34.2105 87.3115 35.6126 87.5482 36.0145C87.7848 36.4165 87.7151 42.626 87.7151 42.626L87.2437 43.5172L86.4376 42.518L86.448 34.3194L86.0039 33.4573Z" fill="black"/>
<path opacity="0.1" d="M88.7767 31.6355L87.125 33.4574L88.0687 34.4369L89.6328 32.9183L88.7767 31.6355Z" fill="black"/>
<path d="M88.7767 31.5181L87.125 33.34L88.0687 34.3195L89.6328 32.8009L88.7767 31.5181Z" fill="#28DF99"/>
<path opacity="0.1" d="M86.4276 33.3689L84.7551 31.7039L84.5977 32.5754L85.3651 34.4856L86.4276 33.3689Z" fill="black"/>
<path d="M86.4872 33.2517L84.8156 31.5867L84.6582 32.4582L85.4256 34.3684L86.4872 33.2517Z" fill="#28DF99"/>
<path opacity="0.1" d="M92.1157 52.4129C91.313 52.7939 90.4532 53.0416 89.5703 53.1463C87.9478 53.352 86.8862 51.2953 86.8862 51.2953L86.2668 52.0983C86.0698 52.951 83.0709 53.166 81.8519 52.843C81.5989 52.7808 81.3611 52.6687 81.1523 52.5134C81.1693 52.0879 81.1731 51.7358 81.1731 51.7358L83.3754 50.9131L86.2037 50.0125L88.5832 51.1488L92.0648 51.8146L92.1157 52.4129Z" fill="black"/>
<path opacity="0.1" d="M90.0473 33.0273L89.1432 49.0808L84.2258 48.0524L83.25 41.6175L84.2135 32.9775L84.9394 33.0715C84.9209 33.3862 84.8853 33.6997 84.8329 34.0106C84.715 34.56 85.4429 38.4583 85.4429 38.4583C85.4429 38.4583 86.8259 42.8299 87.4481 42.1998C88.0703 41.5696 88.9565 38.2423 88.9565 38.2423C89.5571 37.0083 88.9669 33.5467 88.9226 33.4772C88.8917 33.3748 88.8727 33.2692 88.866 33.1625L90.0473 33.0273Z" fill="black"/>
<path opacity="0.1" d="M92.1705 45.45L92.212 47.023L91.7576 47.4334L91.4512 43.6252H92.1299L92.1705 45.45Z" fill="black"/>
<path opacity="0.1" d="M81.4914 42.5481C81.4845 42.6746 81.4665 42.8003 81.4376 42.9237C81.4376 42.889 81.4376 42.8693 81.4301 42.8664C81.4018 42.8589 81.4358 42.7152 81.4914 42.5481Z" fill="black"/>
<path opacity="0.1" d="M82.3628 43.6251L82.0526 47.4305C82.0526 47.4305 81.5878 47.0107 80.9863 46.4641L81.058 45.7898C81.058 45.7898 81.3116 44.1332 81.404 43.3162C81.4459 43.425 81.5003 43.5287 81.5661 43.6251H82.3628Z" fill="black"/>
<path d="M85.0312 31.6447C85.0312 31.6447 84.737 31.2136 84.3335 32.0457C84.3335 32.0457 83.2814 32.6533 82.9194 32.7219C82.5573 32.7904 81.2695 33.2412 81.2695 33.2412C81.075 33.3812 80.8411 33.4565 80.6011 33.4563C80.1976 33.4563 79.8629 34.3381 79.912 34.818C79.961 35.2979 79.8827 35.651 79.5094 35.6707C79.1361 35.6904 79.3416 36.4633 79.3416 36.4633L81.8295 39.3042C81.8295 39.3042 81.987 41.9197 81.9087 41.9986C81.8305 42.0774 81.5448 42.8438 81.6136 42.8701C81.6825 42.8964 81.2365 45.7889 81.2365 45.7889L80.6369 51.4021C80.6369 51.4021 80.6369 52.3412 81.8569 52.6652C83.0768 52.9892 86.0776 52.7751 86.2709 51.9223L86.8903 51.1184C86.8903 51.1184 87.9518 53.1761 89.5743 52.9704C91.1968 52.7647 92.2301 52.1768 92.2301 52.1768L92.0528 45.4499L91.935 40.6011L94.4682 36.4549C94.4682 36.4549 93.7894 35.1617 93.8488 34.5766C93.9082 33.9916 94.0251 33.5483 92.5798 33.3426C92.5798 33.3426 91.3608 33.1614 90.6425 32.6664C90.2155 32.3712 89.749 32.1372 89.2566 31.9715C89.2566 31.9715 88.8512 31.2202 88.5693 31.4775C88.5693 31.4775 88.8522 32.5397 88.8286 32.6984C88.805 32.8571 88.8729 33.5746 88.9172 33.6488C88.9615 33.723 89.5517 37.1799 88.9511 38.4139C88.9511 38.4139 88.0697 41.7412 87.4427 42.3714C86.8158 43.0016 85.4375 38.6299 85.4375 38.6299C85.4375 38.6299 84.7097 34.7307 84.8275 34.1822C84.9454 33.6337 85.0312 31.6447 85.0312 31.6447Z" fill="#3F3D56"/>
<path d="M87.1339 44.4874C87.3729 44.4874 87.5666 44.2944 87.5666 44.0563C87.5666 43.8182 87.3729 43.6252 87.1339 43.6252C86.8949 43.6252 86.7012 43.8182 86.7012 44.0563C86.7012 44.2944 86.8949 44.4874 87.1339 44.4874Z" fill="#3F3D56"/>
<path d="M87.1339 46.5198C87.3729 46.5198 87.5666 46.3268 87.5666 46.0888C87.5666 45.8507 87.3729 45.6577 87.1339 45.6577C86.8949 45.6577 86.7012 45.8507 86.7012 46.0888C86.7012 46.3268 86.8949 46.5198 87.1339 46.5198Z" fill="#3F3D56"/>
<path opacity="0.1" d="M87.1339 44.4874C87.3729 44.4874 87.5666 44.2944 87.5666 44.0563C87.5666 43.8182 87.3729 43.6252 87.1339 43.6252C86.8949 43.6252 86.7012 43.8182 86.7012 44.0563C86.7012 44.2944 86.8949 44.4874 87.1339 44.4874Z" fill="black"/>
<path opacity="0.1" d="M87.1339 46.5198C87.3729 46.5198 87.5666 46.3268 87.5666 46.0888C87.5666 45.8507 87.3729 45.6577 87.1339 45.6577C86.8949 45.6577 86.7012 45.8507 86.7012 46.0888C86.7012 46.3268 86.8949 46.5198 87.1339 46.5198Z" fill="black"/>
<path opacity="0.1" d="M91.0234 71.7776C91.0234 71.7776 92.7996 71.9147 92.9759 72.0518C93.1522 72.1889 91.0234 71.7776 91.0234 71.7776Z" fill="black" stroke="#28DF99" stroke-miterlimit="10"/>
<path opacity="0.1" d="M80.4492 70.3867C80.4492 70.3867 80.8263 70.8563 80.6661 71.0723C80.5058 71.2882 80.4492 70.3867 80.4492 70.3867Z" fill="black" stroke="#28DF99" stroke-miterlimit="10"/>
<path opacity="0.1" d="M80.9004 72.0799C80.9004 72.0799 81.5886 71.6291 81.8639 71.9287C82.1392 72.2282 80.9004 72.0799 80.9004 72.0799Z" fill="black" stroke="#28DF99" stroke-miterlimit="10"/>
<path opacity="0.1" d="M89.4699 28.3364C89.4705 28.5712 89.4407 28.8051 89.3813 29.0323C89.3232 29.0059 89.2745 28.9624 89.2418 28.9077C89.2091 28.853 89.194 28.7896 89.1984 28.7261C89.2107 28.6144 89.2852 28.512 89.2691 28.4012C89.2456 28.2303 89.0382 28.1608 88.9288 28.0255C88.794 27.8621 88.8232 27.6245 88.8345 27.4132C88.8458 27.2019 88.7921 26.9437 88.5932 26.8713C88.5338 26.8497 88.4687 26.8479 88.4112 26.8234C88.2547 26.7577 88.2066 26.5642 88.102 26.4309C87.8927 26.1623 87.4769 26.1679 87.1592 26.2957C87.021 26.3617 86.8794 26.4206 86.735 26.4722C86.6627 26.4976 86.5859 26.5078 86.5095 26.5021C86.4331 26.4965 86.3587 26.4751 86.291 26.4393C86.2287 26.3999 86.1788 26.3454 86.1147 26.306C85.9016 26.1783 85.6225 26.306 85.4378 26.4703C85.253 26.6347 85.105 26.8554 84.8721 26.9559C84.7675 27.0028 84.6383 27.031 84.5893 27.1324C84.565 27.1876 84.5547 27.2479 84.5591 27.308C84.5591 27.6734 84.6025 28.0443 84.5261 28.4021C84.4771 28.6322 84.3149 28.8933 84.0802 28.8651C84.0509 28.8608 84.0222 28.8536 83.9944 28.8435C83.9237 28.4674 83.9326 28.0807 84.0204 27.7082C84.1083 27.3357 84.2731 26.9855 84.5045 26.68C84.7359 26.3745 85.0287 26.1205 85.3642 25.9341C85.6997 25.7478 86.0705 25.6331 86.453 25.5976C86.8355 25.562 87.2212 25.6064 87.5855 25.7277C87.9498 25.8491 88.2847 26.0448 88.5688 26.3023C88.8529 26.5599 89.0799 26.8736 89.2354 27.2236C89.3909 27.5735 89.4714 27.9518 89.4718 28.3345L89.4699 28.3364Z" fill="black"/>
<path d="M83.8728 28.6877C83.9435 28.7037 84.0105 28.7403 84.083 28.7497C84.3178 28.7779 84.4799 28.5168 84.529 28.2867C84.6053 27.9289 84.5657 27.5579 84.5629 27.1926C84.5576 27.1326 84.5677 27.0721 84.5921 27.017C84.6459 26.9156 84.775 26.8874 84.875 26.8404C85.1031 26.739 85.2521 26.523 85.4406 26.3549C85.6292 26.1868 85.9035 26.0628 86.1166 26.1906C86.1797 26.2281 86.2307 26.2845 86.2929 26.3239C86.3609 26.3592 86.4355 26.3803 86.512 26.3859C86.5885 26.3916 86.6653 26.3816 86.7379 26.3568C86.884 26.3136 87.0207 26.2375 87.1612 26.1802C87.476 26.0525 87.8927 26.0478 88.1039 26.3145C88.2086 26.4488 88.2566 26.6413 88.4131 26.7071C88.4706 26.7315 88.5357 26.7343 88.5951 26.7559C88.794 26.8301 88.8449 27.0865 88.8364 27.2978C88.828 27.5091 88.7997 27.7467 88.9307 27.9101C89.0401 28.0435 89.2475 28.113 89.271 28.2858C89.2861 28.3966 89.2126 28.4999 89.2003 28.6107C89.1975 28.6519 89.203 28.6932 89.2163 28.7323C89.2297 28.7714 89.2507 28.8074 89.2781 28.8384C89.3056 28.8693 89.3389 28.8945 89.3762 28.9125C89.4135 28.9304 89.454 28.9409 89.4954 28.9431C89.7405 28.9431 89.8923 28.6699 90.1214 28.5825C90.2157 28.5459 90.3298 28.5403 90.4042 28.4661C90.4319 28.4304 90.4515 28.3892 90.4616 28.3452C90.4717 28.3013 90.4721 28.2557 90.4627 28.2116C90.4165 27.8519 90.1271 27.5391 90.1582 27.1785C90.1874 26.8329 90.5089 26.5315 90.441 26.1915C90.4064 26.0661 90.3417 25.9511 90.2525 25.8562C90.1514 25.7198 90.0197 25.6088 89.8678 25.5322C89.7368 25.4759 89.585 25.4627 89.4653 25.3942C89.1089 25.1998 89.1098 24.6927 88.8996 24.3471C88.8094 24.2042 88.6814 24.0889 88.5298 24.0137C88.3781 23.9385 88.2086 23.9063 88.0398 23.9207C87.7749 23.947 87.5345 24.0869 87.2724 24.1339C86.9132 24.1977 86.5493 24.0803 86.209 23.946C85.8686 23.8117 85.5245 23.6643 85.1597 23.6643C84.7948 23.6643 84.3998 23.8521 84.2886 24.1959C84.2301 24.3837 84.2593 24.5847 84.2141 24.7734C84.1349 25.1087 83.837 25.3472 83.5372 25.5134C83.3307 25.628 83.0828 25.7595 83.0583 25.9933C83.0422 26.1417 83.1243 26.2751 83.1761 26.4188C83.2643 26.6618 83.2623 26.9283 83.1704 27.1701C83.1016 27.3476 82.9866 27.5035 82.9168 27.68C82.8673 27.7998 82.8439 27.9288 82.8481 28.0583C82.8524 28.1878 82.8841 28.3149 82.9414 28.4313C82.9853 28.5162 83.0462 28.5912 83.1203 28.6517C83.1944 28.7123 83.2801 28.7571 83.3722 28.7835C83.5579 28.8276 83.6748 28.6445 83.8728 28.6877Z" fill="#3F3D56"/>
<g opacity="0.1">
<path opacity="0.1" d="M84.5273 28.0816C84.4783 28.3116 84.3152 28.5727 84.0805 28.5445C84.0079 28.5352 83.9419 28.4985 83.8702 28.4826C83.6732 28.4394 83.5563 28.6234 83.3706 28.5765C83.2783 28.5501 83.1925 28.5053 83.1182 28.4448C83.044 28.3842 82.9829 28.3092 82.9388 28.2243C82.8895 28.1287 82.8597 28.0243 82.8511 27.9172C82.8323 28.0835 82.8628 28.2516 82.9388 28.4009C82.9829 28.4857 83.044 28.5607 83.1182 28.6213C83.1925 28.6819 83.2783 28.7267 83.3706 28.753C83.5591 28.7962 83.6732 28.6122 83.8702 28.6591C83.9392 28.683 84.0094 28.7034 84.0805 28.7202C84.3152 28.7493 84.4783 28.4882 84.5273 28.2581C84.566 28.0548 84.5811 27.8478 84.5726 27.6411C84.5717 27.789 84.5565 27.9365 84.5273 28.0816Z" fill="black"/>
<path opacity="0.1" d="M83.2368 26.6674C83.2488 26.5135 83.2276 26.3588 83.1746 26.2138C83.1319 26.1173 83.0957 26.0182 83.0661 25.917C83.0621 25.9328 83.0589 25.9488 83.0567 25.9649C83.0407 26.1123 83.1237 26.2466 83.1746 26.3903C83.2075 26.4795 83.2284 26.5727 83.2368 26.6674Z" fill="black"/>
<path opacity="0.1" d="M90.4372 26.1724C90.3929 26.4391 90.176 26.6898 90.1543 26.9706C90.1491 27.0187 90.1491 27.0672 90.1543 27.1152C90.2015 26.7875 90.4928 26.4973 90.4372 26.1724Z" fill="black"/>
<path opacity="0.1" d="M90.4545 28.1538C90.4466 28.1931 90.428 28.2294 90.4008 28.259C90.331 28.3332 90.2123 28.3388 90.118 28.3754C89.8889 28.4628 89.7409 28.7389 89.492 28.7361C89.4283 28.7325 89.3671 28.7097 89.3167 28.6708C89.2662 28.6319 89.2287 28.5787 89.2092 28.5182C89.2034 28.5385 89.199 28.5593 89.196 28.5802C89.1933 28.6213 89.1988 28.6625 89.2122 28.7015C89.2256 28.7405 89.2467 28.7764 89.2741 28.8072C89.3015 28.8381 89.3349 28.8632 89.3721 28.8811C89.4093 28.899 89.4498 28.9094 89.491 28.9117C89.7371 28.9117 89.8879 28.6384 90.117 28.552C90.2113 28.5154 90.3263 28.5097 90.3999 28.4355C90.4276 28.3999 90.4471 28.3587 90.4572 28.3147C90.4673 28.2708 90.4677 28.2252 90.4583 28.181C90.4574 28.1698 90.4555 28.1623 90.4545 28.1538Z" fill="black"/>
<path opacity="0.1" d="M89.2727 28.076C89.2492 27.9051 89.0418 27.8356 88.9324 27.7004C88.8653 27.6115 88.829 27.5035 88.8287 27.3923C88.8212 27.567 88.824 27.7454 88.9324 27.8769C89.0408 28.0084 89.2058 28.0647 89.2586 28.2C89.2719 28.1601 89.2768 28.1179 89.2727 28.076Z" fill="black"/>
<path opacity="0.1" d="M88.8331 27.0927C88.8407 26.8814 88.7897 26.6232 88.5908 26.5508C88.5324 26.5292 88.4673 26.5264 88.4098 26.5029C88.2533 26.4372 88.2043 26.2437 88.1006 26.1104C87.8903 25.8427 87.4746 25.8474 87.1578 25.9752C87.0164 26.0324 86.8816 26.1085 86.7345 26.1517C86.6622 26.1771 86.5855 26.1873 86.509 26.1816C86.4326 26.176 86.3582 26.1546 86.2905 26.1188C86.2283 26.0794 86.1773 26.0249 86.1142 25.9855C85.9002 25.8578 85.6211 25.9855 85.4373 26.1498C85.2534 26.3142 85.1045 26.5339 84.8716 26.6354C84.766 26.6823 84.6378 26.7105 84.5831 26.8119C84.5591 26.8672 84.5491 26.9275 84.5539 26.9875C84.5539 27.0242 84.5539 27.0608 84.5539 27.0974C84.5551 27.0596 84.5645 27.0224 84.5812 26.9885C84.6359 26.887 84.7641 26.8589 84.8697 26.8119C85.0979 26.7105 85.2468 26.4945 85.4354 26.3264C85.6239 26.1583 85.8983 26.0343 86.1123 26.162C86.1755 26.1996 86.2264 26.256 86.2886 26.2945C86.3562 26.3304 86.4307 26.3519 86.5071 26.3576C86.5836 26.3633 86.6604 26.353 86.7326 26.3273C86.8767 26.2762 87.018 26.2176 87.1559 26.1517C87.4718 26.024 87.8875 26.0184 88.0987 26.286C88.2024 26.4194 88.2514 26.6128 88.4079 26.6786C88.4654 26.703 88.5305 26.7058 88.5889 26.7274C88.7501 26.7875 88.8143 26.9678 88.8284 27.1462L88.8331 27.0927Z" fill="black"/>
</g>
<g opacity="0.1">
<path opacity="0.1" d="M84.1917 28.0762C84.1971 27.9203 84.2531 27.7704 84.3514 27.649C84.4496 27.5276 84.5848 27.4412 84.7366 27.4028C85.157 27.3005 85.598 27.3204 86.0074 27.4601C86.9021 27.755 85.8943 28.8162 85.8943 28.8162C85.8943 28.8162 85.224 29.4736 84.5989 29.0144C84.4143 28.8754 84.2851 28.6758 84.2341 28.4509C84.2035 28.3284 84.1892 28.2024 84.1917 28.0762Z" fill="black"/>
<path opacity="0.1" d="M89.1099 28.0761C89.1044 27.9201 89.0482 27.7701 88.9498 27.6486C88.8513 27.5272 88.7159 27.4409 88.564 27.4027C88.1439 27.3005 87.7032 27.3204 87.2941 27.46C86.3994 27.7549 87.4072 28.8161 87.4072 28.8161C87.4072 28.8161 88.0766 29.4735 88.7026 29.0143C88.8872 28.8753 89.0165 28.6756 89.0674 28.4508C89.098 28.3283 89.1123 28.2023 89.1099 28.0761Z" fill="black"/>
<path opacity="0.1" d="M85.8398 27.3737V27.4178H87.4737V27.3652L85.8398 27.3737Z" fill="black"/>
<path opacity="0.1" d="M86.3597 27.8443H86.4116V27.695C86.4116 27.695 86.5775 27.5663 86.8528 27.695V27.8283H86.9471V27.741H86.9009C86.9009 27.741 86.9197 27.5597 86.6124 27.5889C86.6124 27.5889 86.3654 27.5654 86.371 27.7213H86.3145L86.3597 27.8443Z" fill="black"/>
</g>
<path d="M84.1917 28.0152C84.1971 27.8593 84.2531 27.7094 84.3514 27.5879C84.4497 27.4665 84.5848 27.3801 84.7366 27.3418C85.1571 27.2401 85.5979 27.26 86.0075 27.3991C86.9021 27.6949 85.8943 28.7552 85.8943 28.7552C85.8943 28.7552 85.224 29.4126 84.599 28.9533C84.414 28.8147 84.2846 28.6149 84.2341 28.3899C84.2034 28.2674 84.1892 28.1414 84.1917 28.0152Z" fill="#28DF99"/>
<path d="M89.1099 28.0152C89.1044 27.8592 89.0482 27.7092 88.9498 27.5877C88.8514 27.4663 88.716 27.38 88.564 27.3418C88.1439 27.2401 87.7033 27.26 87.2941 27.3991C86.3994 27.6949 87.4072 28.7552 87.4072 28.7552C87.4072 28.7552 88.0766 29.4126 88.7026 28.9534C88.8876 28.8147 89.0169 28.6149 89.0675 28.3899C89.0982 28.2674 89.1124 28.1414 89.1099 28.0152Z" fill="#28DF99"/>
<path d="M85.8379 27.3146V27.3597H87.4717V27.3062L85.8379 27.3146Z" fill="#28DF99"/>
<path d="M86.3597 27.785H86.4116V27.6357C86.4116 27.6357 86.5775 27.508 86.8528 27.6357V27.77H86.9471V27.6817H86.9009C86.9009 27.6817 86.9197 27.5014 86.6124 27.5296C86.6124 27.5296 86.3654 27.5071 86.371 27.662H86.3145L86.3597 27.785Z" fill="#28DF99"/>
<defs>
<linearGradient id="paint0_linear" x1="17350" y1="45400.5" x2="17350" y2="15382.7" gradientUnits="userSpaceOnUse">
<stop stop-color="#808080" stop-opacity="0.25"/>
<stop offset="0.54" stop-color="#808080" stop-opacity="0.12"/>
<stop offset="1" stop-color="#808080" stop-opacity="0.1"/>
</linearGradient>
</defs>
</svg>
