<svg width="12" height="12" viewBox="0 0 12 12" fill="none" xmlns="http://www.w3.org/2000/svg">
<path d="M7.91719 1.16022C7.41328 1.23991 6.97734 1.46257 6.59297 1.83522C6.16641 2.25007 5.90859 2.78678 5.86406 3.35632C5.84766 3.57897 5.85937 3.88132 5.89453 4.06178L5.91328 4.15319L5.75156 4.13913C4.97344 4.06647 4.35234 3.9235 3.69141 3.66335C2.69062 3.27194 1.73437 2.59928 1.02422 1.79303C0.932812 1.68991 0.850781 1.60319 0.84375 1.5985C0.815625 1.58678 0.632812 2.01335 0.58125 2.20788C0.489844 2.5735 0.489844 3.061 0.583594 3.42663C0.644531 3.661 0.771094 3.94694 0.907031 4.15788C1.01016 4.3196 1.36875 4.69928 1.51172 4.80007L1.58203 4.84928L1.49766 4.85163C1.29375 4.85163 0.836719 4.73444 0.616406 4.6196C0.5625 4.59382 0.510937 4.57038 0.503906 4.57038C0.475781 4.57038 0.494531 4.87741 0.536719 5.07428C0.69375 5.82897 1.17187 6.44772 1.86328 6.78757C2.00625 6.85553 2.19609 6.93288 2.28516 6.95397L2.44922 6.99382L2.32031 7.02663C2.14453 7.06882 1.63359 7.08991 1.48125 7.05944L1.35469 7.036L1.36875 7.09928C1.39922 7.23288 1.62656 7.64069 1.76953 7.82116C2.18437 8.33913 2.8125 8.68132 3.45469 8.73522L3.6375 8.74928L3.58359 8.79382C3.39609 8.93913 3.06328 9.14304 2.78672 9.27897C2.04141 9.64929 1.23516 9.82038 0.386719 9.78991L0.0117188 9.77585L0.210937 9.89304C1.06641 10.3969 1.9875 10.7063 3.01172 10.8305C3.33047 10.8704 4.26094 10.8704 4.58203 10.8329C5.18906 10.7602 5.65078 10.6571 6.17109 10.4766C8.59922 9.63991 10.3641 7.39928 10.7227 4.69928C10.7437 4.5446 10.7648 4.2235 10.7719 3.98444L10.7812 3.55085L10.9992 3.37272C11.2734 3.14538 11.6508 2.75397 11.8336 2.50553C11.9109 2.39772 11.9719 2.30866 11.9672 2.30397C11.9625 2.29928 11.8617 2.33444 11.7445 2.37897C11.4867 2.47975 11.1586 2.56882 10.8469 2.62507C10.7203 2.6485 10.6172 2.66257 10.6172 2.66022C10.6172 2.65788 10.6898 2.60163 10.7766 2.536C11.1234 2.27819 11.4422 1.87272 11.5992 1.486C11.6367 1.39694 11.6648 1.32194 11.6625 1.32194C11.6625 1.3196 11.5125 1.38991 11.332 1.47897C11.0109 1.63835 10.6125 1.78132 10.2727 1.86335L10.1016 1.90319L9.95859 1.77194C9.41484 1.26803 8.66719 1.04538 7.91719 1.16022Z" fill="white"/>
</svg>
