<svg width="11" height="11" viewBox="0 0 11 11" fill="none" xmlns="http://www.w3.org/2000/svg">
<path d="M4.94839 0.0526772C1.96063 0.335773 -0.295034 3.05935 0.0314431 6.00257C0.0908026 6.57852 0.258988 7.22281 0.466746 7.67186L0.595358 7.95495L0.293614 9.39972C0.00670999 10.8006 0.00176336 10.8494 0.0858559 10.9323C0.169948 11.0153 0.199628 11.0202 0.466746 10.9567C0.625038 10.9177 1.27305 10.7664 1.90621 10.62C3.0192 10.3564 3.06867 10.3515 3.21707 10.4247C3.95411 10.8054 5.13636 10.9909 6.07127 10.8884C8.02024 10.6639 9.66252 9.5071 10.4787 7.789C11.9281 4.73352 10.2314 1.08744 6.95177 0.21863C6.59066 0.121011 5.50241 -0.0254183 5.37874 0.0038681C5.3639 0.00874901 5.17098 0.0282726 4.94839 0.0526772ZM6.05643 1.22411C8.49017 1.55113 10.1819 3.82078 9.76145 6.18804C9.4597 7.88662 8.22305 9.19471 6.48678 9.64376C6.2444 9.70722 5.96244 9.73162 5.50241 9.73162C4.75052 9.73162 4.28059 9.62912 3.59796 9.31674L3.17255 9.1215L2.33657 9.32162C1.88148 9.429 1.50059 9.51198 1.4907 9.50222C1.48575 9.49733 1.555 9.11174 1.65393 8.64805L1.83201 7.80852L1.62426 7.36924C1.29283 6.66638 1.20874 6.28566 1.20379 5.49007C1.20379 4.74328 1.26315 4.42602 1.52532 3.79637C1.98041 2.70304 2.99447 1.78054 4.13219 1.41935C4.86924 1.18018 5.37379 1.13137 6.05643 1.22411Z" fill="white"/>
<path d="M3.46911 2.91781C3.26136 3.0496 2.95961 3.39614 2.84584 3.64995C2.66776 4.03555 2.74196 4.76281 3.01403 5.29484C3.45428 6.14412 4.54748 7.21305 5.48734 7.71091C6.06115 8.00865 6.48655 8.11603 7.03068 8.09163C7.52535 8.0721 7.78257 7.9696 8.05463 7.67674C8.42563 7.28627 8.52951 6.98853 8.36132 6.79329C8.27229 6.69567 7.18403 6.34424 6.96143 6.34424C6.90702 6.34424 6.73883 6.45162 6.59043 6.58829C6.28374 6.86162 6.16997 6.88603 5.87812 6.73472C5.48734 6.53948 4.58705 5.74877 4.25068 5.29972C4.09239 5.09472 4.11218 4.8946 4.31499 4.64079C4.41392 4.51876 4.50296 4.37722 4.5178 4.31865C4.54748 4.19662 4.09239 3.10329 3.95388 2.96662C3.82033 2.83483 3.6373 2.81531 3.46911 2.91781Z" fill="white"/>
</svg>
