<svg width="133" height="133" viewBox="0 0 133 133" fill="none" xmlns="http://www.w3.org/2000/svg">
<g clip-path="url(#clip0)">
<path d="M133 66.5C133.01 75.0427 131.37 83.5071 128.17 91.4277C128.162 91.4454 128.156 91.4611 128.148 91.4788V91.4808C125.997 96.7844 123.167 101.787 119.73 106.363C119.067 107.248 118.383 108.115 117.678 108.964C117.42 109.274 117.158 109.583 116.896 109.888C115.549 111.452 114.131 112.951 112.643 114.384C112.297 114.718 111.946 115.049 111.592 115.376C111.51 115.452 111.427 115.527 111.344 115.604C109.611 117.188 107.795 118.678 105.904 120.07C104.635 121.008 103.333 121.9 101.997 122.744C101.704 122.931 101.409 123.114 101.112 123.295C100.596 123.609 100.076 123.917 99.5514 124.217C98.8667 124.611 98.1735 124.992 97.4718 125.36C97.1885 125.512 96.9032 125.657 96.6179 125.803C96.2008 126.017 95.7817 126.224 95.3587 126.427C95.2859 126.462 95.2131 126.498 95.1403 126.531C94.8649 126.665 94.5855 126.795 94.3061 126.924C90.6676 128.603 86.8836 129.945 83.0011 130.936C82.9795 130.942 82.9598 130.946 82.9382 130.952C82.6844 131.017 82.4286 131.08 82.1728 131.141C81.982 131.188 81.7892 131.233 81.5964 131.277C81.5726 131.284 81.5483 131.29 81.5236 131.294C81.1281 131.387 80.7327 131.475 80.3333 131.556C80.109 131.603 79.8847 131.65 79.6604 131.696C79.5246 131.725 79.3869 131.751 79.2512 131.776C79.08 131.81 78.9108 131.841 78.7396 131.875C78.6452 131.894 78.5508 131.91 78.4544 131.926C78.2379 131.965 78.0215 132.004 77.807 132.042C77.4411 132.105 77.0712 132.166 76.7033 132.221C76.4357 132.262 76.1701 132.302 75.9025 132.339C75.5878 132.384 75.273 132.426 74.9562 132.465C74.8696 132.479 74.7831 132.488 74.6965 132.498C74.5844 132.512 74.4722 132.526 74.3601 132.54C74.1338 132.567 73.9076 132.593 73.6793 132.616C73.5613 132.63 73.4452 132.642 73.3272 132.654C73.1029 132.677 72.8786 132.699 72.6543 132.719C72.3651 132.746 72.0759 132.77 71.7847 132.793C71.4305 132.821 71.0784 132.847 70.7223 132.868C70.494 132.882 70.2658 132.896 70.0356 132.908C69.4493 132.939 68.863 132.961 68.2728 132.976C67.9796 132.984 67.6845 132.99 67.3894 132.994H67.3835C67.0903 132.998 66.7952 133 66.5001 133C63.5094 133.001 60.5219 132.801 57.558 132.402C55.384 132.111 53.2447 131.716 51.1402 131.217C51.0556 131.198 50.971 131.178 50.8883 131.156C50.6758 131.107 50.4653 131.054 50.2548 131.001C50.0679 130.954 49.883 130.905 49.696 130.855C44.879 129.602 40.2193 127.807 35.8058 125.506C35.7842 125.494 35.7606 125.482 35.7389 125.471C35.611 125.404 35.4851 125.339 35.3592 125.27C35.0818 125.124 34.8057 124.976 34.5309 124.825C32.9668 123.965 31.4426 123.046 29.9585 122.067C29.5768 121.817 29.1991 121.563 28.8253 121.305C28.7053 121.223 28.5872 121.14 28.4692 121.058C28.3452 120.971 28.2213 120.884 28.0993 120.798C27.7747 120.568 27.452 120.335 27.1313 120.099C25.8033 119.124 24.5146 118.1 23.2652 117.028C18.837 113.236 14.924 108.88 11.6258 104.072C10.4748 102.396 9.40059 100.666 8.40309 98.8824C2.87514 88.986 -0.0183017 77.8356 8.71059e-05 66.5C8.71059e-05 29.7735 29.7736 0 66.5001 0C103.227 0 133 29.7735 133 66.5Z" fill="#28DF99"/>
<path opacity="0.2" d="M88.5914 44.567C89.8468 51.6493 87.0756 58.0622 87.0756 58.0622C87.0756 58.0622 82.2692 52.9925 81.0138 45.9101C79.7585 38.8278 82.5297 32.4149 82.5297 32.4149C82.5297 32.4149 87.3361 37.4847 88.5914 44.567Z" fill="black"/>
<path d="M86.5586 105.509L86.7986 105.633C86.775 105.889 86.718 106.046 86.5586 105.509Z" fill="#2F2E41"/>
<path d="M86.8756 105.591C86.8776 105.619 86.8815 105.649 86.8834 105.676L86.7988 105.633C86.8008 105.607 86.8028 105.58 86.8067 105.552C86.8264 105.208 86.8028 104.801 86.8756 105.591Z" fill="#2F2E41"/>
<path d="M61.3211 96.179C79.164 96.179 93.6285 81.7145 93.6285 63.8716C93.6285 46.0287 79.164 31.5642 61.3211 31.5642C43.4782 31.5642 29.0137 46.0287 29.0137 63.8716C29.0137 81.7145 43.4782 96.179 61.3211 96.179Z" fill="#2F2E41"/>
<path d="M63.9813 94.8623C74.7869 94.8623 83.5465 86.1026 83.5465 75.2971C83.5465 64.4915 74.7869 55.7318 63.9813 55.7318C53.1757 55.7318 44.416 64.4915 44.416 75.2971C44.416 86.1026 53.1757 94.8623 63.9813 94.8623Z" fill="#FBBEBE"/>
<path d="M108.658 112.796L108.635 112.802L104.084 113.894L94.6087 116.168L93.316 116.479L78.9064 119.936L77.6826 120.231L42.7229 128.62C40.3596 127.716 38.0506 126.677 35.8073 125.506C35.7857 125.494 35.7621 125.482 35.7404 125.471C35.6125 125.404 35.4866 125.339 35.3607 125.27C35.0833 125.124 34.8072 124.976 34.5324 124.825C32.9683 123.965 31.4442 123.046 29.96 122.067C29.5784 121.817 29.2006 121.563 28.8268 121.305C28.7068 121.223 28.5887 121.14 28.4707 121.058C28.3467 120.971 28.2228 120.884 28.1008 120.798C27.7762 120.568 27.4535 120.335 27.1328 120.099C30.5286 113.928 38.6149 109.825 46.7011 107.58C52.8042 105.885 54.146 100.311 54.0299 95.3508C54.0004 94.2194 53.9045 93.0908 53.7427 91.9707C53.4961 90.188 53.1039 88.4284 52.57 86.7097L72.1364 87.3629L74.155 92.014C74.0998 92.5248 74.082 93.0391 74.1019 93.5525C74.2553 97.3674 76.6104 99.8346 79.5163 101.426C79.8941 101.633 80.2816 101.826 80.6751 102.005C85.4403 104.171 91.0495 104.318 91.0495 104.318C92.7576 104.13 94.4829 104.162 96.1826 104.415C96.5958 104.478 96.9971 104.553 97.3867 104.641C99.6611 105.149 101.81 106.111 103.704 107.468C104.428 107.983 105.112 108.551 105.752 109.166C106.89 110.231 107.868 111.453 108.658 112.796Z" fill="#FBBEBE"/>
<path d="M111.593 115.375C111.51 115.452 111.427 115.527 111.345 115.604C109.612 117.187 107.796 118.678 105.905 120.07C104.636 121.008 103.333 121.9 101.997 122.744C101.704 122.93 101.409 123.114 101.112 123.294C100.597 123.609 100.077 123.917 99.5519 124.217C98.8672 124.611 98.174 124.992 97.4723 125.36C97.1889 125.512 96.9037 125.657 96.6184 125.803C96.2013 126.017 95.7822 126.224 95.3592 126.427C95.2864 126.462 95.2136 126.497 95.1408 126.531L94.3086 125.84L104.083 113.894L106.048 111.492C106.048 111.492 106.833 111.492 108.634 112.802C109.629 113.543 110.569 114.354 111.447 115.23C111.494 115.279 111.544 115.326 111.593 115.375Z" fill="black"/>
<path d="M111.453 115.242C111.426 115.365 111.389 115.486 111.343 115.604C109.609 117.188 107.793 118.678 105.902 120.07C104.262 120.661 102.56 121.066 100.828 121.276C100.828 121.276 100.976 122.016 101.11 123.295C100.594 123.609 100.074 123.917 99.5496 124.217C98.8649 124.611 98.1717 124.992 97.47 125.36C97.1867 125.512 96.9014 125.657 96.6161 125.803C96.199 126.018 95.7799 126.224 95.3569 126.427C95.2841 126.462 95.2113 126.498 95.1385 126.531C94.8631 126.665 94.5837 126.795 94.3043 126.925C90.6658 128.603 86.8818 129.945 82.9993 130.936C82.9777 130.942 82.958 130.946 82.9364 130.952C82.6826 131.017 82.4268 131.08 82.171 131.141C81.9802 131.188 81.7874 131.233 81.5946 131.277C81.5708 131.284 81.5465 131.29 81.5218 131.294C81.1263 131.387 80.7309 131.475 80.3315 131.556C80.1072 131.603 79.8829 131.65 79.6586 131.696C79.5229 131.725 79.3851 131.751 79.2494 131.776C79.0782 131.81 78.909 131.841 78.7378 131.875C78.6434 131.894 78.549 131.91 78.4526 131.926C78.2361 131.965 78.0197 132.004 77.8053 132.042C77.4393 132.105 77.0694 132.166 76.7015 132.221C76.4339 132.262 76.1683 132.302 75.9008 132.339C75.586 132.384 75.2712 132.426 74.9544 132.465C74.8679 132.479 74.7813 132.488 74.6947 132.498C74.5826 132.512 74.4704 132.526 74.3583 132.54C74.132 132.567 73.9058 132.593 73.6775 132.616C73.5595 132.63 73.4434 132.642 73.3254 132.654C73.1011 132.677 72.8768 132.699 72.6525 132.719C72.3633 132.746 72.0741 132.77 71.7829 132.793C71.4287 132.821 71.0766 132.847 70.7205 132.868C70.4922 132.882 70.264 132.896 70.0338 132.908C69.4475 132.939 68.8612 132.961 68.271 132.976C67.9778 132.984 67.6827 132.99 67.3876 132.994H67.3817C67.0885 132.998 66.7934 133 66.4983 133C63.5076 133.001 60.5201 132.801 57.5562 132.402C55.3822 132.111 53.2429 131.716 51.1384 131.218C51.0538 131.198 50.9692 131.178 50.8865 131.157C50.6741 131.107 50.4635 131.054 50.253 131.001C50.0661 130.954 49.8812 130.905 49.6943 130.855C44.8772 129.602 40.2175 127.807 35.804 125.506C35.7824 125.494 35.7588 125.482 35.7371 125.471C35.6093 125.404 35.4833 125.339 35.3574 125.27C46.1568 122.754 63.2225 118.785 78.0315 115.385C78.4467 115.291 78.8592 115.197 79.269 115.102C84.7386 113.847 89.8618 112.678 94.1962 111.7C94.6447 111.6 95.0841 111.502 95.5143 111.405C100.171 110.359 103.787 109.564 105.749 109.166C106.278 109.045 106.812 108.952 107.351 108.885L111.445 115.23L111.453 115.242Z" fill="#2F2E41"/>
<path d="M31.7641 50.1239C37.079 50.1239 41.3876 45.8153 41.3876 40.5004C41.3876 35.1855 37.079 30.877 31.7641 30.877C26.4492 30.877 22.1406 35.1855 22.1406 40.5004C22.1406 45.8153 26.4492 50.1239 31.7641 50.1239Z" fill="#2F2E41"/>
<path d="M90.8813 47.3743C96.1962 47.3743 100.505 43.0657 100.505 37.7508C100.505 32.4359 96.1962 28.1273 90.8813 28.1273C85.5664 28.1273 81.2578 32.4359 81.2578 37.7508C81.2578 43.0657 85.5664 47.3743 90.8813 47.3743Z" fill="#2F2E41"/>
<path d="M80.5682 33.6264C80.5686 31.2529 81.4461 28.9632 83.0321 27.1974C84.6181 25.4315 86.8008 24.3141 89.1606 24.0598C87.8167 23.913 86.4569 24.051 85.1699 24.4649C83.8828 24.8787 82.6974 25.5591 81.6909 26.4617C80.6844 27.3642 79.8793 28.4687 79.3282 29.7032C78.777 30.9377 78.4922 32.2745 78.4922 33.6264C78.4922 34.9784 78.777 36.3151 79.3282 37.5496C79.8793 38.7841 80.6844 39.8886 81.6909 40.7912C82.6974 41.6938 83.8828 42.3741 85.1699 42.788C86.4569 43.2018 87.8167 43.3398 89.1606 43.193C86.8008 42.9388 84.6181 41.8213 83.0321 40.0555C81.4461 38.2897 80.5686 36 80.5682 33.6264Z" fill="#2F2E41"/>
<path d="M21.0137 48.2846C19.3528 46.589 18.3771 44.3394 18.2742 41.9681C18.1712 39.5968 18.9482 37.2711 20.4559 35.4379C19.3932 36.2736 18.5185 37.3238 17.8888 38.5202C17.2591 39.7165 16.8886 41.0321 16.8013 42.3812C16.7141 43.7303 16.912 45.0827 17.3823 46.3502C17.8526 47.6176 18.5847 48.7718 19.5309 49.7375C20.477 50.7031 21.616 51.4586 22.8737 51.9547C24.1313 52.4507 25.4794 52.6762 26.83 52.6165C28.1806 52.5567 29.5034 52.2131 30.7124 51.608C31.9213 51.0028 32.9892 50.1497 33.8464 49.1043C31.9828 50.5743 29.6417 51.3037 27.273 51.1524C24.9043 51.0011 22.6751 49.9797 21.0137 48.2846Z" fill="#2F2E41"/>
<path d="M61.321 48.7491C49.9319 48.7491 40.6992 54.1349 40.6992 60.7785C40.6992 63.7511 42.5551 66.4679 45.6184 68.5668L49.5884 65.6903L48.5088 70.1966C48.9567 70.4042 49.4141 70.6051 49.8912 70.7908L55.8218 63.8717V72.3719C57.6404 72.6632 59.4792 72.809 61.321 72.8078C72.71 72.8078 81.9427 67.4221 81.9427 60.7785C81.9427 54.1349 72.71 48.7491 61.321 48.7491Z" fill="#2F2E41"/>
<path d="M81.2578 37.7507C81.2578 37.7507 79.7632 44.6247 89.1029 47.3742L81.2578 37.7507Z" fill="#2F2E41"/>
<path d="M40.7001 39.002C40.7001 39.002 44.137 46.6869 33.8262 50.1239L40.7001 39.002Z" fill="#2F2E41"/>
<path d="M45.799 82.9783C46.6661 82.7356 46.8968 80.8517 46.3142 78.7706C45.7316 76.6895 44.5563 75.1992 43.6892 75.4419C42.8221 75.6847 42.5914 77.5686 43.174 79.6497C43.7566 81.7308 44.9319 83.2211 45.799 82.9783Z" fill="#FBBEBE"/>
<path d="M85.5011 76.0494C85.634 73.8924 85.0131 72.0989 84.1143 72.0436C83.2155 71.9882 82.3792 73.692 82.2464 75.849C82.1136 78.006 82.7344 79.7995 83.6332 79.8549C84.532 79.9102 85.3683 78.2065 85.5011 76.0494Z" fill="#FBBEBE"/>
</g>
<defs>
<clipPath id="clip0">
<rect width="133" height="133" fill="white"/>
</clipPath>
</defs>
</svg>
