<svg width="406" height="434" viewBox="0 0 406 434" fill="none" xmlns="http://www.w3.org/2000/svg">
<g clip-path="url(#clip0)">
<path d="M406.001 109.722V110.379C405.986 112.029 405.938 113.671 405.859 115.306C404.434 143.281 392.355 169.652 372.095 189.016C351.836 208.379 324.931 219.268 296.894 219.452C268.858 219.635 241.813 209.098 221.301 190.001C200.79 170.904 188.366 144.693 186.576 116.739C186.426 114.417 186.352 112.079 186.352 109.722C186.312 86.997 193.372 64.8257 206.546 46.2998C207.599 44.807 208.695 43.3415 209.833 41.9035C210.618 40.9033 211.425 39.9255 212.239 38.9551C230.778 17.0124 257.187 3.20343 285.801 0.490736C314.414 -2.22196 342.951 6.37777 365.291 24.4449C366.613 25.5123 367.913 26.6169 369.183 27.744C370.199 28.6472 371.198 29.5703 372.179 30.5132C391.503 48.9804 403.398 73.8726 405.62 100.497C405.874 103.542 406.001 106.617 406.001 109.722Z" fill="#2EC1AC"/>
<path d="M209.833 41.9035C209.887 41.926 209.937 41.9562 209.983 41.993C210.573 42.4782 209.833 43.4112 209.923 44.18C210.027 45.1653 211.342 45.3817 212.336 45.4788C213.33 45.5833 214.585 46.3819 214.114 47.2627C211.619 48.1211 209.094 47.2776 206.546 46.2998C193.372 64.8257 186.312 86.997 186.352 109.722C186.352 112.081 186.426 114.42 186.576 116.739C186.785 116.891 187.013 117.014 187.256 117.104C188.003 117.388 188.869 117.336 189.557 117.739C190.102 118.06 190.468 118.627 191.014 118.926C192.575 119.777 194.742 118.142 196.199 119.157C196.575 119.5 196.932 119.864 197.267 120.247C198.612 121.411 200.823 120.627 202.377 121.501C203.378 122.061 203.894 123.18 204.432 124.195C205.769 126.733 207.936 129.226 210.797 129.428C211.699 129.386 212.604 129.416 213.501 129.517C214.383 129.719 215.25 130.488 215.108 131.376C214.861 132.906 215.616 134.578 215.414 136.108C215.048 138.907 211.081 140.131 210.745 142.93C210.744 143.546 210.709 144.162 210.64 144.774C210.461 145.505 209.908 146.102 209.714 146.834C209.34 148.215 210.334 149.596 211.417 150.521C212.508 151.454 213.808 152.26 214.406 153.559C215.033 154.94 214.727 156.545 214.928 158.045C215.377 161.322 218.208 163.748 221.122 165.315C222.056 165.705 222.885 166.308 223.543 167.077C224.29 168.159 224.215 169.585 224.469 170.876C225.082 174.033 227.741 176.638 227.816 179.855C227.868 182.147 226.598 184.222 225.836 186.379C225.052 188.64 224.819 191.056 225.156 193.425C229.416 197.034 233.944 200.316 238.701 203.24C238.96 202.858 239.15 202.434 239.262 201.986C239.352 201.491 239.29 200.981 239.083 200.522C238.876 200.064 238.535 199.679 238.104 199.419C238.907 199.115 239.637 198.648 240.248 198.045C240.548 197.737 240.746 197.344 240.816 196.919C240.885 196.495 240.823 196.059 240.636 195.672C241.951 195.836 243.513 195.918 244.379 194.91C245.074 194.104 245.029 192.895 244.753 191.872C244.477 190.842 244.013 189.85 244.006 188.782C247.052 188.93 250.106 188.828 253.135 188.476C252.697 187 251.7 185.752 250.356 184.998C251.731 184.767 252.979 183.124 253.412 181.803C253.787 180.455 253.807 179.034 253.472 177.676C253.368 177.327 253.352 176.957 253.427 176.601C253.648 176.127 254.036 175.753 254.518 175.548C256.789 174.242 259.06 172.938 261.331 171.637C261.736 171.433 262.105 171.163 262.422 170.838C263.132 169.995 263.027 168.734 262.661 167.696C262.295 166.659 261.712 165.681 261.57 164.591C261.152 161.329 264.648 158.985 265.829 155.91C266.23 154.683 266.447 153.402 266.471 152.111C266.568 150.723 266.576 149.118 265.515 148.23C264.491 147.371 262.9 147.565 261.832 146.767C260.853 146.035 260.517 144.625 259.448 144.035C258.477 143.497 257.267 143.841 256.184 143.587C254.286 143.147 253.091 140.96 251.148 140.758C250.057 140.639 248.817 141.176 247.921 140.542C247.129 139.974 247.099 138.847 246.949 137.892C246.684 136.404 245.969 135.032 244.901 133.962C243.832 132.892 242.461 132.174 240.973 131.906C239.844 131.727 238.619 131.794 237.655 131.174C236.684 130.547 236.243 129.375 235.474 128.502C234.249 127.106 232.306 126.606 230.491 126.181C228.025 125.606 225.562 125.029 223.102 124.449C221.794 124.136 220.106 123.971 219.396 125.121C219.186 125.558 219.04 126.023 218.963 126.502C218.696 127.363 218.164 128.118 217.442 128.66C216.72 129.201 215.846 129.501 214.943 129.517C214.326 128.463 213.325 127.688 212.149 127.353C211.381 127.224 210.622 127.044 209.878 126.815C209.489 126.625 209.144 126.357 208.862 126.029C208.58 125.701 208.368 125.318 208.24 124.905C208.111 124.492 208.068 124.058 208.113 123.627C208.159 123.197 208.291 122.781 208.503 122.404C208.927 121.646 209.09 120.771 208.967 119.912C208.844 119.053 208.442 118.258 207.823 117.649C206.568 116.522 204.753 116.246 203.064 116.358C202.624 115.395 203.363 114.313 204.155 113.611C204.955 112.917 205.918 112.23 206.09 111.185C206.367 109.543 204.267 108.297 202.676 108.782C201.085 109.275 200.069 110.82 199.396 112.342C199.07 113.241 198.625 114.092 198.074 114.873C197.791 115.259 197.407 115.56 196.964 115.741C196.521 115.923 196.036 115.979 195.564 115.903C194.249 115.567 193.748 114.007 193.457 112.693C192.99 110.937 192.754 109.128 192.754 107.311C192.766 105.477 193.495 103.719 194.787 102.415C196.961 100.415 200.308 100.609 203.244 100.93C202.929 100.511 202.779 99.9913 202.82 99.4692C202.861 98.947 203.091 98.4578 203.468 98.0933C203.861 97.7447 204.333 97.4972 204.843 97.3724C205.354 97.2475 205.887 97.249 206.397 97.3767C207.282 97.5598 208.079 98.0358 208.66 98.7277C209.497 99.7429 209.736 101.124 210.364 102.273C210.999 103.43 212.418 104.415 213.576 103.796C214.585 103.258 214.742 101.87 214.495 100.758C214.241 99.6533 213.711 98.571 213.8 97.4365C213.972 95.2793 216.221 93.9731 218.201 93.0849C220.181 92.1966 222.444 90.9949 222.758 88.8453C222.773 88.4272 222.853 88.014 222.997 87.6212C223.216 87.2705 223.523 86.9825 223.886 86.7852C229.661 82.971 235.541 79.1046 242.145 77.0221C242.489 76.9102 242.526 77.0296 242.878 76.9475C243.371 76.6639 243.042 75.8801 242.571 75.5666C242.101 75.2531 241.473 75.0068 241.354 74.4545C241.271 74.0514 241.51 73.6484 241.57 73.2378C241.586 72.9899 241.54 72.7419 241.438 72.5155C241.335 72.2892 241.178 72.0915 240.982 71.9398C240.785 71.788 240.554 71.6868 240.308 71.645C240.063 71.6033 239.812 71.6222 239.575 71.7002C239.045 70.9986 240.091 70.185 240.943 69.9462C243.493 69.2482 246.11 68.8229 248.75 68.6773C249.055 68.627 249.367 68.6795 249.639 68.8265C249.833 69.0137 249.948 69.268 249.961 69.5372C249.973 69.8064 249.882 70.0703 249.706 70.2746C249.347 70.6734 248.949 71.0359 248.518 71.3569C248.09 71.7728 247.784 72.2983 247.633 72.8761C247.483 73.454 247.495 74.0619 247.667 74.6336C249.049 75.3352 250.543 76.0593 252.075 75.8129C253.599 75.5666 254.951 73.8499 254.234 72.4839C253.569 71.2076 251.559 70.9165 251.215 69.5207C250.812 67.886 253.128 66.4305 252.605 64.8332C252.381 64.1316 251.679 63.7136 251.141 63.2135C250.508 62.5908 250.077 61.792 249.905 60.9213C249.733 60.0505 249.828 59.1482 250.177 58.332C249.302 58.4847 248.404 58.4261 247.556 58.1612C246.709 57.8963 245.937 57.4328 245.306 56.8093C244.14 55.6374 243.214 53.7789 241.555 53.8386C240.039 53.8834 238.731 55.6524 237.312 55.115C236.961 54.9806 236.595 54.7119 236.258 54.8686C236.147 54.9399 236.054 55.0353 235.986 55.1478C235.917 55.2603 235.875 55.3869 235.862 55.518C235.504 57.2422 236.124 59.2053 235.182 60.6981C234.159 62.3178 231.791 62.5417 230.55 64.0047C229.878 64.7959 229.617 65.8633 228.996 66.6993C228.376 67.5352 227.069 68.0726 226.322 67.3412C226.688 66.5918 226.788 65.7405 226.606 64.9268C226.424 64.1131 225.971 63.3853 225.321 62.8627C224.633 62.4115 223.889 62.0502 223.109 61.7879C222.238 61.4205 221.409 60.96 220.636 60.4145C220.251 60.1803 219.939 59.8445 219.732 59.4442C219.569 58.9408 219.59 58.3958 219.792 57.9066C220.17 56.8286 220.836 55.8739 221.716 55.1453C222.597 54.4168 223.66 53.9418 224.79 53.7714C225.776 53.6371 226.927 53.6819 227.584 52.928C227.928 52.5324 228.107 51.9278 228.615 51.7711C228.935 51.7043 229.269 51.7436 229.564 51.883C230.797 52.316 232.022 52.7489 233.255 53.1818C233.666 53.3701 234.12 53.4449 234.57 53.3983C234.793 53.3695 234.996 53.2571 235.139 53.0838C235.282 52.9105 235.354 52.6893 235.339 52.4653C235.22 51.8532 234.278 51.5621 234.368 50.9426C234.412 50.7402 234.519 50.557 234.674 50.4201C236.007 49.0041 237.636 47.8998 239.446 47.1862C241.255 46.4727 243.2 46.1674 245.141 46.2924C245.605 47.0612 244.872 47.9644 244.252 48.6137C243.64 49.2706 243.147 50.435 243.894 50.9351C244.195 51.093 244.532 51.1702 244.872 51.159C245.781 51.2808 246.664 51.5479 247.487 51.9502C248.765 52.5026 250.02 53.1146 251.245 53.7714C251.065 52.9712 251.096 52.1378 251.335 51.3531C251.47 50.9679 251.744 50.6467 252.103 50.4521C252.462 50.2576 252.881 50.2036 253.277 50.3006C254.01 50.5843 254.383 51.5546 255.168 51.6442C256.206 51.7636 256.617 50.226 256.184 49.2706C255.75 48.3152 254.884 47.524 254.816 46.4715C254.764 45.7699 255.033 44.8966 254.473 44.4712C254.274 44.3393 254.045 44.2574 253.808 44.2323C249.116 43.3739 244.422 42.5131 239.725 41.6497C238.888 41.493 237.685 41.6124 237.648 42.4559C237.626 42.9336 238.051 43.4038 237.865 43.8367C237.663 44.2995 237.005 44.2622 236.527 44.4264C236.168 44.5892 235.872 44.8645 235.683 45.2106C235.494 45.5567 235.423 45.9548 235.481 46.3447C235.609 47.1208 235.91 47.8581 236.363 48.5018C235.444 48.1211 234.062 48.0539 233.143 47.6658C233.009 46.6027 232.738 45.5615 232.336 44.5682C232.313 44.4101 232.256 44.259 232.168 44.1254C232.08 43.9919 231.964 43.8792 231.828 43.7952C231.692 43.7113 231.539 43.6581 231.381 43.6395C231.222 43.6209 231.061 43.6372 230.909 43.6874C229.699 43.874 228.488 44.0532 227.278 44.2398C226.974 44.2542 226.683 44.3668 226.449 44.5607C225.978 45.0608 226.441 45.8595 226.426 46.5462C226.383 46.9302 226.22 47.291 225.962 47.5786C225.703 47.8662 225.362 48.0662 224.984 48.151C224.224 48.3052 223.439 48.295 222.683 48.1211C220.987 47.8599 219.299 47.5986 217.603 47.3374C219.1 46.8608 220.431 45.9706 221.443 44.7697C222.116 43.9785 222.474 42.5006 221.503 42.1274C221.216 42.0488 220.917 42.0259 220.621 42.0603C218.32 42.0752 216.505 40.1569 214.353 39.3433C213.677 39.0912 212.961 38.9598 212.239 38.9552L209.833 41.9035Z" fill="#3F3D56"/>
<path d="M405.858 115.306C405.594 115.659 405.248 115.942 404.85 116.131C404.451 116.32 404.012 116.408 403.572 116.388C401.233 116.186 400.247 112.82 397.931 112.439C397.726 112.387 397.509 112.408 397.318 112.499C396.975 112.686 396.915 113.148 396.893 113.537C396.795 115.462 396.713 117.463 397.468 119.239C398.566 121.837 401.413 124.016 400.815 126.77C397.602 125.285 395.929 121.68 395.174 118.224C394.412 114.768 394.293 111.141 392.933 107.871C391.894 109.192 389.728 108.103 388.787 106.714C387.89 105.401 387.337 103.878 386.47 102.542C385.604 101.213 384.274 100.019 382.69 99.9444C381.024 99.8698 379.575 101.012 378.305 102.094C377.2 102.909 376.272 103.94 375.578 105.124C374.689 106.916 374.92 109.021 374.875 111.014C374.831 113.163 374.375 115.44 372.903 117.022C371.431 118.597 368.719 119.15 367.098 117.724C366.314 116.907 365.756 115.902 365.477 114.805C363.714 109.674 362.248 104.445 361.084 99.1458C360.815 100.355 359.747 101.915 358.73 101.206C358.503 101.013 358.32 100.774 358.193 100.504C356.295 97.3021 352.791 95.3764 349.242 94.2195C345.701 93.07 341.973 92.5326 338.469 91.2637C336.504 90.5508 334.627 89.6167 332.873 88.4796C332.428 89.1351 332.168 89.8985 332.12 90.6893C332.073 91.4802 332.24 92.2691 332.604 92.973C332.998 93.6616 333.608 94.2011 334.341 94.5075C335.073 94.8139 335.886 94.8701 336.654 94.6673C337.431 94.4135 338.088 93.8761 338.857 93.6074C339.627 93.3462 340.665 93.4731 341.002 94.2195C341.33 94.9286 340.837 95.7869 341.084 96.5333C341.45 97.6604 343.161 97.75 343.759 98.78C343.934 99.1879 343.975 99.6413 343.874 100.074C343.773 100.506 343.536 100.895 343.198 101.183C342.511 101.744 341.752 102.21 340.942 102.572C338.432 103.968 336.646 106.349 334.45 108.2C332.253 110.058 329.153 111.409 326.538 110.223C327.158 107.065 323.4 104.751 322.705 101.609C322.473 100.571 322.593 99.4742 322.272 98.4665C321.801 97.0036 320.501 96.0034 319.44 94.8987C318.151 93.5425 317.147 91.9425 316.486 90.1928C315.825 88.443 315.522 86.579 315.593 84.7102C315.652 83.4114 315.892 82.0903 315.593 80.8214C315.301 79.5599 314.248 78.3358 312.948 78.3881C309.982 78.5224 306.239 78.7463 304.685 76.216C304.125 75.3129 303.886 73.9917 304.692 73.2976C305.26 72.8124 306.097 72.8572 306.837 72.9318C309.07 73.1483 311.297 73.3722 313.531 73.5887C315.092 73.738 316.781 73.8648 318.125 73.0513C319.47 72.2377 320.053 70.0656 318.805 69.1028C317.901 68.4011 316.272 68.4384 316.004 67.3263C315.787 66.3933 316.818 65.3408 316.258 64.5571C315.862 64.0048 314.965 64.154 314.42 64.572C313.944 65.0657 313.426 65.5177 312.873 65.923C311.805 66.4754 310.535 65.9454 309.384 65.5872C308.234 65.2289 306.695 65.199 306.142 66.2664C305.514 67.4532 306.687 69.0206 306.075 70.2149C305.253 71.7898 302.488 70.8941 301.338 72.2526C300.023 73.8051 302.234 76.1339 301.794 78.1194C301.226 78.4006 300.595 78.5299 299.963 78.4945C299.33 78.4592 298.718 78.2605 298.185 77.9179C297.662 77.5626 297.246 77.0723 296.98 76.4992C296.714 75.9261 296.609 75.2916 296.676 74.6635C296.781 73.7678 297.251 72.8497 296.937 72.0063C296.599 71.3549 296.041 70.8445 295.361 70.5657C293.194 69.364 291.028 68.1673 288.861 66.9755C288.256 68.0951 289.018 69.476 289.974 70.3194C290.923 71.1554 292.119 71.7898 292.746 72.8945C293.143 73.6601 293.233 74.5484 292.997 75.378C292.761 76.2075 292.217 76.9158 291.476 77.3581C291.382 77.4225 291.276 77.4659 291.163 77.4852C291.051 77.5046 290.936 77.4994 290.826 77.47C290.723 77.4093 290.632 77.3285 290.56 77.2323C290.488 77.1362 290.437 77.0267 290.408 76.9102C289.265 73.9768 287.539 71.0882 284.789 69.5581C282.033 68.0205 278.08 68.3414 276.272 70.9165C275.847 71.5286 275.555 72.2302 275.182 72.8796C273.202 76.3205 268.943 77.9477 264.969 77.8432C264.58 77.8681 264.193 77.7772 263.856 77.582C263.213 77.1416 263.243 76.2011 263.34 75.4248C263.482 74.3276 263.616 73.2379 263.758 72.1406C263.762 71.4707 264.021 70.8273 264.483 70.3418C265.223 69.7596 266.284 70.1253 267.225 70.1104C267.935 70.0788 268.619 69.8288 269.182 69.3946C269.745 68.9605 270.16 68.3632 270.37 67.6846C270.56 66.9997 270.558 66.2762 270.366 65.5922C270.174 64.9081 269.798 64.2895 269.28 63.8033C268.854 63.4002 268.278 62.8926 268.503 62.3478C268.594 62.1977 268.716 62.0692 268.862 61.9712C269.008 61.8733 269.173 61.8082 269.347 61.7805C271.028 61.2953 272.813 61.1684 274.464 60.5862C276.123 60.0115 277.729 58.8322 278.125 57.1229C278.245 56.6004 278.297 55.966 278.768 55.7047C279.005 55.6094 279.259 55.5588 279.515 55.5554C280.413 55.4268 281.231 54.9672 281.807 54.267C282.384 53.5668 282.677 52.6765 282.63 51.7711C283.422 51.2188 284.535 51.6293 285.305 52.219C286.067 52.8086 286.747 53.5849 287.681 53.8387C289.421 54.3164 291.102 52.7713 292.91 52.7638C293.673 52.7638 294.457 53.0325 295.167 52.7713C295.891 52.5101 296.325 51.7935 296.878 51.2636C297.438 50.7261 298.409 50.4052 298.925 50.9799C298.775 49.8976 298.633 48.8228 298.484 47.748C299.364 47.9694 300.281 48.0001 301.175 47.8378C302.068 47.6756 302.916 47.3243 303.661 46.8075C301.779 46.173 299.903 45.5386 298.021 44.9041C297.823 44.8554 297.641 44.7579 297.49 44.6205C297.079 44.1801 297.49 43.4934 297.819 42.9933C298.618 41.7916 298.753 39.8136 297.438 39.2165C296.541 38.806 295.518 39.2986 294.659 39.7763C293.284 40.5376 291.909 41.3064 290.535 42.0678C290.408 42.8515 291.364 43.2993 291.954 43.8218C292.314 44.1406 292.568 44.5606 292.685 45.0267C292.801 45.4928 292.773 45.9832 292.605 46.4331C292.436 46.8831 292.136 47.2716 291.742 47.5476C291.349 47.8236 290.881 47.9741 290.4 47.9793C290.671 48.3325 290.859 48.7417 290.951 49.177C291.043 49.6122 291.036 50.0625 290.931 50.4947C290.012 50.5619 289.085 50.6291 288.159 50.6963C288.005 50.7269 287.847 50.7269 287.693 50.6961C287.539 50.6654 287.393 50.6046 287.262 50.5171C286.964 50.2559 287.008 49.7931 286.934 49.405C286.811 48.9411 286.551 48.5246 286.189 48.2093C285.827 47.894 285.378 47.6943 284.902 47.636C283.95 47.5291 282.986 47.618 282.07 47.8972C281.672 48.0374 281.236 48.0268 280.845 47.8674C280.623 47.7208 280.455 47.5059 280.367 47.2553C280.204 46.7435 280.176 46.1984 280.286 45.6728C280.396 45.1471 280.64 44.6587 280.994 44.2548C281.712 43.4588 282.502 42.7316 283.355 42.0827C285.288 40.3918 286.709 38.1941 287.457 35.7382C288.981 35.0963 290.557 34.2305 292.089 33.5886C293.32 33.0185 294.61 32.5854 295.936 32.2973C297.184 32.1069 298.449 32.0468 299.709 32.1181C301.428 32.148 303.153 32.1778 304.872 32.2152C306.406 32.1508 307.938 32.3709 309.392 32.8645C310.804 33.4467 312.051 34.7082 312.148 36.2309C312.178 36.4044 312.162 36.5825 312.104 36.7484C312.045 36.9143 311.944 37.0625 311.812 37.1788C311.614 37.2884 311.389 37.3401 311.162 37.3281C309.735 37.3729 309.13 37.7311 307.703 37.7834C308.607 38.7463 309.623 39.7614 310.938 39.933C313.254 40.2316 314.92 37.8356 315.989 35.7531C316.027 36.2832 316.271 36.7774 316.669 37.1302C317.066 37.483 317.586 37.6665 318.118 37.6416C318.69 37.5433 319.237 37.33 319.724 37.0146C324.319 34.5055 329.467 33.1769 334.704 33.1482C334.652 32.7521 334.75 32.3511 334.978 32.0228C335.205 31.6946 335.547 31.4626 335.936 31.3717C337.005 31.1627 337.961 32.0808 338.476 33.0362C338.984 33.9916 339.306 35.0963 340.128 35.8129C340.942 36.5294 342.518 36.4921 342.84 35.4621C343.153 34.4693 342.115 33.6184 341.256 33.0288C340.389 32.4466 339.485 31.3643 340.068 30.4984C344.461 29.5206 348.891 28.5503 353.396 28.3562C354.162 28.3794 354.924 28.2473 355.637 27.9681C355.991 27.8186 356.285 27.5569 356.474 27.2236C356.663 26.8903 356.736 26.5039 356.683 26.1244C355.7 26.3536 354.671 26.2858 353.727 25.9297C352.782 25.5735 351.965 24.9451 351.379 24.124C356.004 23.7434 360.845 23.4075 365.29 24.445L369.182 27.7441C368.443 28.5129 367.457 29.2369 367.995 30.0057C368.172 30.1823 368.387 30.3164 368.624 30.3978C368.861 30.4793 369.113 30.506 369.362 30.476C370.303 30.4909 371.244 30.5133 372.178 30.5133C391.503 48.9805 403.397 73.8727 405.619 100.497C404.05 100.437 402.608 102.423 402.81 104.154C403.049 106.162 404.498 107.774 405.537 109.506C405.709 109.787 405.863 110.079 406 110.379L405.858 115.306Z" fill="#3F3D56"/>
<path d="M260.655 217.721C271.078 217.721 279.528 209.279 279.528 198.865C279.528 188.451 271.078 180.009 260.655 180.009C250.231 180.009 241.781 188.451 241.781 198.865C241.781 209.279 250.231 217.721 260.655 217.721Z" fill="#2F2E41"/>
<path d="M251.646 208.391C251.646 208.391 245.499 221.991 243.742 222.429C241.986 222.868 258.232 230.764 258.232 230.764C258.232 230.764 261.306 214.094 262.623 213.217C263.941 212.339 251.646 208.391 251.646 208.391Z" fill="#FFB9B9"/>
<path d="M215.2 319.819L203.783 351.843L216.078 356.669L237.155 314.993L215.2 319.819Z" fill="#FFB9B9"/>
<path d="M255.158 320.696C255.158 320.696 277.991 352.72 279.309 353.159C280.626 353.598 289.847 345.701 289.847 345.701C289.847 345.701 278.43 318.064 274.918 316.748C271.405 315.432 255.158 320.696 255.158 320.696Z" fill="#FFB9B9"/>
<path d="M202.026 346.14L184.023 393.08C184.023 393.08 185.34 395.712 184.023 396.151C182.706 396.589 179.632 403.608 179.632 404.047C179.632 404.486 176.558 404.924 176.558 406.241C176.558 407.557 173.924 418.085 173.924 418.085C173.924 418.085 178.754 428.614 181.828 425.543C184.901 422.472 186.219 416.33 186.219 416.33L190.61 404.924C190.61 404.924 190.17 398.783 193.244 397.905C196.318 397.028 198.074 386.061 198.074 386.061C198.074 386.061 202.904 381.235 203.783 379.919C204.661 378.603 220.029 355.352 218.712 354.914C217.395 354.475 202.026 346.14 202.026 346.14Z" fill="#2F2E41"/>
<path d="M276.674 352.282L289.847 343.508C289.847 343.508 312.68 385.184 312.68 386.061C312.68 386.938 311.802 389.57 312.68 390.448C313.558 391.325 321.023 405.363 325.853 406.679C330.683 407.995 331.561 413.26 327.609 414.137C323.657 415.015 318.388 417.208 317.071 414.137C316.301 412.33 315.421 410.572 314.436 408.873C314.436 408.873 310.045 410.189 309.606 409.312C309.099 408.019 308.66 406.701 308.289 405.363C308.289 405.363 304.776 399.222 304.776 397.028C304.776 394.835 302.581 394.396 302.581 394.396C302.581 394.396 297.751 382.99 294.677 381.235C291.603 379.481 288.969 370.707 288.969 370.707L276.674 352.282Z" fill="#2F2E41"/>
<path d="M260.867 218.481C267.899 218.481 273.6 212.785 273.6 205.759C273.6 198.733 267.899 193.037 260.867 193.037C253.834 193.037 248.133 198.733 248.133 205.759C248.133 212.785 253.834 218.481 260.867 218.481Z" fill="#FFB9B9"/>
<path d="M223.103 282.969C223.103 282.969 204.257 332.988 206.891 332.988C209.526 332.988 282.412 334.573 284.608 331.063C286.803 327.554 265.696 292.62 264.817 292.181C263.939 291.742 223.103 282.969 223.103 282.969Z" fill="#2F2E41"/>
<path d="M204.222 178.56L191.049 158.38C191.049 158.38 194.306 137.212 189.915 141.16C185.524 145.108 184.135 161.052 184.135 161.052L199.392 184.263L204.222 178.56Z" fill="#FFB9B9"/>
<path d="M323.657 215.41L335.513 214.533C335.513 214.533 349.564 199.617 350.442 204.443C351.321 209.269 339.026 219.797 339.026 219.797L322.779 221.552L323.657 215.41Z" fill="#FFB9B9"/>
<path d="M237.154 219.797V215.41C237.154 215.41 225.737 207.952 226.177 206.636C226.616 205.32 225.298 204.443 225.298 204.443C225.298 204.443 223.981 202.688 223.981 202.25C223.981 201.811 222.225 201.372 222.225 201.372L211.247 188.65C211.247 188.65 205.1 176.367 203.783 176.805C202.465 177.244 195.44 179.876 196.318 181.631C197.196 183.386 221.786 221.113 221.786 221.113C221.786 221.113 223.103 229.448 225.298 229.448C227.494 229.448 237.154 219.797 237.154 219.797Z" fill="#3F3D56"/>
<path d="M266.575 225.061C266.575 225.061 276.235 224.623 276.674 225.061C277.113 225.5 283.261 225.061 283.261 225.061C283.261 225.061 299.946 221.113 301.264 219.797C302.581 218.481 324.536 212.778 325.414 215.41C326.292 218.042 328.488 223.307 326.292 224.184C324.097 225.061 264.818 239.977 264.818 239.977L266.575 225.061Z" fill="#3F3D56"/>
<path d="M254.052 186.822C258.365 186.822 261.861 183.329 261.861 179.019C261.861 174.71 258.365 171.217 254.052 171.217C249.739 171.217 246.242 174.71 246.242 179.019C246.242 183.329 249.739 186.822 254.052 186.822Z" fill="#2F2E41"/>
<path d="M243.641 174.793C243.641 172.865 244.356 171.004 245.648 169.571C246.94 168.138 248.717 167.234 250.637 167.033C250.367 167.005 250.095 166.991 249.823 166.991C247.752 166.991 245.766 167.813 244.301 169.276C242.836 170.739 242.014 172.724 242.014 174.793C242.014 176.862 242.836 178.847 244.301 180.31C245.766 181.774 247.752 182.596 249.823 182.596C250.095 182.595 250.367 182.581 250.637 182.553C248.717 182.352 246.94 181.448 245.648 180.015C244.356 178.582 243.641 176.722 243.641 174.793Z" fill="#2F2E41"/>
<path d="M262.85 202.669C270.039 202.669 275.866 199.176 275.866 194.867C275.866 190.558 270.039 187.065 262.85 187.065C255.661 187.065 249.834 190.558 249.834 194.867C249.834 199.176 255.661 202.669 262.85 202.669Z" fill="#2F2E41"/>
<path d="M247.912 215.191C247.912 215.191 243.96 218.262 243.082 218.7C242.204 219.139 236.935 214.752 236.056 214.752C235.178 214.752 223.762 227.913 223.762 227.913C223.762 227.913 225.883 230.354 223.762 242.828C222.966 247.506 221.387 267.507 221.387 270.139C221.387 272.771 212.784 279.24 220.688 284.943C228.592 290.646 266.354 296.787 266.793 293.278C267.232 289.768 262.402 280.556 264.598 276.169C266.793 271.782 266.793 255.55 266.793 255.55L269.428 238.441L271.623 224.842C271.623 224.842 261.304 221.991 260.426 221.991C259.548 221.991 255.596 228.132 247.912 215.191Z" fill="#3F3D56"/>
</g>
<defs>
<clipPath id="clip0">
<rect width="406" height="434" fill="white"/>
</clipPath>
</defs>
</svg>
