<svg width="222" height="148" viewBox="0 0 222 148" fill="none" xmlns="http://www.w3.org/2000/svg">
<g clip-path="url(#clip0)">
<path opacity="0.1" d="M128.984 24.4008C114.752 23.9056 101.199 19.3338 88.2636 14.3262C75.3285 9.31868 62.4993 3.76988 48.6084 1.11736C39.6638 -0.588932 29.4455 -0.828848 22.2467 3.94454C15.3196 8.53559 13.0805 16.4624 11.8781 23.8154C10.9725 29.3489 10.4407 35.174 12.9206 40.3524C14.6432 43.9493 17.7012 46.9722 19.8169 50.4174C27.1814 62.4017 21.9789 77.1825 13.9996 88.8867C10.2576 94.376 5.9183 99.6138 3.03183 105.458C0.145357 111.303 -1.18997 117.999 1.33617 123.961C3.84112 129.868 9.80482 134.308 16.2676 137.429C29.3935 143.762 44.8606 145.584 59.9423 146.613C93.3294 148.887 126.894 147.902 160.369 146.916C172.757 146.551 185.201 146.181 197.387 144.273C204.156 143.213 211.143 141.532 216.056 137.471C222.294 132.317 223.839 123.59 219.66 117.126C212.65 106.285 193.261 103.595 188.365 91.9595C185.668 85.5566 188.438 78.4224 192.358 72.484C200.767 59.7435 214.86 48.5672 215.604 34.0033C216.112 24.0016 209.337 13.9865 198.861 9.24383C187.878 4.28426 172.655 4.90805 164.553 13.119C156.211 21.5832 141.552 24.8365 128.984 24.4008Z" fill="#28DF99"/>
<g opacity="0.5">
<path opacity="0.5" d="M96.4906 77.2703L90.0433 77.4027L88.9893 78.8441V83.8248L90.3053 84.7422H96.4906L97.8067 83.3008V78.5812L96.4906 77.2703Z" fill="#28DF99"/>
<path opacity="0.2" d="M96.3555 78.0555C96.3555 78.0555 90.4342 78.9729 89.9082 78.0555L90.0412 77.401L96.3555 77.2628V78.0555Z" fill="white"/>
<path opacity="0.5" d="M97.017 91.6866L98.0691 92.7365V97.7268L97.017 98.7594C97.017 98.7594 93.2018 100.07 90.7007 99.0204L89.5156 97.8419V92.8516L90.5696 91.6713L97.017 91.6866Z" fill="#28DF99"/>
<path opacity="0.2" d="M96.7527 92.867C96.7527 92.867 92.1475 93.915 90.5693 92.867V91.6866H97.0167L96.7527 92.867Z" fill="white"/>
<path opacity="0.5" d="M94.5155 84.706V91.796C94.5005 92.0768 94.3745 92.3402 94.1651 92.5287C93.9556 92.7172 93.6798 92.8154 93.3979 92.8018C93.1159 92.8154 92.8401 92.7172 92.6306 92.5287C92.4212 92.3402 92.2952 92.0768 92.2803 91.796V84.706C92.2803 84.1033 92.8583 83.6369 93.5289 83.706C93.7883 83.7219 94.0326 83.8328 94.2148 84.0175C94.397 84.2021 94.5041 84.4474 94.5155 84.706Z" fill="#28DF99"/>
<path opacity="0.5" d="M106.817 77.472L100.369 77.6026L99.3154 79.044V84.0247L100.631 84.9421H106.817L108.133 83.5007V78.781L106.817 77.472Z" fill="#28DF99"/>
<path opacity="0.2" d="M106.684 78.2569C106.684 78.2569 100.762 79.1744 100.236 78.2569L100.367 77.6024L106.684 77.4719V78.2569Z" fill="white"/>
<path opacity="0.5" d="M107.339 91.8882L108.391 92.9381V97.9283L107.339 98.9667C107.339 98.9667 103.522 100.278 101.023 99.2277L99.8379 98.0492V93.0686L100.892 91.8882H107.339Z" fill="#28DF99"/>
<path opacity="0.2" d="M107.079 93.0686C107.079 93.0686 102.474 94.1165 100.896 93.0686V91.8882H107.339L107.079 93.0686Z" fill="white"/>
<path opacity="0.5" d="M104.834 84.9075V91.9976C104.818 92.2781 104.692 92.5413 104.483 92.7296C104.274 92.918 103.998 93.0164 103.716 93.0033C103.434 93.0169 103.158 92.9188 102.948 92.7303C102.739 92.5419 102.612 92.2785 102.597 91.9976V84.9075C102.597 84.3049 103.175 83.8385 103.847 83.9076C104.107 83.9234 104.351 84.0344 104.533 84.219C104.715 84.4036 104.822 84.6489 104.834 84.9075Z" fill="#28DF99"/>
<path opacity="0.5" d="M119.962 81.2627L114.653 81.3721L113.786 82.5582V86.6579L114.869 87.4142H119.962L121.045 86.2261V82.3414L119.962 81.2627Z" fill="#28DF99"/>
<path opacity="0.2" d="M119.853 81.9114C119.853 81.9114 114.979 82.6657 114.546 81.9114L114.654 81.3721L119.856 81.2627L119.853 81.9114Z" fill="white"/>
<path opacity="0.5" d="M120.393 93.1318L121.26 93.9955V98.0952L120.393 98.9589C120.393 98.9589 117.253 100.038 115.191 99.1739L114.216 98.2027V94.103L115.083 93.1318H120.393Z" fill="#28DF99"/>
<path opacity="0.2" d="M120.178 94.103C120.178 94.103 116.386 94.9667 115.087 94.103V93.1318H120.394L120.178 94.103Z" fill="white"/>
<path opacity="0.5" d="M118.335 87.3853V93.222C118.323 93.4532 118.219 93.6701 118.046 93.8251C117.874 93.9802 117.646 94.0608 117.414 94.0493C117.182 94.0608 116.955 93.9801 116.783 93.825C116.611 93.6699 116.507 93.4531 116.495 93.222V87.3853C116.502 87.2619 116.536 87.1413 116.593 87.0314C116.65 86.9215 116.729 86.8246 116.826 86.7471C116.922 86.6696 117.034 86.613 117.154 86.5811C117.274 86.5492 117.399 86.5427 117.522 86.5619C117.736 86.575 117.937 86.6663 118.087 86.8183C118.237 86.9703 118.326 87.1723 118.335 87.3853Z" fill="#28DF99"/>
<path opacity="0.5" d="M128.462 81.4297L123.153 81.5372L122.288 82.7233V86.8249L123.371 87.5792H128.462L129.545 86.3931V82.5084L128.462 81.4297Z" fill="#28DF99"/>
<path opacity="0.2" d="M128.353 82.0765C128.353 82.0765 123.478 82.8327 123.045 82.0765L123.153 81.5372L128.355 81.4297L128.353 82.0765Z" fill="white"/>
<path opacity="0.5" d="M128.895 93.2988L129.761 94.1606V98.2603L128.895 99.124C128.895 99.124 125.753 100.203 123.693 99.3409L122.72 98.3755V94.27L123.587 93.2988H128.895Z" fill="#28DF99"/>
<path opacity="0.2" d="M128.677 94.27C128.677 94.27 124.887 95.1318 123.586 94.27V93.2988H128.895L128.677 94.27Z" fill="white"/>
<path opacity="0.5" d="M126.837 87.5505V93.3852C126.825 93.6164 126.721 93.8333 126.548 93.9883C126.376 94.1434 126.148 94.224 125.916 94.2125C125.684 94.224 125.457 94.1434 125.284 93.9883C125.111 93.8333 125.008 93.6164 124.995 93.3852V87.5505C124.995 87.0553 125.477 86.6714 126.024 86.729C126.238 86.7416 126.439 86.8325 126.589 86.9842C126.739 87.1359 126.828 87.3376 126.837 87.5505Z" fill="#28DF99"/>
</g>
<path d="M202.141 102.612C201.727 101.865 200.952 101.374 200.137 101.147C199.313 100.95 198.46 100.896 197.617 100.99C196.255 101.086 194.905 101.308 193.584 101.652C192.765 101.867 191.915 102.155 191.362 102.803C191.347 102.823 191.33 102.846 191.312 102.865C190.466 103.086 189.626 103.425 188.807 103.702C187.985 103.973 187.149 104.2 186.302 104.379C187.41 103.752 188.489 103.088 189.403 102.201C189.834 101.783 190.222 101.323 190.559 100.827C191.185 101.005 191.842 101.049 192.486 100.955C193.79 100.733 194.844 99.8035 195.825 98.8976L198.979 96.0071C199.482 95.5464 199.993 95.0743 200.328 94.4716C200.781 93.6329 200.821 92.6348 200.833 91.6771C200.848 90.3604 200.833 89.0438 200.794 87.729L201.793 88.4967C201.641 86.8751 201.944 85.2433 202.667 83.7828C203.014 83.0861 203.469 82.3932 203.479 81.6121C203.494 80.4067 202.453 79.4586 201.388 78.925C200.322 78.3914 199.124 78.0498 198.251 77.2302C196.952 76.0115 196.709 74.0672 196.068 72.3973C195.687 71.4831 195.236 70.5995 194.719 69.7544L193.47 67.5856C192.842 66.4427 192.142 65.3407 191.374 64.2862C190.075 62.5799 188.439 61.1731 186.815 59.7816L178.367 52.5322C176.313 50.7683 174.252 49.0026 172.03 47.4594C167.523 44.329 162.438 42.1793 157.386 40.0508C156.114 39.5134 154.79 38.9683 153.414 39.0335C152.378 39.1004 151.396 39.519 150.632 40.2197C149.908 40.0006 149.2 39.7326 148.512 39.4174L148.458 39.3924C148.474 39.2792 148.491 39.1679 148.503 39.0546C148.52 38.9049 148.53 38.7552 148.541 38.6036C148.922 38.5452 149.29 38.4252 149.632 38.2485C149.805 38.1669 149.959 38.0483 150.081 37.9011C150.236 37.6448 150.316 37.3501 150.31 37.0508C150.464 35.0451 150.618 33.0202 150.453 31.0241C150.287 29.028 149.784 27.007 148.719 25.3103C148.389 24.7844 147.977 24.2719 147.404 24.0435C146.634 23.7364 145.742 24.0224 144.919 23.8842C143.495 23.6443 142.606 22.2566 141.576 21.2336C138.969 18.6444 134.51 18.2548 131.5 20.3507C130.359 21.1472 129.446 22.2278 128.428 23.1798C127.411 24.1318 126.218 24.9936 124.844 25.1798C124.591 25.1904 124.343 25.2559 124.118 25.3717C123.837 25.5483 123.71 25.888 123.602 26.2028C123.216 27.2891 122.846 28.4042 122.729 29.5405C122.715 29.4714 122.704 29.4023 122.692 29.3332C122.64 29.754 122.629 30.1789 122.659 30.6019C122.698 31.1409 122.854 31.665 123.118 32.1374C123.337 32.5864 123.711 32.942 124.172 33.1392C124.498 33.2541 124.842 33.3093 125.187 33.3024H125.34C125.284 33.4502 125.23 33.598 125.18 33.7477C124.751 35.0161 124.533 36.3458 124.534 37.6842C124.534 44.4019 129.916 49.8451 136.56 49.8451C137.36 49.8413 138.157 49.7577 138.94 49.5956C139.2 49.6782 139.46 49.7626 139.71 49.8528C140.223 50.0217 140.726 50.219 141.217 50.444C141.425 50.5419 142.267 51.0313 143.285 51.6628L143.215 51.8067C142.223 52.7301 141.495 53.8999 141.106 55.1961C140.716 56.4922 140.681 57.8681 141.001 59.1827C141.737 62.0368 144.152 64.4839 143.909 67.4224C143.874 67.8408 143.786 68.265 143.857 68.6796C143.955 69.2554 144.346 69.7237 144.738 70.1498C145.077 70.5222 145.429 70.883 145.788 71.2361C145.759 73.1113 145.595 74.9846 145.418 76.854C145.402 77.0172 145.399 77.1823 145.397 77.3492C145.407 78.1575 145.702 78.9365 146.229 79.5507C146.788 80.2282 147.011 81.2436 146.905 82.1495C146.753 83.447 146.111 84.6235 145.682 85.8538C143.743 91.3873 146.125 97.627 144.784 103.341C144.454 104.748 143.899 106.116 143.82 107.563C143.776 108.467 143.919 109.416 143.57 110.25C143.267 110.976 142.637 111.5 142.042 112.009C141.2 112.726 140.381 113.469 139.583 114.235C138.378 113.578 137.133 112.995 135.857 112.488C135.648 112.405 135.436 112.332 135.221 112.27C133.714 110.865 131.814 109.966 130.03 108.934C128.55 108.08 127.139 107.12 125.721 106.16C124.372 105.239 122.995 104.31 121.854 103.126C121.276 102.527 120.761 101.867 120.139 101.32C119.592 100.866 119.012 100.453 118.405 100.084C115.671 98.3196 113.064 96.3667 110.605 94.2394C108.73 92.6195 107.196 90.5331 105.192 89.0802C103.965 88.1896 102.537 87.3778 101.034 87.5447C100.555 87.6008 100.091 87.7433 99.664 87.9651C99.2656 87.7969 98.84 87.7019 98.4076 87.6849C97.186 87.6465 96.0645 88.3067 95.0163 88.942C88.8503 92.6745 82.5879 96.2406 76.2292 99.6404C74.9459 100.328 73.6549 101.009 72.4294 101.796C70.0383 103.336 67.9196 105.261 66.1593 107.49C65.8356 107.899 65.4271 108.364 64.9126 108.302C64.7718 108.281 64.6364 108.233 64.5138 108.16C63.7218 107.732 63.2363 106.905 62.7796 106.12C62.4482 105.544 62.0898 104.944 61.6042 104.506C61.5002 104.233 61.3617 103.975 61.1918 103.738C61.8759 102.057 62.4655 100.335 63.0127 98.602C63.2979 97.6923 63.5735 96.7767 63.9376 95.8939C64.8356 93.7097 66.2672 91.7308 66.774 89.4199C66.8954 88.8614 66.9667 88.2875 67.0611 87.7232C72.6009 86.6369 76.7822 81.708 76.7822 75.7888C76.7822 69.0711 71.3985 63.6279 64.7566 63.6279C58.1146 63.6279 52.7328 69.0711 52.7328 75.7888C52.7269 77.8335 53.2373 79.8469 54.2172 81.6436C55.197 83.4403 56.6148 84.9627 58.34 86.0707C58.34 86.0937 58.34 86.1168 58.34 86.1379C58.3285 86.5239 58.2905 86.9086 58.2264 87.2895C58.0048 88.5754 57.4556 89.7846 56.9026 90.9573C56.5365 91.7423 56.1704 92.5312 55.7908 93.3143C55.6086 93.2778 55.4319 93.2185 55.2647 93.1377C54.9391 92.9573 54.7965 92.5619 54.6732 92.2126C54.1275 90.6119 53.4594 89.0553 52.675 87.5563C52.369 86.9191 51.9803 86.3248 51.5189 85.7886C50.7057 84.9018 49.592 84.3759 48.5149 83.8443C48.3222 83.7521 48.143 83.6523 47.958 83.564C47.798 83.4456 47.6307 83.3372 47.457 83.2397C46.561 82.7349 45.5667 82.3721 44.8191 81.6658C44.2584 81.1361 43.873 80.447 43.3489 79.8847C42.476 78.95 41.2717 78.4164 40.1021 77.9078C39.4932 77.6429 38.8535 77.3723 38.1887 77.4087C38.095 77.4133 38.0017 77.4235 37.9093 77.4394C37.7494 77.4666 37.5912 77.5025 37.4353 77.5469C37.2836 77.4667 37.1403 77.3715 37.0075 77.2629C36.2927 76.7139 36.0152 75.7715 35.782 74.8944C35.3967 73.428 34.9901 71.9098 35.229 70.4089C35.2706 70.15 35.3272 69.8936 35.3986 69.6412C35.4583 69.5433 35.5161 69.4492 35.5681 69.3437C37.1022 68.8844 38.5039 68.0666 39.6564 66.9583C40.8089 65.8501 41.6788 64.4836 42.1937 62.9727C42.7086 61.4617 42.8535 59.8501 42.6163 58.272C42.3792 56.694 41.7669 55.1953 40.8305 53.9007C40.7322 53.7663 40.6378 53.6358 40.5279 53.5053L40.6436 53.442C41.7091 52.7932 41.9519 51.2424 41.4586 50.087C40.9653 48.9315 39.9171 48.1158 38.8554 47.4748C38.7013 47.3807 38.5452 47.2924 38.3872 47.2041L38.2523 47.1312C38.1328 47.0659 38.0153 47.0026 37.8958 46.9393L37.7552 46.8683C37.6145 46.7972 37.4738 46.7301 37.3332 46.6648L37.2696 46.6341C37.0942 46.5554 36.9189 46.4786 36.7416 46.4057C36.5701 46.3347 36.3986 46.2694 36.2252 46.2138L36.1539 46.1869C35.9901 46.1274 35.8244 46.0717 35.6587 46.018L35.6221 46.0065C34.4101 45.614 33.1466 45.4019 31.8724 45.3769C30.6251 45.3844 29.3819 45.5214 28.1631 45.7857C26.9765 45.9998 25.8145 46.3322 24.6948 46.778C22.8441 47.5593 21.2124 48.778 19.9411 50.3288C19.6732 50.3491 19.4075 50.3927 19.1473 50.4593C18.1048 50.7223 17.1664 51.3019 16.309 51.9583C15.5908 52.4842 14.9545 53.1129 14.4206 53.8239C13.7919 54.735 13.3583 55.7654 13.1469 56.8507C12.4167 60.2537 13.3146 63.7603 13.9755 67.1806C14.6364 70.6008 15.0179 74.3282 13.3974 77.3972C12.7866 78.5488 11.9195 79.5488 11.2779 80.6793C10.6362 81.8098 10.1911 83.1744 10.5611 84.4277C11.01 85.9498 12.488 86.9075 13.2587 88.2895C14.1605 89.8998 13.9119 92.0629 12.7327 93.4717C12.6806 93.5331 12.6286 93.5945 12.5727 93.6636C12.5169 93.7327 12.4379 93.8056 12.3646 93.8709C13.5805 94.297 14.9351 93.8382 16.0257 93.155C16.8979 92.6417 17.6376 91.9326 18.1857 91.084C19.5635 88.8307 18.9449 85.9171 19.4305 83.3126C20.0683 79.9019 22.6426 76.8598 22.2881 73.4069C22.0491 71.0903 20.5308 69.1537 19.338 67.1614C18.5452 65.8242 17.8807 64.4156 17.3533 62.9542C17.3321 62.8928 17.3109 62.8295 17.2878 62.7623C16.939 61.7738 16.6712 60.7259 16.8504 59.6913C16.9115 59.3563 17.0124 59.0296 17.151 58.7182C17.151 58.7547 17.151 58.7931 17.151 58.8296C17.1744 59.8301 17.3978 60.816 17.8081 61.7297C19.0124 64.2248 21.9104 65.3764 23.7506 67.3994C23.8277 67.4838 23.9009 67.5702 23.9741 67.6585C23.9953 67.6815 24.0146 67.7065 24.0338 67.7314L24.1899 67.9234L24.2554 68.0136C24.3036 68.0808 24.3518 68.1479 24.3961 68.217L24.4558 68.3034C24.5175 68.4013 24.5791 68.4953 24.6369 68.6009C25.1052 68.0846 25.5888 67.5414 25.7777 66.8735C25.795 66.8159 25.8066 66.7564 25.8181 66.6969C25.8335 66.7123 25.847 66.7295 25.8624 66.7468C25.8991 66.9522 25.928 67.1576 25.9549 67.3648C25.9549 67.661 25.9866 67.9563 26.0493 68.2458C26.1958 70.0884 26.0783 71.9808 25.9549 73.8292C25.8894 74.8176 26.1476 76.2859 25.5156 77.0229L25.4963 77.0441C25.4593 77.087 25.4187 77.1268 25.3749 77.1631C25.267 77.2744 25.1572 77.3838 25.0551 77.4989C22.9355 79.8789 21.9721 83.257 22.0222 86.493C22.0723 90.1762 23.2534 93.7442 24.5926 97.1702C25.0603 98.421 25.6114 99.6393 26.242 100.817C26.5676 101.453 26.9982 102.03 27.5157 102.523C28.0572 103.001 28.7162 103.316 29.3655 103.623C29.5274 103.7 29.6912 103.775 29.853 103.853L30.2673 104.045L33.4216 105.539C33.9997 106.385 34.5585 107.254 35.123 108.126C35.204 108.249 35.283 108.375 35.3658 108.498C35.9824 109.458 36.6029 110.417 37.2349 111.35L42.5512 119.193C42.9365 119.768 43.3393 120.344 43.8807 120.77C44.0348 120.891 44.2014 120.995 44.3779 121.079C44.4674 121.122 44.5594 121.16 44.6534 121.193C44.5367 121.367 44.4868 121.578 44.5127 121.786C44.5838 121.99 44.7189 122.165 44.8981 122.287C46.1005 123.277 47.4358 124.321 47.8135 125.843C48.0813 126.928 47.8135 128.089 48.0543 129.179C48.4956 131.144 50.4475 132.336 52.2935 133.093C56.4305 134.785 61.0261 135.436 65.4213 134.649C69.8166 133.862 73.9921 131.592 76.8381 128.123C77.7129 127.052 78.4586 125.883 79.2891 124.778C79.8672 123.999 80.503 123.256 81.1601 122.54C81.8691 122.217 82.5525 121.841 83.2045 121.415C84.5938 120.496 85.7904 119.316 87.0583 118.221C88.0044 117.4 88.9948 116.625 89.8638 115.726C90.6441 114.874 91.3731 113.977 92.047 113.039C93.5885 111.005 95.1807 109.011 96.8237 107.057C97.7024 106.011 98.6331 104.945 99.8605 104.37L99.9164 104.347C100.063 105.206 100.747 105.936 101.227 106.679C103.211 109.75 105.289 112.911 108.356 114.868C110.036 115.939 111.936 116.596 113.832 117.195C118.65 118.711 123.544 119.901 128.442 121.093C128.604 120.786 128.762 120.502 128.939 120.225C129.015 120.305 129.086 120.39 129.151 120.479C129.172 120.509 129.19 120.542 129.211 120.573C129.175 120.58 129.141 120.589 129.107 120.601C128.792 120.747 128.545 121.007 128.415 121.327C127.887 122.381 127.837 123.603 127.812 124.782C127.795 125.933 127.812 127.085 127.812 128.237C127.784 128.666 127.849 129.097 128.005 129.5C128.378 130.267 129.328 130.553 130.178 130.651C131.654 130.814 133.142 130.676 134.61 130.478C134.695 130.823 134.833 131.153 135.02 131.455C135.845 132.799 137.269 133.686 138.751 134.206C140.233 134.726 141.803 134.933 143.343 135.238C146.077 135.78 148.875 136.645 151.593 136.035C152.678 135.791 153.713 135.319 154.798 135.112C157.282 134.643 159.856 135.591 162.357 135.211C163.565 135.02 164.708 134.54 165.802 133.989C166.354 133.748 166.854 133.404 167.276 132.975C167.677 132.526 167.918 131.889 167.752 131.308C167.658 130.974 167.442 130.689 167.298 130.375C167.104 129.871 166.994 129.34 166.972 128.801C166.771 126.762 166.424 124.741 165.935 122.751C165.922 122.695 165.906 122.638 165.891 122.58C167.781 121.834 169.475 120.661 171.147 119.494L174.745 116.987C175.901 116.175 177.086 115.36 178.385 114.792C180.377 113.92 182.583 113.671 184.755 113.673C185.643 113.673 186.534 113.717 187.418 113.797C187.305 113.92 187.22 114.065 187.169 114.224C186.992 114.772 187.274 115.375 187.692 115.776C188.11 116.177 188.655 116.404 189.146 116.682C190.504 117.444 191.634 118.55 192.422 119.889C192.915 120.732 193.274 121.755 192.962 122.682C192.576 123.845 191.202 124.647 191.281 125.872C191.328 126.594 191.912 127.191 192.576 127.457C193.241 127.724 193.979 127.72 194.696 127.699C195.869 127.663 197.077 127.572 198.128 127.041C198.835 126.682 199.434 126.141 200.022 125.605C200.557 125.116 201.105 124.607 201.409 123.947C201.694 123.325 201.739 122.621 201.752 121.937C201.81 118.721 201.253 115.46 201.895 112.308C202.087 111.348 202.396 110.41 202.559 109.442C202.818 107.907 202.719 106.356 202.621 104.813C202.573 104.053 202.515 103.27 202.141 102.612Z" fill="url(#paint0_linear)"/>
<path opacity="0.06" d="M161.43 58.1233C160.673 58.6319 160.409 59.6146 160.313 60.5205C159.902 64.3726 161.498 68.1863 161.392 72.0576C161.307 75.1382 160.155 78.0767 159.018 80.9423C157.079 85.8308 156.07 91.1397 155.679 96.3814C155.287 101.623 154.715 107.082 151.89 111.515C151.249 112.519 150.501 113.452 149.873 114.462C149.214 115.517 148.692 116.65 148.11 117.747C146.395 120.99 144.185 123.947 141.558 126.513C140.788 127.262 139.971 127.987 138.988 128.419C138.355 128.693 137.673 128.837 136.982 128.845C136.292 128.852 135.607 128.722 134.968 128.461C133.65 127.918 132.541 126.693 132.487 125.273C132.438 124.003 133.199 122.857 133.963 121.839C136.549 118.393 139.523 115.253 142.826 112.481C143.425 111.978 144.057 111.458 144.368 110.74C144.716 109.913 144.574 108.974 144.618 108.078C144.689 106.648 145.248 105.291 145.582 103.898C146.93 98.2374 144.533 92.0571 146.483 86.5736C146.917 85.3548 147.561 84.1898 147.713 82.9057C147.821 82.0075 147.597 81.0037 147.033 80.33C146.504 79.7246 146.208 78.9519 146.198 78.1496C146.198 77.9846 146.198 77.8214 146.218 77.6602C146.453 75.1478 146.686 72.6238 146.559 70.1038C146.431 67.5837 145.928 65.0501 144.761 62.8103C144.156 61.6491 143.373 60.5627 143 59.3094C142.398 57.2807 142.953 55.0869 143.849 53.1675C144.549 51.6666 145.481 50.2367 146.784 49.2079C149.204 47.2982 152.827 47.0775 155.476 48.6571C157.43 49.8202 158.767 51.776 159.852 53.7702C160.631 55.227 161.442 56.4611 161.43 58.1233Z" fill="black"/>
<path d="M155.008 42.8261C154.638 43.8204 154.27 44.8146 153.904 45.8088C153.662 46.4614 153.421 47.1197 153.17 47.7723C152.014 50.7799 150.721 53.7395 148.698 56.2289C149 55.8565 146.154 53.9832 144.056 52.705C143.033 52.0773 142.185 51.5937 141.977 51.4977C141.482 51.2751 140.976 51.0791 140.46 50.9104C139.661 50.6417 138.852 50.4094 138.052 50.1196C136.202 49.4536 137.495 48.4536 138.287 47.3788C140.879 43.8587 141.37 39.0489 144.312 35.8148C145.391 37.857 147.098 39.5015 149.183 40.5076C149.224 40.5287 149.266 40.5479 149.309 40.5652C151.056 41.379 152.987 41.7302 154.795 42.4116C154.893 42.448 155.006 42.4999 155.039 42.6035C155.052 42.6791 155.041 42.7567 155.008 42.8261Z" fill="#A1616A"/>
<path d="M149.977 113.922C149.14 115.117 148.619 116.502 148.462 117.951C148.305 119.399 148.518 120.863 149.081 122.208C149.223 122.584 149.444 122.925 149.73 123.208C150.094 123.491 150.518 123.688 150.969 123.784C154.796 124.868 158.881 124.655 162.8 123.976C164.128 123.772 165.433 123.441 166.696 122.987C168.637 122.248 170.369 121.068 172.08 119.889L175.699 117.406C176.87 116.602 178.051 115.793 179.36 115.229C181.364 114.367 183.583 114.12 185.767 114.122C187.642 114.124 189.513 114.302 191.355 114.653C192.582 114.889 194.052 115.133 194.915 114.241C195.409 113.736 195.555 112.997 195.652 112.3C196.033 109.589 196.026 106.839 195.63 104.13C195.621 103.902 195.538 103.683 195.393 103.506C195.257 103.391 195.092 103.316 194.915 103.289C193.21 102.905 191.499 103.702 189.842 104.249C186.399 105.389 182.701 105.525 179.198 106.464C175.521 107.448 172.068 109.312 168.269 109.69C166.457 109.87 164.638 109.713 162.823 109.753C161.139 109.79 159.569 110.369 157.919 110.439C154.74 110.579 151.975 111.131 149.977 113.922Z" fill="#A1616A"/>
<path opacity="0.06" d="M149.977 113.922C149.14 115.117 148.619 116.502 148.462 117.951C148.305 119.399 148.518 120.863 149.081 122.208C149.223 122.584 149.444 122.925 149.73 123.208C150.094 123.491 150.518 123.688 150.969 123.784C154.796 124.868 158.881 124.655 162.8 123.976C164.128 123.772 165.433 123.441 166.696 122.987C168.637 122.248 170.369 121.068 172.08 119.889L175.699 117.406C176.87 116.602 178.051 115.793 179.36 115.229C181.364 114.367 183.583 114.12 185.767 114.122C187.642 114.124 189.513 114.302 191.355 114.653C192.582 114.889 194.052 115.133 194.915 114.241C195.409 113.736 195.555 112.997 195.652 112.3C196.033 109.589 196.026 106.839 195.63 104.13C195.621 103.902 195.538 103.683 195.393 103.506C195.257 103.391 195.092 103.316 194.915 103.289C193.21 102.905 191.499 103.702 189.842 104.249C186.399 105.389 182.701 105.525 179.198 106.464C175.521 107.448 172.068 109.312 168.269 109.69C166.457 109.87 164.638 109.713 162.823 109.753C161.139 109.79 159.569 110.369 157.919 110.439C154.74 110.579 151.975 111.131 149.977 113.922Z" fill="black"/>
<path d="M153.087 109.865C152.996 110.289 152.915 110.738 153.042 111.153C153.2 111.56 153.467 111.917 153.813 112.185C157.089 115.106 161.769 115.711 166.145 116.185C167.33 116.314 168.536 116.442 169.71 116.229C170.779 116.037 171.777 115.567 172.762 115.103C174.882 114.103 177.013 113.091 178.83 111.621C180.612 110.181 182.042 108.339 183.888 106.982C185.986 105.446 188.566 104.567 190.439 102.759C191.793 101.458 192.694 99.7589 193.008 97.9111C193.22 96.6501 193.15 95.3622 193.008 94.0916C192.856 92.631 192.611 91.1454 191.913 89.8518C191.106 88.3547 189.749 87.2242 188.318 86.2952C185.289 84.3337 181.722 83.1168 178.105 83.1475C173.095 83.1917 168.471 86.0956 164.875 89.3566C161.072 92.8104 157.994 96.9808 155.819 101.627C154.591 104.258 153.674 107.023 153.087 109.865Z" fill="#464353"/>
<path opacity="0.06" d="M153.087 109.865C152.996 110.289 152.915 110.738 153.042 111.153C153.2 111.56 153.467 111.917 153.813 112.185C157.089 115.106 161.769 115.711 166.145 116.185C167.33 116.314 168.536 116.442 169.71 116.229C170.779 116.037 171.777 115.567 172.762 115.103C174.882 114.103 177.013 113.091 178.83 111.621C180.612 110.181 182.042 108.339 183.888 106.982C185.986 105.446 188.566 104.567 190.439 102.759C191.793 101.458 192.694 99.7589 193.008 97.9111C193.22 96.6501 193.15 95.3622 193.008 94.0916C192.856 92.631 192.611 91.1454 191.913 89.8518C191.106 88.3547 189.749 87.2242 188.318 86.2952C185.289 84.3337 181.722 83.1168 178.105 83.1475C173.095 83.1917 168.471 86.0956 164.875 89.3566C161.072 92.8104 157.994 96.9808 155.819 101.627C154.591 104.258 153.674 107.023 153.087 109.865Z" fill="black"/>
<path d="M161.43 58.1233C160.673 58.6319 160.409 59.6146 160.313 60.5205C159.902 64.3726 161.498 68.1863 161.392 72.0576C161.307 75.1382 160.155 78.0767 159.018 80.9423C157.079 85.8308 156.07 91.1397 155.679 96.3814C155.287 101.623 154.715 107.082 151.89 111.515C151.249 112.519 150.501 113.452 149.873 114.462C149.214 115.517 148.692 116.65 148.11 117.747C146.395 120.99 144.185 123.947 141.558 126.513C140.788 127.262 139.971 127.987 138.988 128.419C138.355 128.693 137.673 128.837 136.982 128.845C136.292 128.852 135.607 128.722 134.968 128.461C133.65 127.918 132.541 126.693 132.487 125.273C132.438 124.003 133.199 122.857 133.963 121.839C136.549 118.393 139.523 115.253 142.826 112.481C143.425 111.978 144.057 111.458 144.368 110.74C144.716 109.913 144.574 108.974 144.618 108.078C144.689 106.648 145.248 105.291 145.582 103.898C146.93 98.2374 144.533 92.0571 146.483 86.5736C146.917 85.3548 147.561 84.1898 147.713 82.9057C147.821 82.0075 147.597 81.0037 147.033 80.33C146.504 79.7246 146.208 78.9519 146.198 78.1496C146.198 77.9846 146.198 77.8214 146.218 77.6602C146.453 75.1478 146.686 72.6238 146.559 70.1038C146.431 67.5837 145.928 65.0501 144.761 62.8103C144.156 61.6491 143.373 60.5627 143 59.3094C142.398 57.2807 142.953 55.0869 143.849 53.1675C144.549 51.6666 145.481 50.2367 146.784 49.2079C149.204 47.2982 152.827 47.0775 155.476 48.6571C157.43 49.8202 158.767 51.776 159.852 53.7702C160.631 55.227 161.442 56.4611 161.43 58.1233Z" fill="#A1616A"/>
<path d="M150.784 71.0174C154.812 71.0174 158.078 65.9139 158.078 59.6184C158.078 53.323 154.812 48.2195 150.784 48.2195C146.757 48.2195 143.491 53.323 143.491 59.6184C143.491 65.9139 146.757 71.0174 150.784 71.0174Z" fill="#A1616A"/>
<path d="M132.184 119.185C132.399 119.487 132.546 119.833 132.612 120.198C132.679 120.563 132.664 120.938 132.569 121.296C133.257 121.788 134.093 122.031 134.938 121.983C135.776 121.938 136.601 121.749 137.375 121.425C138.049 121.18 138.686 120.847 139.271 120.435C140.277 119.694 141.005 118.634 141.583 117.536C141.909 116.93 142.187 116.145 141.776 115.6C141.615 115.415 141.418 115.263 141.198 115.154C139.713 114.311 138.168 113.579 136.573 112.964C136.136 112.764 135.66 112.658 135.178 112.654C134.587 112.686 134.049 113.009 133.579 113.369C132.522 114.188 131.67 115.239 131.09 116.44C130.908 116.824 130.361 117.736 130.633 118.131C130.756 118.314 131.211 118.377 131.404 118.492C131.71 118.666 131.976 118.902 132.184 119.185Z" fill="#FBBEBE"/>
<path opacity="0.03" d="M132.184 119.185C132.399 119.487 132.546 119.833 132.612 120.198C132.679 120.563 132.664 120.938 132.569 121.296C133.257 121.788 134.093 122.031 134.938 121.983C135.776 121.938 136.601 121.749 137.375 121.425C138.049 121.18 138.686 120.847 139.271 120.435C140.277 119.694 141.005 118.634 141.583 117.536C141.909 116.93 142.187 116.145 141.776 115.6C141.615 115.415 141.418 115.263 141.198 115.154C139.713 114.311 138.168 113.579 136.573 112.964C136.136 112.764 135.66 112.658 135.178 112.654C134.587 112.686 134.049 113.009 133.579 113.369C132.522 114.188 131.67 115.239 131.09 116.44C130.908 116.824 130.361 117.736 130.633 118.131C130.756 118.314 131.211 118.377 131.404 118.492C131.71 118.666 131.976 118.902 132.184 119.185Z" fill="black"/>
<path d="M140.164 114.738C143.424 115.341 146.422 116.911 149.627 117.757C150.923 118.099 152.259 118.333 153.498 118.836C154.737 119.339 155.904 120.198 156.438 121.423C156.664 122.011 156.813 122.625 156.883 123.25C157.022 124.135 157.136 125.123 156.608 125.849C156.051 126.617 154.999 126.786 154.057 126.899C150.669 127.3 147.282 127.703 143.883 127.987C143.194 128.029 142.509 128.11 141.83 128.231C141.272 128.342 140.726 128.511 140.171 128.642C139.453 128.809 138.722 128.914 137.994 129.025C136.131 129.292 134.246 129.559 132.375 129.356C131.522 129.262 130.566 128.987 130.19 128.219C130.034 127.821 129.968 127.394 129.997 126.968C129.988 125.828 129.978 124.69 129.997 123.551C130.015 122.383 130.073 121.17 130.604 120.127C130.736 119.808 130.985 119.551 131.3 119.408C131.494 119.352 131.697 119.334 131.897 119.354C132.899 119.388 133.936 119.431 134.832 119.876C135.543 120.227 136.121 120.813 136.846 121.131C138.218 121.738 139.873 121.302 141.262 121.872C141.586 120.878 141.512 119.872 141.272 118.853C141.031 117.834 140.694 116.834 140.591 115.794C140.587 115.565 140.543 115.339 140.46 115.126C140.356 114.913 140.391 114.705 140.164 114.738Z" fill="#464353"/>
<path opacity="0.06" d="M140.164 114.738C143.424 115.341 146.422 116.911 149.627 117.757C150.923 118.099 152.259 118.333 153.498 118.836C154.737 119.339 155.904 120.198 156.438 121.423C156.664 122.011 156.813 122.625 156.883 123.25C157.022 124.135 157.136 125.123 156.608 125.849C156.051 126.617 154.999 126.786 154.057 126.899C150.669 127.3 147.282 127.703 143.883 127.987C143.194 128.029 142.509 128.11 141.83 128.231C141.272 128.342 140.726 128.511 140.171 128.642C139.453 128.809 138.722 128.914 137.994 129.025C136.131 129.292 134.246 129.559 132.375 129.356C131.522 129.262 130.566 128.987 130.19 128.219C130.034 127.821 129.968 127.394 129.997 126.968C129.988 125.828 129.978 124.69 129.997 123.551C130.015 122.383 130.073 121.17 130.604 120.127C130.736 119.808 130.985 119.551 131.3 119.408C131.494 119.352 131.697 119.334 131.897 119.354C132.899 119.388 133.936 119.431 134.832 119.876C135.543 120.227 136.121 120.813 136.846 121.131C138.218 121.738 139.873 121.302 141.262 121.872C141.586 120.878 141.512 119.872 141.272 118.853C141.031 117.834 140.694 116.834 140.591 115.794C140.587 115.565 140.543 115.339 140.46 115.126C140.356 114.913 140.391 114.705 140.164 114.738Z" fill="black"/>
<path d="M31.254 82.0114C30.5969 81.8041 29.963 82.3837 29.5949 82.9711C28.065 85.3664 28.1902 88.564 29.4138 91.1282C29.7049 91.7785 30.1064 92.3739 30.6008 92.8883C31.2636 93.5389 32.1172 93.9554 32.913 94.4237C35.1211 95.7232 37.0135 97.4928 38.4547 99.6059C39.397 100.99 40.1388 102.512 41.2082 103.8C43.8404 106.97 48.1662 108.406 50.7193 111.631C51.3302 112.398 51.8466 113.289 52.6616 113.847C53.1461 114.179 53.7108 114.376 54.2973 114.418C54.8838 114.46 55.4709 114.345 55.9979 114.085C56.5248 113.825 56.9726 113.43 57.295 112.94C57.6173 112.45 57.8025 111.884 57.8315 111.299C58.8238 109.846 59.635 108.241 60.4077 106.66C61.5509 104.246 62.5169 101.752 63.298 99.199C63.5851 98.297 63.8626 97.3891 64.2287 96.512C65.1324 94.347 66.5718 92.3873 67.0805 90.0995C67.2847 89.182 67.3348 88.2281 67.6316 87.3376C67.8973 86.5382 68.352 85.8141 68.9573 85.2263C70.9612 83.2858 72.0403 80.4587 73.6338 78.1746C74.2812 77.2514 74.9537 76.3302 75.3815 75.286C75.8093 74.2419 75.973 73.0462 75.5742 71.9905C75.1753 70.9349 74.1329 70.0827 73.0037 70.1422C72.4984 70.1944 72.0081 70.3444 71.5605 70.5837C70.0043 71.3192 68.577 72.2991 67.3329 73.4857C66.7889 74.0072 66.2743 74.5582 65.7914 75.1363C63.4368 77.9386 61.5947 81.3396 61.4328 84.9902C61.3788 86.2416 61.479 87.6293 60.6813 88.5986C58.4808 91.276 57.7736 94.9573 55.8969 97.8709C55.0278 99.2144 54.0316 100.606 52.546 101.218C52.3266 101.323 52.0838 101.371 51.8408 101.356C51.2473 101.289 50.9062 100.667 50.6557 100.126C49.6768 98.0151 48.544 95.9783 47.2664 94.0322C46.7615 93.2645 46.2046 92.4775 45.3973 92.0265C44.8462 91.7213 44.2065 91.585 43.6881 91.228C42.9656 90.7309 42.5879 89.8845 42.2121 89.0918C40.9944 86.5317 39.4525 84.1373 37.6242 81.9673C36.788 80.975 35.6858 79.95 34.3948 80.0978C33.1654 80.2418 32.4139 81.5296 31.254 82.0114Z" fill="#FBBEBE"/>
<path opacity="0.03" d="M31.254 82.0114C30.5969 81.8041 29.963 82.3837 29.5949 82.9711C28.065 85.3664 28.1902 88.564 29.4138 91.1282C29.7049 91.7785 30.1064 92.3739 30.6008 92.8883C31.2636 93.5389 32.1172 93.9554 32.913 94.4237C35.1211 95.7232 37.0135 97.4928 38.4547 99.6059C39.397 100.99 40.1388 102.512 41.2082 103.8C43.8404 106.97 48.1662 108.406 50.7193 111.631C51.3302 112.398 51.8466 113.289 52.6616 113.847C53.1461 114.179 53.7108 114.376 54.2973 114.418C54.8838 114.46 55.4709 114.345 55.9979 114.085C56.5248 113.825 56.9726 113.43 57.295 112.94C57.6173 112.45 57.8025 111.884 57.8315 111.299C58.8238 109.846 59.635 108.241 60.4077 106.66C61.5509 104.246 62.5169 101.752 63.298 99.199C63.5851 98.297 63.8626 97.3891 64.2287 96.512C65.1324 94.347 66.5718 92.3873 67.0805 90.0995C67.2847 89.182 67.3348 88.2281 67.6316 87.3376C67.8973 86.5382 68.352 85.8141 68.9573 85.2263C70.9612 83.2858 72.0403 80.4587 73.6338 78.1746C74.2812 77.2514 74.9537 76.3302 75.3815 75.286C75.8093 74.2419 75.973 73.0462 75.5742 71.9905C75.1753 70.9349 74.1329 70.0827 73.0037 70.1422C72.4984 70.1944 72.0081 70.3444 71.5605 70.5837C70.0043 71.3192 68.577 72.2991 67.3329 73.4857C66.7889 74.0072 66.2743 74.5582 65.7914 75.1363C63.4368 77.9386 61.5947 81.3396 61.4328 84.9902C61.3788 86.2416 61.479 87.6293 60.6813 88.5986C58.4808 91.276 57.7736 94.9573 55.8969 97.8709C55.0278 99.2144 54.0316 100.606 52.546 101.218C52.3266 101.323 52.0838 101.371 51.8408 101.356C51.2473 101.289 50.9062 100.667 50.6557 100.126C49.6768 98.0151 48.544 95.9783 47.2664 94.0322C46.7615 93.2645 46.2046 92.4775 45.3973 92.0265C44.8462 91.7213 44.2065 91.585 43.6881 91.228C42.9656 90.7309 42.5879 89.8845 42.2121 89.0918C40.9944 86.5317 39.4525 84.1373 37.6242 81.9673C36.788 80.975 35.6858 79.95 34.3948 80.0978C33.1654 80.2418 32.4139 81.5296 31.254 82.0114Z" fill="black"/>
<path d="M31.1193 72.8407C33.9245 72.8407 36.1986 70.7964 36.1986 68.2746C36.1986 65.7528 33.9245 63.7085 31.1193 63.7085C28.3141 63.7085 26.04 65.7528 26.04 68.2746C26.04 70.7964 28.3141 72.8407 31.1193 72.8407Z" fill="#FBBEBE"/>
<path d="M35.8823 69.1575C36.8922 69.1575 37.7109 68.3421 37.7109 67.3361C37.7109 66.3301 36.8922 65.5146 35.8823 65.5146C34.8724 65.5146 34.0537 66.3301 34.0537 67.3361C34.0537 68.3421 34.8724 69.1575 35.8823 69.1575Z" fill="#FBBEBE"/>
<path d="M31.7856 68.2746C35.6496 68.2746 38.7821 67.4402 38.7821 66.4109C38.7821 65.3816 35.6496 64.5472 31.7856 64.5472C27.9215 64.5472 24.7891 65.3816 24.7891 66.4109C24.7891 67.4402 27.9215 68.2746 31.7856 68.2746Z" fill="#FBBEBE"/>
<path d="M25.547 66.0137C25.7172 66.5512 25.8511 67.0994 25.9478 67.6547C25.3603 67.0607 24.8514 66.3944 24.4332 65.672C24.3205 65.5475 24.2299 65.4047 24.1654 65.2498C23.5411 63.8026 23.1152 62.3381 23.1152 60.7528C23.1151 58.9146 23.6309 57.113 24.6045 55.5514C25.5781 53.9898 26.9706 52.7305 28.6248 51.9157C30.279 51.1009 32.129 50.763 33.9658 50.9402C35.8026 51.1174 37.5531 51.8027 39.0196 52.9186C40.486 54.0345 41.61 55.5366 42.2646 57.2553C42.9192 58.9739 43.0784 60.8407 42.7241 62.6447C42.3697 64.4487 41.5161 66.118 40.2595 67.4643C39.003 68.8105 37.3935 69.7799 35.613 70.2631C35.9155 69.2919 36.3298 68.3437 36.3838 67.3361C36.4163 67 36.3674 66.661 36.2412 66.3476C36.0721 66.0143 35.8224 65.7281 35.5147 65.5146C34.4126 64.6759 32.9944 64.3093 31.607 64.3323C30.218 64.3898 28.8535 64.7157 27.5895 65.292C27.1906 65.4628 26.7127 65.6931 26.2406 65.8505C26.0156 65.9282 25.7831 65.9829 25.547 66.0137Z" fill="#FBBEBE"/>
<path d="M50.6443 87.5831C50.0103 88.5946 48.6557 88.9036 47.4649 88.8134C45.2451 88.6503 43.2258 87.4699 41.5108 86.0496C39.7959 84.6293 38.2968 82.9786 36.5433 81.6121C33.2811 79.0651 29.6066 78.0421 25.4561 77.9826C26.2673 77.3128 25.9686 75.7236 26.0341 74.6794C26.1767 72.5682 26.3116 70.4012 26.0341 68.3207C26.0052 68.0961 25.9725 67.8754 25.9339 67.6547C25.9994 67.7238 26.0688 67.7909 26.1401 67.86C27.3744 69.0399 28.8943 69.8813 30.5519 70.3024C32.2095 70.7235 33.9484 70.71 35.5992 70.263C35.493 70.5973 35.4099 70.9385 35.3506 71.2841C35.1117 72.7678 35.5125 74.2725 35.9075 75.7255C36.1425 76.5949 36.4219 77.5277 37.1407 78.0709C37.607 78.4241 38.1947 78.5622 38.7477 78.7484C39.8501 79.1227 40.8676 79.7097 41.7421 80.4758C42.351 81.0075 42.8982 81.6274 43.5514 82.09C44.1726 82.4814 44.827 82.818 45.5072 83.0957C47.1765 83.863 48.7536 84.8153 50.2088 85.9344C50.4834 86.1051 50.6971 86.3576 50.8196 86.6561C50.8556 86.8143 50.8586 86.9783 50.8284 87.1377C50.7983 87.2972 50.7356 87.4488 50.6443 87.5831Z" fill="#FBBEBE"/>
<path d="M62.0259 106.18C61.893 107.055 61.0876 107.738 60.5191 108.418C58.9738 110.276 57.4072 112.139 55.6788 113.84C53.829 115.657 51.7981 117.277 49.769 118.897L47.1369 120.995C46.8122 121.291 46.4316 121.519 46.0174 121.667C45.5322 121.787 45.0194 121.727 44.5761 121.496C44.3996 121.412 44.2323 121.31 44.077 121.191C43.5317 120.769 43.1309 120.193 42.7398 119.627C40.9593 117.038 39.177 114.449 37.3927 111.859C36.7568 110.934 36.1325 109.984 35.512 109.034C35.4292 108.911 35.3502 108.786 35.2673 108.663C34.7008 107.8 34.1362 106.936 33.5562 106.101L30.3846 104.621L29.9684 104.429L29.477 104.201C28.8238 103.896 28.161 103.585 27.6176 103.113C27.0973 102.625 26.664 102.054 26.3362 101.422C25.7016 100.253 25.1466 99.0429 24.6752 97.7998C23.3264 94.4084 22.1395 90.873 22.0894 87.2224C22.045 84.0113 22.9969 80.6717 25.1396 78.3147C25.4325 77.9904 25.7473 77.6865 26.0819 77.405C26.4942 77.0614 26.9201 76.8599 27.45 76.9347C27.9798 77.0096 28.4828 77.0864 28.9915 77.1727C30.3942 77.4133 31.7861 77.7076 33.167 78.0556C34.4118 78.3723 35.7009 78.7332 36.9591 78.4817C37.1614 78.4414 37.3618 78.3838 37.5622 78.332C37.726 78.2898 37.8879 78.2495 38.0555 78.2226C38.1486 78.2066 38.2425 78.1963 38.3368 78.1919C39.0055 78.1574 39.6471 78.4242 40.2637 78.6871C41.4411 79.19 42.6531 79.7197 43.5394 80.6448C44.0674 81.2014 44.4547 81.8847 45.0174 82.4087C45.7688 83.1092 46.7708 83.4682 47.6726 83.9691C47.8468 84.0654 48.0148 84.1724 48.1755 84.2896C48.5312 84.5552 48.8545 84.8611 49.139 85.2013C50.3066 86.5736 51.0003 88.4258 52.2894 89.7905C53.321 90.8806 54.2177 92.0901 54.9601 93.393C55.0815 93.6099 55.199 93.8287 55.3146 94.0514C55.5073 94.4218 55.6865 94.798 55.8522 95.178C55.8946 95.2759 55.937 95.37 55.9755 95.4717C56.218 96.0468 56.4296 96.6343 56.6095 97.2317C57.0469 98.6808 57.3378 100.245 58.309 101.408C58.9873 102.216 59.9276 102.752 60.7195 103.448C61.2295 103.879 61.6308 104.423 61.8911 105.036C62.0341 105.399 62.0805 105.793 62.0259 106.18Z" fill="#FBBEBE"/>
<path opacity="0.06" d="M56.6616 94.652C56.4407 94.9297 56.214 95.2035 55.9814 95.4735C55.9429 95.5234 55.9005 95.5714 55.8581 95.6194C53.8298 97.9828 51.5079 100.08 48.9483 101.859C47.3644 102.961 45.6938 103.938 44.0271 104.913L40.944 106.711C39.655 107.466 38.3485 108.226 36.9188 108.659C36.4602 108.796 35.9804 108.905 35.5122 109.034C35.4293 108.911 35.3503 108.786 35.2675 108.663C34.7009 107.799 34.1364 106.936 33.5564 106.101L30.3847 104.621C32.1363 103.518 33.6903 102.131 34.9823 100.518C36.9092 98.151 38.3909 95.4524 39.8515 92.7711C40.1104 92.3382 40.3119 91.8737 40.4508 91.3891C40.6435 90.5849 40.4816 89.7404 40.2446 88.9497C39.377 86.1144 37.5528 83.6648 35.0805 82.0151C33.3463 80.8635 31.3732 80.163 29.4117 79.4873C28.0416 79.0152 26.5406 78.5584 25.1475 78.7522C25.4399 78.4281 25.7547 78.1247 26.0897 77.8444C26.5021 77.4989 26.9279 77.2974 27.4578 77.3722C27.9877 77.4471 28.4906 77.5239 28.9993 77.6122C30.0302 77.9269 31.0437 78.3031 32.0515 78.6908C32.7144 78.9329 33.3585 79.2235 33.9784 79.5603C34.5954 79.9355 35.1881 80.349 35.753 80.7983C37.4238 82.0669 39.183 83.2156 41.0173 84.2358C43.1368 85.4008 45.3624 86.3471 47.586 87.3067C47.8218 87.4274 48.0821 87.493 48.3471 87.4987C48.4799 87.4984 48.6088 87.4542 48.7135 87.3728C48.8181 87.2915 48.8927 87.1777 48.9252 87.0495C48.934 86.9097 48.9019 86.7704 48.8327 86.6484C48.4473 85.8634 47.5725 85.468 46.7806 85.0861C43.4933 83.5007 40.603 81.2186 37.7435 78.9538C37.674 78.8989 37.613 78.8343 37.5624 78.7618L38.0557 78.6524C41.2558 80.9419 44.6355 82.9714 48.1622 84.7214C48.3484 84.8161 48.5353 84.9082 48.7229 84.9978C48.8578 85.0649 48.9907 85.1302 49.1275 85.1897C50.0775 85.6542 51.0274 86.1494 51.7423 86.9171C52.2033 87.4466 52.5921 88.0346 52.8984 88.6656C53.686 90.1477 54.3585 91.6877 54.9101 93.272C54.9206 93.3059 54.9328 93.3392 54.9467 93.3718C55.0166 93.6139 55.1375 93.8383 55.3013 94.0302C55.3589 94.0945 55.4274 94.1484 55.5036 94.1895C55.8658 94.4025 56.363 94.3795 56.6616 94.652Z" fill="black"/>
<path d="M38.0634 78.2226C41.2631 80.5122 44.6428 82.5411 48.1699 84.2896L48.7306 84.5679C49.8096 85.0938 50.933 85.6159 51.7519 86.4873C52.2126 87.0178 52.6013 87.6063 52.9081 88.2377C53.6961 89.7193 54.3681 91.2593 54.9178 92.8441C55.0411 93.1953 55.1856 93.5811 55.5132 93.7616C55.8408 93.942 56.361 93.9285 56.652 94.2011C56.3899 94.5274 56.124 94.8498 55.8485 95.1607C53.8207 97.5252 51.4988 99.6227 48.9387 101.402C47.3548 102.504 45.6842 103.481 44.0174 104.456L40.9344 106.254C39.6453 107.007 38.3389 107.767 36.9092 108.201C36.3716 108.364 35.8031 108.487 35.2578 108.644C34.6913 107.78 34.1267 106.917 33.5467 106.082L29.9589 104.408C31.8858 103.322 33.566 101.777 34.9688 100.059C36.8957 97.6943 38.3774 94.9957 39.838 92.3144C40.0966 91.8813 40.298 91.4168 40.4373 90.9324C40.63 90.1282 40.4681 89.2818 40.2311 88.4911C39.3631 85.6649 37.5442 83.2228 35.0805 81.5757C33.3463 80.4241 31.3732 79.7255 29.4117 79.0479C28.0416 78.5777 26.5406 78.119 25.1475 78.3147C25.4403 77.9904 25.7552 77.6865 26.0897 77.405C26.5021 77.0614 26.9279 76.8599 27.4578 76.9347C27.9877 77.0096 28.4906 77.0864 28.9993 77.1727C30.0302 77.4894 31.0437 77.8656 32.0515 78.2533C32.7148 78.4946 33.3589 78.7852 33.9784 79.1228C34.5954 79.498 35.1881 79.9115 35.753 80.3608C37.4265 81.6264 39.1883 82.772 41.025 83.7887C43.1445 84.9556 45.3701 85.9096 47.5937 86.8596C47.8295 86.9804 48.0898 87.046 48.3548 87.0516C48.4878 87.052 48.617 87.008 48.7218 86.9265C48.8266 86.8451 48.901 86.731 48.9329 86.6024C48.9416 86.4632 48.9094 86.3246 48.8404 86.2032C48.455 85.4182 47.5802 85.0209 46.7883 84.6409C43.501 83.0555 40.6107 80.7715 37.7512 78.499C37.6812 78.4448 37.6201 78.38 37.5701 78.3071L38.0634 78.2226Z" fill="#28DF99"/>
<path d="M65.0609 88.6426C71.7408 88.6426 77.1559 83.2487 77.1559 76.5949C77.1559 69.9412 71.7408 64.5472 65.0609 64.5472C58.381 64.5472 52.9658 69.9412 52.9658 76.5949C52.9658 83.2487 58.381 88.6426 65.0609 88.6426Z" fill="#28DF99"/>
<path d="M77.0872 124.544C79.3513 123.836 81.65 123.114 83.6386 121.818C85.0356 120.909 86.2399 119.738 87.5077 118.655C88.4616 117.841 89.4558 117.074 90.3306 116.175C91.1144 115.335 91.8478 114.449 92.5273 113.523C94.0739 111.506 95.6713 109.528 97.3194 107.588C98.2039 106.554 99.1384 105.5 100.374 104.924C102.568 103.897 105.145 104.59 107.461 105.295C110.929 106.35 114.38 107.469 117.625 109.076C119.471 109.991 121.259 111.012 123.122 111.89C126.529 113.492 130.146 114.592 133.749 115.686C134.017 115.8 134.314 115.824 134.597 115.755C134.799 115.663 134.973 115.518 135.1 115.337C135.57 114.759 135.946 114.111 136.215 113.417C136.267 113.339 136.286 113.243 136.269 113.151C136.252 113.059 136.201 112.976 136.125 112.92C134.583 111.425 132.583 110.506 130.714 109.44C129.227 108.594 127.803 107.644 126.381 106.694C125.015 105.782 123.637 104.861 122.49 103.688C121.912 103.095 121.392 102.441 120.766 101.899C120.212 101.449 119.626 101.039 119.012 100.675C116.266 98.9277 113.644 96.9929 111.166 94.8842C109.282 93.2797 107.738 91.2126 105.725 89.7731C104.489 88.8902 103.052 88.086 101.541 88.2472C99.703 88.4391 98.3465 89.9746 97.0651 91.2989C92.7585 95.7537 87.3247 98.9417 82.5191 102.859C78.5959 106.053 74.9291 109.847 70.1504 111.533C70.3643 112.239 70.4394 112.945 70.6552 113.644C70.9242 114.615 71.2596 115.567 71.6591 116.492C72.0553 117.312 72.5013 118.107 72.9945 118.872L74.9098 121.987C75.2952 122.621 75.6979 123.264 76.249 123.766C76.538 124.043 77.0872 124.143 77.0872 124.544Z" fill="#464353"/>
<path opacity="0.06" d="M77.0872 124.544C79.3513 123.836 81.65 123.114 83.6386 121.818C85.0356 120.909 86.2399 119.738 87.5077 118.655C88.4616 117.841 89.4558 117.074 90.3306 116.175C91.1144 115.335 91.8478 114.449 92.5273 113.523C94.0739 111.506 95.6713 109.528 97.3194 107.588C98.2039 106.554 99.1384 105.5 100.374 104.924C102.568 103.897 105.145 104.59 107.461 105.295C110.929 106.35 114.38 107.469 117.625 109.076C119.471 109.991 121.259 111.012 123.122 111.89C126.529 113.492 130.146 114.592 133.749 115.686C134.017 115.8 134.314 115.824 134.597 115.755C134.799 115.663 134.973 115.518 135.1 115.337C135.57 114.759 135.946 114.111 136.215 113.417C136.267 113.339 136.286 113.243 136.269 113.151C136.252 113.059 136.201 112.976 136.125 112.92C134.583 111.425 132.583 110.506 130.714 109.44C129.227 108.594 127.803 107.644 126.381 106.694C125.015 105.782 123.637 104.861 122.49 103.688C121.912 103.095 121.392 102.441 120.766 101.899C120.212 101.449 119.626 101.039 119.012 100.675C116.266 98.9277 113.644 96.9929 111.166 94.8842C109.282 93.2797 107.738 91.2126 105.725 89.7731C104.489 88.8902 103.052 88.086 101.541 88.2472C99.703 88.4391 98.3465 89.9746 97.0651 91.2989C92.7585 95.7537 87.3247 98.9417 82.5191 102.859C78.5959 106.053 74.9291 109.847 70.1504 111.533C70.3643 112.239 70.4394 112.945 70.6552 113.644C70.9242 114.615 71.2596 115.567 71.6591 116.492C72.0553 117.312 72.5013 118.107 72.9945 118.872L74.9098 121.987C75.2952 122.621 75.6979 123.264 76.249 123.766C76.538 124.043 77.0872 124.143 77.0872 124.544Z" fill="black"/>
<path d="M129.838 120.887C130.053 121.19 130.199 121.536 130.265 121.901C130.332 122.265 130.317 122.64 130.223 122.999C130.908 123.492 131.741 123.736 132.585 123.692C133.425 123.645 134.252 123.457 135.029 123.135C135.702 122.89 136.339 122.557 136.925 122.145C137.932 121.404 138.659 120.344 139.247 119.244C139.572 118.64 139.85 117.855 139.43 117.31C139.269 117.124 139.072 116.972 138.851 116.865C137.37 116.022 135.827 115.29 134.237 114.675C133.799 114.474 133.323 114.367 132.842 114.362C132.248 114.394 131.71 114.719 131.24 115.08C130.184 115.898 129.333 116.949 128.753 118.15C128.572 118.534 128.024 119.448 128.294 119.843C128.417 120.026 128.872 120.089 129.065 120.202C129.368 120.374 129.631 120.608 129.838 120.887Z" fill="#FBBEBE"/>
<path d="M138.66 116.346C141.92 116.951 144.919 118.519 148.123 119.366C149.42 119.707 150.755 119.941 151.994 120.444C153.233 120.947 154.401 121.807 154.935 123.031C155.16 123.619 155.31 124.233 155.38 124.859C155.518 125.743 155.632 126.732 155.104 127.457C154.547 128.225 153.495 128.396 152.553 128.507C149.166 128.91 145.778 129.312 142.379 129.596C141.692 129.638 141.008 129.72 140.331 129.839C139.772 129.953 139.227 130.12 138.672 130.25C137.955 130.419 137.223 130.523 136.494 130.634C134.631 130.899 132.747 131.168 130.876 130.962C130.022 130.868 129.066 130.594 128.691 129.826C128.535 129.428 128.469 129.001 128.498 128.575C128.498 127.436 128.479 126.296 128.498 125.158C128.515 123.989 128.573 122.776 129.105 121.734C129.237 121.415 129.486 121.158 129.8 121.014C129.994 120.959 130.197 120.941 130.398 120.961C131.4 120.995 132.436 121.037 133.332 121.483C134.043 121.834 134.556 120.784 135.28 121.099C136.654 121.703 135.724 119.87 137.111 120.44C137.435 119.446 138.811 120.037 138.572 119.018C138.333 117.999 139.19 118.442 139.092 117.394C139.088 117.166 139.043 116.94 138.961 116.726C138.853 116.521 138.888 116.314 138.66 116.346Z" fill="#464353"/>
<path opacity="0.06" d="M40.9986 54.9371C40.251 55.3708 39.3241 55.2902 38.4532 55.271C37.6915 55.2554 36.9297 55.2945 36.1737 55.3881C35.9014 55.4071 35.6353 55.4774 35.3895 55.5954C35.0693 55.8011 34.8162 56.0952 34.6611 56.4418C34.3527 57.0318 34.145 57.6688 34.0464 58.3266C33.9385 59.0656 33.9501 59.8736 33.4876 60.459C32.8575 61.2555 31.8748 61.1327 30.9827 61.2901C30.2062 61.4385 29.462 61.7218 28.7841 62.1269C28.1156 62.529 27.542 63.0699 27.1024 63.7128C26.6628 64.3557 26.3676 65.0855 26.2368 65.8523C26.2117 66.027 26.1944 66.1997 26.1867 66.3744C26.1674 66.8696 26.2175 67.3744 26.152 67.86C26.1361 67.9812 26.1116 68.1011 26.0788 68.2189C26.0702 68.2535 26.0593 68.2875 26.046 68.3206C26.0171 68.096 25.9843 67.8753 25.9458 67.6546C25.3583 67.0606 24.8494 66.3943 24.4313 65.6719C24.3186 65.5473 24.228 65.4046 24.1634 65.2497C23.5391 63.8025 23.1133 62.338 23.1133 60.7527C23.1131 58.6736 23.7731 56.6477 24.9987 54.9648C26.2243 53.2819 27.9528 52.0282 29.937 51.3829C31.9212 50.7377 34.0594 50.734 36.0459 51.3723C38.0323 52.0107 39.7652 53.2584 40.9967 54.9371H40.9986Z" fill="black"/>
<path d="M41.6326 51.1599C41.1374 50.0179 40.0911 49.2079 39.0159 48.5726C36.8963 47.3135 34.4569 46.5227 31.9827 46.4901C30.7344 46.4904 29.4895 46.6191 28.2677 46.874C27.0771 47.086 25.9107 47.4158 24.7858 47.8586C22.9298 48.6275 21.2892 49.8342 20.0052 51.3748C19.7355 51.3952 19.468 51.4382 19.2056 51.5034C18.1573 51.7644 17.2132 52.3383 16.3519 52.989C15.6311 53.509 14.9909 54.1318 14.452 54.8373C13.8212 55.7383 13.3848 56.7598 13.1706 57.8372C12.4364 61.2076 13.3401 64.6854 14.003 68.0692C14.6658 71.453 15.0531 75.1496 13.4249 78.1899C12.8102 79.3415 11.9374 80.3203 11.2822 81.4412C10.6271 82.5621 10.1916 83.9114 10.5635 85.1551C11.0067 86.6676 12.4981 87.6273 13.2766 88.9881C13.7533 89.8782 13.9235 90.8997 13.7609 91.8955C13.5983 92.8914 13.112 93.8065 12.3767 94.5004C13.6003 94.9226 14.9626 94.4678 16.0648 93.7922C16.9386 93.2853 17.6821 92.5829 18.2364 91.7404C19.6218 89.5063 19.0071 86.6215 19.4888 84.04C20.1305 80.662 22.7202 77.6486 22.3637 74.2284C22.1229 71.9252 20.5968 70.0154 19.3963 68.0404C18.5956 66.7233 17.9226 65.3332 17.3866 63.8889C17.0012 62.8582 16.6891 61.7508 16.8798 60.6683C16.9429 60.3378 17.0445 60.0157 17.1823 59.7086C17.1823 59.7451 17.1823 59.7815 17.1823 59.818C17.2043 60.8122 17.4285 61.7916 17.8413 62.697C19.2749 65.6144 23.0921 66.6892 24.7088 69.5087C25.1808 68.9963 25.6722 68.4588 25.8649 67.7909C26.0344 67.1959 25.9477 66.5625 25.9728 65.9445C26.0402 64.2171 27.0942 62.5895 28.5702 61.6989C29.2477 61.2931 29.9921 61.0104 30.7688 60.864C31.659 60.7047 32.6417 60.8256 33.2737 60.0291C33.7362 59.4533 33.7246 58.6357 33.8345 57.8986C33.9321 57.24 34.1399 56.6022 34.4491 56.0119C34.6037 55.6655 34.857 55.3719 35.1775 55.1674C35.4237 55.0484 35.6906 54.978 35.9637 54.9601C36.719 54.8665 37.4802 54.8273 38.2413 54.8431C39.1218 54.8642 40.0641 54.9429 40.8194 54.4918C41.8831 53.8469 42.1278 52.3115 41.6326 51.1599Z" fill="#464353"/>
<path opacity="0.06" d="M149.309 40.5652C149.309 40.5921 149.309 40.617 149.309 40.6439C148.96 43.6381 146.07 43.4999 145.395 48.2176C145.129 50.0659 142.312 50.4076 140.46 50.9047C139.661 50.636 138.851 50.4037 138.052 50.1139C136.202 49.4479 137.495 48.4479 138.287 47.3731C140.879 43.853 141.37 39.0432 144.312 35.8091C145.391 37.8513 147.098 39.4957 149.183 40.5019C149.224 40.5287 149.266 40.5479 149.309 40.5652Z" fill="black"/>
<path d="M149.376 38.8473C149.375 39.3013 149.35 39.755 149.299 40.2061C148.944 43.3225 147.383 46.1781 144.948 48.1662C142.512 50.1542 139.395 51.118 136.257 50.8527C133.12 50.5874 130.21 49.1139 128.146 46.7454C126.083 44.3768 125.027 41.2999 125.205 38.1686C125.382 35.0373 126.779 32.0984 129.098 29.9765C131.416 27.8546 134.474 26.717 137.621 26.8053C140.769 26.8937 143.757 28.2011 145.952 30.4497C148.147 32.6984 149.375 35.711 149.376 38.8473Z" fill="#A1616A"/>
<path d="M154.241 40.1948C155.627 40.1276 156.958 40.6688 158.238 41.2005C163.311 43.3118 168.427 45.4403 172.961 48.54C175.196 50.0755 177.268 51.8183 179.335 53.5668L187.831 60.7566C189.463 62.1366 191.106 63.53 192.417 65.2191C193.188 66.2608 193.891 67.3506 194.523 68.4819L195.783 70.622C196.299 71.4596 196.75 72.3355 197.132 73.2419C197.779 74.8944 198.02 76.8214 199.326 78.0287C200.203 78.8406 201.411 79.1707 202.483 79.7062C203.554 80.2417 204.602 81.1822 204.585 82.376C204.585 83.1437 204.119 83.8347 203.768 84.5257C203.042 85.9695 202.737 87.5876 202.889 89.1954L188.996 78.6199C188.443 78.1995 187.865 77.7658 187.185 77.6237C186.303 77.4318 185.403 77.7639 184.551 78.0633C177.837 80.4218 170.702 81.356 163.604 80.806C160.465 80.5603 157.278 79.998 154.53 78.4682C153.01 77.6237 151.665 76.5048 150.33 75.3973C148.663 74.0077 146.99 72.6143 145.512 71.0251C145.127 70.6009 144.726 70.1345 144.628 69.5664C144.555 69.1556 144.645 68.7372 144.68 68.3226C144.923 65.411 142.495 62.9869 141.755 60.1597C141.426 58.8266 141.472 57.4291 141.887 56.1201C142.302 54.8111 143.07 53.6409 144.108 52.7376C145.763 54.181 145.703 56.7164 145.511 58.8987C145.25 61.8372 146.075 63.294 145.815 66.2344C146.863 66.196 146.672 66.8678 147.12 65.9215C147.567 64.9753 147.653 63.9082 147.738 62.866C148.048 59.0964 148.423 55.3332 148.865 51.5764C149.085 49.6974 149.335 47.8222 149.576 45.9451C149.723 44.8031 149.703 43.7359 150.309 42.7225C151.149 41.3195 152.576 40.2735 154.241 40.1948Z" fill="#3E978B"/>
<path d="M156.055 43.6188C156.937 43.3425 157.887 43.5958 158.774 43.8588C160.341 44.322 161.899 44.8114 163.448 45.3271C164.714 45.7474 165.998 46.1984 167.069 46.9911C168.181 47.8126 168.996 48.9546 169.803 50.0774C170.381 50.8854 170.959 51.7031 171.345 52.6205C171.846 53.822 171.981 55.1387 172.116 56.4323C172.204 56.9906 172.197 57.5597 172.094 58.1156C171.913 58.7191 171.595 59.2729 171.164 59.7336C170.5 60.5157 169.731 61.2023 168.878 61.7738C166.61 63.294 163.868 63.9273 161.198 64.4859C158.814 64.983 156.413 65.4455 153.982 65.5952C153.036 65.6547 151.937 65.5952 151.359 64.8505C151.195 64.6184 151.065 64.3636 150.974 64.0943C149.553 60.346 148.938 56.3423 149.168 52.3422C149.189 51.6131 149.303 50.8896 149.506 50.1887C149.706 49.6279 149.954 49.0853 150.247 48.5669C150.978 47.1907 151.746 45.7666 153.005 44.8453C154.321 43.8856 156.026 43.5824 157.658 43.6438" fill="#A1616A"/>
<path opacity="0.06" d="M164.931 57.8526C164.174 58.3612 163.91 59.3439 163.814 60.2499C163.403 64.102 164.999 67.9157 164.893 71.787C164.808 74.8579 163.656 77.806 162.519 80.6716C160.58 85.5602 159.571 90.869 159.179 96.1107C158.788 101.352 158.216 106.811 155.391 111.245C154.75 112.249 154.002 113.181 153.374 114.191C152.715 115.247 152.193 116.379 151.611 117.477C149.896 120.719 147.686 123.676 145.059 126.242C144.289 126.991 143.472 127.716 142.489 128.148C141.856 128.422 141.174 128.567 140.483 128.574C139.793 128.581 139.108 128.451 138.469 128.191C137.151 127.647 136.041 126.423 135.988 125.002C135.939 123.732 136.7 122.586 137.464 121.569C140.05 118.122 143.024 114.982 146.327 112.21C146.926 111.707 147.558 111.187 147.869 110.469C148.217 109.642 148.075 108.704 148.119 107.807C148.19 106.377 148.749 105.02 149.083 103.627C150.431 97.9667 148.034 91.7865 149.984 86.3029C150.418 85.0842 151.062 83.9191 151.214 82.6351C151.322 81.7368 151.096 80.733 150.534 80.0593C150.005 79.4537 149.709 78.6813 149.697 77.879C149.697 77.7139 149.697 77.5508 149.718 77.3895C149.954 74.8771 150.187 72.3532 150.06 69.8331C149.932 67.313 149.429 64.7795 148.262 62.5396C147.657 61.3784 146.874 60.2921 146.501 59.0388C145.899 57.01 146.454 54.8162 147.35 52.8969C148.05 51.396 148.982 49.9661 150.285 48.9373C152.705 47.0276 156.328 46.8068 158.977 48.3865C160.931 49.5496 162.268 51.5054 163.353 53.4996C164.132 54.9563 164.952 56.1905 164.931 57.8526Z" fill="black"/>
<path d="M165.371 57.8526C164.614 58.3612 164.35 59.3439 164.253 60.2499C163.843 64.102 165.438 67.9157 165.332 71.787C165.248 74.8579 164.095 77.806 162.958 80.6716C161.02 85.5602 160.012 90.869 159.619 96.1107C159.226 101.352 158.656 106.811 155.831 111.245C155.189 112.249 154.444 113.181 153.813 114.191C153.156 115.247 152.632 116.379 152.05 117.477C150.335 120.719 148.125 123.676 145.499 126.242C144.728 126.991 143.909 127.716 142.927 128.148C142.293 128.422 141.611 128.567 140.921 128.574C140.231 128.581 139.546 128.451 138.907 128.191C137.591 127.647 136.481 126.423 136.427 125.002C136.377 123.732 137.138 122.586 137.903 121.569C140.489 118.122 143.463 114.982 146.767 112.21C147.366 111.707 148 111.187 148.308 110.469C148.659 109.642 148.514 108.704 148.559 107.807C148.63 106.377 149.189 105.02 149.522 103.627C150.871 97.9667 148.474 91.7865 150.424 86.3029C150.858 85.0842 151.503 83.9191 151.655 82.6351C151.761 81.7368 151.538 80.733 150.975 80.0593C150.437 79.4579 150.132 78.6846 150.116 77.879C150.116 77.7139 150.116 77.5508 150.137 77.3895C150.37 74.8771 150.603 72.3532 150.476 69.8331C150.349 67.313 149.846 64.7795 148.678 62.5396C148.073 61.3784 147.291 60.2921 146.917 59.0388C146.316 57.01 146.871 54.8162 147.767 52.8969C148.468 51.396 149.399 49.9661 150.701 48.9373C153.122 47.0276 156.744 46.8068 159.394 48.3865C161.348 49.5496 162.685 51.5054 163.77 53.4996C164.567 54.9563 165.384 56.1905 165.371 57.8526Z" fill="#A1616A"/>
<path d="M184.857 107.972L184.691 108.022L184.857 107.972Z" fill="#464353"/>
<path d="M151.108 116.536C151.116 116.472 151.127 116.407 151.143 116.344L151.108 116.536Z" fill="#464353"/>
<path d="M192.421 103.366C192.976 102.727 193.831 102.441 194.654 102.228C195.98 101.886 197.334 101.667 198.7 101.571C199.549 101.48 200.406 101.533 201.236 101.727C202.057 101.951 202.836 102.439 203.252 103.178C203.62 103.83 203.678 104.606 203.726 105.352C203.826 106.888 203.918 108.423 203.664 109.936C203.5 110.895 203.194 111.824 202.996 112.776C202.352 115.897 202.911 119.128 202.853 122.314C202.839 122.993 202.795 123.69 202.508 124.306C202.202 124.96 201.651 125.457 201.113 125.949C200.521 126.48 199.92 127.016 199.207 127.371C198.151 127.899 196.935 127.987 195.754 128.024C195.036 128.045 194.296 128.047 193.635 127.784C192.974 127.521 192.378 126.93 192.33 126.214C192.253 124.999 193.629 124.204 194.022 123.053C194.334 122.135 193.976 121.122 193.479 120.287C192.681 118.956 191.544 117.86 190.182 117.11C189.677 116.834 189.139 116.602 188.719 116.212C188.299 115.822 188.014 115.218 188.193 114.677C188.407 114.022 189.172 113.717 189.86 113.652C190.548 113.586 191.274 113.636 191.893 113.331C192.444 113.061 192.827 112.538 193.091 111.988C193.653 110.812 193.731 109.464 193.309 108.231C193.142 107.763 192.9 107.324 192.592 106.932C192.303 106.564 191.71 106.253 191.504 105.85C191.137 105.124 191.929 103.942 192.421 103.366Z" fill="#3E978B"/>
<path opacity="0.06" d="M181.223 75.5509C178.04 72.7486 173.602 71.9867 169.44 71.1364C167.296 70.7001 165.163 70.2138 163.039 69.6777C161.644 69.3245 160.245 68.9484 158.8 68.8505C157.355 68.7526 155.867 68.9541 154.63 69.6873C153.393 70.4205 152.461 71.7487 152.453 73.1824C152.453 73.7582 152.59 74.3225 152.547 74.8925C152.48 75.81 151.969 76.6199 151.62 77.4779C151.087 78.8341 151.005 80.3251 151.387 81.7311C152.004 83.971 153.78 85.9441 153.626 88.2569C153.37 92.1282 153.449 96.1741 154.247 99.9648C155.044 103.756 156.041 107.563 156.018 111.442C155.994 115.321 154.815 119.4 151.907 121.983C153.878 123.826 156.287 125.137 158.908 125.793C161.149 126.352 163.814 126.296 165.409 124.632C165.779 124.248 166.086 123.736 166.008 123.208C165.929 122.875 165.789 122.559 165.594 122.277C164.498 120.321 164.631 117.911 165.116 115.726C165.602 113.542 166.432 111.419 166.642 109.189C166.797 107.571 166.623 105.926 166.933 104.329C167.172 103.107 167.689 101.955 167.999 100.748C168.914 97.1664 167.953 93.4065 166.997 89.8384C167.797 91.6714 169.309 93.1013 170.874 94.345C173.248 96.2298 176.119 97.8939 179.136 97.5599C181.822 97.2605 184.11 95.4006 185.688 93.2184C185.701 90.6944 186.58 88.3087 186.424 85.7905C186.323 84.6844 186.124 83.5893 185.83 82.5181C185.535 81.3204 185.233 80.1112 184.674 79.0114C183.936 77.5508 182.452 76.6314 181.223 75.5509Z" fill="black"/>
<path d="M181.882 75.5509C178.699 72.7486 174.263 71.9867 170.099 71.1364C167.955 70.7001 165.822 70.2138 163.7 69.6777C162.305 69.3245 160.904 68.9484 159.461 68.8505C158.018 68.7526 156.53 68.9541 155.293 69.6873C154.056 70.4205 153.121 71.7487 153.116 73.1824C153.116 73.7582 153.251 74.3225 153.208 74.8925C153.143 75.81 152.62 76.6199 152.281 77.4779C151.749 78.8343 151.668 80.3253 152.05 81.7311C152.665 83.971 154.441 85.9441 154.289 88.2569C154.031 92.1282 154.11 96.1741 154.908 99.9648C155.705 103.756 156.702 107.563 156.679 111.442C156.655 115.321 155.468 119.387 152.559 121.966C154.529 123.808 156.939 125.12 159.559 125.776C161.8 126.335 164.467 126.279 166.061 124.615C166.43 124.231 166.737 123.719 166.66 123.191C166.58 122.858 166.44 122.542 166.245 122.26C165.149 120.304 165.282 117.893 165.768 115.709C166.253 113.525 167.084 111.402 167.296 109.172C167.448 107.554 167.274 105.909 167.587 104.312C167.824 103.089 168.342 101.938 168.65 100.731C169.566 97.1492 168.606 93.3892 167.648 89.8211C168.448 91.6541 169.961 93.084 171.527 94.3277C173.901 96.2125 176.77 97.8766 179.788 97.5426C182.474 97.2432 184.761 95.3834 186.339 93.2011C186.351 90.6771 187.229 88.2914 187.073 85.7732C186.972 84.6671 186.774 83.5721 186.48 82.5008C186.187 81.3031 185.882 80.0939 185.324 78.9942C184.607 77.5508 183.111 76.6314 181.882 75.5509Z" fill="#A1616A"/>
<path d="M159.77 123.985C158.356 123.128 157.135 121.989 156.184 120.64C155.841 120.156 155.532 119.642 155.105 119.231C154.677 118.82 154.097 118.515 153.505 118.577C152.837 118.646 152.301 119.152 151.877 119.674C150.74 121.077 150.008 122.793 148.746 124.089C147.289 125.588 145.256 126.392 143.227 126.907C141.198 127.421 139.104 127.692 137.115 128.342C136.491 128.546 135.834 128.822 135.497 129.384C135.069 130.1 135.304 131.039 135.755 131.749C136.585 133.093 138.015 133.958 139.507 134.473C140.998 134.987 142.576 135.192 144.131 135.496C146.879 136.031 149.694 136.889 152.428 136.284C153.519 136.043 154.548 135.574 155.65 135.371C158.155 134.906 160.739 135.845 163.253 135.469C164.469 135.286 165.618 134.803 166.722 134.258C167.276 134.019 167.779 133.679 168.206 133.254C168.608 132.808 168.851 132.177 168.685 131.601C168.591 131.269 168.373 130.989 168.229 130.676C168.001 130.192 167.955 129.649 167.901 129.118C167.693 127.094 167.34 125.088 166.845 123.114C166.674 122.425 166.417 121.657 165.772 121.356C165.64 121.285 165.486 121.268 165.342 121.308C165.113 121.394 165.038 121.671 164.968 121.903C164.779 122.545 164.417 123.123 163.921 123.575C163.425 124.026 162.815 124.334 162.156 124.464C161.497 124.594 160.815 124.542 160.183 124.313C159.552 124.084 158.996 123.687 158.575 123.166" fill="#3E978B"/>
<path opacity="0.06" d="M149.376 38.8474C149.376 39.3015 149.35 39.7551 149.299 40.2063C148.692 40.2969 148.072 40.2435 147.489 40.0504C146.906 39.8573 146.378 39.5299 145.946 39.095C145.54 38.6651 145.235 38.1449 144.832 37.7112C144.43 37.2774 143.869 36.9166 143.291 36.9626C142.798 36.9991 142.37 37.31 142.033 37.6709C141.594 38.1406 141.272 38.7068 141.094 39.3234C140.965 39.7591 140.902 40.2543 140.539 40.5441C140.177 40.8339 139.732 40.8147 139.302 40.7994C138.745 40.7802 138.167 40.7533 137.676 40.4923C136.751 39.9952 136.439 38.857 136.096 37.8666C135.518 36.2026 134.217 33.0549 132.196 32.719C131.232 32.5597 130.061 33.0664 129.306 33.6134C128.167 34.4368 127.327 34.9704 125.854 34.9473C126.783 32.2493 128.641 29.9667 131.1 28.5055C133.559 27.0442 136.459 26.4991 139.283 26.967C142.107 27.435 144.674 28.8856 146.525 31.061C148.377 33.2364 149.394 35.9954 149.395 38.8474H149.376Z" fill="black"/>
<path d="M125.837 34.5077C125.49 34.5152 125.144 34.4606 124.816 34.3465C123.882 33.9818 123.427 32.907 123.348 31.9108C123.224 30.3926 123.733 28.9032 124.244 27.4657C124.352 27.1528 124.481 26.8169 124.762 26.6423C124.99 26.5309 125.239 26.4687 125.492 26.4599C126.876 26.268 128.076 25.4254 129.098 24.4811C130.119 23.5368 131.04 22.4658 132.181 21.6789C135.206 19.6002 139.695 19.9879 142.312 22.5522C143.349 23.5656 144.239 24.9398 145.677 25.1778C146.505 25.3141 147.393 25.03 148.181 25.3371C148.76 25.5617 149.172 26.0703 149.503 26.5904C150.578 28.2718 151.083 30.264 151.251 32.2506C151.419 34.2371 151.264 36.2351 151.108 38.2216C151.117 38.519 151.04 38.8128 150.887 39.068C150.764 39.2153 150.609 39.3333 150.434 39.4135C149.701 39.7732 148.874 39.8942 148.068 39.7591C147.263 39.6241 146.52 39.2399 145.946 38.6611C145.538 38.2331 145.235 37.713 144.833 37.2773C144.43 36.8416 143.869 36.4846 143.291 36.5307C142.8 36.5671 142.368 36.8781 142.033 37.2389C141.594 37.7087 141.273 38.2748 141.094 38.8915C140.967 39.3271 140.902 39.8223 140.539 40.1102C140.177 40.3981 139.732 40.3828 139.3 40.3674C138.745 40.3463 138.167 40.3214 137.676 40.0584C136.749 39.5632 136.437 38.4251 136.096 37.4347C135.518 35.7706 134.219 32.621 132.196 32.287C131.233 32.1258 130.061 32.6344 129.306 33.1814C128.15 33.9991 127.317 34.5326 125.837 34.5077Z" fill="#464353"/>
<path opacity="0.06" d="M62.026 106.18C61.8931 107.055 61.0876 107.738 60.5192 108.418C58.9738 110.275 57.4073 112.139 55.6789 113.84C53.8291 115.657 51.7981 117.277 49.7691 118.897L47.137 120.995C46.8123 121.291 46.4317 121.519 46.0175 121.667C45.5322 121.787 45.0195 121.727 44.5762 121.496C44.6147 121.419 44.6552 121.348 44.6995 121.277L47.8557 116.009C48.4762 114.976 48.8828 114.035 49.5899 113.066C50.6555 111.615 51.7307 110.156 53.0429 108.926C54.7019 107.37 56.8292 106.239 58.8023 105.114C59.0875 104.262 60.2822 104.026 61.0895 104.429C61.3888 104.584 61.6582 104.79 61.8853 105.038C62.03 105.4 62.0784 105.793 62.026 106.18Z" fill="black"/>
<path d="M48.0757 116.225L44.9195 121.496C44.7904 121.709 44.6574 121.951 44.7133 122.193C44.7842 122.396 44.9195 122.57 45.0987 122.69C46.3088 123.67 47.6499 124.705 48.0295 126.212C48.3012 127.287 48.0295 128.438 48.2723 129.517C48.7174 131.463 50.6809 132.645 52.5384 133.394C56.7004 135.071 61.3211 135.716 65.7433 134.929C70.1655 134.142 74.3622 131.901 77.2256 128.453C78.1042 127.394 78.8557 126.235 79.6901 125.141C82.0023 122.118 84.937 119.636 87.8485 117.179C91.5963 114.016 93.8045 109.298 97.0975 105.663C97.6968 105.001 98.3577 104.32 99.2171 104.101C99.6988 103.98 100.373 104.159 100.392 104.654C100.437 105.613 101.211 106.398 101.741 107.201C103.738 110.241 105.826 113.375 108.911 115.314C110.599 116.377 112.513 117.028 114.42 117.617C119.257 119.118 124.188 120.304 129.113 121.479C129.361 120.984 129.66 120.515 130.003 120.079C130.514 119.456 131.186 118.98 131.699 118.352C132.637 117.222 132.966 115.726 133.267 114.291C130.325 112.496 127.305 110.644 124.403 108.778C122.943 107.842 121.473 106.884 120.289 105.617C119.519 104.784 118.871 103.83 118.099 102.992C117.308 102.178 116.457 101.425 115.551 100.74L108.614 95.2067C106.622 93.6194 104.591 91.9439 102.641 90.3009C101.545 89.3758 100.329 88.4027 98.8953 88.3585C97.6679 88.3202 96.5387 88.9746 95.4828 89.6042C89.2808 93.3034 82.9863 96.8363 76.5993 100.203C75.3064 100.882 74.0077 101.558 72.7745 102.339C70.3751 103.859 68.2447 105.765 66.4697 107.978C66.1441 108.383 65.7317 108.844 65.2153 108.782C65.0734 108.761 64.9367 108.714 64.8126 108.642C64.0168 108.218 63.5293 107.398 63.0784 106.621C62.6275 105.844 62.1246 105.026 61.3172 104.623C60.5099 104.22 59.3171 104.456 59.03 105.31C57.0473 106.467 54.9277 107.588 53.2667 109.145C51.9545 110.375 50.8793 111.832 49.8138 113.285C49.1027 114.254 48.6942 115.195 48.0757 116.225Z" fill="#464353"/>
<path opacity="0.06" d="M42.9062 84.0803C42.9062 84.0803 46.0798 85.4834 48.3555 87.0668L42.9062 84.0803Z" fill="black"/>
<path d="M201.847 86.9652C201.905 88.7559 201.951 90.5505 201.93 92.3393C201.918 93.2875 201.878 94.2759 201.421 95.107C201.096 95.7039 200.581 96.1703 200.072 96.6271L196.899 99.4927C195.914 100.381 194.853 101.308 193.54 101.529C192.039 101.782 190.573 101.055 189.13 100.569C187.676 100.082 186.154 99.8271 184.621 99.8151C183.742 99.8151 182.856 99.8842 181.989 99.746C181.362 99.6271 180.747 99.4531 180.15 99.2259L177.285 98.2355C177.366 97.5158 178.056 97.057 178.634 96.6022C180.686 94.9438 181.586 92.2779 182.233 89.7271C182.76 87.7357 183.135 85.7076 183.355 83.6601C183.453 82.6466 183.497 81.616 183.284 80.6198C183.082 79.8163 182.798 79.0355 182.436 78.2897L181.428 76.0268C180.85 74.7486 179.694 74.1804 178.516 73.4261C180.293 74.0979 182.459 74.3609 183.81 75.6929C184.07 75.988 184.379 76.2372 184.723 76.4299C185.091 76.6046 185.509 76.6218 185.912 76.6871C187.918 76.9865 189.623 78.2418 191.28 79.403C193.308 80.8258 195.393 82.1623 197.535 83.4125C198.498 83.9767 199.492 84.5314 200.304 85.3011C201.115 86.0707 201.751 87.0957 201.803 88.2108" fill="#464353"/>
<path opacity="0.06" d="M29.0519 83.8213C26.5257 84.3184 25.2116 87.2761 25.36 89.8346C25.5025 92.1198 26.4448 94.2829 28.0229 95.9477C29.0769 97.0513 30.391 97.9035 31.3429 99.0954C32.7495 100.853 33.239 103.178 34.4972 105.045C35.4106 106.4 36.6919 107.464 37.9656 108.483C40.9022 110.817 43.9345 113.026 47.0624 115.11C48.3342 115.957 49.7254 116.813 51.2553 116.78C52.6966 116.749 54.0243 115.907 54.9646 114.817C55.9049 113.726 56.5061 112.402 57.1169 111.097C59.3174 106.318 61.5333 101.487 62.5854 96.3354C62.9149 94.7174 63.1365 93.0495 63.8726 91.5697C64.4506 90.4181 65.3062 89.4315 66.0692 88.3912C67.8719 85.9227 69.1373 83.1065 69.7842 80.1227C70.2043 78.1765 70.345 76.0921 69.6551 74.2304C68.9653 72.3686 67.2908 70.7545 65.2965 70.6086C63.7184 70.4934 62.1692 71.2996 61.1094 72.4723C60.0496 73.645 59.4253 75.144 58.9995 76.6622C58.389 78.8463 58.1544 81.1177 58.3058 83.3799C58.4291 85.2051 58.8029 87.0477 58.4869 88.8519C58.2634 90.1244 57.7065 91.3125 57.1554 92.4833C55.7315 95.5043 54.2844 98.5637 52.1321 101.12C51.4307 101.953 50.4653 102.796 49.392 102.6C47.9083 102.331 47.5152 100.46 46.783 99.1453C45.8851 97.533 44.1817 96.5638 42.8464 95.2836C40.9465 93.4602 39.8077 91.015 38.457 88.7578C37.1062 86.5007 35.3585 84.2723 32.869 83.4067C30.3795 82.5411 27.0614 83.6524 26.4217 86.2013" fill="black"/>
<path opacity="0.06" d="M30.9568 85.5736C28.4288 86.0707 25.2109 86.3951 25.3689 88.9574C25.5098 91.243 26.4524 93.4066 28.0318 95.0705C29.0858 96.176 30.4 97.0282 31.3518 98.2201C32.7585 99.9782 33.2479 102.301 34.5062 104.17C35.4195 105.527 36.7009 106.59 37.9745 107.608C40.9111 109.943 43.9434 112.152 47.0714 114.235C48.3431 115.083 49.7343 115.939 51.2643 115.907C52.7056 115.876 54.0332 115.032 54.9735 113.943C55.9138 112.855 56.515 111.529 57.1258 110.222C59.3263 105.443 61.5422 100.612 62.5943 95.4601C62.9238 93.844 63.1454 92.1742 63.8815 90.6963C64.4595 89.5447 65.3151 88.5582 66.0781 87.516C67.8811 85.0484 69.1465 82.2326 69.7932 79.2494C70.2132 77.3013 70.3539 75.2188 69.6641 73.3551C68.9742 71.4914 67.2998 69.8811 65.3054 69.7333C63.7273 69.6182 62.1781 70.4262 61.1183 71.597C60.0585 72.7678 59.4342 74.2687 59.0084 75.7888C58.3978 77.9729 58.1633 80.2443 58.3147 82.5065C58.438 84.3337 58.8119 86.1763 58.4958 87.9785C58.2723 89.253 57.7155 90.4411 57.1644 91.6118C55.7404 94.6329 54.2933 97.6904 52.141 100.249C51.4396 101.082 50.4742 101.923 49.401 101.729C47.9173 101.458 47.5242 99.5867 46.792 98.2739C45.894 96.6616 44.1907 95.6924 42.8553 94.4122C40.9554 92.5907 39.8166 90.1435 38.4659 87.8864C37.1152 85.6293 35.3675 83.4028 32.8779 82.5353C30.3884 81.6678 33.5061 87.2242 32.8645 89.7731" fill="black"/>
<path d="M29.0519 83.3818C26.5257 83.8789 25.2116 86.8366 25.36 89.395C25.5021 91.6809 26.4444 93.8448 28.0229 95.51C29.0769 96.6137 30.391 97.4658 31.3429 98.6577C32.7495 100.416 33.239 102.74 34.4972 104.608C35.4106 105.965 36.6919 107.028 37.9656 108.047C40.9022 110.381 43.9345 112.59 47.0624 114.673C48.3342 115.521 49.7254 116.377 51.2553 116.344C52.6966 116.314 54.0243 115.471 54.9646 114.381C55.9049 113.291 56.5061 111.966 57.1169 110.661C59.3174 105.882 61.5333 101.051 62.5854 95.8977C62.9149 94.2817 63.1365 92.6118 63.8726 91.134C64.4506 89.9824 65.3062 88.9958 66.0692 87.9536C67.8722 85.486 69.1376 82.6703 69.7842 79.687C70.2043 77.7389 70.345 75.6564 69.6551 73.7928C68.9653 71.9291 67.2908 70.3187 65.2965 70.1729C63.7184 70.0558 62.1692 70.8638 61.1094 72.0366C60.0496 73.2093 59.4253 74.7083 58.9995 76.2265C58.389 78.4106 58.1544 80.682 58.3058 82.9441C58.4291 84.7694 58.8029 86.612 58.4869 88.4142C58.2634 89.6887 57.7065 90.8768 57.1554 92.0476C55.7315 95.0686 54.2844 98.128 52.1321 100.685C51.4307 101.518 50.4653 102.358 49.392 102.164C47.9083 101.894 47.5152 100.024 46.783 98.7096C45.8851 97.0954 44.1817 96.1261 42.8464 94.8479C40.9465 93.0245 39.8077 90.5793 38.457 88.3221C37.1062 86.065 35.3585 83.8386 32.869 82.9729C30.3795 82.1073 27.0614 83.2186 26.4217 85.7675" fill="#FBBEBE"/>
<g opacity="0.06">
<path opacity="0.06" d="M19.3966 68.05C18.5958 66.7329 17.9229 65.3427 17.3868 63.8985L17.3213 63.7065C16.9147 63.2718 16.5727 62.7812 16.3058 62.2498C15.8927 61.3444 15.6685 60.365 15.6468 59.3708C15.6468 59.3343 15.6468 59.2978 15.6468 59.2614C15.509 59.5685 15.4074 59.8905 15.3443 60.221C15.1516 61.3035 15.4696 62.4091 15.8511 63.4417C16.3875 64.8858 17.0605 66.2759 17.8608 67.5932C19.0574 69.5855 20.5854 71.5048 20.8225 73.7907C21.1789 77.211 18.5892 80.2224 17.9495 83.6024C17.46 86.1839 18.0805 89.0687 16.6951 91.3028C16.1413 92.1452 15.3977 92.8471 14.5235 93.3526C13.9752 93.7007 13.3749 93.9598 12.745 94.1204C12.6301 94.2561 12.5065 94.3844 12.375 94.5042C13.5986 94.9265 14.9609 94.4716 16.0631 93.796C16.9369 93.2892 17.6804 92.5867 18.2346 91.7442C19.6201 89.5101 19.0054 86.6253 19.4871 84.0438C20.1288 80.6658 22.7185 77.6524 22.362 74.2322C22.1231 71.9328 20.597 70.0154 19.3966 68.05Z" fill="black"/>
<path opacity="0.06" d="M41.6324 51.1599C41.1372 50.0179 40.0909 49.208 39.0157 48.5727C37.6527 47.758 36.1695 47.1621 34.6205 46.8069C35.6146 47.1525 36.5712 47.5969 37.4761 48.1331C38.5513 48.7704 39.5957 49.5784 40.0947 50.7223C40.5938 51.8663 40.3452 53.4094 39.2739 54.0466C38.5185 54.4977 37.5763 54.417 36.6957 54.3979C35.9347 54.3805 35.1735 54.419 34.4181 54.513C34.1454 54.5326 33.8787 54.6029 33.632 54.7203C33.3104 54.9278 33.0572 55.2248 32.9036 55.5744C32.5938 56.1646 32.3854 56.8023 32.287 57.4611C32.1791 58.1981 32.1887 59.0062 31.7263 59.5916C31.0981 60.3881 30.1154 60.2672 29.2213 60.4246C28.4449 60.573 27.7007 60.8562 27.0228 61.2614C25.5468 62.1501 24.4928 63.7738 24.4253 65.507C24.4022 66.125 24.487 66.7565 24.3193 67.3514C24.2112 67.6986 24.0415 68.0236 23.8184 68.3111C24.1598 68.6747 24.4585 69.0759 24.7086 69.5069C25.1807 68.9944 25.672 68.457 25.8647 67.7891C26.0343 67.1941 25.9476 66.5607 25.9726 65.9427C26.0401 64.2153 27.0941 62.5877 28.5701 61.6971C29.2475 61.2913 29.9919 61.0086 30.7686 60.8622C31.6588 60.7029 32.6416 60.8238 33.2736 60.0273C33.736 59.4515 33.7245 58.6338 33.8343 57.8968C33.932 57.2381 34.1397 56.6004 34.449 56.0101C34.6035 55.6636 34.8568 55.37 35.1773 55.1656C35.4235 55.0466 35.6905 54.9762 35.9635 54.9583C36.7189 54.8646 37.48 54.8255 38.2411 54.8412C39.1217 54.8623 40.0639 54.941 40.8192 54.49C41.8829 53.847 42.1276 52.3115 41.6324 51.1599Z" fill="black"/>
</g>
<path opacity="0.06" d="M29.0146 69.4991C29.0146 69.4991 31.2903 71.4492 35.6123 70.2669C35.6123 70.263 32.9359 71.3129 29.0146 69.4991Z" fill="black"/>
<path opacity="0.06" d="M151.066 36.6017C151.07 36.8981 150.99 37.1896 150.834 37.4424C150.711 37.5891 150.556 37.7065 150.382 37.7859C149.65 38.146 148.822 38.2673 148.017 38.1326C147.212 37.9979 146.47 37.6141 145.896 37.0355C145.487 36.6055 145.185 36.0758 144.782 35.6516C144.379 35.2275 143.819 34.857 143.241 34.9031C142.749 34.9415 142.32 35.2524 141.982 35.6113C141.546 36.0827 141.225 36.6483 141.044 37.2639C140.919 37.7015 140.851 38.1948 140.491 38.4846C140.131 38.7744 139.684 38.7552 139.252 38.7398C138.695 38.7207 138.117 38.6957 137.628 38.4328C136.701 37.9376 136.389 36.7975 136.046 35.809C135.468 34.143 134.169 30.9953 132.148 30.6594C131.184 30.5001 130.011 31.0088 129.257 31.5538C128.118 32.3772 127.278 32.9108 125.804 32.8974C125.457 32.904 125.111 32.8494 124.783 32.7362C123.935 32.4041 123.482 31.4867 123.346 30.5769C123.293 30.9939 123.282 31.415 123.313 31.8341C123.394 32.8283 123.848 33.9031 124.783 34.2697C125.111 34.383 125.457 34.4376 125.804 34.4309C127.278 34.454 128.117 33.9204 129.257 33.097C130.014 32.5519 131.184 32.0414 132.148 32.2026C134.161 32.5289 135.471 35.6766 136.038 37.3406C136.381 38.331 136.693 39.4711 137.62 39.9663C138.109 40.2273 138.687 40.2542 139.244 40.2734C139.676 40.2888 140.15 40.2907 140.483 40.0181C140.817 39.7456 140.911 39.2331 141.036 38.7974C141.216 38.1816 141.538 37.6159 141.975 37.1449C142.312 36.786 142.745 36.475 143.233 36.4366C143.826 36.3906 144.389 36.7495 144.774 37.1852C145.16 37.6209 145.48 38.1449 145.888 38.569C146.462 39.1476 147.204 39.5315 148.009 39.6662C148.815 39.8009 149.642 39.6796 150.374 39.3195C150.548 39.2393 150.703 39.1221 150.827 38.9759C150.983 38.7226 151.063 38.4304 151.058 38.1333C151.209 36.5167 151.273 34.8932 151.251 33.2697C151.235 34.381 151.152 35.4923 151.066 36.6017Z" fill="black"/>
<path d="M17.3055 118.481C17.3055 118.481 17.6119 118.141 17.0357 118.007V117.448H17.3826C17.3818 116.773 17.1485 116.119 16.7217 115.595C16.2948 115.071 15.7003 114.709 15.0375 114.569V113.891H15.1281V113.01H12.8987V113.891H12.9623V114.577C12.3057 114.723 11.7189 115.088 11.2986 115.612C10.8783 116.135 10.6495 116.785 10.65 117.456H10.9564V117.991C10.9564 117.991 10.2261 118.335 10.9564 118.951C11.6867 119.567 11.573 120.012 11.573 120.012C11.573 120.012 11.2666 121.164 10.652 121.314V131.991C10.6517 132.303 10.7131 132.611 10.8327 132.899C10.9523 133.187 11.1277 133.449 11.3488 133.67C11.57 133.89 11.8327 134.065 12.1217 134.184C12.4108 134.304 12.7207 134.365 13.0336 134.365H14.9162C15.5483 134.365 16.1546 134.115 16.6016 133.67C17.0486 133.224 17.2997 132.62 17.2997 131.991V121.314C17.2997 121.314 16.2226 120.509 16.4153 120.012C16.6738 119.481 16.9713 118.969 17.3055 118.481Z" fill="#464353"/>
</g>
<defs>
<linearGradient id="paint0_linear" x1="106.944" y1="136.248" x2="106.944" y2="18.9957" gradientUnits="userSpaceOnUse">
<stop stop-color="#808080" stop-opacity="0.25"/>
<stop offset="0.54" stop-color="#808080" stop-opacity="0.12"/>
<stop offset="1" stop-color="#808080" stop-opacity="0.1"/>
</linearGradient>
<clipPath id="clip0">
<rect width="222" height="148" fill="white"/>
</clipPath>
</defs>
</svg>
