<svg width="171" height="146" viewBox="0 0 171 146" fill="none" xmlns="http://www.w3.org/2000/svg">
<g clip-path="url(#clip0)">
<path d="M23.2554 98.5621C33.1683 98.5621 41.2042 82.2101 41.2042 62.0389C41.2042 41.8677 33.1683 25.5157 23.2554 25.5157C13.3426 25.5157 5.30664 41.8677 5.30664 62.0389C5.30664 82.2101 13.3426 98.5621 23.2554 98.5621Z" fill="#28DF99"/>
<path d="M23.0912 62.4177C23.9866 46.5194 25.7905 35.7807 25.8086 35.674L25.4172 35.6079C25.3991 35.7146 23.592 46.4706 22.6952 62.3894C21.8676 77.0815 21.6679 99.3042 25.4171 121.738L25.8087 121.673C22.0659 99.2773 22.2651 77.0883 23.0912 62.4177Z" fill="#3F3D56"/>
<path d="M39.2979 54.6321L23.0693 63.2944L23.2567 63.6435L39.4852 54.9812L39.2979 54.6321Z" fill="#3F3D56"/>
<path d="M6.12477 58.9736L5.9375 59.3228L22.1684 67.9808L22.3556 67.6316L6.12477 58.9736Z" fill="#3F3D56"/>
<path d="M147.714 94.7653C160.574 94.7653 171 73.5513 171 47.3826C171 21.2139 160.574 0 147.714 0C134.854 0 124.429 21.2139 124.429 47.3826C124.429 73.5513 134.854 94.7653 147.714 94.7653Z" fill="#28DF99"/>
<path d="M147.432 47.8681C148.594 27.2394 150.934 13.3056 150.958 13.1672L150.587 13.1045C150.563 13.243 148.22 27.1931 147.056 47.8412C145.983 66.8983 145.724 95.723 150.587 124.821L150.958 124.759C146.101 95.6973 146.36 66.9047 147.432 47.8681Z" fill="#3F3D56"/>
<path d="M168.559 37.8344L147.505 49.0724L147.683 49.4034L168.736 38.1654L168.559 37.8344Z" fill="#3F3D56"/>
<path d="M125.457 43.467L125.279 43.798L146.336 55.0303L146.514 54.6993L125.457 43.467Z" fill="#3F3D56"/>
<path d="M119.659 107.599C124.464 107.599 128.359 99.6725 128.359 89.8952C128.359 80.1179 124.464 72.1918 119.659 72.1918C114.854 72.1918 110.959 80.1179 110.959 89.8952C110.959 99.6725 114.854 107.599 119.659 107.599Z" fill="#E6E6E6"/>
<path d="M119.651 90.6578L119.703 90.7538L127.569 86.5549L127.392 86.2239L119.668 90.3468C120.095 82.5013 120.969 77.2346 120.987 77.1309L120.616 77.0682C120.597 77.1815 119.558 83.4357 119.189 92.4856L111.399 88.3273L111.222 88.6583L119.088 92.8572L119.182 92.6822C118.887 100.152 119.052 109.491 120.616 118.847L120.987 118.786C119.282 108.585 119.245 98.4027 119.651 90.6578Z" fill="#3F3D56"/>
<path d="M163.742 128.708C117.402 114.078 75.3819 114.858 48.2918 118.088C18.943 121.587 0.319696 128.634 0.135083 128.704L0 128.354C0.185165 128.283 18.8523 121.22 48.2471 117.715C65.5378 115.656 82.9834 115.211 100.357 116.386C121.925 117.841 143.242 121.858 163.856 128.35L163.742 128.708Z" fill="#3F3D56"/>
<path d="M59.5664 124.573C59.5664 124.573 59.6964 121.858 62.3606 122.173L59.5664 124.573Z" fill="#3F3D56"/>
<path d="M58.8139 121.989C59.5503 121.989 60.1473 121.394 60.1473 120.659C60.1473 119.925 59.5503 119.329 58.8139 119.329C58.0775 119.329 57.4805 119.925 57.4805 120.659C57.4805 121.394 58.0775 121.989 58.8139 121.989Z" fill="#28DF99"/>
<path d="M58.9731 122.898H58.5967V125.526H58.9731V122.898Z" fill="#3F3D56"/>
<path d="M108.121 125.136C108.121 125.136 108.251 122.421 110.915 122.736L108.121 125.136Z" fill="#3F3D56"/>
<path d="M107.369 122.552C108.105 122.552 108.702 121.957 108.702 121.222C108.702 120.488 108.105 119.892 107.369 119.892C106.632 119.892 106.035 120.488 106.035 121.222C106.035 121.957 106.632 122.552 107.369 122.552Z" fill="#28DF99"/>
<path d="M107.528 123.462H107.151V126.089H107.528V123.462Z" fill="#3F3D56"/>
<path d="M28.1377 120.444C28.1377 120.444 28.2677 117.728 30.9319 118.044L28.1377 120.444Z" fill="#3F3D56"/>
<path d="M27.3852 117.86C28.1216 117.86 28.7186 117.265 28.7186 116.53C28.7186 115.796 28.1216 115.2 27.3852 115.2C26.6488 115.2 26.0518 115.796 26.0518 116.53C26.0518 117.265 26.6488 117.86 27.3852 117.86Z" fill="#28DF99"/>
<path d="M27.5444 118.769H27.168V121.397H27.5444V118.769Z" fill="#3F3D56"/>
<path d="M48.6514 116.878C48.6514 116.878 48.7813 114.162 51.4455 114.478L48.6514 116.878Z" fill="#3F3D56"/>
<path d="M47.8979 114.294C48.6343 114.294 49.2313 113.698 49.2313 112.964C49.2313 112.23 48.6343 111.634 47.8979 111.634C47.1615 111.634 46.5645 112.23 46.5645 112.964C46.5645 113.698 47.1615 114.294 47.8979 114.294Z" fill="#28DF99"/>
<path d="M48.058 115.203H47.6816V117.831H48.058V115.203Z" fill="#3F3D56"/>
<path d="M100.029 121.946C100.029 121.946 100.159 119.23 102.823 119.546L100.029 121.946Z" fill="#3F3D56"/>
<path d="M99.2758 119.361C100.012 119.361 100.609 118.766 100.609 118.032C100.609 117.297 100.012 116.702 99.2758 116.702C98.5394 116.702 97.9424 117.297 97.9424 118.032C97.9424 118.766 98.5394 119.361 99.2758 119.361Z" fill="#28DF99"/>
<path d="M99.435 120.271H99.0586V122.899H99.435V120.271Z" fill="#3F3D56"/>
<path d="M157.9 116.501L165.646 127.955L158.434 135.148L157.499 133.283L159.102 129.554C159.102 129.554 158.835 126.091 157.9 125.159C156.965 124.226 152.825 118.632 152.825 118.632L157.9 116.501Z" fill="#FFB8B8"/>
<path d="M148.017 79.4758C148.017 79.4758 149.486 81.7942 146.414 91.7831C146.414 91.7831 160.742 115.898 158.471 117.497C156.201 119.095 150.057 122.632 148.455 121.566C146.852 120.501 135.196 84.4037 135.196 84.4037L148.017 79.4758Z" fill="#2F2E41"/>
<path d="M164.243 125.891L166.58 128.222C167.782 129.421 168.583 131.152 166.313 132.617C164.042 134.082 156.163 139.543 153.492 137.811C150.821 136.08 156.697 134.482 156.697 134.482C156.697 134.482 157.669 130.889 158.185 131.686C158.7 132.484 158.7 134.082 158.7 134.082L164.243 125.891Z" fill="#2F2E41"/>
<path d="M135.998 122.761C135.998 122.761 131.724 130.619 131.724 131.552C131.724 132.484 131.991 135.148 131.991 135.148L123.845 137.145L121.04 135.814L121.975 133.416C121.975 133.416 127.05 131.685 128.118 128.355C129.187 125.025 130.388 121.563 130.388 121.563L135.998 122.761Z" fill="#FFB8B8"/>
<path d="M140.939 44.581C144.037 44.581 146.548 42.0766 146.548 38.9872C146.548 35.8979 144.037 33.3934 140.939 33.3934C137.841 33.3934 135.33 35.8979 135.33 38.9872C135.33 42.0766 137.841 44.581 140.939 44.581Z" fill="#FFB8B8"/>
<path d="M139.47 43.7821L142.148 51.4556L148.017 48.8432C148.017 48.8432 144.01 42.7166 144.01 41.9175L139.47 43.7821Z" fill="#FFB8B8"/>
<path d="M138.668 71.0851H145.746C145.746 71.0851 150.821 78.8099 147.883 86.9343C147.433 88.1784 146.987 89.9211 146.541 91.9815C145.516 96.72 144.495 103.139 143.449 109.037C141.98 117.322 140.46 124.579 138.809 124.711C135.47 124.978 128.978 124.933 128.978 123.601C128.978 122.269 133.326 83.7378 133.326 83.7378L134.261 82.1396L134.438 75.1779C134.466 74.0793 134.924 73.0354 135.715 72.2702C136.506 71.5051 137.566 71.0796 138.668 71.0851Z" fill="#2F2E41"/>
<path d="M131.658 131.485C131.658 131.485 133.193 134.082 132.793 135.947C132.392 137.811 131.724 137.545 128.786 137.811C125.848 138.078 115.832 138.078 115.832 136.213C115.832 134.348 123.646 131.927 123.678 132.672C123.711 133.416 123.979 134.881 123.177 135.148C122.376 135.414 123.11 135.214 123.11 135.214L131.658 131.485Z" fill="#2F2E41"/>
<path d="M139.471 87.709C139.471 87.709 138.89 97.1699 135.015 94.3534C131.141 91.5369 136.525 86.4491 136.525 86.4491L139.471 87.709Z" fill="white"/>
<path d="M147.204 75.2485C147.391 75.3323 147.596 75.3639 147.799 75.3399C148.002 75.316 148.194 75.2374 148.356 75.1126C148.59 74.9291 148.746 74.664 148.793 74.3705C149.353 71.1497 150.035 62.2208 150.428 57.7058C150.921 52.0404 148.459 47.6523 148.438 47.6256L146.987 45.6358C146.836 45.4279 146.619 45.277 146.372 45.2077C146.124 45.1383 145.86 45.1547 145.623 45.254C145.623 45.254 141.093 49.9413 141.076 50.1223C141.005 50.8995 140.466 52.6216 137.655 55.4243C134.581 58.4908 134.563 61.1672 134.632 61.9145C134.636 61.9636 134.638 62.0127 134.638 62.0618C134.633 62.397 134.678 62.7312 134.774 63.0526C136.062 67.102 135.053 71.9501 133.433 77.0106C133.372 77.2393 133.384 77.4813 133.466 77.7032C133.549 77.9251 133.699 78.1159 133.895 78.2492C134.368 78.5701 133.801 78.0939 133.969 78.3001C135.086 79.6642 136.692 77.763 138.529 75.6885C139.169 74.9659 139.895 74.1468 140.75 73.2941C141.926 72.1216 144.172 74.797 145.216 74.797C145.904 74.8053 146.581 74.9592 147.204 75.2485Z" fill="#575A89"/>
<path d="M147.828 49.6916C147.828 49.6916 150.761 52.159 149.095 55.3589C147.428 58.5589 147.65 60.919 147.65 60.919C147.65 60.919 147.206 82.9015 141.998 81.8335L139.629 88.356L135.351 86.816L137.825 81.063C137.825 81.063 135.843 80.9401 136.422 79.5936C136.829 78.6479 139.02 68.3853 140.288 62.3601C140.825 59.8068 141.197 58.0144 141.197 58.0144C141.197 58.0144 142.883 49.0259 147.828 49.6916Z" fill="#575A89"/>
<path opacity="0.2" d="M148.443 60.8627L146.793 71.6563L147.683 60.115L148.443 60.8627Z" fill="black"/>
<path d="M134.819 36.5089C134.819 36.5089 133.876 29.1901 141.57 31.5901C141.57 31.5901 147.065 30.5846 148.867 37.4396L150.692 44.6253L149.803 44.1426L149.388 45.0464L147.947 45.4103L147.33 44.1897L147.032 45.672L135.229 46.8455C135.229 46.8455 140.515 43.7276 140.599 38.1397L139.592 39.2009L134.819 36.5089Z" fill="#2F2E41"/>
<path opacity="0.2" d="M143.597 109.458L146.229 91.968L144.088 110.849L143.597 109.458Z" fill="black"/>
<path d="M147.899 34.6214C149.538 34.6214 150.866 33.2963 150.866 31.6616C150.866 30.0269 149.538 28.7018 147.899 28.7018C146.259 28.7018 144.931 30.0269 144.931 31.6616C144.931 33.2963 146.259 34.6214 147.899 34.6214Z" fill="#2F2E41"/>
<path d="M144.84 30.9371C144.889 30.1861 145.223 29.4819 145.774 28.968C146.325 28.454 147.052 28.1689 147.806 28.1707C147.745 28.1629 147.684 28.1535 147.622 28.1495C147.233 28.1244 146.843 28.1759 146.473 28.3012C146.104 28.4265 145.764 28.6231 145.471 28.8797C145.178 29.1364 144.939 29.4481 144.767 29.797C144.594 30.1459 144.493 30.5252 144.468 30.9132C144.443 31.3012 144.495 31.6904 144.621 32.0584C144.747 32.4264 144.944 32.7661 145.201 33.058C145.459 33.35 145.772 33.5885 146.122 33.7599C146.471 33.9313 146.852 34.0322 147.241 34.057C147.303 34.061 147.365 34.0594 147.427 34.0595C146.678 33.9649 145.994 33.5893 145.513 33.0092C145.033 32.4291 144.792 31.6881 144.84 30.9371Z" fill="#2F2E41"/>
<path opacity="0.2" d="M139.429 64.2261L136.817 78.1833L140.202 62.7675L139.429 64.2261Z" fill="black"/>
<path d="M139.592 43.0184L138.07 44.1628C136.502 43.3762 135.327 41.5561 134.899 39.819L136.558 38.9845C136.688 40.7563 137.949 41.9342 139.592 43.0184Z" fill="white"/>
<path d="M140.223 39.2366H136.431C136.398 39.2366 136.365 39.2233 136.342 39.1997C136.318 39.1761 136.305 39.144 136.305 39.1106C136.305 39.0771 136.318 39.0451 136.342 39.0214C136.365 38.9978 136.398 38.9845 136.431 38.9845H140.223C140.257 38.9845 140.289 38.9978 140.313 39.0214C140.336 39.0451 140.35 39.0771 140.35 39.1106C140.35 39.144 140.336 39.1761 140.313 39.1997C140.289 39.2233 140.257 39.2366 140.223 39.2366Z" fill="white"/>
<path d="M139.465 43.0184C139.445 43.0184 139.424 43.0134 139.406 43.0037C139.388 42.994 139.372 42.9801 139.361 42.963C139.349 42.946 139.342 42.9263 139.34 42.9058C139.337 42.8854 139.34 42.8647 139.348 42.8455L140.359 40.3243C140.365 40.3089 140.374 40.2949 140.386 40.283C140.398 40.2711 140.411 40.2616 140.427 40.255C140.442 40.2485 140.458 40.245 140.475 40.2448C140.492 40.2445 140.508 40.2476 140.524 40.2538C140.539 40.2599 140.553 40.269 140.565 40.2806C140.577 40.2922 140.586 40.306 140.593 40.3213C140.599 40.3365 140.603 40.3529 140.603 40.3695C140.603 40.3861 140.6 40.4025 140.594 40.4179L139.582 42.9391C139.573 42.9625 139.557 42.9826 139.536 42.9967C139.515 43.0108 139.49 43.0184 139.465 43.0184Z" fill="white"/>
<path d="M140.478 40.7262C140.99 40.7262 141.406 40.1464 141.406 39.4313C141.406 38.7161 140.99 38.1364 140.478 38.1364C139.966 38.1364 139.551 38.7161 139.551 39.4313C139.551 40.1464 139.966 40.7262 140.478 40.7262Z" fill="#FFB8B8"/>
<path d="M75.127 43.332L85.0046 45.5863L89.1781 37.7364L80.732 34.4478L75.127 43.332Z" fill="#2F2E41"/>
<path d="M80.3746 85.5893C80.3746 85.5893 77.1994 92.8459 77.1994 94.957C77.1994 94.957 78.4562 100.696 78.0593 102.28L76.6702 105.248L73.7596 104.061L72.9658 96.1444L73.0981 83.4783L80.3746 85.5893Z" fill="#FFB9B9"/>
<path d="M82.1601 42.1813C82.1601 42.1813 82.4247 46.5353 81.8955 47.8547C81.3663 49.1741 83.88 51.681 83.88 51.681L87.8489 46.5353C87.8489 46.5353 85.203 43.8966 85.8645 40.9939L82.1601 42.1813Z" fill="#FFB9B9"/>
<path d="M73.8916 72.3294C73.8916 72.3294 70.0549 79.4541 73.7593 78.9263C77.4636 78.3986 76.2068 72.1315 76.2068 72.1315" fill="#E6E6E6"/>
<path d="M76.2068 72.1316L77.4636 59.6633L77.3975 52.0769L74.4869 52.6045V59.5972L73.8916 72.3294" fill="#FFB9B9"/>
<path d="M73.0321 103.137L78.721 100.894L79.3824 112.109C79.3824 112.109 80.5731 115.54 80.1762 116.859C80.1762 116.859 80.4408 119.102 79.7793 119.234C79.1178 119.366 77.2657 119.63 77.1334 119.498C77.0011 119.366 77.0011 118.97 77.0011 118.97C77.0011 118.97 75.6781 119.894 75.5458 120.949C75.5458 120.949 69.9892 122.664 69.8569 121.081C69.7246 119.498 72.6352 118.178 72.6352 118.178L74.8843 114.748L73.0321 103.137Z" fill="#2F2E41"/>
<path d="M92.2154 85.5893C92.2154 85.5893 89.0402 92.8459 89.0402 94.957C89.0402 94.957 90.2971 100.696 89.9002 102.28L88.511 105.248L85.6004 104.061L84.8066 96.1444L84.9389 83.4783L92.2154 85.5893Z" fill="#FFB9B9"/>
<path d="M85.0712 103.137L90.76 100.894L91.4215 112.109C91.4215 112.109 92.6122 115.54 92.2153 116.859C92.2153 116.859 92.4799 119.102 91.8184 119.234C91.1569 119.366 89.3047 119.63 89.1724 119.498C89.0401 119.366 89.0401 118.97 89.0401 118.97C89.0401 118.97 87.7171 119.894 87.5848 120.949C87.5848 120.949 82.0283 122.664 81.896 121.081C81.7637 119.498 84.6743 118.178 84.6743 118.178L86.9233 114.748L85.0712 103.137Z" fill="#2F2E41"/>
<path d="M87.7183 39.1475C87.7178 40.1866 87.3332 41.189 86.6381 41.9629C85.9429 42.7368 84.986 43.228 83.9505 43.3423C82.9149 43.4567 81.8735 43.1863 81.0254 42.5828C80.1773 41.9792 79.5821 41.0851 79.3537 40.0713C79.284 39.7683 79.2493 39.4584 79.25 39.1475C79.2508 38.0281 79.6972 36.9548 80.4912 36.1635C81.2851 35.3722 82.3617 34.9277 83.4842 34.9277C84.6066 34.9277 85.6832 35.3722 86.4771 36.1635C87.2711 36.9548 87.7175 38.0281 87.7183 39.1475Z" fill="#FFB9B9"/>
<path d="M84.0127 47.591L87.298 45.8895L88.7755 47.0632C88.7755 47.0632 92.3475 46.9313 93.6705 48.5145C94.9935 50.0978 95.7212 54.1219 95.7212 54.1219C95.7212 54.1219 91.3553 53.1984 91.8845 56.8927L91.0907 54.7816L90.3631 56.5628L81.499 59.5974L77.5301 52.8685C77.5301 52.8685 74.8841 52.0769 73.958 53.924C73.958 53.924 74.1564 47.2611 76.7363 47.0632C78.4713 46.9301 79.7791 46.9313 79.7791 46.9313L81.2344 46.6674L82.1664 46.3375L84.0127 47.591Z" fill="#575A89"/>
<path d="M89.6351 62.0382C89.6351 62.0382 96.5808 82.8186 94.5963 85.7213C94.5963 85.7213 87.1876 89.4156 72.3701 84.4019L78.3897 61.1146C82.0873 60.3605 85.8358 60.6684 89.6351 62.0382Z" fill="#2F2E41"/>
<path d="M89.6356 62.0382L91.5904 55.3389C89.2455 52.7957 91.2694 47.1563 91.2694 47.1563L88.44 46.5516C88.44 46.5516 85.6005 54.1878 82.6899 53.2643C79.7794 52.3407 81.3669 46.4034 81.3669 46.4034L78.721 46.6673L77.5303 51.2852L78.3902 61.1147C81.9766 60.8079 85.738 61.1649 89.6356 62.0382Z" fill="#575A89"/>
<path d="M93.075 72.1316L94.0011 59.5972L94.2657 52.0769L91.3552 52.6045V59.5972L90.7598 72.3294" fill="#FFB9B9"/>
<path d="M90.7607 72.3294C90.7607 72.3294 86.924 79.4541 90.6284 78.9263C94.3328 78.3986 93.076 72.1315 93.076 72.1315" fill="white"/>
<path d="M95.7209 54.1219C95.7209 54.1219 95.2506 47.3461 91.3184 47.3696V55.2055C91.3184 55.2055 94.2656 53.4622 95.7209 54.1219Z" fill="#575A89"/>
<path d="M84.8375 40.2371C84.8151 40.2371 84.7933 40.2301 84.775 40.2172C84.7568 40.2043 84.743 40.1861 84.7356 40.165C84.7282 40.144 84.7275 40.1211 84.7337 40.0997C84.7399 40.0782 84.7526 40.0592 84.7701 40.0453L86.9292 38.3226C86.9403 38.3137 86.953 38.307 86.9667 38.303C86.9803 38.299 86.9947 38.2977 87.0088 38.2992C87.023 38.3007 87.0367 38.305 87.0492 38.3119C87.0617 38.3187 87.0727 38.3279 87.0816 38.339C87.0905 38.3501 87.0971 38.3628 87.101 38.3765C87.105 38.3902 87.1062 38.4044 87.1046 38.4186C87.1029 38.4327 87.0985 38.4463 87.0916 38.4587C87.0847 38.4711 87.0753 38.4821 87.0642 38.4909L84.905 40.2135C84.8858 40.2288 84.862 40.2371 84.8375 40.2371Z" fill="white"/>
<path d="M85.0016 42.8211C84.9541 42.8792 84.9066 42.9373 84.857 42.9912C84.2841 43.2502 83.6605 43.3787 83.0316 43.3673C82.4027 43.3559 81.7842 43.2049 81.2212 42.9253C80.6581 42.6456 80.1646 42.2444 79.7765 41.7507C79.3884 41.257 79.1155 40.6833 78.9775 40.0713L81.0235 39.6959L85.0016 40.0713C84.0905 41.1781 84.2006 41.5614 85.0016 42.8211Z" fill="white"/>
<path d="M81.0934 33.2373C81.0934 33.2373 78.9053 33.6478 78.3993 36.3694C78.3201 36.8283 78.3057 37.2961 78.3564 37.759C78.407 38.2829 78.3337 39.3894 77.193 40.6923C76.4488 41.5373 75.7553 42.4255 75.1162 43.3522L77.4026 43.9593L78.4242 40.1814C78.9195 38.3498 79.6825 36.6009 80.6886 34.991L80.7096 34.9573C80.7096 34.9573 81.469 36.9809 83.5044 37.2583L82.8768 36.4343C82.8768 36.4343 85.2562 37.806 86.6043 38.225C86.7581 38.2729 86.8959 38.3617 87.0029 38.4819C87.1099 38.6021 87.182 38.7491 87.2114 38.9071C87.2408 39.0651 87.2264 39.2282 87.1698 39.3786C87.1132 39.5291 87.0165 39.6613 86.8901 39.761C86.8805 39.7685 86.8708 39.776 86.8609 39.7835C85.8693 40.5346 83.8466 42.3267 84.6457 44.0602C85.4448 45.7938 84.5129 46.1099 84.5129 46.1099L86.2313 45.4579L87.0179 45.122L86.9384 45.702L90.778 45.7822C90.778 45.7822 91.8156 45.7759 89.9726 43.0139C89.9726 43.0139 89.5279 41.9782 89.893 41.187C90.186 40.5879 90.3318 39.9278 90.3185 39.2612C90.2025 36.4766 89.0262 30.8115 81.0934 33.2373Z" fill="#2F2E41"/>
<path d="M27.2318 112.557C27.2318 112.557 27.2318 130.474 23.1085 135.173C23.1085 135.173 22.225 137.523 21.9305 138.404C21.7658 138.906 21.569 139.396 21.3414 139.873V141.048C21.3414 141.048 13.3894 140.166 12.5059 138.11L13.9784 136.348C13.9784 136.348 14.273 136.054 13.9784 135.173C13.6839 134.292 14.5675 134.292 14.5675 134.292L16.6291 129.593L16.3346 110.207L17.8072 83.479L30.4715 82.8916L27.2318 112.557Z" fill="#2F2E41"/>
<path d="M20.7519 139.285C20.7519 139.285 22.8136 145.453 20.7519 145.747C18.6903 146.041 0.724687 146.335 1.01921 143.985C1.31372 141.635 7.20409 141.929 7.20409 141.929L13.389 138.11L20.7519 139.285Z" fill="#2F2E41"/>
<path d="M39.012 83.479C39.012 83.479 39.601 87.2973 37.2449 91.4094C34.8887 95.5214 36.3613 109.326 36.3613 109.326L57.2721 127.537C57.2721 127.537 53.1489 134.586 51.6763 134.292C50.2037 133.998 26.9367 115.2 26.9367 115.2L17.8066 84.6539L39.012 83.479Z" fill="#2F2E41"/>
<path d="M56.985 126.758C56.985 126.758 63.3126 128.324 62.4577 130.218C61.6028 132.112 52.2337 147.402 50.4013 145.896C48.5689 144.39 51.971 139.585 51.971 139.585L52.0482 132.332L56.985 126.758Z" fill="#2F2E41"/>
<path d="M34.3001 28.8482C34.3025 30.3956 33.7691 31.8963 32.7901 33.0968C32.016 34.0536 30.9943 34.7809 29.8354 35.2001C28.6765 35.6192 27.4248 35.7143 26.2157 35.4749C25.6102 35.3582 25.0243 35.1571 24.475 34.8775C23.6027 34.4391 22.8359 33.8175 22.2272 33.0556C21.6186 32.2937 21.1824 31.4094 20.9488 30.4635C20.8172 29.9351 20.7511 29.3926 20.752 28.8482C20.752 27.0565 21.4657 25.3382 22.736 24.0712C24.0064 22.8043 25.7295 22.0925 27.5261 22.0925C29.3227 22.0925 31.0457 22.8043 32.3161 24.0712C33.5864 25.3382 34.3001 27.0565 34.3001 28.8482Z" fill="#A0616A"/>
<path d="M32.8553 31.2312L32.5557 39.9243L26.856 42.1702C26.856 42.1702 26.297 33.2691 25.508 32.7756C24.719 32.2821 32.8553 31.2312 32.8553 31.2312Z" fill="#A0616A"/>
<path d="M25.4644 43.2397C25.4644 43.2397 33.4164 35.3093 35.478 35.6031C37.5396 35.8968 37.5396 36.7779 37.5396 37.3654C37.5396 37.9528 36.9506 38.2465 37.5396 38.5402C38.1287 38.8339 38.7177 38.5402 38.7177 39.4214C38.7177 40.3025 44.019 49.1141 42.2519 58.8067C40.4848 68.4994 38.4232 73.1989 39.3067 78.4858C40.1903 83.7727 39.6013 84.9476 39.6013 84.9476C39.6013 84.9476 17.5124 86.7099 17.2179 84.6539C16.9233 82.5978 18.1014 83.7727 16.6288 82.3041C15.1562 80.8355 15.7453 80.8355 15.7453 79.9544C15.7453 79.0732 22.2247 43.2397 25.4644 43.2397Z" fill="#575A89"/>
<path d="M29.5874 83.1852C29.5874 83.1852 26.0532 91.7031 23.4025 89.647C20.7519 87.591 24.5806 80.5417 24.5806 80.5417L29.5874 83.1852Z" fill="white"/>
<path d="M38.1279 43.8271C38.1279 43.8271 45.0476 44.6172 42.4713 57.2926C39.895 69.968 29.8814 84.6538 29.8814 84.6538L23.1074 81.423L31.943 64.0936L29.8814 53.2261C29.8814 53.2261 28.7033 42.946 38.1279 43.8271Z" fill="#575A89"/>
<path opacity="0.2" d="M32.0913 64.2406L22.3721 80.395L23.2557 81.2762L32.0913 64.2406Z" fill="black"/>
<path opacity="0.2" d="M37.2355 71.7687L29.4404 84.507H32.0912L37.2355 71.7687Z" fill="black"/>
<path opacity="0.2" d="M19.6269 94.918L19.2354 95.0669L26.9856 115.332L27.3772 115.183L19.6269 94.918Z" fill="black"/>
<path d="M25.5059 44.8524C25.7373 44.8524 25.9249 44.6653 25.9249 44.4346C25.9249 44.2038 25.7373 44.0167 25.5059 44.0167C25.2745 44.0167 25.0869 44.2038 25.0869 44.4346C25.0869 44.6653 25.2745 44.8524 25.5059 44.8524Z" fill="#D0CDE1"/>
<path d="M21.9447 56.134C21.9894 56.134 22.033 56.1197 22.069 56.0932C22.105 56.0667 22.1316 56.0294 22.1448 55.9867L25.706 44.4964C25.7142 44.4702 25.7171 44.4426 25.7146 44.4153C25.7121 44.3879 25.7042 44.3613 25.6914 44.337C25.6786 44.3127 25.6611 44.2912 25.6399 44.2737C25.6187 44.2561 25.5943 44.2429 25.568 44.2348C25.5417 44.2267 25.514 44.2238 25.4866 44.2264C25.4592 44.2289 25.4325 44.2369 25.4082 44.2497C25.3838 44.2625 25.3623 44.28 25.3447 44.3012C25.3272 44.3223 25.314 44.3467 25.3059 44.373L21.7446 55.8635C21.735 55.8948 21.7328 55.9278 21.7383 55.96C21.7438 55.9923 21.7568 56.0228 21.7763 56.0491C21.7957 56.0754 21.8211 56.0968 21.8504 56.1115C21.8796 56.1263 21.9119 56.134 21.9447 56.134V56.134Z" fill="#D0CDE1"/>
<path d="M26.1677 34.0221L24.4749 35.6282C22.7315 34.7532 21.0475 32.3956 20.5723 30.4634L22.7933 29.5352C22.9383 31.5059 24.341 32.8161 26.1677 34.0221Z" fill="white"/>
<path d="M26.5894 30.3765C26.5827 30.3765 26.576 30.376 26.5694 30.3751L22.6326 29.8142C22.6143 29.8117 22.5967 29.8055 22.5808 29.7961C22.5649 29.7868 22.551 29.7744 22.5399 29.7596C22.5288 29.7449 22.5207 29.7281 22.5161 29.7103C22.5115 29.6925 22.5105 29.6739 22.5131 29.6557C22.5157 29.6374 22.5219 29.6199 22.5313 29.604C22.5407 29.5882 22.5531 29.5743 22.5679 29.5633C22.5826 29.5522 22.5994 29.5442 22.6173 29.5396C22.6352 29.535 22.6538 29.534 22.6721 29.5365L26.6089 30.0974C26.6441 30.1024 26.6761 30.1205 26.6985 30.1481C26.7209 30.1756 26.7319 30.2106 26.7295 30.246C26.727 30.2814 26.7112 30.3145 26.6852 30.3387C26.6592 30.3629 26.625 30.3764 26.5894 30.3765Z" fill="white"/>
<path d="M26.0273 34.0222C26.0028 34.0222 25.9786 34.0158 25.9573 34.0036C25.936 33.9915 25.9183 33.9739 25.9059 33.9528C25.8935 33.9317 25.8869 33.9076 25.8867 33.8832C25.8865 33.8587 25.8928 33.8346 25.9049 33.8132L27.2093 31.4975C27.2183 31.4814 27.2304 31.4672 27.2449 31.4558C27.2594 31.4443 27.2761 31.4359 27.2939 31.4309C27.3117 31.4259 27.3303 31.4245 27.3486 31.4267C27.367 31.4288 27.3848 31.4346 27.4009 31.4437C27.417 31.4527 27.4312 31.4648 27.4426 31.4794C27.454 31.4939 27.4624 31.5105 27.4673 31.5283C27.4723 31.546 27.4737 31.5646 27.4714 31.5829C27.4692 31.6012 27.4633 31.6189 27.4542 31.6349L26.1498 33.9507C26.1376 33.9724 26.1198 33.9905 26.0983 34.003C26.0768 34.0156 26.0523 34.0222 26.0273 34.0222Z" fill="white"/>
<path d="M30.5918 32.907C30.0435 32.6178 29.4064 32.5582 28.8129 32.3785C26.6892 31.7355 25.2666 29.3414 25.7208 27.1749C25.8047 26.897 25.8424 26.6073 25.8324 26.3173C25.753 25.6756 25.0946 25.2616 24.4633 25.1146C23.832 24.9676 23.1604 24.9889 22.557 24.7525C21.6253 24.3875 21.0065 23.4327 20.8724 22.4435C20.7382 21.4543 21.0325 20.4454 21.5112 19.5687L21.7393 20.2231C22.087 19.9295 22.3452 19.5445 22.4843 19.1118C22.7435 19.1552 22.9871 19.2643 23.1919 19.4285C23.3967 19.5927 23.5558 19.8066 23.6539 20.0497C24.0199 20.265 24.0726 19.381 24.4769 19.2506C24.6462 19.196 24.8203 19.2998 24.9816 19.3748C25.7963 19.7537 26.7428 19.4297 27.6167 19.2197C29.13 18.8577 30.7074 18.8558 32.2215 19.2142C33.2275 19.4535 34.2232 19.8702 34.943 20.6107C35.5341 21.2188 35.9024 22.0052 36.2161 22.7923C36.9881 24.73 37.4981 26.8267 37.2432 28.8962C37.031 30.5897 36.3206 32.1825 35.2016 33.4738C34.6187 34.1436 32.7169 36.4803 31.6741 36.0819C30.3638 35.5813 32.1357 33.7211 30.5918 32.907Z" fill="#2F2E41"/>
</g>
<defs>
<clipPath id="clip0">
<rect width="171" height="146" fill="white"/>
</clipPath>
</defs>
</svg>
