<svg width="200" height="139" viewBox="0 0 200 139" fill="none" xmlns="http://www.w3.org/2000/svg">
<path d="M167.107 21.3733L151.679 21.5234C150.954 17.9588 148.517 8.60566 150.711 6.0545C150.811 5.09432 151.278 4.20964 152.015 3.58464C152.752 2.95964 153.702 2.64247 154.667 2.69916C157.058 -1.03832 161.041 -0.47716 163.734 1.85706C166.443 2.79048 167.464 4.44876 167.107 6.69913C169.114 8.45274 169.484 10.5863 168.583 13.0149L167.107 21.3733Z" fill="#2F2E41"/>
<path d="M165.622 30.863L154.491 29.3241L152.265 26.0754C155.331 24.0443 156.417 21.2074 155.005 17.3551L162.711 17.1841C162.35 20.6147 163.486 23.2709 166.65 24.8785L165.622 30.863Z" fill="#FFB9B9"/>
<path d="M151.858 131.11L151.433 136.92C151.413 137.182 151.451 137.447 151.542 137.694C151.633 137.941 151.777 138.166 151.962 138.354C152.148 138.542 152.371 138.687 152.618 138.782C152.865 138.876 153.128 138.916 153.392 138.901L156.381 138.72C156.519 138.711 156.654 138.673 156.776 138.606C156.898 138.54 157.003 138.448 157.085 138.336C157.168 138.224 157.224 138.096 157.251 137.96C157.277 137.824 157.274 137.684 157.24 137.549L155.581 130.924L151.858 131.11Z" fill="#E6E6E6"/>
<path d="M161.535 130.924L159.876 137.549C159.842 137.684 159.839 137.824 159.865 137.96C159.892 138.096 159.948 138.224 160.03 138.336C160.113 138.448 160.218 138.54 160.34 138.606C160.462 138.673 160.597 138.711 160.735 138.72L163.724 138.901C163.987 138.916 164.251 138.876 164.498 138.782C164.745 138.687 164.968 138.542 165.154 138.354C165.339 138.166 165.483 137.941 165.574 137.694C165.665 137.447 165.703 137.182 165.683 136.919L165.258 131.11L161.535 130.924Z" fill="#E6E6E6"/>
<path d="M165.452 131.916L161.418 131.512L157.403 88.6566L155.885 131.374L151.923 131.232L145.244 72.0708H170.76L165.452 131.916Z" fill="#28DF99"/>
<path d="M159.286 20.091C163.542 20.091 166.992 16.6461 166.992 12.3966C166.992 8.14705 163.542 4.70215 159.286 4.70215C155.03 4.70215 151.58 8.14705 151.58 12.3966C151.58 16.6461 155.03 20.091 159.286 20.091Z" fill="#FFB9B9"/>
<path d="M174.527 73.4388L143.359 73.7808C147.985 56.1994 150.752 39.8678 145.928 28.6403L153.634 24.8786C157.35 28.7483 161.488 28.3494 165.964 24.5366L173.328 26.4175C172.067 41.1407 172.632 56.9093 174.527 73.4388Z" fill="#28DF99"/>
<path d="M134.797 55.3142L154.148 63.0086L158.474 64.2791C158.668 64.336 158.871 64.3531 159.071 64.3296C159.272 64.3062 159.465 64.2425 159.64 64.1424C159.815 64.0424 159.968 63.908 160.09 63.7474C160.212 63.5868 160.3 63.4033 160.349 63.2079C160.434 62.8653 160.396 62.5035 160.24 62.1865C160.084 61.8696 159.821 61.618 159.497 61.4765L155.004 60.1018L141.476 52.2364L144.301 44.7985L138.393 41.6353L134.797 55.3142Z" fill="#FFB9B9"/>
<path d="M134.968 41.2934C138.65 42.7275 141.578 45.1751 143.873 48.4748L151.065 38.0447L145.928 28.6404L134.968 41.2934Z" fill="#28DF99"/>
<path d="M167.971 11.1495C164.843 10.3448 161.768 10.2343 158.779 11.255C156.875 12.1758 154.588 12.0909 152.045 11.3322V3.65552L165.774 4.02108L167.971 11.1495Z" fill="#2F2E41"/>
<path d="M154.084 46.3494C153.479 46.35 152.899 46.5904 152.471 47.0176C152.043 47.4448 151.802 48.0241 151.802 48.6283L152.703 67.458C152.703 68.0622 152.944 68.6415 153.372 69.0687C153.8 69.4959 154.38 69.7363 154.985 69.7369H165.285C165.89 69.7363 166.47 69.4959 166.898 69.0687C167.326 68.6415 167.567 68.0622 167.568 67.458L168.468 48.6283C168.468 48.0241 168.227 47.4448 167.799 47.0176C167.371 46.5904 166.791 46.35 166.186 46.3494H154.084Z" fill="#3F3D56"/>
<path d="M183.309 53.8917L166.442 60.5976L165.169 61.1036C165.129 61.1194 165.088 61.1329 165.045 61.1464L160.782 62.3989C160.237 62.5586 159.482 61.8255 159.041 61.3195C158.822 61.0757 158.698 60.7617 158.692 60.4345C158.685 60.1074 158.796 59.7887 159.005 59.5362C159.064 59.4684 159.128 59.4059 159.198 59.3496C159.363 59.2219 159.556 59.1369 159.761 59.1022L164.02 58.2656C164.173 58.2357 164.32 58.181 164.455 58.1037L166.442 56.9478L176.755 50.9525C177.041 50.7861 177.26 50.5234 177.371 50.2112C177.482 49.899 177.478 49.5577 177.361 49.2479L175.392 44.0644C175.271 43.7473 175.27 43.3971 175.389 43.0793C175.508 42.7614 175.739 42.4977 176.038 42.3373L179.3 40.5923C179.486 40.4924 179.693 40.436 179.904 40.4274C180.115 40.4188 180.326 40.4583 180.52 40.5427C180.714 40.6271 180.886 40.7544 181.023 40.9149C181.161 41.0754 181.26 41.265 181.313 41.4693L184.144 52.2366C184.231 52.5668 184.194 52.9173 184.04 53.2222C183.887 53.5271 183.626 53.7652 183.309 53.8917Z" fill="#FFB9B9"/>
<path d="M184.288 39.4125C180.606 40.8466 177.678 43.2942 175.383 46.5939L168.19 36.1637L173.328 26.4175L184.288 39.4125Z" fill="#28DF99"/>
<path d="M164.414 19.2451C161.043 20.6452 157.508 20.5884 153.829 19.2451C154.9 17.4204 153.299 15.9913 152.478 14.1494L166.216 13.7417C165.166 15.3419 163.615 17.2324 164.414 19.2451Z" fill="white"/>
<path d="M166.071 14.046L165.911 13.887L166.136 13.6621L167.482 12.0942L167.653 12.2404L166.302 13.8146L166.071 14.046Z" fill="white"/>
<path d="M151.536 13.093L151.392 13.2659L152.743 14.3903L152.887 14.2174L151.536 13.093Z" fill="white"/>
<path d="M166.458 15.368L164.093 19.0781L164.283 19.1989L166.648 15.4887L166.458 15.368Z" fill="white"/>
<path d="M151.784 15.3678L151.594 15.4885L153.959 19.1991L154.149 19.0783L151.784 15.3678Z" fill="white"/>
<path d="M166.892 56.6296V60.7037L165.472 61.2685C165.427 61.2861 165.381 61.3011 165.334 61.3162L160.574 62.7143C159.966 62.8926 159.124 62.0742 158.631 61.5095C158.387 61.2373 158.249 60.8868 158.242 60.5216C158.234 60.1564 158.358 59.8007 158.591 59.5189C158.657 59.4432 158.729 59.3734 158.807 59.3105C158.99 59.168 159.206 59.0731 159.436 59.0344L164.19 58.1006C164.36 58.0672 164.524 58.0061 164.675 57.9199L166.892 56.6296Z" fill="white"/>
<path d="M168.95 42.098H168.136C168.136 30.6042 165.766 22.5944 163.456 22.5944L163.253 21.7817C165.324 21.7817 166.645 25.1154 167.388 27.912C168.395 31.7034 168.95 36.7414 168.95 42.098Z" fill="#3F3D56"/>
<path d="M150.231 39.2539H149.417C149.417 28.7274 151.804 22.1882 155.318 22.1882L155.114 23.0009C152.683 23.0009 150.231 28.0265 150.231 39.2539Z" fill="#3F3D56"/>
<path d="M168.543 44.3328C169.666 44.3328 170.577 43.4232 170.577 42.3012C170.577 41.1791 169.666 40.2695 168.543 40.2695C167.419 40.2695 166.508 41.1791 166.508 42.3012C166.508 43.4232 167.419 44.3328 168.543 44.3328Z" fill="#3F3D56"/>
<path d="M146.975 44.1299H146.161C146.161 41.2173 147.804 38.8477 149.824 38.8477V39.6603C148.253 39.6603 146.975 41.6653 146.975 44.1299Z" fill="#3F3D56"/>
<path d="M153.486 44.1299H152.672C152.672 41.6653 151.394 39.6603 149.823 39.6603V38.8477C151.843 38.8477 153.486 41.2173 153.486 44.1299Z" fill="#3F3D56"/>
<path d="M153.08 45.1456C153.529 45.1456 153.893 44.7817 153.893 44.3329C153.893 43.8841 153.529 43.5203 153.08 43.5203C152.63 43.5203 152.266 43.8841 152.266 44.3329C152.266 44.7817 152.63 45.1456 153.08 45.1456Z" fill="#3F3D56"/>
<path d="M146.568 45.1456C147.017 45.1456 147.382 44.7817 147.382 44.3329C147.382 43.8841 147.017 43.5203 146.568 43.5203C146.118 43.5203 145.754 43.8841 145.754 44.3329C145.754 44.7817 146.118 45.1456 146.568 45.1456Z" fill="#3F3D56"/>
<path d="M48.4846 17.0229L34.1904 19.4398C33.8373 19.4999 33.4744 19.4272 33.1719 19.2355C32.8695 19.0439 32.6489 18.7471 32.553 18.4025C31.5203 14.6808 29.3611 9.8258 31.4575 7.38859C31.5643 6.36327 32.063 5.41858 32.8498 4.75117C33.6367 4.08377 34.651 3.74508 35.6817 3.80561C38.2352 -0.18542 42.4885 0.413809 45.3632 2.90638C48.2563 3.90313 49.347 5.67391 48.9656 8.07694C50.2154 9.16928 50.8707 10.3997 51.0089 11.7501C51.0744 12.5016 50.9786 13.2584 50.728 13.9701C50.4773 14.6817 50.0775 15.3317 49.5553 15.8768L48.4846 17.0229Z" fill="#2F2E41"/>
<path d="M46.2618 28.259L35.1807 27.6082C36.2666 25.1194 36.7004 22.7229 36.2671 20.449H44.5236C44.5049 22.1949 45.3751 25.2151 46.2618 28.259Z" fill="#9F616A"/>
<path d="M32.9227 130.496L32.4682 136.7C32.4476 136.98 32.4874 137.262 32.5849 137.527C32.6824 137.791 32.8354 138.031 33.0335 138.231C33.2317 138.432 33.4704 138.587 33.7338 138.688C33.9972 138.789 34.279 138.832 34.5605 138.815L37.752 138.622C37.8999 138.613 38.044 138.572 38.174 138.501C38.3041 138.43 38.4169 138.331 38.5045 138.212C38.5921 138.093 38.6523 137.956 38.6808 137.811C38.7094 137.665 38.7055 137.516 38.6696 137.372L36.8981 130.297L32.9227 130.496Z" fill="#E6E6E6"/>
<path d="M43.2558 130.297L41.4842 137.372C41.4483 137.516 41.4445 137.665 41.473 137.811C41.5015 137.956 41.5617 138.093 41.6493 138.212C41.7369 138.331 41.8497 138.43 41.9798 138.501C42.1098 138.572 42.2539 138.613 42.4018 138.622L45.5933 138.815C45.8748 138.832 46.1567 138.789 46.42 138.688C46.6834 138.587 46.9221 138.432 47.1203 138.231C47.3185 138.031 47.4714 137.791 47.5689 137.527C47.6664 137.262 47.7062 136.98 47.6857 136.7L47.2311 130.496L43.2558 130.297Z" fill="#E6E6E6"/>
<path d="M47.4366 131.357L43.1298 130.925L38.842 85.1623L37.2215 130.778L32.9902 130.626L25.8584 67.4514H53.1055L47.4366 131.357Z" fill="#28DF99"/>
<path d="M40.6138 23.0827C45.1585 23.0827 48.8428 19.4041 48.8428 14.8663C48.8428 10.3285 45.1585 6.6499 40.6138 6.6499C36.069 6.6499 32.3848 10.3285 32.3848 14.8663C32.3848 19.4041 36.069 23.0827 40.6138 23.0827Z" fill="#9F616A"/>
<path d="M49.8884 10.9411C46.5485 10.3603 43.2648 10.2806 40.0727 11.0172C38.0394 11.6819 35.5975 11.6206 32.8818 11.073V5.53223L47.5427 5.79607L49.8884 10.9411Z" fill="#2F2E41"/>
<path d="M46.0895 21.4588C42.4896 22.9539 38.7148 22.8932 34.7858 21.4588C35.9291 19.5103 34.2201 17.9843 33.3428 16.0173L48.0136 15.582C46.8917 17.2908 45.2362 19.3096 46.0895 21.4588Z" fill="white"/>
<path d="M32.3327 14.8953L32.1885 15.0681L33.6314 16.2687L33.7757 16.0959L32.3327 14.8953Z" fill="white"/>
<path d="M48.2798 17.323L45.7539 21.2849L45.9439 21.4057L48.4699 17.4438L48.2798 17.323Z" fill="white"/>
<path d="M32.5963 17.3226L32.4062 17.4434L34.9316 21.4057L35.1216 21.2849L32.5963 17.3226Z" fill="white"/>
<path d="M24.9681 52.34L18.667 48.435L24.0407 32.7206C24.64 31.0991 25.788 29.7376 27.2861 28.8716L29.0963 27.8252L29.2537 43.6781L24.9681 52.34Z" fill="#28DF99"/>
<path d="M52.2046 59.9721L51.2724 51.9995C51.2226 47.7914 51.9396 43.7229 53.6493 39.9741L54.5184 28.259L44.9582 24.354C44.9288 24.5485 44.9039 24.7429 44.876 24.9374L40.3953 27.1743L36.0256 26.1827L36.0498 24.7879L27.3586 28.6929C30.2328 42.0346 28.6652 55.8894 23.7227 72.2543L35.1724 75.3803L35.2676 69.8909L45.4718 69.1631C45.5769 70.9441 45.6614 72.6935 45.7104 74.404C51.4683 76.5206 51.6661 76.4855 56.9123 73.455C54.8231 69.0691 53.1689 64.5053 52.2046 59.9721Z" fill="#28DF99"/>
<path d="M66.9035 50.3873L61.0371 48.4349L51.6533 37.5275L54.5186 28.259L67.5553 46.4825L66.9035 50.3873Z" fill="#28DF99"/>
<path d="M48.5177 58.8317C48.6137 59.2523 48.8728 59.6177 49.2383 59.8478C49.6037 60.078 50.0456 60.154 50.4671 60.0593L55.447 58.9333L54.7273 55.7595L49.7473 56.8853C49.3257 56.9807 48.9594 57.2393 48.7289 57.6043C48.4983 57.9693 48.4223 58.4108 48.5177 58.8317V58.8317Z" fill="#E6E6E6"/>
<path d="M52.9971 55.1602L55.8217 60.3669C60.5726 59.0439 64.6901 54.8729 68.6411 49.9535L67.5547 46.4824L60.8191 48.218L52.9971 55.1602Z" fill="#28DF99"/>
<path d="M16.1689 38.8281L21.5915 39.7949L33.9858 57.3911L27.4014 55.8442L16.1689 38.8281Z" fill="#E6E6E6"/>
<path d="M15.2072 38.6128C15.1246 38.614 15.0438 38.6374 14.9733 38.6805C14.9028 38.7236 14.8452 38.7848 14.8066 38.8577C14.7679 38.9306 14.7495 39.0126 14.7534 39.095C14.7574 39.1774 14.7834 39.2573 14.8288 39.3262L26.4142 56.8773C26.4789 56.9754 26.5787 57.0451 26.6932 57.0719L32.0836 58.3382C32.1745 58.3596 32.2697 58.3528 32.3567 58.3189C32.4436 58.285 32.5182 58.2254 32.5705 58.1482C32.6228 58.071 32.6504 57.9797 32.6495 57.8865C32.6486 57.7933 32.6194 57.7025 32.5657 57.6262L19.8456 39.5675C19.8111 39.5183 19.7672 39.4764 19.7165 39.4441C19.6657 39.4119 19.6091 39.3899 19.5499 39.3795L15.2941 38.6206C15.2654 38.6155 15.2363 38.6129 15.2072 38.6128Z" fill="#3F3D56"/>
<path d="M22.4346 51.1615L22.7566 54.3998L27.8376 53.8962C28.2676 53.8535 28.6632 53.6421 28.9371 53.3083C29.211 52.9745 29.3409 52.5457 29.2983 52.1163C29.2556 51.6869 29.0438 51.292 28.7095 51.0185C28.3752 50.745 27.9458 50.6152 27.5157 50.6579L22.4346 51.1615Z" fill="#E6E6E6"/>
<path d="M18.0156 50.7864C18.023 51.8906 18.4672 52.9471 19.2513 53.7258C20.0355 54.5044 21.096 54.942 22.2019 54.9433H23.0374L23.6457 49.8823L18.6095 48.072L18.0156 50.7864Z" fill="#28DF99"/>
<path d="M47.6124 16.142L47.4531 15.983L47.6937 15.7428L49.1308 14.0681L49.3018 14.2143L47.8588 15.8953L47.6124 16.142Z" fill="white"/>
<path d="M76.3516 138.325H123.649V81.0446C123.649 78.0115 120.657 75.5439 116.979 75.5439H83.0214C79.3436 75.5439 76.3516 78.0115 76.3516 81.0446V138.325Z" fill="#E6E6E6"/>
<path d="M79.9551 135.957H120.045V87.4044C120.045 84.8335 117.509 82.7419 114.392 82.7419H85.6086C82.4912 82.7419 79.9551 84.8335 79.9551 87.4044V135.957Z" fill="white"/>
<path d="M75.9942 71.0862C74.8252 71.0862 73.874 71.8706 73.874 72.8347V77.8819C73.874 78.846 74.8252 79.6304 75.9942 79.6304H124.006C125.175 79.6304 126.126 78.846 126.126 77.8819V72.8347C126.126 71.8706 125.175 71.0862 124.006 71.0862H75.9942Z" fill="#3F3D56"/>
<path d="M85.8516 129.731C85.3027 129.733 84.7768 129.951 84.3887 130.338C84.0006 130.726 83.7819 131.251 83.7803 131.799C83.7819 132.347 84.0006 132.872 84.3887 133.26C84.7768 133.647 85.3027 133.866 85.8516 133.867H89.7287V129.731H85.8516Z" fill="#3F3D56"/>
<path d="M93.2875 129.731H89.5166V133.867H93.2875C93.8363 133.866 94.3622 133.647 94.7503 133.26C95.1384 132.872 95.3572 132.347 95.3588 131.799C95.3572 131.251 95.1384 130.726 94.7503 130.338C94.3622 129.951 93.8363 129.733 93.2875 129.731Z" fill="#28DF99"/>
<path opacity="0.2" d="M94.6391 130.237C94.9657 130.611 95.1459 131.091 95.1463 131.587C95.1447 132.135 94.926 132.66 94.5379 133.047C94.1498 133.435 93.6239 133.653 93.075 133.655H89.5166V133.867H93.2875C93.8363 133.866 94.3622 133.647 94.7503 133.26C95.1384 132.872 95.3572 132.347 95.3588 131.799C95.3583 131.502 95.2937 131.209 95.1695 130.94C95.0453 130.67 94.8644 130.431 94.6391 130.237Z" fill="black"/>
<path d="M103.348 98.5792C102.97 98.1815 102.45 97.9492 101.901 97.933C101.353 97.9169 100.82 98.1181 100.42 98.4929C100.021 98.8699 99.7886 99.389 99.7724 99.9368C99.7562 100.485 99.9578 101.017 100.333 101.416L102.992 104.233L106.007 101.396L103.348 98.5792Z" fill="#3F3D56"/>
<path d="M108.448 103.981L105.861 101.242L102.847 104.079L105.433 106.819C105.811 107.216 106.331 107.449 106.879 107.465C107.428 107.481 107.961 107.28 108.361 106.905C108.76 106.528 108.992 106.009 109.008 105.461C109.025 104.913 108.823 104.381 108.448 103.981Z" fill="#28DF99"/>
<path opacity="0.2" d="M109.006 105.311C108.957 105.805 108.731 106.264 108.37 106.605C107.97 106.98 107.437 107.181 106.888 107.165C106.34 107.149 105.82 106.916 105.442 106.519L103.001 103.933L102.847 104.079L105.433 106.819C105.811 107.216 106.331 107.449 106.879 107.465C107.428 107.481 107.961 107.28 108.361 106.905C108.577 106.701 108.746 106.453 108.858 106.178C108.969 105.903 109.019 105.607 109.006 105.311Z" fill="black"/>
<path d="M92.3114 105.101C91.9338 104.703 91.4138 104.471 90.8652 104.455C90.3166 104.438 89.7839 104.64 89.3834 105.014C88.9851 105.391 88.7525 105.911 88.7363 106.458C88.7201 107.006 88.9216 107.538 89.2969 107.938L91.9564 110.755L94.9708 107.918L92.3114 105.101Z" fill="#3F3D56"/>
<path d="M97.4116 110.503L94.825 107.763L91.8105 110.6L94.3971 113.34C94.7747 113.738 95.2947 113.97 95.8433 113.986C96.3919 114.002 96.9246 113.801 97.3251 113.426C97.7234 113.049 97.9561 112.53 97.9723 111.982C97.9885 111.435 97.7869 110.903 97.4116 110.503Z" fill="#28DF99"/>
<path opacity="0.2" d="M97.9696 111.833C97.921 112.326 97.6953 112.786 97.334 113.127C96.9335 113.502 96.4008 113.703 95.8522 113.687C95.3035 113.67 94.7836 113.438 94.406 113.04L91.9651 110.455L91.8105 110.601L94.3971 113.34C94.7747 113.738 95.2947 113.97 95.8433 113.986C96.3919 114.003 96.9246 113.801 97.3251 113.427C97.541 113.223 97.7103 112.975 97.8215 112.7C97.9327 112.425 97.9832 112.129 97.9696 111.833Z" fill="black"/>
<path d="M103.348 111.172C102.97 110.775 102.45 110.542 101.901 110.526C101.353 110.51 100.82 110.711 100.42 111.086C100.021 111.463 99.7886 111.982 99.7724 112.53C99.7562 113.078 99.9578 113.61 100.333 114.01L102.992 116.827L106.007 113.989L103.348 111.172Z" fill="#3F3D56"/>
<path d="M108.448 116.575L105.861 113.835L102.847 116.672L105.433 119.412C105.811 119.81 106.331 120.042 106.879 120.058C107.428 120.074 107.961 119.873 108.361 119.498C108.76 119.121 108.992 118.602 109.008 118.054C109.025 117.506 108.823 116.975 108.448 116.575Z" fill="#28DF99"/>
<path opacity="0.2" d="M109.006 117.904C108.957 118.398 108.731 118.858 108.37 119.199C107.97 119.573 107.437 119.775 106.888 119.758C106.34 119.742 105.82 119.51 105.442 119.112L103.001 116.527L102.847 116.672L105.433 119.412C105.811 119.81 106.331 120.042 106.879 120.058C107.428 120.074 107.961 119.873 108.361 119.498C108.577 119.295 108.746 119.047 108.858 118.772C108.969 118.496 109.019 118.201 109.006 117.904Z" fill="black"/>
<path d="M110.08 124.096C110.473 123.714 110.7 123.192 110.709 122.644C110.719 122.096 110.511 121.567 110.131 121.171C109.748 120.778 109.225 120.552 108.677 120.543C108.128 120.533 107.598 120.741 107.202 121.121L104.413 123.81L107.291 126.785L110.08 124.096Z" fill="#3F3D56"/>
<path d="M104.731 129.253L107.444 126.638L104.566 123.663L101.853 126.278C101.46 126.66 101.233 127.182 101.224 127.73C101.214 128.278 101.422 128.807 101.803 129.203C102.185 129.596 102.708 129.822 103.257 129.831C103.805 129.841 104.336 129.633 104.731 129.253Z" fill="#28DF99"/>
<path opacity="0.2" d="M103.407 129.827C102.912 129.784 102.449 129.564 102.103 129.208C101.723 128.813 101.515 128.283 101.524 127.735C101.534 127.187 101.76 126.665 102.154 126.284L104.713 123.815L104.566 123.663L101.853 126.278C101.46 126.66 101.233 127.182 101.224 127.73C101.214 128.278 101.422 128.807 101.803 129.203C102.009 129.416 102.26 129.582 102.537 129.689C102.813 129.797 103.11 129.844 103.407 129.827Z" fill="black"/>
<path d="M95.2146 117.574C95.6082 117.192 95.8345 116.67 95.8441 116.123C95.8536 115.575 95.6456 115.045 95.2654 114.65C94.883 114.257 94.3603 114.031 93.8115 114.021C93.2627 114.012 92.7325 114.219 92.3366 114.599L89.5479 117.288L92.4258 120.264L95.2146 117.574Z" fill="#3F3D56"/>
<path d="M89.8662 122.732L92.5785 120.116L89.7005 117.141L86.9882 119.757C86.5946 120.139 86.3682 120.661 86.3587 121.209C86.3492 121.756 86.5572 122.286 86.9374 122.681C87.3198 123.074 87.8425 123.3 88.3913 123.31C88.9401 123.319 89.4703 123.112 89.8662 122.732Z" fill="#28DF99"/>
<path opacity="0.2" d="M88.5416 123.305C88.0464 123.263 87.5834 123.043 87.2378 122.686C86.8576 122.291 86.6496 121.762 86.6591 121.214C86.6686 120.666 86.895 120.144 87.2886 119.762L89.8481 117.294L89.7005 117.141L86.9882 119.757C86.5946 120.139 86.3682 120.661 86.3587 121.209C86.3492 121.756 86.5572 122.286 86.9374 122.681C87.1441 122.894 87.3945 123.06 87.6713 123.168C87.9482 123.276 88.245 123.322 88.5416 123.305Z" fill="black"/>
<path d="M116.386 109.703C116.78 109.321 117.006 108.8 117.016 108.252C117.025 107.704 116.817 107.174 116.437 106.779C116.055 106.386 115.532 106.16 114.983 106.15C114.435 106.141 113.904 106.349 113.508 106.728L110.72 109.418L113.598 112.393L116.386 109.703Z" fill="#3F3D56"/>
<path d="M111.038 114.861L113.75 112.245L110.872 109.27L108.16 111.886C107.766 112.268 107.54 112.79 107.531 113.338C107.521 113.886 107.729 114.415 108.109 114.81C108.492 115.203 109.014 115.429 109.563 115.439C110.112 115.448 110.642 115.241 111.038 114.861Z" fill="#28DF99"/>
<path opacity="0.2" d="M109.713 115.434C109.218 115.392 108.755 115.172 108.41 114.816C108.029 114.42 107.821 113.891 107.831 113.343C107.841 112.795 108.067 112.273 108.46 111.891L111.02 109.423L110.872 109.27L108.16 111.886C107.766 112.268 107.54 112.79 107.531 113.338C107.521 113.886 107.729 114.415 108.109 114.81C108.316 115.023 108.566 115.189 108.843 115.297C109.12 115.405 109.417 115.452 109.713 115.434Z" fill="black"/>
<path d="M111.681 126.014C111.303 125.617 110.783 125.385 110.234 125.368C109.686 125.352 109.153 125.553 108.753 125.928C108.354 126.305 108.122 126.824 108.105 127.372C108.089 127.92 108.291 128.452 108.666 128.852L111.326 131.669L114.34 128.831L111.681 126.014Z" fill="#3F3D56"/>
<path d="M116.781 131.417L114.194 128.677L111.18 131.514L113.766 134.254C114.144 134.652 114.664 134.884 115.212 134.9C115.761 134.916 116.294 134.715 116.694 134.34C117.093 133.963 117.325 133.444 117.341 132.896C117.358 132.349 117.156 131.817 116.781 131.417Z" fill="#28DF99"/>
<path opacity="0.2" d="M117.339 132.746C117.29 133.24 117.064 133.7 116.703 134.041C116.303 134.415 115.77 134.617 115.221 134.6C114.673 134.584 114.153 134.352 113.775 133.954L111.334 131.369L111.18 131.514L113.766 134.254C114.144 134.652 114.664 134.884 115.212 134.9C115.761 134.916 116.294 134.715 116.694 134.34C116.91 134.137 117.079 133.889 117.191 133.614C117.302 133.338 117.352 133.043 117.339 132.746Z" fill="black"/>
<path d="M97.0409 125.79C96.6632 125.392 96.1433 125.16 95.5947 125.143C95.0461 125.127 94.5134 125.329 94.1129 125.703C93.7146 126.08 93.4819 126.599 93.4657 127.147C93.4496 127.695 93.6511 128.227 94.0264 128.627L96.6859 131.444L99.7003 128.607L97.0409 125.79Z" fill="#3F3D56"/>
<path d="M102.141 131.192L99.5545 128.452L96.54 131.29L99.1266 134.029C99.5043 134.427 100.024 134.659 100.573 134.675C101.121 134.692 101.654 134.49 102.055 134.116C102.453 133.739 102.686 133.219 102.702 132.672C102.718 132.124 102.516 131.592 102.141 131.192Z" fill="#28DF99"/>
<path opacity="0.2" d="M102.699 132.521C102.651 133.015 102.425 133.475 102.063 133.816C101.663 134.19 101.13 134.392 100.582 134.376C100.033 134.359 99.5131 134.127 99.1355 133.729L96.6946 131.144L96.54 131.29L99.1266 134.029C99.5042 134.427 100.024 134.659 100.573 134.675C101.121 134.692 101.654 134.49 102.055 134.116C102.27 133.912 102.44 133.664 102.551 133.389C102.662 133.114 102.713 132.818 102.699 132.521Z" fill="black"/>
<path d="M101.162 118.37C101.162 119.058 100.924 119.724 100.489 120.257C100.053 120.789 99.4469 121.156 98.7721 121.293C98.3778 121.373 97.9716 121.373 97.5773 121.293C96.9026 121.155 96.2963 120.789 95.8608 120.257C95.4253 119.724 95.1875 119.058 95.1875 118.37C95.1875 117.683 95.4253 117.016 95.8608 116.483C96.2963 115.951 96.9026 115.585 97.5773 115.447C97.9716 115.368 98.3778 115.368 98.7721 115.447C99.4469 115.585 100.053 115.951 100.489 116.483C100.924 117.016 101.162 117.682 101.162 118.37Z" fill="#28DF99"/>
<path opacity="0.2" d="M98.772 115.447V121.293C98.3777 121.373 97.9715 121.373 97.5771 121.293V115.447C97.9715 115.368 98.3777 115.368 98.772 115.447Z" fill="black"/>
<path d="M102.513 106.452C102.514 107.139 102.276 107.806 101.84 108.338C101.405 108.871 100.798 109.237 100.124 109.375C99.7294 109.454 99.3231 109.454 98.9288 109.375C98.2542 109.237 97.6478 108.871 97.2124 108.338C96.7769 107.806 96.5391 107.139 96.5391 106.452C96.5391 105.764 96.7769 105.098 97.2124 104.565C97.6478 104.032 98.2542 103.666 98.9288 103.529C99.3231 103.449 99.7294 103.449 100.124 103.529C100.798 103.666 101.405 104.032 101.84 104.565C102.276 105.098 102.514 105.764 102.513 106.452Z" fill="#28DF99"/>
<path opacity="0.2" d="M100.124 103.529V109.375C99.7293 109.454 99.323 109.454 98.9287 109.375V103.529C99.323 103.449 99.7293 103.449 100.124 103.529Z" fill="black"/>
<path d="M102.513 123.542C102.514 124.23 102.276 124.897 101.84 125.429C101.405 125.962 100.798 126.328 100.124 126.465C99.7294 126.545 99.3231 126.545 98.9288 126.465C98.2542 126.328 97.6478 125.962 97.2124 125.429C96.7769 124.896 96.5391 124.23 96.5391 123.542C96.5391 122.855 96.7769 122.188 97.2124 121.656C97.6478 121.123 98.2542 120.757 98.9288 120.619C99.3231 120.54 99.7294 120.54 100.124 120.619C100.798 120.757 101.405 121.123 101.84 121.656C102.276 122.188 102.514 122.855 102.513 123.542Z" fill="#28DF99"/>
<path opacity="0.2" d="M100.124 120.619V126.465C99.7293 126.545 99.323 126.545 98.9287 126.465V120.619C99.323 120.54 99.7293 120.54 100.124 120.619Z" fill="black"/>
<path d="M109.945 131.863C109.945 132.551 109.707 133.217 109.272 133.75C108.836 134.282 108.23 134.648 107.555 134.786C107.161 134.866 106.755 134.866 106.36 134.786C105.686 134.648 105.079 134.282 104.644 133.75C104.209 133.217 103.971 132.551 103.971 131.863C103.971 131.175 104.209 130.509 104.644 129.976C105.079 129.444 105.686 129.078 106.36 128.94C106.755 128.86 107.161 128.86 107.555 128.94C108.23 129.078 108.836 129.444 109.272 129.976C109.707 130.509 109.945 131.175 109.945 131.863Z" fill="#28DF99"/>
<path opacity="0.2" d="M107.555 128.94V134.786C107.161 134.866 106.755 134.866 106.36 134.786V128.94C106.755 128.86 107.161 128.86 107.555 128.94Z" fill="black"/>
<path d="M116.512 116.554C117.008 117.031 117.323 117.665 117.405 118.347C117.487 119.03 117.33 119.72 116.961 120.301C116.745 120.639 116.463 120.931 116.132 121.16C115.564 121.549 114.88 121.731 114.193 121.674C113.507 121.618 112.861 121.326 112.366 120.849C111.87 120.372 111.554 119.738 111.472 119.056C111.39 118.373 111.547 117.683 111.916 117.103C112.133 116.764 112.414 116.472 112.745 116.244C113.313 115.854 113.998 115.672 114.684 115.729C115.37 115.785 116.016 116.077 116.512 116.554Z" fill="#28DF99"/>
<path opacity="0.2" d="M112.744 116.244L116.96 120.301C116.744 120.639 116.462 120.931 116.131 121.16L111.915 117.103C112.131 116.764 112.413 116.472 112.744 116.244Z" fill="black"/>
<path d="M117.412 123.076C117.908 123.553 118.224 124.186 118.305 124.869C118.387 125.552 118.23 126.242 117.861 126.822C117.645 127.161 117.363 127.453 117.032 127.681C116.465 128.071 115.78 128.253 115.094 128.196C114.407 128.139 113.762 127.848 113.266 127.371C112.77 126.894 112.455 126.26 112.373 125.577C112.291 124.895 112.448 124.205 112.817 123.624C113.033 123.286 113.315 122.994 113.646 122.765C114.213 122.376 114.898 122.194 115.584 122.25C116.271 122.307 116.916 122.599 117.412 123.076Z" fill="#28DF99"/>
<path opacity="0.2" d="M113.646 122.765L117.861 126.822C117.645 127.161 117.363 127.453 117.032 127.681L112.816 123.624C113.033 123.285 113.315 122.993 113.646 122.765Z" fill="black"/>
<path d="M90.6103 124.65C91.1062 125.127 91.4218 125.76 91.5037 126.443C91.5856 127.126 91.4287 127.816 91.0596 128.396C90.8433 128.735 90.5614 129.027 90.2304 129.255C89.6629 129.645 88.9782 129.827 88.2919 129.77C87.6056 129.713 86.96 129.422 86.4642 128.945C85.9684 128.468 85.6529 127.834 85.571 127.151C85.4891 126.469 85.6459 125.779 86.0149 125.198C86.2312 124.86 86.5131 124.568 86.8441 124.339C87.4115 123.95 88.0963 123.768 88.7826 123.824C89.4689 123.881 90.1146 124.173 90.6103 124.65Z" fill="#28DF99"/>
<path opacity="0.2" d="M86.8439 124.339L91.0594 128.396C90.8431 128.735 90.5612 129.027 90.2302 129.255L86.0146 125.198C86.2309 124.86 86.5129 124.568 86.8439 124.339Z" fill="black"/>
<path opacity="0.2" d="M80.9689 71.0862H79.8428V79.4068H80.9689V71.0862Z" fill="black"/>
<path opacity="0.2" d="M87.5002 71.0862H86.374V79.4068H87.5002V71.0862Z" fill="black"/>
<path opacity="0.2" d="M94.0314 71.0862H92.9053V79.4068H94.0314V71.0862Z" fill="black"/>
<path opacity="0.2" d="M100.563 71.0862H99.4365V79.4068H100.563V71.0862Z" fill="black"/>
<path opacity="0.2" d="M107.095 71.0862H105.969V79.4068H107.095V71.0862Z" fill="black"/>
<path opacity="0.2" d="M113.626 71.0862H112.5V79.4068H113.626V71.0862Z" fill="black"/>
<path opacity="0.2" d="M120.157 71.0862H119.031V79.4068H120.157V71.0862Z" fill="black"/>
</svg>
