<svg width="208" height="150" viewBox="0 0 208 150" fill="none" xmlns="http://www.w3.org/2000/svg">
<g clip-path="url(#clip0)">
<path opacity="0.1" d="M120.852 26.4537C107.517 25.9899 94.807 21.6816 82.6885 16.9688C70.57 12.2561 58.5588 7.03363 45.5364 4.53641C37.1638 2.92845 27.5885 2.7023 20.8437 7.19461C14.3516 11.5164 12.2546 18.9774 11.1267 25.8998C10.2783 31.1089 9.78614 36.5901 12.1053 41.4677C13.7197 44.8523 16.5846 47.6983 18.5667 50.941C25.4609 62.2236 20.5871 76.1375 13.1145 87.1632C9.60996 92.3378 5.54429 97.2613 2.84023 102.764C0.136171 108.266 -1.11627 114.569 1.25073 120.181C3.59668 125.739 9.18481 129.921 15.2402 132.859C27.5387 138.821 42.0299 140.527 56.1612 141.504C87.4417 143.645 118.891 142.717 150.254 141.79C161.861 141.445 173.52 141.098 184.937 139.298C191.278 138.3 197.826 136.717 202.429 132.895C208.272 128.042 209.722 119.828 205.806 113.743C199.237 103.54 181.076 101.004 176.484 90.0533C173.958 84.0258 176.553 77.3104 180.226 71.7199C188.103 59.7283 201.309 49.2066 202.004 35.4977C202.483 26.0819 196.135 16.6545 186.318 12.1986C176.03 7.52425 161.763 8.11454 154.174 15.84C146.358 23.7993 132.624 26.8619 120.852 26.4537Z" fill="#28DF99"/>
<path d="M46.3926 138.955C46.3926 138.955 35.8598 130.986 33.8701 120.85C33.0632 116.592 30.8989 112.712 27.7017 109.79C26.1722 108.415 24.5203 107.183 22.7666 106.11" stroke="#535461" stroke-width="2" stroke-miterlimit="10"/>
<path d="M21.4777 99.7241C22.4008 100.974 22.8183 106.269 22.8183 106.269C22.8183 106.269 17.8832 104.324 16.9582 103.076C16.514 102.476 16.3262 101.724 16.4359 100.986C16.5456 100.248 16.9439 99.5831 17.5433 99.1386C18.1426 98.6941 18.8938 98.506 19.6317 98.6158C20.3695 98.7256 21.0336 99.1243 21.4777 99.7241Z" fill="#28DF99"/>
<path d="M30.3285 103.879C30.4242 105.429 27.9021 110.102 27.9021 110.102C27.9021 110.102 24.8131 105.782 24.7155 104.232C24.6783 103.492 24.9337 102.768 25.4263 102.216C25.9189 101.664 26.6089 101.329 27.347 101.282C28.0851 101.236 28.8117 101.483 29.3694 101.969C29.9271 102.455 30.271 103.141 30.3266 103.879H30.3285Z" fill="#28DF99"/>
<path d="M38.9085 115.823C38.2114 117.21 33.6746 119.97 33.6746 119.97C33.6746 119.97 33.1901 114.681 33.8872 113.293C34.2304 112.64 34.8158 112.149 35.5175 111.924C36.2192 111.699 36.981 111.759 37.6392 112.09C38.2973 112.422 38.799 112.999 39.0364 113.697C39.2738 114.395 39.2279 115.158 38.9085 115.823Z" fill="#28DF99"/>
<path d="M43.3689 126.318C42.915 127.803 38.9106 131.289 38.9106 131.289C38.9106 131.289 37.5375 126.159 37.9914 124.671C38.2096 123.958 38.702 123.36 39.3605 123.01C40.019 122.66 40.7896 122.585 41.5027 122.804C42.2158 123.022 42.813 123.515 43.163 124.174C43.513 124.833 43.587 125.604 43.3689 126.318Z" fill="#28DF99"/>
<path d="M23.3375 113.858C24.8695 114.065 29.7127 111.877 29.7127 111.877C29.7127 111.877 25.626 108.488 24.0862 108.281C23.3472 108.182 22.5991 108.38 22.0063 108.833C21.4135 109.286 21.0247 109.956 20.9254 110.695C20.8261 111.435 21.0245 112.183 21.4768 112.777C21.9292 113.37 22.5985 113.759 23.3375 113.858Z" fill="#28DF99"/>
<path d="M28.7087 126.068C30.2407 125.806 34.1991 122.27 34.1991 122.27C34.1991 122.27 29.2851 120.261 27.755 120.524C27.3886 120.584 27.0378 120.716 26.7228 120.913C26.4077 121.109 26.1347 121.366 25.9194 121.669C25.7041 121.972 25.5509 122.314 25.4685 122.676C25.3861 123.038 25.3763 123.413 25.4395 123.78C25.5027 124.146 25.6378 124.496 25.8369 124.809C26.0359 125.123 26.2951 125.394 26.5994 125.607C26.9037 125.819 27.2471 125.97 27.6098 126.049C27.9725 126.128 28.3473 126.135 28.7125 126.068H28.7087Z" fill="#28DF99"/>
<path d="M35.5544 137.221C37.1075 137.221 41.6079 134.405 41.6079 134.405C41.6079 134.405 37.1056 131.594 35.5525 131.594C34.8069 131.594 34.0918 131.89 33.5646 132.418C33.0374 132.945 32.7412 133.661 32.7412 134.407C32.7412 135.153 33.0374 135.869 33.5646 136.397C34.0918 136.924 34.8069 137.221 35.5525 137.221H35.5544Z" fill="#28DF99"/>
<path d="M148.714 70.0314C148.714 70.0314 155.206 58.5227 164.992 55.2072C169.101 53.8414 172.657 51.1792 175.126 47.6197C176.284 45.918 177.284 44.1133 178.112 42.2285" stroke="#535461" stroke-width="2" stroke-miterlimit="10"/>
<path d="M184.256 40.1204C183.141 41.2013 177.953 42.3205 177.953 42.3205C177.953 42.3205 179.227 37.1651 180.341 36.0823C180.879 35.5782 181.593 35.3057 182.33 35.3234C183.067 35.3412 183.767 35.6477 184.28 36.1771C184.794 36.7065 185.079 37.4163 185.074 38.1538C185.069 38.8913 184.775 39.5975 184.256 40.1204Z" fill="#28DF99"/>
<path d="M181.321 49.4403C179.789 49.7431 174.835 47.8611 174.835 47.8611C174.835 47.8611 178.703 44.2197 180.226 43.9227C180.591 43.8415 180.969 43.8342 181.338 43.9012C181.706 43.9683 182.058 44.1083 182.371 44.3131C182.685 44.5179 182.954 44.7833 183.164 45.0937C183.374 45.4042 183.519 45.7535 183.592 46.121C183.665 46.4886 183.664 46.867 183.589 47.2341C183.514 47.6012 183.366 47.9496 183.155 48.2588C182.943 48.568 182.672 48.8318 182.357 49.0347C182.042 49.2376 181.69 49.3755 181.321 49.4403Z" fill="#28DF99"/>
<path d="M170.643 59.5366C169.176 59.0287 165.842 54.8967 165.842 54.8967C165.842 54.8967 171.012 53.7123 172.483 54.2202C172.837 54.3375 173.163 54.5239 173.444 54.7685C173.725 55.0132 173.954 55.3112 174.119 55.6453C174.284 55.9794 174.381 56.343 174.404 56.7148C174.427 57.0867 174.376 57.4595 174.254 57.8115C174.133 58.1636 173.942 58.4879 173.694 58.7657C173.446 59.0434 173.145 59.2691 172.809 59.4296C172.473 59.5901 172.109 59.6822 171.737 59.7006C171.365 59.7189 170.993 59.6632 170.643 59.5366Z" fill="#28DF99"/>
<path d="M160.831 65.3552C159.299 65.1022 155.323 61.5854 155.323 61.5854C155.323 61.5854 160.224 59.5424 161.754 59.7954C162.49 59.9166 163.149 60.3256 163.584 60.9325C164.019 61.5394 164.195 62.2944 164.074 63.0314C163.953 63.7684 163.544 64.4271 162.938 64.8626C162.331 65.298 161.577 65.4745 160.841 65.3533L160.831 65.3552Z" fill="#28DF99"/>
<path d="M170.509 43.8307C170.507 45.385 173.324 49.8946 173.324 49.8946C173.324 49.8946 176.137 45.3908 176.137 43.8384C176.147 43.4629 176.082 43.0892 175.945 42.7394C175.808 42.3896 175.602 42.0708 175.34 41.8017C175.079 41.5326 174.765 41.3188 174.42 41.1728C174.074 41.0268 173.702 40.9515 173.327 40.9515C172.951 40.9515 172.58 41.0268 172.234 41.1728C171.888 41.3188 171.575 41.5326 171.313 41.8017C171.051 42.0708 170.846 42.3896 170.709 42.7394C170.572 43.0892 170.507 43.4629 170.516 43.8384L170.509 43.8307Z" fill="#28DF99"/>
<path d="M159.128 50.78C159.591 52.2634 163.62 55.7227 163.62 55.7227C163.62 55.7227 164.961 50.5826 164.494 49.0992C164.251 48.4119 163.752 47.8456 163.101 47.5194C162.45 47.1933 161.697 47.1327 161.002 47.3505C160.307 47.5684 159.724 48.0476 159.375 48.6873C159.026 49.327 158.939 50.0772 159.132 50.78H159.128Z" fill="#28DF99"/>
<path d="M149.003 59.0537C149.209 60.5869 152.595 64.6825 152.595 64.6825C152.595 64.6825 154.78 59.8433 154.573 58.3043C154.532 57.9314 154.417 57.5705 154.235 57.2428C154.052 56.9151 153.806 56.6273 153.511 56.3962C153.216 56.1651 152.877 55.9954 152.516 55.8971C152.154 55.7988 151.776 55.7739 151.405 55.8239C151.033 55.8739 150.675 55.9977 150.352 56.1881C150.029 56.3785 149.748 56.6316 149.524 56.9325C149.3 57.2334 149.139 57.5761 149.049 57.9404C148.96 58.3047 148.944 58.6832 149.003 59.0537Z" fill="#28DF99"/>
<path opacity="0.25" d="M184.256 40.1204C183.141 41.2013 177.953 42.3205 177.953 42.3205C177.953 42.3205 179.227 37.1651 180.341 36.0823C180.879 35.5782 181.593 35.3057 182.33 35.3234C183.067 35.3412 183.767 35.6477 184.28 36.1771C184.794 36.7065 185.079 37.4163 185.074 38.1538C185.069 38.8913 184.775 39.5975 184.256 40.1204Z" fill="black"/>
<path opacity="0.25" d="M181.321 49.4403C179.789 49.7431 174.835 47.8611 174.835 47.8611C174.835 47.8611 178.703 44.2197 180.226 43.9227C180.591 43.8415 180.969 43.8342 181.338 43.9012C181.706 43.9683 182.058 44.1083 182.371 44.3131C182.685 44.5179 182.954 44.7833 183.164 45.0937C183.374 45.4042 183.519 45.7535 183.592 46.121C183.665 46.4886 183.664 46.867 183.589 47.2341C183.514 47.6012 183.366 47.9496 183.155 48.2588C182.943 48.568 182.672 48.8318 182.357 49.0347C182.042 49.2376 181.69 49.3755 181.321 49.4403Z" fill="black"/>
<path opacity="0.25" d="M170.643 59.5366C169.176 59.0287 165.842 54.8967 165.842 54.8967C165.842 54.8967 171.012 53.7123 172.483 54.2202C172.837 54.3375 173.163 54.5239 173.444 54.7685C173.725 55.0132 173.954 55.3112 174.119 55.6453C174.284 55.9794 174.381 56.343 174.404 56.7148C174.427 57.0867 174.376 57.4595 174.254 57.8115C174.133 58.1636 173.942 58.4879 173.694 58.7657C173.446 59.0434 173.145 59.2691 172.809 59.4296C172.473 59.5901 172.109 59.6822 171.737 59.7006C171.365 59.7189 170.993 59.6632 170.643 59.5366Z" fill="black"/>
<path opacity="0.25" d="M160.831 65.3552C159.299 65.1022 155.323 61.5854 155.323 61.5854C155.323 61.5854 160.224 59.5424 161.754 59.7954C162.49 59.9166 163.149 60.3256 163.584 60.9325C164.019 61.5394 164.195 62.2944 164.074 63.0314C163.953 63.7684 163.544 64.4271 162.938 64.8626C162.331 65.298 161.577 65.4745 160.841 65.3533L160.831 65.3552Z" fill="black"/>
<path opacity="0.25" d="M170.509 43.8307C170.507 45.385 173.324 49.8946 173.324 49.8946C173.324 49.8946 176.137 45.3908 176.137 43.8384C176.147 43.4629 176.082 43.0892 175.945 42.7394C175.808 42.3896 175.602 42.0708 175.34 41.8017C175.079 41.5326 174.765 41.3188 174.42 41.1728C174.074 41.0268 173.702 40.9515 173.327 40.9515C172.951 40.9515 172.58 41.0268 172.234 41.1728C171.888 41.3188 171.575 41.5326 171.313 41.8017C171.051 42.0708 170.846 42.3896 170.709 42.7394C170.572 43.0892 170.507 43.4629 170.516 43.8384L170.509 43.8307Z" fill="black"/>
<path opacity="0.25" d="M159.128 50.78C159.591 52.2634 163.62 55.7227 163.62 55.7227C163.62 55.7227 164.961 50.5826 164.494 49.0992C164.251 48.4119 163.752 47.8456 163.101 47.5194C162.45 47.1933 161.697 47.1327 161.002 47.3505C160.307 47.5684 159.724 48.0476 159.375 48.6873C159.026 49.327 158.939 50.0772 159.132 50.78H159.128Z" fill="black"/>
<path opacity="0.25" d="M149.003 59.0537C149.209 60.5869 152.595 64.6825 152.595 64.6825C152.595 64.6825 154.78 59.8433 154.573 58.3043C154.532 57.9314 154.417 57.5705 154.235 57.2428C154.052 56.9151 153.806 56.6273 153.511 56.3962C153.216 56.1651 152.877 55.9954 152.516 55.8971C152.154 55.7988 151.776 55.7739 151.405 55.8239C151.033 55.8739 150.675 55.9977 150.352 56.1881C150.029 56.3785 149.748 56.6316 149.524 56.9325C149.3 57.2334 149.139 57.5761 149.049 57.9404C148.96 58.3047 148.944 58.6832 149.003 59.0537Z" fill="black"/>
<path d="M149.087 69.8034C149.087 69.8034 150.362 56.6484 157.957 49.6532C161.161 46.7378 163.334 42.8619 164.151 38.6064C164.522 36.5833 164.708 34.5304 164.704 32.4735" stroke="#535461" stroke-width="2" stroke-miterlimit="10"/>
<path d="M169.465 28.0348C168.89 29.476 164.593 32.6038 164.593 32.6038C164.593 32.6038 163.67 27.3736 164.25 25.9324C164.53 25.2403 165.072 24.6877 165.759 24.396C166.445 24.1043 167.219 24.0975 167.911 24.3771C168.602 24.6567 169.155 25.1997 169.446 25.8867C169.737 26.5737 169.744 27.3485 169.465 28.0405V28.0348Z" fill="#28DF99"/>
<path d="M170.559 37.7553C169.289 38.6484 163.99 38.9416 163.99 38.9416C163.99 38.9416 166.055 34.0469 167.324 33.1538C167.625 32.9282 167.969 32.7655 168.334 32.6751C168.699 32.5847 169.078 32.5686 169.45 32.6276C169.821 32.6867 170.177 32.8197 170.496 33.0189C170.815 33.218 171.091 33.4792 171.308 33.787C171.524 34.0948 171.677 34.443 171.756 34.8109C171.836 35.1787 171.841 35.5588 171.771 35.9287C171.701 36.2985 171.558 36.6506 171.35 36.964C171.142 37.2774 170.873 37.5459 170.559 37.7534V37.7553Z" fill="#28DF99"/>
<path d="M164.879 51.3206C163.332 51.4509 158.609 49.0207 158.609 49.0207C158.609 49.0207 162.861 45.8393 164.408 45.709C165.151 45.6465 165.889 45.8819 166.458 46.3635C167.028 46.8452 167.383 47.5335 167.445 48.2771C167.508 49.0208 167.273 49.7588 166.791 50.3288C166.31 50.8988 165.622 51.2542 164.879 51.3167V51.3206Z" fill="#28DF99"/>
<path d="M158.27 60.6136C156.767 60.9969 151.703 59.412 151.703 59.412C151.703 59.412 155.355 55.5578 156.858 55.1669C157.58 54.9796 158.347 55.0869 158.989 55.4651C159.632 55.8434 160.098 56.4617 160.285 57.184C160.473 57.9063 160.365 58.6734 159.987 59.3166C159.609 59.9598 158.992 60.4263 158.27 60.6136Z" fill="#28DF99"/>
<path d="M158.404 37.0117C159.032 38.4319 163.425 41.4197 163.425 41.4197C163.425 41.4197 164.172 36.1608 163.544 34.7407C163.231 34.0762 162.67 33.5607 161.983 33.3041C161.295 33.0476 160.534 33.0704 159.863 33.3677C159.192 33.665 158.663 34.2132 158.391 34.8952C158.118 35.5772 158.123 36.3389 158.404 37.0175V37.0117Z" fill="#28DF99"/>
<path d="M150.812 47.978C151.836 49.1452 156.919 50.6745 156.919 50.6745C156.919 50.6745 156.061 45.4329 155.037 44.2657C154.795 43.9822 154.499 43.7496 154.167 43.5814C153.834 43.4132 153.472 43.3128 153.1 43.2861C152.728 43.2593 152.355 43.3067 152.002 43.4255C151.649 43.5443 151.323 43.7322 151.043 43.9781C150.763 44.2241 150.535 44.5233 150.372 44.8583C150.208 45.1933 150.113 45.5575 150.092 45.9296C150.07 46.3018 150.123 46.6745 150.246 47.0262C150.37 47.3778 150.562 47.7014 150.812 47.978Z" fill="#28DF99"/>
<path d="M144.897 59.6535C145.709 60.9759 150.46 63.3428 150.46 63.3428C150.46 63.3428 150.5 58.0321 149.694 56.7078C149.293 56.0963 148.669 55.6654 147.956 55.5063C147.242 55.3472 146.495 55.4725 145.872 55.8557C145.249 56.2389 144.8 56.8497 144.62 57.5587C144.44 58.2677 144.543 59.0191 144.907 59.6535H144.897Z" fill="#28DF99"/>
<path d="M139.32 18.2855C139.638 17.1183 140.021 15.9454 140.289 14.7629C139.968 15.9454 139.583 17.1222 139.32 18.2855Z" fill="url(#paint0_linear)"/>
<path d="M137.895 29.5278C137.868 29.4818 137.849 29.4358 137.828 29.3936C137.828 29.3744 137.809 29.3591 137.801 29.3399C137.76 29.3596 137.717 29.3769 137.673 29.3917C137.589 29.4243 137.503 29.4549 137.414 29.4798C137.326 29.5048 137.29 29.5182 137.223 29.5335C137.167 29.5527 137.11 29.5674 137.052 29.5776L137.068 29.6121C137.139 29.5967 137.208 29.5833 137.278 29.5642L137.298 29.8018C137.378 29.8018 137.453 29.7903 137.526 29.7903C137.56 29.7884 137.594 29.7884 137.629 29.7903C137.778 29.7903 137.909 29.7903 138.012 29.7903C137.972 29.7041 137.93 29.614 137.895 29.5278ZM176.771 91.4561C175.871 90.243 174.074 77.2222 174.074 77.2222C174.074 77.2222 170.541 67.9635 171.504 64.2684C172.468 60.5734 168.873 51.1192 168.873 51.1192C168.873 51.1192 166.498 50.0862 166.37 48.553C166.37 48.553 156.674 45.4866 156.22 43.1868C155.853 41.3009 149.839 39.9478 147.679 39.5205C147.02 36.8603 146.358 34.3785 145.869 33.0235C145.737 32.6018 145.613 32.2377 145.498 31.9502C144.673 29.8421 142.122 29.6504 140.272 29.8191C140.192 29.4598 140.043 29.1194 139.833 28.8167C139.803 28.7127 139.742 28.62 139.659 28.5503C139.619 28.5165 139.577 28.4857 139.532 28.4583C139.499 28.3962 139.455 28.3404 139.402 28.2935C139.35 28.2461 139.292 28.205 139.23 28.1709C139.185 28.1468 139.139 28.1256 139.092 28.1076C138.981 28.0653 138.866 28.0339 138.749 28.0137C138.613 27.9856 138.475 27.9677 138.336 27.96C138.674 27.8121 138.975 27.5916 139.218 27.3142C139.384 27.1194 139.507 26.8923 139.58 26.6472C139.641 26.4434 139.668 26.2311 139.661 26.0186C139.611 26.1062 139.553 26.189 139.488 26.2658C139.569 25.4168 139.121 24.5544 138.864 23.7092C138.553 22.6089 138.496 21.4524 138.696 20.3266C138.952 18.6285 139.588 16.9113 140.019 15.1826C140.02 15.1731 140.02 15.1634 140.019 15.1539C140.245 14.2954 140.385 13.4164 140.436 12.5302C140.511 10.7421 140.053 8.95778 139.318 7.32874C138.665 5.8856 137.702 4.46546 136.227 3.87901C135.132 3.43629 133.904 3.50721 132.724 3.43438C130.078 3.26956 127.554 2.33813 125.037 1.49103C122.521 0.643931 119.932 -0.126509 117.283 0.0210624C114.635 0.168634 111.91 1.44695 110.701 3.79277C110.318 4.52488 110.098 5.3394 109.64 6.02742C108.782 7.32491 107.247 7.97461 105.965 8.86962C104.684 9.76463 103.556 11.0353 103.093 12.5512C102.84 13.368 102.804 14.2367 102.989 15.0715C103.031 15.26 103.085 15.4456 103.15 15.6273C103.332 16.1336 103.616 16.5974 103.983 16.9899C104.261 17.28 104.579 17.5273 104.929 17.7239C105.369 17.9676 105.839 18.1507 106.327 18.2682C106.31 18.3257 106.293 18.387 106.274 18.4465C106.243 18.5442 106.216 18.6381 106.188 18.7435C106.124 18.9792 106.065 19.2188 106.015 19.4603C106.013 19.4775 106.013 19.4948 106.015 19.512C105.78 20.6021 105.662 21.7143 105.663 22.8295C105.662 23.357 105.689 23.8841 105.743 24.4087C106.509 32.186 112.925 38.3207 120.851 38.7194C121.123 38.7328 121.397 38.7404 121.675 38.7404C121.801 38.7404 121.925 38.7404 122.058 38.7404C122.182 38.9053 122.305 39.0739 122.421 39.2387C122.538 39.4036 122.646 39.5722 122.747 39.737L122.469 39.4496L122.192 39.1947C122.116 39.2981 122.032 39.3949 121.941 39.4841C121.76 39.4203 121.575 39.3678 121.387 39.3269C120.593 39.1506 119.382 39.0854 117.789 39.5665C116.324 40.0053 114.533 40.908 112.438 42.6233L102.229 48.7562L96.7061 52.1177L94.7164 56.9857C94.7164 56.9857 93.2207 62.7697 91.5565 69.397C91.4914 69.4162 91.4282 69.4354 91.365 69.4584C91.2302 69.443 91.0947 69.4353 90.959 69.4354C89.9935 69.4331 89.0646 69.8054 88.3675 70.4741C87.6705 71.1427 87.2595 72.0557 87.2208 73.0212C83.9116 77.0459 83.7239 81.0705 84.5014 82.9181C84.5718 83.0912 84.6604 83.2563 84.7657 83.4106C85.2751 84.1466 86.2269 86.0439 87.1921 88.0658C87.1672 88.2326 87.1519 88.3725 87.1442 88.4779C87.1425 88.5124 87.1425 88.5469 87.1442 88.5814C87.1442 88.5814 87.7187 97.2651 85.8037 99.7547C85.3843 100.297 85.4475 101.01 85.8037 101.8C87.0868 104.64 92.1597 108.433 92.1597 108.433C92.1597 108.433 98.2439 108.4 101.634 108.03C101.624 108.371 101.616 108.711 101.609 109.042C101.532 112.392 101.532 115.2 101.532 115.2L101.406 118.713C101.406 118.713 100.257 126.116 99.6821 128.157C99.3201 129.438 99.7376 141.291 100.101 150.006H160.047C160.751 144.85 159.757 129.187 159.757 129.187C159.757 129.187 158.813 125.137 158.779 121.607C158.777 121.603 158.776 121.599 158.776 121.594C158.776 121.59 158.777 121.586 158.779 121.582C158.779 121.273 158.779 120.972 158.79 120.677L159.225 120.662L160.006 120.635H160.077C160.077 120.635 160.096 120.562 160.14 120.443C160.244 120.147 160.385 119.866 160.56 119.606C160.893 119.113 161.414 118.63 162.197 118.598C162.63 118.581 163.3 118.23 164.057 117.712C164.062 117.714 164.067 117.714 164.072 117.712C166.108 116.334 168.798 113.791 169.451 113.373C170.35 112.798 174.651 108.965 174.651 108.965C174.651 108.965 175.292 108.153 175.976 107.173L176.001 107.139C176.851 105.912 177.755 104.446 177.533 103.984C177.15 103.156 177.79 101.177 177.79 101.177C179.787 97.5181 177.671 92.6693 176.771 91.4561ZM139.739 32.5079C139.758 32.5652 139.769 32.6243 139.774 32.6843C139.726 32.621 139.678 32.5539 139.63 32.4926L139.584 32.4313L139.552 32.3853L139.624 32.2856C139.624 32.2856 139.624 32.2856 139.624 32.299C139.675 32.3612 139.714 32.4319 139.739 32.5079ZM139.096 30.8099C138.887 30.8521 138.722 30.8904 138.615 30.9191C138.479 30.6777 138.349 30.4362 138.232 30.1909C138.539 30.3691 138.828 30.5764 139.096 30.8099ZM138.736 31.1127C138.735 31.1089 138.735 31.105 138.736 31.1012L138.751 31.1127C138.83 31.1645 138.906 31.2143 138.977 31.266C139.04 31.312 139.098 31.3561 139.155 31.4021C139.117 31.4692 139.075 31.5382 139.033 31.5938C138.966 31.4883 138.902 31.3868 138.841 31.2814C138.803 31.2392 138.768 31.1817 138.736 31.1127ZM137.587 28.7477C137.957 28.7112 138.329 28.7112 138.699 28.7477C138.751 28.7477 138.797 28.7573 138.843 28.765C138.947 28.781 139.049 28.8074 139.148 28.8436C139.374 29.1604 139.513 29.5311 139.552 29.9187L139.448 29.9341L139.347 29.9532C139.155 29.9858 138.964 30.0184 138.814 30.049L138.623 30.0893C138.368 30.1449 138.221 30.187 138.215 30.1889C138.19 30.1372 138.165 30.0893 138.138 30.0395C138.096 29.957 138.052 29.8727 138.014 29.7903C137.976 29.7079 137.926 29.614 137.886 29.5278C137.859 29.4818 137.84 29.4358 137.819 29.3936C137.819 29.3744 137.799 29.3591 137.792 29.3399C137.781 29.3196 137.771 29.2985 137.763 29.2767C137.646 29.039 137.539 28.8014 137.436 28.5676C137.424 28.5446 137.414 28.5197 137.405 28.4967L137.55 28.4871V28.5369L137.587 28.7477ZM91.8955 147.637C91.8801 144.783 91.6733 141.696 91.0988 138.798C90.8537 137.566 90.6009 136.333 90.3443 135.122C90.2792 134.819 90.216 134.52 90.1528 134.221L89.5629 134.3H89.5093C87.9007 126.709 86.2192 120.02 86.2192 120.02C86.2192 120.02 82.8794 107.258 83.2662 106.24C83.316 106.108 83.2528 105.751 83.1111 105.228C82.303 102.327 78.9286 94.3309 77.749 91.598C77.749 91.5865 77.7394 91.5731 77.7355 91.5635C77.544 91.1054 77.4062 90.7969 77.364 90.7068L77.6417 86.6284L77.657 86.3831L77.6934 85.8618L77.6781 85.8484L77.6934 85.6069C77.6934 85.6069 74.7787 83.2151 69.8417 81.4883C69.6502 81.4193 69.4472 81.3523 69.2461 81.2871C69.4931 79.637 69.8206 77.7741 70.2477 75.9592C70.2879 75.7771 70.3319 75.6008 70.3779 75.4226C70.4181 75.2443 70.4641 75.0718 70.51 74.8974C70.5828 74.6138 70.6613 74.334 70.7418 74.058C71.008 73.9737 71.2703 73.8798 71.5289 73.7801L71.6284 73.7418C74.8133 72.5015 77.4413 70.1484 79.0258 67.118C80.6102 64.0877 81.0438 60.5854 80.2462 57.2597C79.7914 55.3736 78.9516 53.602 77.7796 52.0564C77.6915 51.9376 77.5977 51.8188 77.5038 51.7018C77.41 51.5849 77.297 51.4546 77.1917 51.3358C77.7451 50.0766 78.3982 48.8788 78.4518 47.6542C78.4613 47.4991 78.4613 47.3435 78.4518 47.1884V47.1693C78.3809 46.3816 78.0324 45.5843 77.2204 44.7468C76.035 43.5183 74.3478 42.8955 72.6606 42.5965C70.9735 42.2975 69.2538 42.2898 67.557 42.0886C64.7438 41.7513 62.0034 40.8831 59.1901 40.6167C55.725 40.2956 52.2363 40.8904 49.0729 42.3416C46.9797 43.2998 44.8598 44.9749 44.7334 47.2728C44.63 49.172 45.9514 50.9927 45.6181 52.869C45.2868 54.7127 43.4101 56.1635 43.5748 58.0283C43.638 58.7565 44.0114 59.4082 44.4787 59.9889C44.6396 60.1805 44.81 60.3722 44.9862 60.5638C45.6679 61.2863 46.4186 61.9801 46.7997 62.8905C46.8151 62.9288 46.8304 62.9671 46.8438 63.0055C47.1674 63.9043 47.0219 65.0408 46.2214 65.5563C46.2258 65.5598 46.2291 65.5644 46.231 65.5698C46.2425 65.5851 46.2539 65.5966 46.2635 65.6119C46.2647 65.6088 46.2647 65.6054 46.2635 65.6023C46.5473 65.9391 46.9299 66.1778 47.357 66.2846L47.5198 66.3344C47.3877 66.4782 47.2632 66.6277 47.1368 66.7848L47.0544 66.8941C46.8434 67.178 46.6515 67.4758 46.4799 67.7853C46.3822 67.9577 46.2884 68.1302 46.2099 68.3027C45.9474 68.8285 45.7573 69.3874 45.645 69.9643C45.44 71.2331 45.7292 72.5555 45.419 73.7974C45.036 75.3306 43.8237 76.5073 43.1401 77.9313C41.8455 80.6144 42.579 83.7632 42.8394 86.7262C43.1937 90.7509 42.6192 94.7928 42.0466 98.7907C41.7427 100.917 41.4389 103.045 41.135 105.175C40.369 110.52 39.603 115.866 38.8369 121.212C38.5573 123.171 38.226 125.237 36.9219 126.749H36.9353C36.9353 126.749 36.9353 126.76 36.9219 126.764C37.3134 126.935 37.7297 127.043 38.1552 127.082C39.8577 127.253 41.6616 126.429 43.1937 125.528C44.407 124.826 45.556 124.019 46.6274 123.115C46.4703 123.69 46.3018 124.317 46.1218 124.991C46.1224 124.998 46.1224 125.004 46.1218 125.011C43.9597 133.252 40.482 148.359 40.482 148.359C40.482 148.359 40.166 149.017 39.7562 149.996H93.7607C93.1288 149.23 92.5409 148.496 92.0812 147.903L91.8955 147.637ZM51.9091 71.4362C51.9225 71.4132 51.9321 71.3921 51.9455 71.3711C51.9455 71.4324 51.9455 71.4918 51.9455 71.5493C51.9455 71.6068 51.9455 71.6585 51.9455 71.7122C51.9455 71.7659 51.9455 71.7601 51.9455 71.7869C51.9455 71.8138 51.9455 71.7869 51.9455 71.7869C51.9455 71.8655 51.9283 71.9441 51.9148 72.0227C51.9148 72.0227 51.9148 72.0322 51.9148 72.0399L52.1064 72.1108L52.3285 72.2028C53.641 72.7216 54.97 73.1911 56.3156 73.6115C56.4535 73.6555 56.5933 73.6977 56.7331 73.738L56.7619 73.9756C56.7963 74.219 56.8289 74.4662 56.8595 74.7135C56.8595 74.7135 56.8595 74.725 56.8595 74.7326C56.9457 75.4168 57.03 76.0991 57.1047 76.766C57.1047 76.766 53.5886 75.4245 53.6327 77.4617C53.6306 77.4981 53.6306 77.5346 53.6327 77.571C53.6288 77.6195 53.6288 77.6682 53.6327 77.7166C53.6652 79.3035 54.1612 80.2445 54.2608 80.7275C54.2548 80.7475 54.2443 80.7659 54.2301 80.7812C54.1452 80.9662 54.1159 81.172 54.1459 81.3734C54.1425 81.7162 54.1695 82.0587 54.2263 82.3968C54.1229 82.46 54.0214 82.5233 53.9199 82.5884C53.8433 82.6363 53.7705 82.69 53.6958 82.7437C53.2261 81.1128 52.6114 79.5273 51.8593 78.006C51.3327 76.9213 50.7409 75.7905 50.7467 74.6004C50.7467 74.5237 50.7467 74.4451 50.7562 74.3666C50.7776 74.0216 50.8432 73.6809 50.9516 73.3527C50.9956 73.2282 51.0435 73.1055 51.0971 72.9848C51.2223 72.6979 51.3623 72.4177 51.5165 72.1453C51.6161 71.9652 51.7214 71.7869 51.8229 71.6068C51.8555 71.5531 51.8861 71.4975 51.9168 71.4439L51.9091 71.4362ZM137.895 29.5278C137.868 29.4818 137.849 29.4358 137.828 29.3936C137.828 29.3744 137.809 29.3591 137.801 29.3399C137.76 29.3596 137.717 29.3769 137.673 29.3917C137.589 29.4243 137.503 29.4549 137.414 29.4798C137.326 29.5048 137.29 29.5182 137.223 29.5335L137.052 29.5776L137.068 29.6121C137.139 29.5967 137.208 29.5833 137.278 29.5642L137.298 29.8018C137.378 29.8018 137.453 29.7903 137.526 29.7903H137.629C137.778 29.7903 137.909 29.7903 138.012 29.7903C137.972 29.7041 137.93 29.614 137.895 29.5278Z" fill="url(#paint1_linear)"/>
<path d="M96.0519 57.6776L94.9029 58.1855C94.9029 58.1855 87.4131 87.3051 87.4131 89.6586C87.4131 92.012 103.295 105.108 103.295 105.108L105.773 88.3687C105.773 88.3687 102.215 49.9828 96.0519 57.6776Z" fill="#E8F5FF"/>
<path d="M130.888 48.415L124.253 44.95C123.881 43.3643 123.221 41.8605 122.307 40.5132C121.336 39.1103 120.045 37.7324 118.437 37.0137C114.371 35.1891 135.634 25.6123 135.634 25.6123C135.969 26.7628 136.363 27.895 136.815 29.0045C137.911 31.7107 139.728 35.2102 142.07 36.2068C146.052 37.9029 130.888 48.415 130.888 48.415Z" fill="#FFC1C7"/>
<path opacity="0.1" d="M136.815 29.0045C135.907 32.2022 134.018 35.0335 131.414 37.0986C128.811 39.1636 125.625 40.358 122.307 40.5132C121.336 39.1103 120.045 37.7324 118.437 37.0137C114.371 35.1891 135.634 25.6123 135.634 25.6123C135.969 26.7628 136.363 27.895 136.815 29.0045Z" fill="black"/>
<path d="M137.413 24.1692C137.414 27.3053 136.485 30.3712 134.745 32.9792C133.004 35.5871 130.53 37.6199 127.635 38.8205C124.74 40.0211 121.554 40.3355 118.481 39.724C115.407 39.1125 112.584 37.6026 110.368 35.3851C108.152 33.1677 106.642 30.3423 106.031 27.2665C105.42 24.1906 105.733 21.0024 106.933 18.105C108.132 15.2076 110.163 12.7313 112.769 10.9891C115.375 9.24697 118.438 8.31729 121.572 8.31767C123.655 8.30803 125.719 8.71145 127.645 9.50462C129.571 10.2978 131.321 11.465 132.794 12.9389C134.267 14.4127 135.433 16.164 136.226 18.0915C137.019 20.0191 137.422 22.0847 137.413 24.1692Z" fill="#FFC1C7"/>
<path d="M139.699 46.3796L135.379 56.4682L131.568 63.1645H119.369L115.811 54.0093L117.253 44.5149H126.569L132.585 44.1756L134.616 43.4972L135.926 44.2408L139.699 46.3796Z" fill="#575A89"/>
<path opacity="0.1" d="M138.211 32.9315C138.211 32.9315 140.906 33.5065 138.493 35.4862C136.08 37.466 127.755 43.7617 127.755 43.7617C127.755 43.7617 130.679 46.3682 130.074 49.4212L139.762 44.0166L141.486 35.3693C141.486 35.3693 141.679 32.7705 138.211 32.9315Z" fill="black"/>
<path opacity="0.1" d="M129.66 43.7617L123.498 44.7794C123.498 44.7794 124.769 49.4844 124.134 50.8202C124.114 50.8618 124.098 50.9047 124.086 50.9487L121.571 57.7504L123.456 63.0917L129.978 54.1895L127.755 50.8202C127.755 50.8202 130.105 47.704 131.503 46.6231C132.901 45.5422 129.66 43.7617 129.66 43.7617Z" fill="black"/>
<path d="M129.66 43.4991L123.498 44.5149C123.498 44.5149 124.769 49.2199 124.134 50.5558C124.114 50.5973 124.098 50.6402 124.086 50.6842L121.571 57.4859L123.456 62.8272L129.978 53.9192L127.755 50.55C127.755 50.55 130.105 47.4337 131.503 46.3528C132.901 45.2719 129.66 43.4991 129.66 43.4991Z" fill="#DCE6F2"/>
<path d="M138.47 32.4236C138.47 32.4236 141.164 32.9985 138.749 34.9783C136.334 36.958 127.755 43.7617 127.755 43.7617C127.755 43.7617 130.932 45.8603 130.329 48.9114L140.017 43.5087L141.741 34.8614C141.741 34.8614 141.932 32.2626 138.47 32.4236Z" fill="#575A89"/>
<path opacity="0.1" d="M122.73 41.113C122.73 41.113 123.318 42.2131 125.913 44.1967C125.913 44.1967 121.592 46.4965 123.245 49.7297L116.636 48.0048L115.619 44.8253L122.73 41.113Z" fill="black"/>
<path d="M122.476 40.8601C122.476 40.8601 123.064 41.9602 125.659 43.9438C125.659 43.9438 121.338 46.2321 122.991 49.4749L116.384 47.75L115.367 44.5724L122.476 40.8601Z" fill="#575A89"/>
<path opacity="0.1" d="M139.699 46.3797L135.379 56.4682L131.575 63.1645H119.369L115.811 54.0093L117.251 44.5149H119.842C119.8 46.7304 120.608 49.333 120.556 50.3009C120.468 51.8916 122.927 60.4737 122.927 60.4737C122.927 60.4737 128.073 52.1446 130.105 51.4029C131.382 50.9372 134.088 47.062 135.924 44.2408L139.699 46.3797Z" fill="black"/>
<path d="M156.719 99.4691L156.28 100.021C156.28 100.021 159.457 115.98 158.578 119.604C158.429 120.257 158.343 120.924 158.324 121.593V121.622C158.168 125.31 159.281 130.095 159.281 130.095C159.281 130.095 160.17 144.201 159.664 150.002H100.179C99.83 141.424 99.4547 130.31 99.7956 129.077C100.37 127.044 101.519 119.667 101.519 119.667L101.646 116.172C101.646 116.172 101.646 112.793 101.749 109.029C101.793 107.336 101.858 105.56 101.952 103.984C102.073 102.003 102.241 100.333 102.473 99.5132C102.616 98.8915 102.698 98.2573 102.718 97.6197C102.718 97.5603 102.718 97.499 102.729 97.4376C102.729 97.246 102.749 97.039 102.756 96.8263C102.756 96.7669 102.756 96.7074 102.756 96.6346C102.793 95.4004 102.779 93.9362 102.739 92.4183C102.739 92.3359 102.739 92.2515 102.739 92.1672C102.706 91.0288 102.659 89.8674 102.605 88.7635C102.438 85.3138 102.222 82.3968 102.222 82.3968L94.916 58.1721L96.8847 53.3194L102.348 49.9694L112.45 43.8653C117.378 39.8118 120.622 40.2986 121.859 40.7433C121.979 40.7843 122.097 40.8323 122.211 40.887C122.25 40.9062 122.28 40.9215 122.309 40.9387C122.348 40.9574 122.386 40.9792 122.422 41.0039C122.083 41.167 121.789 41.4096 121.564 41.7111C121.311 42.0542 121.13 42.4455 121.034 42.861C120.969 43.1186 120.923 43.3806 120.898 43.6449C120.873 43.9228 120.863 44.2102 120.863 44.4996C120.877 45.1343 120.931 45.7674 121.026 46.3951C121.026 46.4066 121.026 46.4219 121.026 46.4372C121.089 46.8857 121.168 47.3246 121.244 47.7366C121.243 47.7436 121.243 47.7507 121.244 47.7577C121.332 48.2388 121.42 48.6834 121.48 49.0667C121.491 49.1357 121.501 49.1989 121.51 49.2583C121.553 49.5116 121.572 49.7682 121.57 50.0249C121.591 50.645 121.675 51.2613 121.819 51.8648C121.869 52.1178 121.926 52.388 121.989 52.6697C122.075 53.053 122.169 53.4708 122.271 53.8963C122.326 54.1301 122.386 54.3716 122.447 54.6112C122.47 54.707 122.495 54.8028 122.518 54.9006L122.556 55.052C122.964 56.6753 123.406 58.2909 123.678 59.2683C123.839 59.8433 123.941 60.1978 123.941 60.1978C123.941 60.1978 126.825 55.5311 129.127 52.8748C129.161 52.8365 129.192 52.8001 129.224 52.7656C129.452 52.503 129.676 52.2634 129.891 52.0526C130.36 51.585 130.781 51.2515 131.12 51.1289C131.192 51.1023 131.262 51.0696 131.329 51.0311C132.271 50.4964 133.792 48.555 135.215 46.5216C135.354 46.3299 135.49 46.121 135.628 45.9236C135.944 45.4675 136.251 45.0094 136.54 44.5705C136.762 44.2352 136.974 43.9093 137.176 43.5989C138.133 42.1078 138.807 40.9962 138.807 40.9962L140.136 40.9368L140.368 40.9253H140.523L146.557 40.6455C146.557 40.6455 146.818 40.6896 147.247 40.7758C147.27 40.7758 147.293 40.7758 147.318 40.7912C149.459 41.2166 155.407 42.5639 155.771 44.4326C156.215 46.7209 165.809 49.7739 165.809 49.7739C165.936 51.3071 168.286 52.3171 168.286 52.3171C168.286 52.3171 171.844 61.7272 170.892 65.4146C169.952 69.056 173.339 78.0636 173.429 78.3166L172.78 79.1368L156.719 99.4691Z" fill="#E8F5FF"/>
<path opacity="0.1" d="M138.21 32.2627C138.21 32.2627 144.083 30.5953 145.418 34.0278C146.753 37.4603 149.738 51.3224 149.738 51.3224C149.738 51.3224 141.986 52.7847 139.954 51.3224C138.763 50.4546 137.287 50.0686 135.824 50.2415L131.44 53.2294L130.146 52.8461C130.146 52.8461 137.158 42.4125 138.683 38.867C140.207 35.3214 140.722 33.7365 138.21 32.2627Z" fill="black"/>
<path d="M137.955 31.4961C137.955 31.4961 143.832 29.8287 145.173 33.2612C146.513 36.6937 149.493 50.5558 149.493 50.5558C149.493 50.5558 141.743 52.0181 139.709 50.5558C138.518 49.6879 137.044 49.3019 135.58 49.4749L131.193 52.4628L129.898 52.0795C129.898 52.0795 136.911 41.6459 138.436 38.1004C139.96 34.5548 140.468 32.9737 137.955 31.4961Z" fill="#E8F5FF"/>
<path opacity="0.1" d="M98.5295 86.7971C98.5295 86.7971 102.913 87.878 103.74 90.358C104.568 92.838 100.5 92.9012 100.5 92.9012C100.5 92.9012 98.022 88.5143 98.5295 86.7971Z" fill="black"/>
<path opacity="0.1" d="M114.858 105.107C114.858 105.107 104.122 127.107 106.6 129.206C109.078 131.304 114.858 105.107 114.858 105.107Z" fill="black"/>
<path opacity="0.1" d="M129.661 88.8956C129.661 88.8956 138.239 110.265 136.523 113.565C134.807 116.865 140.207 113.565 140.207 113.565L129.661 88.8956Z" fill="black"/>
<path d="M141.605 110.004C141.605 110.004 112.634 111.403 121.085 120.432C129.536 129.461 146.879 120.815 146.879 120.815L141.605 110.004Z" fill="#FFC1C7"/>
<path opacity="0.1" d="M137.413 24.1691C137.416 26.2486 137.007 28.3081 136.212 30.2292C135.946 30.2598 135.68 30.279 135.423 30.2905C135.04 29.4491 135.245 28.4775 135.253 27.5518C135.26 26.6261 134.92 25.5375 134.029 25.2884C132.254 24.7882 131.028 28.1095 129.278 27.5096C127.937 27.0535 128.288 25.0182 127.516 23.8433C126.905 22.9138 125.681 22.6513 124.729 22.0686C122.705 20.8248 122.767 18.8355 121.826 16.9534C120.842 14.9813 118.762 15.564 116.956 16.7273C115.585 17.6127 114.402 18.7991 112.935 19.5043C111.665 20.1176 110.238 20.3399 108.831 20.3725C107.964 20.4061 107.097 20.3145 106.257 20.1004C107.245 16.3812 109.552 13.1487 112.746 11.0059C115.941 8.863 119.805 7.95601 123.618 8.45403C127.431 8.95205 130.933 10.8211 133.471 13.7126C136.009 16.6041 137.409 20.3206 137.411 24.1691H137.413Z" fill="black"/>
<path d="M116.962 16.2195C115.589 17.1049 114.407 18.2893 112.94 18.9984C111.671 19.6098 110.244 19.8321 108.836 19.8647C107.113 19.903 105.257 19.6002 104.079 18.3545C102.997 17.2046 102.739 15.4356 103.196 13.9273C103.654 12.419 104.751 11.1676 106.04 10.2611C107.329 9.35454 108.825 8.72784 109.679 7.43036C110.131 6.74424 110.349 5.93547 110.725 5.20528C111.925 2.86905 114.626 1.60414 117.236 1.44699C119.846 1.28984 122.433 2.06794 124.919 2.91121C127.405 3.75448 129.91 4.68207 132.533 4.85647C133.701 4.9293 134.916 4.85647 135.999 5.29919C137.457 5.89139 138.412 7.3077 139.064 8.74892C139.793 10.3741 140.247 12.1488 140.17 13.9235C140.01 17.7125 137.509 21.4305 138.608 25.0604C138.899 26.0282 139.445 27.021 139.154 27.9888C138.728 29.4013 136.907 29.7233 135.435 29.7904C135.051 28.949 135.256 27.9754 135.264 27.0517C135.272 26.1279 134.931 25.0374 134.042 24.7882C132.265 24.2919 131.039 27.6074 129.293 27.0095C127.962 26.5514 128.307 24.518 127.533 23.3432C126.922 22.4118 125.696 22.1511 124.747 21.5685C122.722 20.3247 122.784 18.3353 121.843 16.4533C120.851 14.4716 118.77 15.0543 116.962 16.2195Z" fill="#99607E"/>
<path d="M88.8698 89.1486L87.4086 89.6584C87.4086 89.6584 87.9831 98.3057 86.0681 100.786C84.153 103.266 92.3571 109.431 92.3571 109.431C92.3571 109.431 103.602 109.368 103.92 108.473C104.238 107.578 103.346 92.4508 103.346 92.4508C103.346 92.4508 97.3095 90.0973 97.8169 86.3467C97.8169 86.3467 95.9747 95.1837 93.2438 94.8023C90.5129 94.421 87.4125 92.1384 88.8698 89.1486Z" fill="#E8F5FF"/>
<path opacity="0.1" d="M93.7437 97.4778C95.8727 97.4778 97.5987 95.8981 97.5987 93.9495C97.5987 92.0008 95.8727 90.4211 93.7437 90.4211C91.6146 90.4211 89.8887 92.0008 89.8887 93.9495C89.8887 95.8981 91.6146 97.4778 93.7437 97.4778Z" fill="black"/>
<path d="M97.9589 89.4035C97.9589 89.4035 97.1929 66.0067 90.5246 71.2196C83.8564 76.4326 83.7913 82.667 85.061 84.5088C86.3307 86.3505 90.4021 95.5709 90.4021 95.5709C91.0389 95.9403 91.7542 96.1534 92.4892 96.1928C93.2242 96.2322 93.9581 96.0968 94.6308 95.7976C95.3034 95.4984 95.8956 95.044 96.359 94.4716C96.8223 93.8992 97.1435 93.2251 97.2963 92.5045L97.9589 89.4035Z" fill="#FFC1C7"/>
<path opacity="0.1" d="M139.556 30.1392C139.525 30.0364 139.466 29.9446 139.384 29.8747C139.055 29.5738 138.346 29.4684 137.277 29.5604L137.322 30.0663C138.746 29.9437 139.028 30.2273 139.064 30.2752V30.3232L139.108 30.3864C139.286 30.6253 139.412 30.8988 139.478 31.1892C139.544 31.4796 139.548 31.7806 139.491 32.0729C139.179 33.6349 137.262 34.8787 137.243 34.8921L137.197 34.919L137.168 34.963C136.341 36.1915 131.663 39.6585 130.439 40.5554L130.332 40.4328C129.784 40.9081 124.969 45.1263 124.709 46.7419C124.54 47.7558 123.399 48.1487 122.985 48.2579C122.549 47.9264 121.132 46.7975 120.394 45.5326C119.703 44.3425 122.486 42.0197 122.731 41.1131L122.348 40.7203C122.307 40.8659 118.734 44.2083 119.728 45.9159C120.525 47.2862 121.98 48.4591 122.489 48.8463C122.327 50.3258 121.314 59.0134 119.757 61.0717C117.822 63.6303 116.197 76.5246 116.377 81.0265C116.536 85.0263 115.492 92.5812 112.006 95.8259C111.403 96.4122 110.675 96.8546 109.877 97.1201C109.079 97.3856 108.231 97.4673 107.397 97.3591H107.355H107.313C107.263 97.3591 102.207 97.8765 97.9595 94.2926C94.4836 91.3661 92.515 86.5902 92.1051 80.0932H92.0209L91.9864 78.2016C92.9288 78.0544 93.7776 77.5473 94.3543 76.787C94.931 76.0267 95.1908 75.0723 95.079 74.1243C94.9673 73.1763 94.4928 72.3085 93.7552 71.7034C93.0175 71.0982 92.0742 70.8026 91.1234 70.8789C90.1727 70.9552 89.2884 71.3972 88.6565 72.1123C88.0246 72.8273 87.6942 73.7596 87.7348 74.7133C87.7753 75.667 88.1837 76.5678 88.874 77.2265C89.5644 77.8852 90.483 78.2505 91.4368 78.2457H91.4789L91.5134 80.1258L91.3449 80.1373C91.7662 86.8451 93.8344 91.8069 97.473 94.8714C100.239 97.1649 103.771 98.3219 107.357 98.1084C107.611 98.1363 107.867 98.1503 108.123 98.1506C109.766 98.1591 111.347 97.5226 112.527 96.3778C116.198 92.9568 117.315 85.124 117.141 80.9882C116.949 76.218 118.655 63.7874 120.368 61.524C122.045 59.3028 123.062 50.6478 123.24 48.9709C123.847 48.8003 125.22 48.2617 125.454 46.8627C125.622 45.8508 128.838 42.7326 130.816 41.0058L130.757 40.9368C131.821 40.1587 135.133 37.7056 136.774 36.1302C137.283 35.6415 137.789 35.1528 138.317 34.6871C138.953 34.1236 139.761 33.2286 139.974 32.1707C140.046 31.8215 140.047 31.4611 139.975 31.1117C139.903 30.7624 139.761 30.4314 139.556 30.1392Z" fill="black"/>
<path d="M122.424 48.7255C122.344 48.6699 120.436 47.3035 119.481 45.6591C118.489 43.9515 122.062 40.611 122.1 40.4653L122.483 40.8582C122.24 41.7628 119.458 44.0876 120.149 45.2758C121.02 46.7764 122.855 48.0892 122.874 48.1027L122.424 48.7255Z" fill="#353146"/>
<path d="M130.189 40.9272L129.891 40.5152C129.952 40.4711 135.967 36.1168 136.915 34.7082L136.946 34.666L136.99 34.6372C137.009 34.6238 138.926 33.3819 139.238 31.818C139.296 31.5261 139.291 31.2252 139.225 30.935C139.159 30.6448 139.033 30.3717 138.855 30.1334L138.811 30.0683V30.0223C138.773 29.9724 138.491 29.6907 137.066 29.8134L137.022 29.3055C138.093 29.2135 138.799 29.3189 139.129 29.6198C139.211 29.6904 139.271 29.7828 139.303 29.8862C139.51 30.1776 139.655 30.5083 139.73 30.8581C139.804 31.2078 139.806 31.5691 139.736 31.9196C139.523 32.9795 138.717 33.8745 138.079 34.436C137.553 34.9017 137.045 35.3943 136.538 35.8791C134.613 37.7247 130.4 40.7758 130.189 40.9272Z" fill="#E8F5FF"/>
<path d="M91.7389 77.5343L91.2314 77.5436L91.288 80.6306L91.7954 80.6213L91.7389 77.5343Z" fill="#E8F5FF"/>
<path d="M91.189 78.0023C93.2356 78.0023 94.8947 76.3419 94.8947 74.2938C94.8947 72.2457 93.2356 70.5853 91.189 70.5853C89.1425 70.5853 87.4834 72.2457 87.4834 74.2938C87.4834 76.3419 89.1425 78.0023 91.189 78.0023Z" fill="#28DF99"/>
<path d="M91.1898 77.3737C92.8894 77.3737 94.2673 75.9948 94.2673 74.2938C94.2673 72.5929 92.8894 71.214 91.1898 71.214C89.4901 71.214 88.1123 72.5929 88.1123 74.2938C88.1123 75.9948 89.4901 77.3737 91.1898 77.3737Z" fill="#E8F5FF"/>
<path d="M107.881 97.9032C107.625 97.9036 107.37 97.8902 107.115 97.863C103.53 98.0743 99.9983 96.9176 97.2317 94.626C93.5931 91.5596 91.5287 86.6035 91.1035 79.8899L91.8695 79.842C92.2794 86.339 94.248 91.1168 97.7258 94.0414C101.973 97.6157 107.027 97.1079 107.077 97.1079H107.119H107.161C107.996 97.2155 108.844 97.1336 109.642 96.8682C110.44 96.6027 111.169 96.1606 111.773 95.5747C115.256 92.33 116.3 84.7751 116.141 80.7753C115.949 76.2696 117.575 63.3753 119.511 60.8186C121.206 58.5782 122.258 48.4801 122.269 48.3785L122.298 48.0911L122.581 48.0412C122.599 48.0412 124.253 47.7269 124.46 46.4889C124.728 44.8752 129.535 40.6569 130.081 40.1797L130.581 40.7546C128.595 42.4795 125.379 45.5996 125.218 46.6134C124.985 48.0163 123.612 48.5529 123.006 48.7216C122.815 50.4005 121.806 59.0535 120.134 61.2748C118.422 63.5382 116.716 75.9687 116.907 80.7389C117.072 84.8748 115.967 92.7095 112.296 96.1285C111.113 97.2762 109.528 97.9135 107.881 97.9032Z" fill="#353146"/>
<g opacity="0.1">
<path opacity="0.1" d="M139.044 19.6386C139.358 18.4772 139.737 17.3081 140.001 16.1313C139.685 17.3138 139.304 18.4772 139.044 19.6386Z" fill="black"/>
<path opacity="0.1" d="M135.84 28.765C135.457 27.9237 135.662 26.9501 135.67 26.0263C135.677 25.1025 135.336 24.0216 134.448 23.7629C132.671 23.2665 131.445 26.584 129.699 25.9841C128.358 25.5261 128.712 23.4927 127.939 22.3178C127.328 21.3864 126.104 21.1258 125.154 20.5431C123.128 19.2993 123.189 17.31 122.251 15.428C121.265 13.454 119.187 14.0366 117.379 15.2018C116.006 16.0872 114.824 17.2736 113.357 17.9808C112.088 18.5921 110.661 18.8145 109.253 18.847C107.539 18.8873 105.674 18.5826 104.496 17.3368C103.589 16.3786 103.261 14.9738 103.449 13.6571C103.416 13.7472 103.388 13.8373 103.359 13.9273C102.899 15.4356 103.167 17.2084 104.242 18.3545C105.419 19.6002 107.285 19.903 108.999 19.8647C110.408 19.8321 111.833 19.6098 113.105 18.9984C114.575 18.2893 115.757 17.1049 117.126 16.2195C118.934 15.0542 121.014 14.4716 121.998 16.4456C122.936 18.3277 122.877 20.317 124.901 21.5608C125.859 22.1358 127.075 22.4041 127.688 23.3355C128.454 24.5142 128.115 26.5438 129.448 27.0018C131.192 27.5998 132.418 24.2842 134.195 24.7806C135.084 25.0297 135.426 26.1221 135.417 27.044C135.407 27.9658 135.208 28.9413 135.587 29.7827C137.06 29.7156 138.881 29.3994 139.308 27.9812C139.367 27.7776 139.394 27.5662 139.389 27.3544C138.766 28.4296 137.165 28.7056 135.84 28.765Z" fill="black"/>
</g>
<path opacity="0.1" d="M170.451 75.988L172.675 78.3415C172.675 78.3415 174.454 91.3105 175.343 92.5237C176.231 93.7368 178.33 98.5626 176.359 102.187C176.359 102.187 175.724 104.159 176.105 104.985C176.486 105.811 173.247 109.945 173.247 109.945C173.247 109.945 168.99 113.759 168.1 114.332C167.209 114.905 162.51 119.481 160.922 119.545C159.335 119.608 158.816 121.58 158.816 121.58L149.857 121.898C149.857 121.898 144.908 121.639 143.832 122.339C143.832 122.339 144.407 114.773 138.878 109.813L145.929 107.269C145.929 107.269 148.599 106.119 149.424 104.918C149.943 104.181 150.68 103.626 151.531 103.329C151.531 103.329 153.499 101.93 153.563 101.167C153.626 100.404 155.97 99.4691 155.97 99.4691L154.643 88.133L155.342 69.3128C155.342 69.3128 157.565 53.5437 162.267 54.4348C166.968 55.326 170.451 75.988 170.451 75.988Z" fill="black"/>
<path d="M171.217 75.988L173.441 78.3415C173.441 78.3415 175.22 91.3105 176.108 92.5237C176.997 93.7368 179.096 98.5626 177.125 102.187C177.125 102.187 176.491 104.159 176.872 104.985C177.253 105.811 174.013 109.945 174.013 109.945C174.013 109.945 169.756 113.759 168.865 114.332C167.975 114.905 163.275 119.481 161.688 119.545C160.1 119.608 159.581 121.58 159.581 121.58L150.623 121.898C150.623 121.898 145.67 121.639 144.598 122.339C144.598 122.339 145.172 114.773 139.644 109.813L146.695 107.269C146.695 107.269 149.364 106.119 150.19 104.918C150.709 104.181 151.446 103.626 152.296 103.329C152.296 103.329 154.265 101.93 154.328 101.167C154.391 100.404 156.735 99.4691 156.735 99.4691L155.408 88.133L156.107 69.3128C156.107 69.3128 158.331 53.5437 163.032 54.4348C167.734 55.326 171.217 75.988 171.217 75.988Z" fill="#E8F5FF"/>
<path opacity="0.1" d="M162.952 94.9998C162.952 94.9998 169.496 93.275 171.212 95.3831C172.928 97.4913 162.952 94.9998 162.952 94.9998Z" fill="black"/>
<path opacity="0.1" d="M161.428 97.8918C163.651 99.45 170.513 99.5132 170.513 99.5132L161.428 97.8918Z" fill="black"/>
<path opacity="0.1" d="M164.795 105.681C164.986 105.744 169.512 110.577 171.411 109.115C173.311 107.653 164.795 105.681 164.795 105.681Z" fill="black"/>
<path opacity="0.1" d="M103.85 65.1156C103.85 65.1156 105.179 74.2727 104.524 78.0023C103.869 81.7318 106.259 86.3525 106.259 86.3525L103.85 65.1156Z" fill="black"/>
<path d="M74.4269 68.8394C72.8949 70.0411 71.7765 72.8852 70.9664 76.011C69.5531 81.4635 69.0916 87.7861 69.0916 87.7861C69.0916 87.7861 56.8926 84.988 57.7812 83.7174C58.3404 82.9182 57.5897 76.8965 56.9635 72.5306C56.5901 69.951 56.2568 67.9483 56.2568 67.9483C56.2568 67.9483 78.6209 65.5315 74.4269 68.8394Z" fill="#FFCCD0"/>
<path opacity="0.1" d="M74.4269 68.5845C72.8949 69.788 71.7765 72.6302 70.9664 75.7561C68.5359 76.4946 65.951 76.5613 63.4857 75.9489C61.0205 75.3365 58.7667 74.0679 56.9635 72.2776C56.5901 69.696 56.2568 67.6933 56.2568 67.6933C56.2568 67.6933 78.6209 65.2785 74.4269 68.5845Z" fill="black"/>
<path d="M80.9839 61.7348C80.9852 65.0683 79.808 68.2947 77.6608 70.843C75.5136 73.3914 72.5348 75.0974 69.2515 75.6591C65.9683 76.2209 62.5923 75.6021 59.7211 73.9123C56.8499 72.2225 54.6686 69.5707 53.5632 66.4261C52.4579 63.2816 52.4998 59.8471 53.6815 56.7305C54.8632 53.6139 57.1085 51.0161 60.0201 49.397C62.9316 47.7778 66.3217 47.2417 69.5903 47.8834C72.8589 48.5252 75.7952 50.3035 77.8796 52.9035C79.8883 55.4081 80.9833 58.5233 80.9839 61.7348Z" fill="#FFCCD0"/>
<path opacity="0.1" d="M92.1065 150.002H88.0848L87.7459 142.894L87.3916 135.536C87.3916 135.536 88.3051 135.4 89.7605 135.197L90.3484 135.118H90.3963C90.7142 136.611 91.0283 138.144 91.3309 139.676C91.8345 142.394 92.0966 145.152 92.1141 147.917C92.1141 148.108 92.1141 148.3 92.1141 148.48C92.1256 148.992 92.1141 149.504 92.1065 150.002Z" fill="black"/>
<path d="M91.3343 150.002H40.8994C41.1177 149.506 41.2633 149.205 41.2633 149.205C41.2633 149.205 45.2983 131.538 47.3493 124.064C47.3499 124.057 47.3499 124.051 47.3493 124.045C47.6056 123.029 47.915 122.028 48.2762 121.045C48.2995 120.978 48.3297 120.914 48.3662 120.854C49.3812 119.202 50.6528 117.421 48.8737 114.878C47.0946 112.335 47.7247 101.144 47.7247 101.144C47.7247 101.144 49.8849 91.6057 52.1714 86.5193C52.5184 85.7314 53.0109 85.0162 53.623 84.4111C53.8221 84.2162 54.0345 84.0356 54.2588 83.8706C54.4294 83.7424 54.6071 83.624 54.7912 83.5161L54.8276 83.4931C55.7882 82.9481 56.8548 82.6166 57.9549 82.5214C58.7363 82.4397 59.5251 82.4616 60.3008 82.5866C64.0084 83.1309 66.9767 84.0412 69.3361 85.078C75.7305 87.8896 77.6666 91.6574 77.7049 91.736L77.7202 91.7686C77.9768 92.3685 81.7303 101.138 83.0824 105.23C83.4328 106.296 83.6243 107.045 83.5477 107.25C83.1647 108.266 86.4701 120.982 86.4701 120.982C86.4701 120.982 88.0021 127.115 89.5342 134.304C89.6012 134.603 89.6644 134.902 89.7257 135.205C89.9995 136.51 90.2715 137.84 90.5338 139.168C91.0422 141.905 91.3043 144.682 91.3171 147.466C91.3452 148.334 91.3509 149.179 91.3343 150.002Z" fill="#FF748E"/>
<path opacity="0.1" d="M57.6547 78.1479C57.6547 78.1479 54.175 76.8064 54.2172 78.8417C54.2593 80.877 55.0655 81.8506 54.8108 82.1477C54.5561 82.4447 54.9372 84.2252 54.9372 84.2252C54.9372 84.2252 59.6387 84.2252 61.7989 85.1988C63.9591 86.1724 71.9219 88.1234 72.9388 88.7175C73.9557 89.3116 77.7264 91.9756 77.7264 91.9756L78.0654 86.9313C78.0654 86.9313 74.1682 83.7096 67.7739 82.0576C61.3795 80.4056 57.6547 78.1479 57.6547 78.1479Z" fill="black"/>
<path d="M57.6547 77.8929C57.6547 77.8929 54.175 76.5513 54.2172 78.5867C54.2593 80.622 55.0655 81.5956 54.8108 81.8927C54.5561 82.1897 54.9372 83.9702 54.9372 83.9702C54.9372 83.9702 59.6387 83.9702 61.7989 84.9457C63.9591 85.9212 71.9219 87.8703 72.9388 88.4625C73.9557 89.0547 77.7264 91.7206 77.7264 91.7206L78.0692 86.6916C78.0692 86.6916 74.1721 83.47 67.7777 81.8179C61.3833 80.1659 57.6547 77.8929 57.6547 77.8929Z" fill="#FF748E"/>
<path opacity="0.1" d="M68.1592 90.0322C68.1592 90.0322 74.8083 97.2364 74.4693 99.2315C74.1303 101.227 68.1592 90.0322 68.1592 90.0322Z" fill="black"/>
<path opacity="0.1" d="M57.3574 116.057C57.3574 116.057 52.4836 120.551 51.0473 120.806C49.611 121.061 52.1484 121.908 53.7992 121.231C55.45 120.555 58.9699 118.774 58.9699 118.774L57.3574 116.057Z" fill="black"/>
<path d="M93.315 150.002H81.9491C80.3596 148.622 78.8563 147.344 77.8988 146.575C76.3667 145.345 75.2617 143.534 74.557 142.077C74.398 141.746 74.2602 141.435 74.1433 141.153C73.9342 140.668 73.7501 140.172 73.5918 139.668L82.0085 134.666C82.4736 135.062 82.9107 135.49 83.3164 135.946L83.4179 136.063C83.8852 136.615 84.297 137.242 84.3333 137.755C84.3755 138.353 86.0377 140.667 87.7364 142.888C89.4599 145.147 91.2256 147.307 91.3424 147.453C91.3424 147.453 91.6335 147.85 92.1085 148.459C92.4436 148.9 92.8573 149.429 93.315 150.002Z" fill="#FFCCD0"/>
<path opacity="0.1" d="M77.8794 52.9036C77.4753 53.8158 77.1134 54.7626 77.0597 55.7783C76.9084 58.7106 77.1536 65.267 73.9095 66.7389C72.3027 67.4634 70.583 65.8726 68.8212 65.8343C67.5534 65.8075 66.391 66.6124 65.6173 67.6186C64.8436 68.6248 64.3629 69.8187 63.8018 70.9572C63.291 71.9904 62.7027 72.9835 62.0419 73.9278C61.8443 74.2167 61.6268 74.4915 61.3907 74.7499C59.4126 73.9146 57.6511 72.6384 56.2405 71.0186C54.8298 69.3987 53.8073 67.478 53.2507 65.4028C52.6942 63.3276 52.6183 61.1526 53.0289 59.0436C53.4395 56.9346 54.3258 54.9472 55.6201 53.2329C56.9145 51.5186 58.5827 50.1226 60.4979 49.1512C62.413 48.1799 64.5244 47.6588 66.6712 47.6278C68.818 47.5968 70.9436 48.0566 72.8859 48.9722C74.8282 49.8878 76.5361 51.235 77.8794 52.9112V52.9036Z" fill="black"/>
<path d="M76.8055 55.2608C76.6522 58.1931 76.8993 64.7495 73.6533 66.2194C72.0465 66.9439 70.3268 65.3551 68.565 65.3168C67.2972 65.288 66.1367 66.0949 65.3611 67.0991C64.5855 68.1034 64.1086 69.2993 63.5456 70.4396C63.0347 71.4728 62.4464 72.4659 61.7857 73.4102C61.3912 73.9698 60.9545 74.5314 60.3475 74.8457C59.2904 75.3977 58.0092 75.0872 56.8755 74.7326C55.4047 74.2688 53.9557 73.7463 52.5283 73.1649C52.5611 72.9492 52.5777 72.7314 52.5781 72.5133C52.536 72.5938 52.49 72.6685 52.444 72.749L52.354 72.9062C52.1912 73.1937 52.0323 73.4811 51.8868 73.7763C51.8312 73.8894 51.7776 74.0063 51.7297 74.1232C51.5371 74.5582 51.4162 75.0216 51.3716 75.4954C51.2739 76.7737 51.904 77.9869 52.4632 79.1368C54.6138 83.585 55.9428 88.7864 54.3246 93.4532C53.6237 95.4827 52.4096 97.2862 51.5229 99.2468C49.9729 102.719 49.5167 106.582 50.2149 110.32C50.6573 112.643 51.544 114.943 51.3256 117.298C50.9426 121.352 47.4496 124.368 43.9508 126.442C42.0606 127.558 39.7472 128.55 37.7402 127.669C39.0195 126.174 39.3489 124.106 39.6247 122.155C40.3792 116.833 41.1356 111.509 41.894 106.183C42.1966 104.063 42.4985 101.943 42.7998 99.8237C43.3628 95.8411 43.9335 91.8145 43.5812 87.8071C43.3245 84.8537 42.6006 81.7183 43.8799 79.0448C44.5559 77.6285 45.7605 76.4556 46.1358 74.93C46.4442 73.69 46.1569 72.3715 46.3599 71.1085C46.471 70.5339 46.6591 69.9769 46.9191 69.4526C47.2502 68.7412 47.6823 68.0815 48.2022 67.4939C47.689 67.3444 47.2102 67.1394 46.9191 66.7101C47.7426 66.1735 47.867 64.9641 47.4936 64.0557C47.1202 63.1473 46.3733 62.4554 45.7011 61.7386C45.0289 61.0219 44.3816 60.1863 44.2974 59.2088C44.1346 57.3479 45.9922 55.9067 46.3197 54.0707C46.651 52.202 45.3411 50.3852 45.4464 48.4936C45.569 46.2072 47.6679 44.5456 49.74 43.5816C52.8669 42.133 56.321 41.5379 59.7519 41.8567C62.544 42.1212 65.2462 42.9855 68.0307 43.3209C69.7102 43.5126 71.4127 43.5317 73.0807 43.8269C74.7487 44.122 76.4205 44.7449 77.5945 45.9695C80.6892 49.1989 76.9816 51.8571 76.8055 55.2608Z" fill="#FFE0D0"/>
<path opacity="0.1" d="M74.2165 142.079C73.2398 141.656 71.4627 141.909 68.412 140.979C65.3613 140.049 64.7734 135.848 64.7734 135.848V135.835C64.737 135.739 64.4536 135.114 62.5347 132.926C60.4147 130.509 55.832 118.303 55.832 118.303C55.832 118.303 51.7682 113.935 51.8965 112.325C52.0248 110.715 51.1746 106.432 51.2588 101.641C51.3431 96.8493 60.407 93.6717 60.407 93.6717C77.8589 90.5765 73.7492 110.711 73.2839 112.237C72.8185 113.763 75.2334 117.883 75.2334 117.883C74.8925 119.677 76.6314 122.454 76.6314 122.454C76.6314 122.454 77.0527 124.911 77.1389 125.844C77.1437 125.887 77.1533 125.93 77.1676 125.971C77.4472 126.85 79.7261 127.648 80.653 128.133C81.6278 128.642 84.7627 133.093 84.7627 133.093C85.4387 136.36 75.1894 142.508 74.2165 142.079Z" fill="black"/>
<path d="M74.7234 141.312C73.7487 140.887 71.9696 141.142 68.9208 140.21C65.872 139.279 65.2822 135.082 65.2822 135.082V135.068C65.2477 134.971 64.9624 134.348 63.0435 132.159C60.9235 129.742 56.3408 117.534 56.3408 117.534C56.3408 117.534 52.277 113.168 52.4034 111.559C52.5298 109.949 51.6834 105.665 51.7676 100.878C51.8519 96.0903 60.9101 92.9146 60.9101 92.9146C78.362 89.8194 74.2523 109.954 73.787 111.48C73.3216 113.005 75.7365 117.126 75.7365 117.126C75.3956 118.92 77.1345 121.697 77.1345 121.697C77.1345 121.697 77.5558 124.154 77.6439 125.087C77.6471 125.13 77.6561 125.173 77.6707 125.214C77.9503 126.093 80.2292 126.891 81.158 127.376C82.1309 127.883 85.2677 132.335 85.2677 132.335C85.9476 135.597 75.6982 141.746 74.7234 141.312Z" fill="#FF748E"/>
<path opacity="0.1" d="M61.2549 103.427C61.2549 103.427 68.8787 111.476 70.8685 111.476C72.8582 111.476 61.2549 103.427 61.2549 103.427Z" fill="black"/>
<path d="M74.7235 141.312C73.7487 140.887 71.9696 141.142 68.9208 140.21C65.8721 139.279 65.2822 135.082 65.2822 135.082V135.068C67.3026 133.727 72.4196 129.938 74.4362 128.552C75.8553 127.581 77.0139 126.153 77.6918 125.206C77.9714 126.086 80.2503 126.883 81.1791 127.368C82.152 127.876 85.2888 132.328 85.2888 132.328C85.9476 135.597 75.6982 141.746 74.7235 141.312Z" fill="#FF748E"/>
<g opacity="0.1">
<path opacity="0.1" d="M46.9307 66.7312C46.9402 66.7466 46.9536 66.76 46.9651 66.7753C47.0226 66.7025 47.082 66.6297 47.1432 66.5607C47.078 66.6242 47.0068 66.6813 46.9307 66.7312Z" fill="black"/>
<path opacity="0.1" d="M51.3735 75.5165C51.454 74.4529 52.0227 73.5157 52.5551 72.5804C52.2066 72.4463 51.858 72.3102 51.5133 72.1684C51.5462 71.9534 51.5628 71.7362 51.5631 71.5187C51.025 72.4769 50.439 73.4199 50.3566 74.4989C50.259 75.7791 50.889 76.9903 51.4482 78.1402C53.6007 82.5866 54.9279 87.788 53.3096 92.4566C52.6068 94.4843 51.3946 96.2897 50.5079 98.2503C48.9585 101.722 48.5029 105.584 49.2018 109.322C49.6404 111.647 50.529 113.945 50.3107 116.3C49.9277 120.353 46.4365 123.37 42.9358 125.442C41.5052 126.289 39.8334 127.065 38.2343 127.01C38.0863 127.248 37.9212 127.475 37.7402 127.69C39.7491 128.577 42.0606 127.579 43.9508 126.459C47.4534 124.39 50.9522 121.381 51.3352 117.32C51.5535 114.964 50.665 112.666 50.2245 110.342C49.5253 106.604 49.9796 102.743 51.5267 99.2698C52.4077 97.3112 53.6333 95.5039 54.3285 93.4762C55.9467 88.8076 54.6176 83.6062 52.467 79.1598C51.9097 78.0023 51.2759 76.7968 51.3735 75.5165Z" fill="black"/>
<path opacity="0.1" d="M77.5907 45.9926C77.4023 45.7992 77.2 45.6198 76.9855 45.4559C79.3066 48.4687 75.9552 51.0292 75.7886 54.2719C75.6392 57.2042 75.8844 63.7625 72.6383 65.2305C71.0335 65.9569 69.3119 64.3662 67.5519 64.3279C66.2823 64.301 65.1217 65.1079 64.3461 66.1121C63.5705 67.1164 63.0937 68.3123 62.5326 69.4507C62.0207 70.4838 61.4317 71.4768 60.7707 72.4213C60.3877 72.9829 59.9396 73.5425 59.3306 73.8587C58.2773 74.4088 56.9961 74.1002 55.8605 73.7437C54.7562 73.3962 53.662 73.0129 52.5781 72.5938C52.5759 72.7934 52.5592 72.9926 52.5283 73.1898C53.957 73.7725 55.4066 74.295 56.8774 74.7576C58.0111 75.114 59.2923 75.4226 60.3475 74.8725C60.9546 74.5563 61.395 73.9948 61.7876 73.4332C62.4491 72.4901 63.0375 71.4976 63.5476 70.4646C64.1106 69.3261 64.5855 68.1283 65.363 67.1241C66.1405 66.1198 67.2992 65.3149 68.5669 65.3417C70.3288 65.38 72.0504 66.9707 73.6552 66.2444C76.9012 64.7763 76.6542 58.218 76.8055 55.2857C76.9817 51.8763 80.6892 49.22 77.5907 45.9926Z" fill="black"/>
</g>
<path opacity="0.1" d="M52.3558 72.9082C52.1931 73.1956 52.0341 73.4831 51.8886 73.7783C51.833 73.8913 51.7794 74.0082 51.7315 74.1252C50.728 73.1132 48.2844 70.708 46.9209 69.9625C47.2524 69.2513 47.6846 68.5917 48.204 68.0038C48.204 68.0038 51.4538 69.7229 52.3558 72.9082Z" fill="black"/>
<path d="M52.4458 72.7509C51.6932 69.3415 48.204 67.4958 48.204 67.4958C47.6841 68.0834 47.252 68.7431 46.9209 69.4545C48.3591 70.2422 51.0095 72.8832 51.8886 73.7782L52.4458 72.7509Z" fill="#FF748E"/>
</g>
<defs>
<linearGradient id="paint0_linear" x1="139.805" y1="18.2855" x2="139.805" y2="14.7629" gradientUnits="userSpaceOnUse">
<stop stop-color="#808080" stop-opacity="0.25"/>
<stop offset="0.54" stop-color="#808080" stop-opacity="0.12"/>
<stop offset="1" stop-color="#808080" stop-opacity="0.1"/>
</linearGradient>
<linearGradient id="paint1_linear" x1="87857.5" y1="126203" x2="87857.5" y2="8799.17" gradientUnits="userSpaceOnUse">
<stop stop-color="#808080" stop-opacity="0.25"/>
<stop offset="0.54" stop-color="#808080" stop-opacity="0.12"/>
<stop offset="1" stop-color="#808080" stop-opacity="0.1"/>
</linearGradient>
<clipPath id="clip0">
<rect width="208" height="150" fill="white"/>
</clipPath>
</defs>
</svg>
