<svg width="194" height="142" viewBox="0 0 194 142" fill="none" xmlns="http://www.w3.org/2000/svg">
<g clip-path="url(#clip0)">
<path opacity="0.1" d="M2.08789 68.0801C5.15127 79.8281 11.6308 89.9836 21.8702 94.9064C43.1569 105.137 91.164 99.8608 126.993 93.8039C145.527 90.6713 161.818 82.0261 173.651 69.8599L2.08789 68.0801Z" fill="#28DF99"/>
<path opacity="0.1" d="M189.976 12.7805H170.317C169.384 12.7805 168.619 12.0945 168.619 11.2562C168.619 10.418 169.384 9.73021 170.317 9.73021H173.717C172.783 9.73021 172.019 9.04419 172.019 8.20417C172.019 7.36415 172.783 6.67989 173.717 6.67989H171.291C170.356 6.67989 169.59 5.99387 169.59 5.15385C169.59 4.31383 170.356 3.62957 171.291 3.62957H181.551C179.274 2.67929 176.613 2.00378 173.546 1.64852C145.567 -1.57681 135.578 0.556494 132.054 2.7493C127.662 5.51654 122.783 7.43666 117.673 8.40893C100.411 11.6062 68.1285 15.4528 38.8686 7.1839C24.3259 3.06605 13.5168 10.0155 7.03906 21.6322H193.39C193.147 18.2564 192.419 15.1378 191.082 12.4095C190.765 12.6521 190.376 12.7827 189.976 12.7805Z" fill="#28DF99"/>
<path opacity="0.1" d="M0.421122 43.5583C-0.333973 50.3908 -0.0772941 57.2961 1.183 64.0548L173.783 69.7232C178.535 64.8334 182.571 59.3066 185.776 53.3043L0.421122 43.5583ZM68.6867 58.1799H65.2882C66.223 58.1799 66.9884 58.8677 66.9884 59.706C66.9884 60.5443 66.223 61.2303 65.2882 61.2303H45.6293C44.6964 61.2303 43.931 60.5443 43.931 59.706C43.931 58.8677 44.6964 58.1799 45.6293 58.1799H49.0296C48.0949 58.1799 47.3312 57.4939 47.3312 56.6557C47.3312 55.8174 48.0949 55.1296 49.0296 55.1296H46.6011C45.6664 55.1296 44.901 54.4436 44.901 53.6053C44.901 52.7671 45.6664 52.0793 46.6011 52.0793H66.26C67.1947 52.0793 67.9583 52.7653 67.9583 53.6053C67.9583 54.4454 67.1947 55.1296 66.26 55.1296H68.6867C69.6214 55.1296 70.3851 55.8156 70.3851 56.6557C70.3851 57.4957 69.6214 58.1799 68.6867 58.1799Z" fill="#28DF99"/>
<path opacity="0.1" d="M193.397 21.7373L4.95935 25.8499C2.66667 31.1403 1.14644 37.1219 0.446289 43.3205H190.095C191.33 39.694 192.245 35.9682 192.833 32.185C193.399 28.5432 193.624 25.0204 193.397 21.7373ZM38.7059 35.2214H35.3075C36.2422 35.2214 37.0076 35.9091 37.0076 36.7474C37.0076 37.5857 36.2422 38.2734 35.3075 38.2734H15.6486C14.7156 38.2734 13.9502 37.5857 13.9502 36.7474C13.9502 35.9091 14.7156 35.2214 15.6486 35.2214H19.0488C18.1141 35.2214 17.3504 34.5353 17.3504 33.6971C17.3504 32.8588 18.1141 32.171 19.0488 32.171H16.6203C15.6856 32.171 14.9202 31.485 14.9202 30.6468C14.9202 29.8085 15.6856 29.1207 16.6203 29.1207H36.2792C37.2139 29.1207 37.9775 29.8067 37.9775 30.6468C37.9775 31.4868 37.2139 32.171 36.2792 32.171H38.7059C39.6406 32.171 40.4043 32.8588 40.4043 33.6971C40.4043 34.5353 39.6406 35.2214 38.7059 35.2214Z" fill="#28DF99"/>
<path opacity="0.1" d="M96.1304 136.692C139.667 136.692 174.96 133.47 174.96 129.496C174.96 125.522 139.667 122.3 96.1304 122.3C52.594 122.3 17.3008 125.522 17.3008 129.496C17.3008 133.47 52.594 136.692 96.1304 136.692Z" fill="#28DF99"/>
<path d="M176.473 70.0575C176.472 70.0452 176.472 70.033 176.473 70.0207C176.473 70.0015 176.473 69.984 176.473 69.9665C176.438 69.766 176.361 69.5749 176.249 69.4047C175.845 68.7637 175.283 68.2359 174.616 67.8717C173.452 67.2382 171.852 66.9669 171.387 65.7576C171.244 65.3831 171.24 64.9754 171.17 64.5833C171.046 63.9726 170.763 63.4048 170.349 62.9369C169.934 62.4691 169.403 62.1177 168.808 61.918C168.254 61.7343 167.657 61.6835 167.119 61.456C165.916 60.9485 165.281 59.6972 164.743 58.5405C164.047 57.0471 163.351 55.5531 162.655 54.0586C162.126 54.3229 161.442 54.1986 160.946 53.8679C160.469 53.5151 160.088 53.0486 159.84 52.5116C159.123 51.129 158.814 49.5628 157.971 48.2467C157.128 46.9307 155.444 45.8912 153.955 46.4634C153.665 46.6075 153.364 46.7309 153.056 46.8327C151.781 47.1284 150.37 45.6829 149.278 46.3847C149.097 46.5001 148.949 46.6606 148.85 46.8502C148.849 46.8385 148.849 46.8268 148.85 46.8152C148.708 47.0999 148.628 47.4113 148.617 47.7287C148.617 47.7935 148.617 47.8565 148.617 47.9177C148.617 47.9282 148.617 47.9387 148.617 47.9492C148.617 48.2012 148.633 48.4567 148.636 48.7122C148.64 48.9268 148.624 49.1413 148.587 49.3527V49.3352C148.566 49.4543 148.535 49.5713 148.495 49.6853C148.211 50.4413 147.425 50.9365 147.056 51.6471V51.612C147.014 51.6893 146.978 51.7695 146.948 51.8518C146.883 52.0381 146.849 52.2338 146.848 52.4311C146.816 53.7664 148.243 55.0229 148.409 56.4562C148.527 57.4712 148.761 57.7967 149.631 58.3707L149.821 58.4967C149.745 58.4967 149.668 58.5072 149.581 58.509C149.548 58.5096 149.514 58.5131 149.481 58.5195C149.327 58.4775 149.167 58.4699 149.01 58.4972C148.853 58.5244 148.704 58.5858 148.574 58.677C147.908 59.202 146.331 58.7977 145.631 58.677C144.931 58.5562 142.532 58.8817 142.197 60.2012C141.862 61.5208 141.287 64.2438 141.287 64.2438C141.287 64.2438 141.287 65.9711 141.074 66.2931C141.066 66.3158 141.066 66.3405 141.074 66.3631C141.074 66.8479 141.091 69.7617 140.619 70.5125C140.502 70.6875 140.511 71.0742 140.598 71.5503C140.1 72.1855 139.633 72.9275 139.716 73.414C139.868 74.4098 141.903 77.5406 144.82 75.8641C144.82 75.8641 146.479 72.8523 144.391 71.251L144.481 70.901C145.112 71.671 145.58 72.224 145.58 72.224C145.58 72.224 145.605 72.2888 145.643 72.399H145.58C145.852 73.135 146.017 73.9058 146.07 74.6881C146.062 74.9749 146.01 75.2588 145.915 75.5298H145.97C145.954 75.5893 145.936 75.6488 145.915 75.7049C145.812 76.0004 145.621 76.2576 145.366 76.4416C143.908 77.4671 142.238 84.7911 142.238 84.7911C142.238 84.7911 138.929 96.6301 138.268 97.3038C137.721 97.8568 141.157 99.4144 143.735 99.2289C144.095 99.2076 144.451 99.1406 144.793 99.0294C144.809 99.2044 144.827 99.3794 144.844 99.5386C144.899 100.064 144.956 100.55 144.991 100.702C145.082 101.084 145.264 104.98 145.264 104.98C145.264 104.98 144.892 107.51 144.982 109.271C144.982 109.391 144.998 109.507 145.008 109.621L144.687 109.67C144.201 110.755 146.206 119.808 146.479 120.569C146.66 121.169 146.762 121.789 146.783 122.415C146.783 122.415 146.606 123.059 146.753 123.411C146.844 123.626 146.903 123.853 146.929 124.085C146.929 124.085 146.809 124.669 146.991 125.051C147.172 125.432 146.961 126.101 146.961 126.101C146.961 126.101 146.901 128.738 146.354 130.173C146.205 130.559 146.162 130.978 146.228 131.386C146.295 131.794 146.469 132.177 146.733 132.497C146.771 132.547 146.812 132.594 146.857 132.639C146.857 132.639 149.872 132.663 150.403 132.639H150.472C150.685 132.609 151.232 130.236 150.745 129.093C150.259 127.951 150.685 126.544 150.685 126.544V124.464C150.685 124.464 151.232 123.964 150.685 122.889C150.139 121.815 150.229 121.489 150.229 121.489C150.229 121.489 150.837 119.76 150.199 119.204C149.56 118.647 150.32 116.537 150.32 116.537L150.536 109.502C150.423 109.465 150.308 109.436 150.192 109.414C150.179 109.299 150.167 109.18 150.155 109.054C150.029 107.78 149.922 106.047 150.2 105.554C150.479 105.06 150.613 100.751 150.657 97.7571L153.437 97.8621C153.495 99.2621 153.557 100.54 153.595 100.702C153.687 101.084 153.871 104.98 153.871 104.98C153.871 104.98 153.497 107.51 153.587 109.271C153.587 109.391 153.602 109.507 153.613 109.621L153.292 109.67C152.805 110.755 154.811 119.808 155.084 120.569C155.265 121.169 155.368 121.789 155.389 122.415C155.389 122.415 155.213 123.059 155.357 123.411C155.448 123.626 155.508 123.853 155.534 124.085C155.534 124.085 155.414 124.669 155.595 125.051C155.777 125.432 155.565 126.101 155.565 126.101C155.565 126.101 155.505 128.738 154.959 130.173C154.812 130.56 154.771 130.978 154.84 131.386C154.909 131.793 155.085 132.175 155.35 132.494C155.388 132.544 155.429 132.591 155.474 132.635C155.474 132.635 158.489 132.66 159.02 132.635H159.089C159.302 132.606 159.849 130.233 159.362 129.09C158.876 127.947 159.302 126.54 159.302 126.54V124.464C159.302 124.464 159.849 123.964 159.302 122.889C158.756 121.815 158.846 121.489 158.846 121.489C158.846 121.489 159.454 119.76 158.816 119.204C158.177 118.647 158.937 116.537 158.937 116.537L159.156 109.502C159.041 109.465 158.923 109.435 158.803 109.414C158.791 109.299 158.779 109.18 158.766 109.054C158.641 107.78 158.534 106.047 158.812 105.554C159.036 105.149 159.165 102.545 159.223 100.002C159.223 99.8274 159.223 99.6524 159.237 99.4774C160.514 99.4246 161.786 99.2831 163.043 99.0539C163.043 99.0539 161.556 93.837 162.011 92.9882C162.207 92.6225 161.925 90.6747 161.539 88.5764C162.077 89.009 162.747 89.2494 163.44 89.2589C164.105 90.5277 166.128 93.4468 167.267 93.8965C168.604 94.4215 167.6 89.7664 166.964 89.0927C166.662 88.7248 166.409 88.3209 166.209 87.8904C166.226 87.8694 166.246 87.8519 166.263 87.8326C166.281 87.8134 166.295 82.88 165.99 82.9693C165.685 83.0585 165.322 82.236 165.322 82.236L164.38 74.0336L163.985 70.6C164.315 70.8415 164.706 70.9955 165.043 71.2352C165.96 71.902 166.26 73.0728 166.662 74.1088C166.994 74.9611 167.459 75.8064 168.223 76.3419C168.986 76.8774 170.106 77.0191 170.868 76.4766C171.574 75.9674 171.782 75.0486 171.937 74.2103C173.217 74.6566 174.771 73.463 174.605 72.1593C174.565 71.8373 174.445 71.4855 174.614 71.2037C174.953 70.6472 176.025 70.971 176.378 70.4215C176.437 70.3264 176.468 70.2165 176.466 70.1047C176.471 70.0802 176.473 70.0697 176.473 70.0575ZM159.347 74.5691C159.327 74.8823 159.761 77.3989 160.114 79.3904C159.824 78.1497 159.244 76.8249 158.101 75.9166C158.101 75.9166 158.101 75.8536 158.087 75.7416H158.101C158.101 75.7416 158.054 75.2411 158.047 74.5288C158.049 73.8975 158.096 73.267 158.188 72.6423V72.6265H158.165C158.165 72.574 158.179 72.5198 158.188 72.4673C158.258 71.9401 158.402 71.4252 158.616 70.9377C158.711 70.7467 158.82 70.563 158.943 70.3882C159.131 72.0805 159.364 74.2523 159.347 74.5691ZM160.295 80.4002C160.451 81.2595 160.562 81.8632 160.562 81.8632L161.498 88.2439V88.2736C160.994 85.5803 160.35 82.7418 160.35 82.7418C160.416 81.9615 160.397 81.1766 160.295 80.4002Z" fill="url(#paint0_linear)"/>
<path d="M148.818 56.8063C148.642 55.1892 146.878 53.7944 147.407 52.2562C147.695 51.4179 148.594 50.9051 148.897 50.0721C149.099 49.5226 149.009 48.9188 149.01 48.3343C149.012 47.7498 149.15 47.097 149.64 46.7733C150.698 46.0733 152.06 47.5135 153.294 47.2195C153.593 47.1182 153.883 46.9954 154.164 46.852C155.604 46.2833 157.234 47.3193 158.044 48.6283C158.853 49.9373 159.156 51.4984 159.851 52.8739C160.088 53.4051 160.456 53.8689 160.92 54.2232C161.4 54.5522 162.056 54.6765 162.574 54.4139L164.594 58.8766C165.123 60.0263 165.729 61.2724 166.886 61.7781C167.405 62.0039 167.983 62.0546 168.519 62.2384C169.102 62.4423 169.62 62.7946 170.023 63.2599C170.425 63.7252 170.697 64.2872 170.812 64.8897C170.881 65.2817 170.883 65.6877 171.022 66.0605C171.472 67.2645 173.018 67.534 174.145 68.1605C174.797 68.5253 175.344 69.0502 175.732 69.6848C175.909 69.9876 176.06 70.3848 175.872 70.6823C175.531 71.2283 174.496 70.9063 174.168 71.4611C174.002 71.7411 174.119 72.0911 174.168 72.4131C174.329 73.7099 172.824 74.8982 171.586 74.4537C171.436 75.2884 171.234 76.2037 170.553 76.7095C169.821 77.252 168.736 77.1085 167.997 76.5765C167.258 76.0444 166.81 75.2027 166.489 74.3539C166.1 73.3214 165.809 72.1559 164.922 71.4926C164.601 71.2546 164.216 71.1006 163.902 70.8608C163.197 70.3253 162.844 69.4415 162.592 68.5858C162.266 67.5183 162.006 66.421 161.534 65.413C161.061 64.4049 160.313 63.4669 159.289 63.0066C158.327 62.5779 157.22 62.6059 156.227 62.2576C154.518 61.6591 153.254 60.2328 151.553 59.5608C151.01 59.3341 150.495 59.0452 150.019 58.6998C149.164 58.1415 148.931 57.8178 148.818 56.8063Z" fill="#3F3D56"/>
<g opacity="0.1">
<path opacity="0.1" d="M148.977 49.7293C149.013 49.6608 149.045 49.5901 149.072 49.5175C149.271 48.968 149.183 48.3643 149.185 47.7797C149.185 47.5848 149.203 47.3903 149.239 47.1987C149.077 47.5445 148.997 47.9233 149.008 48.3048C149.007 48.7755 149.063 49.269 148.977 49.7293Z" fill="black"/>
<path opacity="0.1" d="M170.719 76.1602C169.987 76.7009 168.902 76.5592 168.163 76.0254C167.424 75.4917 166.975 74.6534 166.663 73.8011C166.273 72.7686 165.984 71.6031 165.095 70.9398C164.776 70.7018 164.389 70.546 164.077 70.308C163.372 69.7725 163.019 68.8888 162.765 68.0417C162.439 66.9742 162.181 65.8769 161.707 64.8689C161.232 63.8609 160.488 62.9229 159.462 62.4626C158.502 62.0338 157.395 62.0618 156.402 61.7136C154.691 61.1151 153.427 59.6888 151.728 59.0168C151.185 58.7894 150.669 58.5005 150.192 58.1558C149.356 57.5835 149.134 57.2597 149.011 56.25C148.834 54.7344 147.282 53.4131 147.524 51.9851C147.485 52.0624 147.45 52.1418 147.42 52.2231C146.891 53.7632 148.654 55.1579 148.831 56.7732C148.945 57.783 149.184 58.1068 150.012 58.679C150.489 59.0237 151.005 59.3127 151.549 59.54C153.247 60.2121 154.511 61.6401 156.222 62.2369C157.215 62.5869 158.323 62.5571 159.282 62.9859C160.308 63.4461 161.046 64.3859 161.527 65.3922C162.008 66.3984 162.266 67.4922 162.585 68.565C162.844 69.412 163.185 70.2958 163.897 70.8313C164.216 71.0693 164.603 71.2251 164.915 71.4631C165.797 72.1263 166.093 73.2919 166.483 74.3244C166.804 75.1731 167.253 76.0132 167.992 76.5452C168.731 77.0772 169.816 77.2207 170.548 76.6799C171.015 76.3299 171.253 75.7962 171.41 75.2239C171.271 75.593 171.032 75.9169 170.719 76.1602Z" fill="black"/>
<path opacity="0.1" d="M174.343 70.9118C174.276 71.0374 174.246 71.1796 174.259 71.3214C174.657 70.9311 175.557 71.1603 175.87 70.6581C175.943 70.534 175.972 70.3891 175.952 70.2468C175.542 70.6318 174.643 70.4026 174.343 70.9118Z" fill="black"/>
<path opacity="0.1" d="M171.752 73.9044C171.718 74.0794 171.685 74.2666 171.643 74.4486C172.722 74.7829 173.969 73.9236 174.145 72.8386C173.717 73.6734 172.658 74.2316 171.752 73.9044Z" fill="black"/>
</g>
<path d="M151.097 57.648C151.097 57.648 151.685 58.8241 149.951 58.8486C148.217 58.8731 151.067 66.4857 151.067 66.4857L153.949 70.1258L157.534 68.2008L157.741 62.8912L158.005 59.6833C158.005 59.6833 154.654 58.6036 155.272 57.1755C155.889 55.7475 151.097 57.648 151.097 57.648Z" fill="#FBBEBE"/>
<path d="M161.504 88.6867C161.504 88.6867 163.62 90.7535 166.089 88.0112L164.193 86.0144H161.795L161.504 88.6867Z" fill="#575A89"/>
<path opacity="0.1" d="M161.733 86.0144L161.442 88.6867C161.442 88.6867 163.559 90.7535 166.028 88.0112" fill="black"/>
<path d="M165.294 86.3784C165.294 86.3784 166.146 88.5957 166.763 89.266C167.381 89.9362 168.351 94.5739 167.058 94.0488C165.765 93.5238 163.296 89.616 163.148 88.9457C163 88.2755 162.943 86.3784 162.943 86.3784H165.294Z" fill="#FBBEBE"/>
<path d="M146.806 97.7539L158.209 98.1914L156.886 93.4068L151.142 93.2913L146.806 97.7539Z" fill="#575A89"/>
<path opacity="0.1" d="M148.392 97.7539L159.797 98.1914L158.474 93.4068L152.728 93.2913L148.392 97.7539Z" fill="black"/>
<path d="M150.537 105.652C150.268 106.15 150.372 107.876 150.493 109.152C150.571 109.964 150.656 110.589 150.656 110.589C150.656 110.589 146.393 111.901 145.748 110.764C145.584 110.475 145.502 109.969 145.474 109.376C145.386 107.626 145.748 105.104 145.748 105.104C145.748 105.104 145.571 101.226 145.483 100.846C145.448 100.694 145.393 100.211 145.34 99.6875C145.263 98.9105 145.188 98.046 145.188 98.046L151.008 94.9834C151.008 94.9834 151.008 95.5574 150.998 96.4412C150.966 99.2168 150.873 105.039 150.537 105.652Z" fill="#FBBEBE"/>
<path opacity="0.1" d="M150.656 110.589C150.656 110.589 146.393 111.901 145.748 110.764C145.584 110.475 145.503 109.969 145.475 109.376C146.356 109.243 149.041 108.875 150.494 109.152C150.571 109.964 150.656 110.589 150.656 110.589Z" fill="black"/>
<path d="M150.802 132.639H150.735C150.222 132.658 147.305 132.639 147.305 132.639C147.262 132.595 147.222 132.548 147.185 132.499C146.927 132.179 146.757 131.798 146.691 131.393C146.624 130.989 146.664 130.574 146.806 130.189C147.335 128.759 147.393 126.134 147.393 126.134C147.393 126.134 147.599 125.464 147.423 125.084C147.247 124.704 147.363 124.121 147.363 124.121C147.336 123.891 147.277 123.665 147.187 123.451C147.04 123.101 147.217 122.459 147.217 122.459C147.197 121.837 147.098 121.219 146.922 120.621C146.658 119.864 144.718 110.851 145.189 109.771C145.189 109.771 149.303 109.071 150.862 109.596L150.656 116.596C150.656 116.596 149.92 118.696 150.538 119.251C151.155 119.806 150.568 121.526 150.568 121.526C150.568 121.526 150.479 121.846 151.008 122.926C151.538 124.006 151.008 124.501 151.008 124.501V126.572C151.008 126.572 150.598 127.972 151.067 129.109C151.536 130.247 151.008 132.602 150.802 132.639Z" fill="#3F3D56"/>
<path d="M158.878 105.652C158.608 106.151 158.713 107.876 158.834 109.152C158.912 109.964 158.996 110.589 158.996 110.589C158.996 110.589 154.734 111.901 154.088 110.764C153.924 110.475 153.843 109.969 153.815 109.376C153.727 107.626 154.088 105.104 154.088 105.104C154.088 105.104 153.912 101.226 153.824 100.846C153.776 100.641 153.693 98.6884 153.628 96.9366C153.573 95.4421 153.529 94.0911 153.529 94.0911L159.349 94.9836C159.349 94.9836 159.349 97.5229 159.277 100.132C159.213 102.663 159.095 105.256 158.878 105.652Z" fill="#FBBEBE"/>
<path opacity="0.1" d="M158.996 110.589C158.996 110.589 154.733 111.901 154.088 110.764C153.924 110.475 153.843 109.969 153.814 109.376C154.696 109.243 157.38 108.875 158.834 109.152C158.911 109.964 158.996 110.589 158.996 110.589Z" fill="black"/>
<path d="M159.142 132.639H159.075C158.562 132.658 155.645 132.639 155.645 132.639C155.602 132.595 155.562 132.548 155.525 132.499C155.267 132.179 155.097 131.798 155.031 131.393C154.964 130.989 155.004 130.574 155.146 130.189C155.675 128.752 155.728 126.127 155.728 126.127C155.728 126.127 155.934 125.457 155.758 125.077C155.582 124.697 155.698 124.115 155.698 124.115C155.671 123.884 155.612 123.659 155.522 123.444C155.375 123.094 155.552 122.452 155.552 122.452C155.532 121.83 155.433 121.212 155.257 120.615C154.993 119.857 153.053 110.844 153.524 109.764C153.524 109.764 157.638 109.064 159.197 109.589L158.991 116.589C158.991 116.589 158.255 118.69 158.873 119.244C159.49 119.799 158.903 121.519 158.903 121.519C158.903 121.519 158.814 121.84 159.343 122.919C159.873 123.999 159.343 124.494 159.343 124.494V126.565C159.343 126.565 158.933 127.965 159.402 129.102C159.871 130.24 159.349 132.602 159.142 132.639Z" fill="#3F3D56"/>
<path opacity="0.1" d="M153.39 59.0235C155.679 59.0235 157.534 57.1823 157.534 54.9109C157.534 52.6396 155.679 50.7983 153.39 50.7983C151.101 50.7983 149.245 52.6396 149.245 54.9109C149.245 57.1823 151.101 59.0235 153.39 59.0235Z" fill="black"/>
<path d="M153.39 58.8485C155.679 58.8485 157.534 57.0072 157.534 54.7359C157.534 52.4646 155.679 50.6233 153.39 50.6233C151.101 50.6233 149.245 52.4646 149.245 54.7359C149.245 57.0072 151.101 58.8485 153.39 58.8485Z" fill="#FBBEBE"/>
<path opacity="0.1" d="M145.188 98.046L151.008 94.9834C151.008 94.9834 151.008 95.5574 150.998 96.4412C150.148 96.9452 148.866 97.703 147.633 98.4187C146.963 98.809 146.308 99.187 145.748 99.5037C145.617 99.5739 145.481 99.6325 145.34 99.6787C145.263 98.9105 145.188 98.046 145.188 98.046Z" fill="black"/>
<path opacity="0.1" d="M159.349 94.9765C159.349 94.9765 159.349 97.5158 159.277 100.125H159.256C158.821 100.14 158.385 100.127 157.952 100.085C157.192 100.004 156.584 99.8049 156.365 99.4094C155.922 98.6393 154.682 97.6593 153.635 96.9295C153.58 95.435 153.536 94.084 153.536 94.084L159.349 94.9765Z" fill="black"/>
<path d="M158.265 72.7352C158.118 73.8744 158.089 75.0256 158.181 76.1705C160.854 78.3581 160.355 82.9659 160.355 82.9659C160.355 82.9659 162.413 92.3007 161.972 93.1459C161.531 93.9912 162.971 99.1836 162.971 99.1836C161.744 99.4142 160.502 99.5558 159.255 99.6071C158.82 99.6224 158.384 99.609 157.951 99.5668C157.191 99.4863 156.583 99.2868 156.364 98.8913C155.542 97.4633 151.985 95.3335 151.985 95.3335C151.985 95.3335 149.731 96.674 147.633 97.8938C146.962 98.284 146.308 98.6621 145.747 98.9788C145.292 99.2183 144.789 99.3552 144.275 99.3796C141.779 99.5633 138.455 98.0128 138.984 97.4633C139.631 96.7913 142.836 85.0082 142.836 85.0082C142.836 85.0082 144.451 77.7158 145.862 76.6956C146.109 76.5102 146.294 76.2544 146.391 75.9623C146.874 74.6305 146.066 72.4955 146.066 72.4955C146.066 72.4955 141.511 66.9251 141.716 66.6031C141.92 66.2811 141.922 64.5625 141.922 64.5625C141.922 64.5625 142.481 61.85 142.804 60.5374C143.127 59.2249 145.449 58.9029 146.125 59.0202C146.8 59.1374 148.327 59.5452 148.973 59.0202C149.618 58.4951 150.708 59.2249 150.708 59.2249L153.385 59.9564L155.793 58.5564C155.793 58.5564 158.205 58.6789 158.412 58.9992C158.618 59.3194 161.793 59.9337 161.793 59.9337C163.408 61.0117 163.35 66.1463 163.35 66.1463C163.35 66.1463 159.47 69.4994 158.676 71.2214C158.471 71.7052 158.332 72.2145 158.265 72.7352Z" fill="#575A89"/>
<path d="M162.472 65.4358L163.354 66.1358L164.266 74.2735L165.176 82.4409C165.176 82.4409 165.528 83.2582 165.823 83.1707C166.117 83.0832 166.087 88.0113 166.087 88.0113C166.087 88.0113 162.712 85.9515 161.502 88.6868L160.56 82.0909C160.56 82.0909 159.354 75.3533 159.384 74.8283C159.414 74.3032 158.767 68.6156 158.767 68.6156L162.472 65.4358Z" fill="#575A89"/>
<path d="M142.367 65.8154L141.72 66.6029C141.72 66.6029 141.78 69.9858 141.279 70.803C140.778 71.6203 142.662 76.4032 143.367 76.1109C144.072 75.8187 145.66 68.353 145.66 68.2655C145.66 68.178 142.367 65.8154 142.367 65.8154Z" fill="#575A89"/>
<path d="M142.309 70.6282C142.309 70.6282 140.251 72.6985 140.397 73.6907C140.543 74.683 142.513 77.7998 145.335 76.125C145.335 76.125 147.952 71.2407 142.309 70.6282Z" fill="#575A89"/>
<path opacity="0.1" d="M150.736 132.644C150.222 132.663 147.305 132.644 147.305 132.644C147.263 132.6 147.223 132.553 147.186 132.504C147.932 132.252 149.543 131.874 150.736 132.644Z" fill="black"/>
<path opacity="0.1" d="M159.078 132.644C158.565 132.663 155.648 132.644 155.648 132.644C155.606 132.6 155.566 132.553 155.528 132.504C156.271 132.252 157.883 131.874 159.078 132.644Z" fill="black"/>
<path opacity="0.1" d="M147.841 81.3452C147.392 85.6258 147.54 94.1205 147.633 97.8936C146.963 98.2839 146.309 98.6619 145.748 98.9786C145.293 99.2182 144.79 99.355 144.275 99.3794C144.088 98.2384 146.677 86.5183 147.841 81.3452Z" fill="black"/>
<path opacity="0.1" d="M148.391 78.9163C148.379 78.9775 148.165 79.9085 147.841 81.3453C147.968 80.1185 148.144 79.2383 148.391 78.9163Z" fill="black"/>
<path opacity="0.1" d="M155.551 78.4543C155.551 78.4543 158.05 94.0297 150.65 95.9547C150.649 95.9477 155.77 95.176 155.551 78.4543Z" fill="black"/>
<path opacity="0.1" d="M159.256 99.607C158.821 99.6223 158.385 99.6089 157.952 99.5667L155.956 78.2705C157.229 79.0965 158.753 94.2099 159.256 99.607Z" fill="black"/>
<path opacity="0.1" d="M150.303 52.3174C150.436 52.307 150.569 52.3206 150.697 52.3577C150.884 52.4502 151.052 52.576 151.194 52.7287C151.424 52.9194 151.699 53.0491 151.993 53.1058C152.287 53.1624 152.591 53.144 152.877 53.0524C153.078 52.9632 153.291 52.9043 153.51 52.8774C153.847 52.8774 154.138 53.1224 154.312 53.4024C154.487 53.6825 154.577 54.015 154.727 54.3142C154.876 54.6135 155.116 54.897 155.446 54.9705C155.604 54.9766 155.76 55.0122 155.905 55.0755C155.993 55.1471 156.062 55.2406 156.102 55.3467C156.377 55.9365 156.596 56.633 157.183 56.9218C157.399 57.0211 157.635 57.0719 157.873 57.0705C158.115 57.0882 158.358 57.0448 158.578 56.9445C158.795 56.8242 158.975 56.6468 159.097 56.4318C159.464 55.8298 159.506 55.0842 159.42 54.386C159.312 53.5051 158.996 52.662 158.497 51.9254C157.972 51.1805 157.257 50.5872 156.425 50.2063C155.593 49.8253 154.674 49.6703 153.762 49.7571C153.443 49.7926 153.128 49.8511 152.818 49.9321C151.697 50.2296 150.596 50.7861 149.915 51.7189C149.751 51.9517 149.57 52.1728 149.374 52.3804C149.683 52.3507 149.993 52.3244 150.303 52.3174Z" fill="black"/>
<path d="M150.303 52.1424C150.436 52.1319 150.569 52.1456 150.697 52.1826C150.884 52.2752 151.052 52.4009 151.194 52.5536C151.424 52.7444 151.699 52.8741 151.993 52.9307C152.287 52.9873 152.591 52.969 152.877 52.8774C153.078 52.7882 153.291 52.7292 153.51 52.7024C153.847 52.7024 154.138 52.9474 154.312 53.2274C154.487 53.5074 154.577 53.8399 154.727 54.1392C154.876 54.4384 155.116 54.7219 155.446 54.7954C155.604 54.8015 155.76 54.8372 155.905 54.9004C155.993 54.972 156.062 55.0656 156.102 55.1717C156.377 55.7615 156.596 56.458 157.183 56.7467C157.399 56.8461 157.635 56.8969 157.873 56.8955C158.115 56.9131 158.358 56.8698 158.578 56.7695C158.795 56.6492 158.975 56.4717 159.097 56.2567C159.464 55.6547 159.506 54.9092 159.42 54.2109C159.312 53.3301 158.996 52.4869 158.497 51.7504C157.972 51.0054 157.257 50.4122 156.425 50.0312C155.593 49.6503 154.674 49.4953 153.762 49.5821C153.443 49.6176 153.128 49.6761 152.818 49.7571C151.697 50.0546 150.596 50.6111 149.915 51.5439C149.751 51.7767 149.57 51.9977 149.374 52.2054C149.683 52.1756 149.993 52.1494 150.303 52.1424Z" fill="#3F3D56"/>
<path opacity="0.1" d="M145.806 61.9358C145.806 61.9358 146.012 63.5703 145.307 63.9781C144.601 64.3858 145.806 61.9358 145.806 61.9358Z" fill="black"/>
<path opacity="0.1" d="M160.767 74.5956C160.767 74.5956 162.442 72.1455 162.678 72.8455C162.915 73.5455 160.767 74.5956 160.767 74.5956Z" fill="black"/>
<path opacity="0.1" d="M160.885 75.4112C160.885 75.4112 162.537 73.3987 162.696 74.1862C162.855 74.9737 160.885 75.4112 160.885 75.4112Z" fill="black"/>
<path opacity="0.1" d="M156.031 73.0152C155.432 73.0237 154.847 72.8327 154.37 72.4727H154.225C153.73 72.9213 153.081 73.1638 152.41 73.15C152.062 73.158 151.716 73.0958 151.392 72.967C151.069 72.8383 150.775 72.6457 150.529 72.401H150.336C149.829 72.8113 149.191 73.03 148.536 73.0181C147.882 73.0063 147.252 72.7647 146.76 72.3362L146.07 72.324C146.07 72.324 146.878 74.459 146.395 75.7908L158.181 75.9991C158.09 74.8541 158.118 73.7029 158.266 72.5637V72.548L157.618 72.5357C157.153 72.8562 156.598 73.0238 156.031 73.0152Z" fill="black"/>
<path opacity="0.1" d="M156.031 73.3651C155.432 73.3735 154.847 73.1825 154.37 72.8226H154.225C153.73 73.2712 153.081 73.5137 152.41 73.4998C152.062 73.5079 151.716 73.4456 151.392 73.3169C151.069 73.1881 150.775 72.9956 150.529 72.7508H150.336C149.829 73.1612 149.191 73.3798 148.536 73.368C147.882 73.3561 147.252 73.1145 146.76 72.6861L146.07 72.6738C146.07 72.6738 146.878 74.8089 146.395 76.1407L158.181 76.3489C158.09 75.204 158.118 74.0527 158.266 72.9136V72.8978L157.618 72.8856C157.153 73.206 156.598 73.3737 156.031 73.3651Z" fill="black"/>
<path d="M156.031 73.1903C155.432 73.1987 154.847 73.0077 154.37 72.6478H154.225C153.73 73.0964 153.081 73.3389 152.41 73.325C152.062 73.3331 151.716 73.2708 151.392 73.1421C151.069 73.0133 150.775 72.8207 150.529 72.576H150.336C149.829 72.9864 149.191 73.205 148.536 73.1932C147.882 73.1813 147.252 72.9397 146.76 72.5113L146.07 72.499C146.07 72.499 146.878 74.6341 146.395 75.9658L158.181 76.1741C158.09 75.0292 158.118 73.8779 158.266 72.7388V72.723L157.618 72.7108C157.153 73.0312 156.598 73.1989 156.031 73.1903Z" fill="#3F3D56"/>
<path opacity="0.1" d="M155.508 61.521C155.508 61.521 157.989 61.6785 158.005 62.0285C158.021 62.3785 155.508 61.521 155.508 61.521Z" fill="black"/>
<path opacity="0.1" d="M149.48 60.0283C149.48 60.0283 146.998 60.1858 146.982 60.5359C146.967 60.8859 149.48 60.0283 149.48 60.0283Z" fill="black"/>
<path opacity="0.1" d="M158.963 67.184C158.938 67.1665 158.914 67.1525 158.889 67.1367C159.524 67.7037 159.418 68.9428 158.638 69.9648C157.859 70.9868 156.676 71.4121 155.956 70.9536C155.979 70.9728 155.998 70.9938 156.023 71.0131C156.729 71.5486 157.963 71.1286 158.778 70.0715C159.593 69.0145 159.672 67.7212 158.963 67.184Z" fill="black"/>
<path opacity="0.1" d="M145.332 69.8336C144.704 68.7101 144.785 67.4693 145.496 66.9985C145.47 67.0108 145.441 67.0213 145.415 67.0353C144.635 67.4658 144.533 68.7556 145.179 69.9176C145.824 71.0796 146.988 71.6677 147.768 71.2441C147.793 71.2294 147.818 71.2131 147.842 71.1951C147.064 71.5451 145.96 70.9571 145.332 69.8336Z" fill="black"/>
<path opacity="0.1" d="M146.171 60.3588L145.944 60.7088L145.363 60.4025L145.668 59.937C145.87 60.0317 146.043 60.1771 146.171 60.3588Z" fill="black"/>
<path d="M142.485 73.3111C142.485 73.3111 143.001 70.8996 142.308 70.1331C141.615 69.3666 141.837 65.3485 142.895 65.436C143.954 65.5235 145.541 68.7015 145.276 69.3736C145.012 70.0456 144.012 73.4861 144.012 73.4861L142.485 73.3111Z" fill="#FBBEBE"/>
<path opacity="0.1" d="M159.079 55.9123C158.957 56.1273 158.777 56.3047 158.56 56.425C158.34 56.5253 158.097 56.5687 157.855 56.551C157.617 56.5524 157.381 56.5016 157.165 56.4023C156.578 56.1118 156.359 55.4152 156.084 54.8272C156.049 54.7212 155.987 54.6259 155.904 54.5507C155.761 54.4863 155.608 54.4489 155.451 54.4405C155.121 54.367 154.883 54.0817 154.731 53.7842C154.58 53.4867 154.49 53.1577 154.317 52.8724C154.144 52.5872 153.851 52.3369 153.515 52.3474C153.295 52.3763 153.082 52.4382 152.881 52.5312C152.596 52.6221 152.292 52.6399 151.998 52.583C151.704 52.526 151.429 52.3963 151.199 52.2057C151.057 52.053 150.889 51.9272 150.702 51.8347C150.574 51.7976 150.441 51.784 150.308 51.7944C150.106 51.7944 149.904 51.8137 149.702 51.8294C149.601 51.9601 149.493 52.0852 149.379 52.2039C149.688 52.1777 149.998 52.1514 150.308 52.1444C150.441 52.134 150.574 52.1476 150.702 52.1847C150.889 52.2772 151.057 52.403 151.199 52.5557C151.429 52.7463 151.704 52.8761 151.998 52.933C152.292 52.9899 152.596 52.9721 152.881 52.8812C153.082 52.7882 153.295 52.7263 153.515 52.6974C153.851 52.6974 154.142 52.9424 154.317 53.2225C154.492 53.5025 154.582 53.835 154.731 54.1342C154.881 54.4335 155.121 54.717 155.451 54.7905C155.608 54.7989 155.761 54.8363 155.904 54.9007C155.993 54.9723 156.061 55.0659 156.102 55.172C156.377 55.7618 156.596 56.4583 157.183 56.747C157.399 56.8464 157.634 56.8972 157.872 56.8958C158.115 56.9134 158.357 56.8701 158.578 56.7698C158.795 56.6495 158.974 56.472 159.096 56.257C159.37 55.7623 159.493 55.1992 159.449 54.6365C159.436 55.0859 159.308 55.5247 159.079 55.9123Z" fill="black"/>
<path d="M143.267 75.2237C144.144 75.2237 144.854 74.7457 144.854 74.1562C144.854 73.5666 144.144 73.0886 143.267 73.0886C142.39 73.0886 141.68 73.5666 141.68 74.1562C141.68 74.7457 142.39 75.2237 143.267 75.2237Z" fill="#575A89"/>
<path d="M91.5293 133.579C121.578 133.579 145.936 109.407 145.936 79.59C145.936 49.7729 121.578 25.6013 91.5293 25.6013C61.481 25.6013 37.1221 49.7729 37.1221 79.59C37.1221 109.407 61.481 133.579 91.5293 133.579Z" fill="#28DF99" fill-opacity="0.74"/>
<path d="M120.076 106.721C120.076 115.244 106.574 107.449 92.0986 107.449C77.6229 107.449 62.9814 114.922 62.9814 106.399C62.9814 101.539 67.6479 94.7805 74.3426 89.8716C79.3865 86.172 85.5803 83.5225 91.8023 83.5225C98.2006 83.5225 104.468 86.3908 109.468 90.3284C115.778 95.2932 120.076 101.964 120.076 106.721Z" fill="#444053"/>
<path d="M109.467 90.3247C101.772 89.1749 87.8555 87.7731 74.3428 89.8679C79.3867 86.1684 85.5805 83.5188 91.8025 83.5188C98.1991 83.5188 104.467 86.3871 109.467 90.3247Z" fill="#F6F8FB"/>
<path opacity="0.05" d="M62.9815 41.4795C62.9815 41.4795 46.5924 51.8765 46.7264 68.1396C46.8604 84.4027 62.9815 41.4795 62.9815 41.4795Z" fill="black"/>
<path d="M145.915 12.1155C145.915 12.1155 131.065 11.2282 132.816 21.5535C132.816 21.5535 132.464 23.377 134.136 24.2065C134.136 24.2065 134.162 23.4418 135.658 23.7008C136.191 23.7893 136.732 23.8151 137.271 23.7778C138 23.7286 138.692 23.4447 139.243 22.9693C139.243 22.9693 143.417 21.2595 145.042 14.4886C145.042 14.4886 146.243 13.0115 146.195 12.6335L143.689 13.6941C143.689 13.6941 144.544 15.4878 143.865 16.9789C143.865 16.9789 143.784 13.7606 143.303 13.8288C143.206 13.8446 142.001 14.4501 142.001 14.4501C142.001 14.4501 143.474 17.5756 142.354 19.8454C142.354 19.8454 142.775 15.9954 141.532 14.6758L139.769 15.6979C139.769 15.6979 141.49 18.9249 140.322 21.5587C140.322 21.5587 140.622 17.5196 139.398 15.9464L137.799 17.1836C137.799 17.1836 139.416 20.3652 138.43 22.5493C138.43 22.5493 138.301 17.8469 137.453 17.4916C137.453 17.4916 136.054 18.7167 135.841 19.2189C135.841 19.2189 136.949 21.5272 136.262 22.7453C136.262 22.7453 135.841 19.6127 135.495 19.5952C135.495 19.5952 134.102 21.6707 133.956 23.0953C133.956 23.0953 134.017 20.9777 135.157 19.3974C135.157 19.3974 133.809 19.6267 133.025 20.4947C133.025 20.4947 133.241 19.0264 135.494 18.8987C135.494 18.8987 136.645 17.3236 136.954 17.2291C136.954 17.2291 134.705 17.0419 133.342 17.6421C133.342 17.6421 134.541 16.2579 137.365 16.8861L138.952 15.6086C138.952 15.6086 135.993 15.2061 134.737 15.6506C134.737 15.6506 136.181 14.4256 139.377 15.3181L141.097 14.2978C141.097 14.2978 138.573 13.7588 137.068 13.9478C137.068 13.9478 138.656 13.099 141.599 14.0196L142.834 13.4718C142.834 13.4718 140.984 13.1113 140.442 13.0553C139.901 12.9993 139.873 12.8488 139.873 12.8488C141.047 12.6592 142.252 12.798 143.352 13.2495C143.352 13.2495 145.959 12.2783 145.915 12.1155Z" fill="#28DF99"/>
<path d="M130.684 7.52507C130.684 7.52507 123.983 7.12256 124.766 11.7882C124.766 11.7882 124.609 12.6124 125.362 12.9869C125.362 12.9869 125.372 12.6369 126.05 12.7594C126.29 12.7987 126.535 12.8105 126.778 12.7944C127.107 12.7711 127.42 12.6428 127.67 12.4287C127.67 12.4287 129.556 11.6552 130.289 8.5961C130.289 8.5961 130.833 7.92933 130.818 7.75783L129.686 8.23734C129.686 8.23734 130.074 9.04761 129.769 9.72137C129.769 9.72137 129.732 8.26709 129.515 8.30209C129.471 8.30209 128.926 8.5821 128.926 8.5821C128.926 8.5821 129.593 9.99438 129.09 11.0199C129.09 11.0199 129.281 9.28036 128.72 8.6836L127.923 9.14561C127.923 9.14561 128.7 10.6051 128.173 11.7952C128.173 11.7952 128.307 9.96988 127.755 9.25936L127.032 9.81763C127.032 9.81763 127.762 11.2544 127.318 12.2414C127.318 12.2414 127.26 10.1169 126.875 9.95588C126.875 9.95588 126.244 10.5089 126.147 10.7364C126.147 10.7364 126.648 11.7864 126.337 12.3307C126.337 12.3307 126.147 10.9149 125.984 10.9097C125.984 10.9097 125.355 11.8459 125.29 12.4847C125.32 11.8902 125.507 11.314 125.831 10.8134C125.468 10.8815 125.133 11.0537 124.868 11.3087C124.868 11.3087 124.965 10.6454 125.986 10.5876C125.986 10.5876 126.506 9.87713 126.646 9.83338C126.646 9.83338 125.63 9.74937 125.014 10.0206C125.014 10.0206 125.556 9.39412 126.833 9.67062L127.538 9.09486C127.538 9.09486 126.201 8.91986 125.633 9.11236C125.633 9.11236 126.286 8.55935 127.73 8.96361L128.506 8.5016C128.506 8.5016 127.367 8.25834 126.686 8.34584C126.686 8.34584 127.404 7.96258 128.734 8.37909L129.289 8.13059C129.289 8.13059 128.453 7.96783 128.21 7.94333C127.967 7.91883 127.951 7.85058 127.951 7.85058C128.48 7.76319 129.024 7.82378 129.52 8.02558C129.52 8.02558 130.704 7.59858 130.684 7.52507Z" fill="#28DF99"/>
<path opacity="0.1" d="M189.25 127.755C191.873 127.755 194 127.398 194 126.958C194 126.519 191.873 126.162 189.25 126.162C186.627 126.162 184.501 126.519 184.501 126.958C184.501 127.398 186.627 127.755 189.25 127.755Z" fill="#28DF99"/>
<path opacity="0.1" d="M8.24841 141.001C10.8714 141.001 12.9978 140.644 12.9978 140.204C12.9978 139.765 10.8714 139.408 8.24841 139.408C5.6254 139.408 3.49902 139.765 3.49902 140.204C3.49902 140.644 5.6254 141.001 8.24841 141.001Z" fill="#28DF99"/>
<path opacity="0.1" d="M35.8187 142C38.4417 142 40.5681 141.643 40.5681 141.204C40.5681 140.764 38.4417 140.407 35.8187 140.407C33.1957 140.407 31.0693 140.764 31.0693 141.204C31.0693 141.643 33.1957 142 35.8187 142Z" fill="#28DF99"/>
<path d="M178.856 136.682C182.773 136.682 185.948 136.149 185.948 135.492C185.948 134.835 182.773 134.302 178.856 134.302C174.94 134.302 171.765 134.835 171.765 135.492C171.765 136.149 174.94 136.682 178.856 136.682Z" fill="#28DF99"/>
<path d="M181.787 133.547C182.111 133.285 182.347 132.932 182.465 132.534C182.551 132.133 182.378 131.65 181.992 131.503C181.558 131.339 181.094 131.638 180.743 131.939C180.392 132.24 179.988 132.583 179.528 132.52C179.765 132.307 179.942 132.037 180.042 131.736C180.142 131.435 180.162 131.114 180.1 130.803C180.079 130.674 180.025 130.553 179.941 130.453C179.699 130.198 179.264 130.306 178.974 130.507C178.057 131.148 177.802 132.383 177.796 133.496C177.705 133.096 177.782 132.677 177.78 132.271C177.779 131.865 177.664 131.396 177.315 131.181C177.098 131.066 176.855 131.01 176.609 131.017C176.197 131.001 175.738 131.041 175.456 131.34C175.103 131.713 175.197 132.336 175.502 132.74C175.807 133.145 176.269 133.407 176.694 133.689C177.036 133.891 177.328 134.166 177.548 134.496C177.573 134.542 177.595 134.591 177.611 134.641H180.195C180.773 134.349 181.309 133.981 181.787 133.547Z" fill="#28DF99"/>
<path d="M10.4658 118.873C10.4658 118.873 11.434 120.13 10.0179 122.023C8.6017 123.917 7.43419 125.523 7.90154 126.706C7.90154 126.706 10.0373 123.182 11.7815 123.131C13.5257 123.08 12.3776 120.993 10.4658 118.873Z" fill="#28DF99"/>
<path opacity="0.1" d="M10.4654 118.873C10.5495 118.995 10.616 119.127 10.6629 119.267C12.3595 121.245 13.2625 123.091 11.6329 123.136C10.1127 123.18 8.28207 125.875 7.85352 126.556C7.8685 126.609 7.88616 126.661 7.90642 126.712C7.90642 126.712 10.0422 123.187 11.7864 123.136C13.5306 123.086 12.3772 120.993 10.4654 118.873Z" fill="black"/>
<path d="M12.266 120.475C12.266 120.917 12.2148 121.276 12.1531 121.276C12.0914 121.276 12.042 120.926 12.042 120.475C12.042 120.023 12.1037 120.24 12.1672 120.24C12.2307 120.24 12.266 120.032 12.266 120.475Z" fill="#FFD037"/>
<path d="M12.8763 121.003C12.4848 121.215 12.1444 121.343 12.1144 121.288C12.0844 121.234 12.3789 121.021 12.7705 120.809C13.162 120.597 13.0068 120.751 13.0368 120.809C13.0668 120.866 13.2749 120.791 12.8763 121.003Z" fill="#FFD037"/>
<path d="M5.34735 118.873C5.34735 118.873 4.37913 120.13 5.79354 122.023C7.20795 123.917 8.37722 125.523 7.90986 126.706C7.90986 126.706 5.77238 123.182 4.02993 123.131C2.28749 123.08 3.43384 120.993 5.34735 118.873Z" fill="#28DF99"/>
<path opacity="0.1" d="M5.34697 118.873C5.26212 118.994 5.19557 119.127 5.14945 119.267C3.45286 121.245 2.54813 123.091 4.17947 123.136C5.69793 123.18 7.53032 125.875 7.95711 126.556C7.94272 126.609 7.92565 126.661 7.90596 126.712C7.90596 126.712 5.76848 123.187 4.02603 123.136C2.28359 123.086 3.43346 120.993 5.34697 118.873Z" fill="black"/>
<path d="M3.54688 120.475C3.54688 120.917 3.59626 121.276 3.65798 121.276C3.71971 121.276 3.76909 120.926 3.76909 120.475C3.76909 120.023 3.70736 120.24 3.64564 120.24C3.58391 120.24 3.54688 120.032 3.54688 120.475Z" fill="#FFD037"/>
<path d="M2.92765 121.003C3.31917 121.215 3.66131 121.343 3.69129 121.288C3.72127 121.234 3.42675 121.021 3.03523 120.809C2.64371 120.597 2.79714 120.751 2.76892 120.809C2.74071 120.866 2.53613 120.791 2.92765 121.003Z" fill="#FFD037"/>
<path d="M3.85547 126.547C3.85547 126.547 6.56436 126.465 7.38268 125.887C8.20099 125.31 11.5501 124.622 11.7529 125.537C11.9557 126.453 15.8233 130.14 12.7652 130.165C9.70711 130.189 5.65964 129.69 4.84485 129.199C4.03007 128.707 3.85547 126.547 3.85547 126.547Z" fill="#A8A8A8"/>
<path opacity="0.2" d="M12.8163 129.851C9.75825 129.876 5.71078 129.377 4.896 128.885C4.27521 128.511 4.0283 127.165 3.94541 126.544H3.85547C3.85547 126.544 4.03183 128.712 4.84132 129.204C5.65082 129.696 9.70358 130.194 12.7617 130.17C13.6435 130.17 13.9486 129.85 13.9327 129.389C13.8093 129.671 13.4742 129.846 12.8163 129.851Z" fill="black"/>
<path d="M72.1856 72.5111C73.2208 72.4533 78.0937 72.0893 81.1888 70.3375C81.6859 70.0473 82.2474 69.8832 82.8236 69.8597C83.8077 69.8317 84.94 70.2395 84.2151 72.5216C83.0406 76.2544 76.2207 80.4545 71.9881 80.2217C67.9177 79.9977 63.0889 78.3702 59.9003 72.6476C59.5948 72.097 59.4443 71.4749 59.4647 70.8468C59.5018 69.6917 59.925 68.2445 62.1101 69.858C65.0624 72.0368 70.6636 72.4498 71.787 72.5111C71.9198 72.5181 72.0528 72.5181 72.1856 72.5111Z" fill="#444053"/>
<path d="M111.338 72.5111C112.373 72.4533 117.246 72.0893 120.341 70.3375C120.838 70.0473 121.4 69.8832 121.976 69.8597C122.96 69.8317 124.092 70.2395 123.367 72.5216C122.193 76.2544 115.373 80.4545 111.14 80.2217C107.07 79.9977 102.241 78.3702 99.0527 72.6476C98.7472 72.097 98.5967 71.4749 98.6171 70.8468C98.6541 69.6917 99.0774 68.2445 101.262 69.858C104.215 72.0368 109.816 72.4498 110.939 72.5111C111.072 72.5181 111.205 72.5181 111.338 72.5111Z" fill="#444053"/>
</g>
<defs>
<linearGradient id="paint0_linear" x1="157.338" y1="132.651" x2="157.338" y2="46.1922" gradientUnits="userSpaceOnUse">
<stop stop-color="#808080" stop-opacity="0.25"/>
<stop offset="0.54" stop-color="#808080" stop-opacity="0.12"/>
<stop offset="1" stop-color="#808080" stop-opacity="0.1"/>
</linearGradient>
<clipPath id="clip0">
<rect width="194" height="142" fill="white"/>
</clipPath>
</defs>
</svg>
