<svg width="164" height="252" viewBox="0 0 164 252" fill="none" xmlns="http://www.w3.org/2000/svg">
<g clip-path="url(#clip0)">
<path opacity="0.2" d="M163.171 96.7142L160.683 96.7058L151.141 96.677L149.022 96.6728L142.595 96.6563L141.007 96.6479H140.302L107.158 96.557L106.631 96.5528H106.129L104.114 96.5447L98.425 96.5321L95.6799 96.524L89.9824 96.5076V14.2122L160.268 8.02169L162.756 7.80237L163.171 96.7142Z" fill="black"/>
<path d="M160.683 96.7059V96.7142L153.716 96.6935L151.141 96.6853L149.022 96.6811L145.978 96.6729L144.764 96.6687L142.599 96.6646L141.475 96.6605H141.007L140.314 96.6563H140.302L135.073 96.6439L134.127 96.6398L120.721 96.6026L118.312 96.5943L108.48 96.5653L107.158 96.5612H106.627C106.629 96.5591 106.631 96.5561 106.631 96.5529H106.129L104.114 96.5447L98.4247 96.5323V96.5364L95.6796 96.5281L93.7929 96.524H93.3699L87.4941 96.5074V14.2123L160.268 7.80237V8.02153L160.683 96.7059Z" fill="#E6E6E6"/>
<path opacity="0.2" d="M123.985 6.35516C125.588 6.35516 126.887 5.05911 126.887 3.46035C126.887 1.8616 125.588 0.565552 123.985 0.565552C122.382 0.565552 121.082 1.8616 121.082 3.46035C121.082 5.05911 122.382 6.35516 123.985 6.35516Z" fill="black"/>
<path d="M122.326 6.35516C123.93 6.35516 125.229 5.05911 125.229 3.46035C125.229 1.8616 123.93 0.565552 122.326 0.565552C120.723 0.565552 119.424 1.8616 119.424 3.46035C119.424 5.05911 120.723 6.35516 122.326 6.35516Z" fill="#3F3D56"/>
<path opacity="0.2" d="M146.586 -2.06106e-05L101.118 3.62292L101.382 6.92077L146.851 3.29782L146.586 -2.06106e-05Z" fill="black"/>
<path d="M144.928 -2.06106e-05L99.46 3.62292L99.7242 6.92077L145.192 3.29782L144.928 -2.06106e-05Z" fill="#E6E6E6"/>
<path opacity="0.56" d="M149.201 78.3499C146.763 69.1362 145.465 68.4249 145.465 68.4249L131.715 61.5228L131.623 61.4897L123.894 67.176L120.564 62.0646L120.398 61.9199C120.398 61.9199 120.328 61.9488 120.191 62.0026C118.997 62.4823 112.847 65.0173 108.282 68.032L108.141 68.0113L102.754 70.6829L101.788 74.2435L100.673 78.3499L96.833 96.1406V96.1447L99.5781 96.153V96.1489L105.267 96.1613L106.163 91.7777L107.283 96.1695H107.784C107.784 96.1727 107.783 96.1757 107.78 96.1778H108.311L109.634 96.1819L119.465 96.2109L121.875 96.2192L135.281 96.2564L136.226 96.2605L141.455 96.2729H141.468L142.16 96.2771V96.2646L142.517 92.3897L142.732 91.3063L143.748 96.2729L143.752 96.2812L145.917 96.2853L147.132 96.2894L150.176 96.2977L152.294 96.3019V96.2936C151.71 92.3525 150.097 81.741 149.201 78.3499Z" fill="#28DF99"/>
<path opacity="0.56" d="M137.267 51.038L137.272 51.0565C137.266 51.0577 137.264 51.0514 137.267 51.038C137.212 50.8491 136.517 48.6194 134.529 49.7669C132.455 50.9643 129.975 43.4462 129.975 43.4462C129.975 43.4462 123.73 45.1606 119.917 44.898C119.659 44.8795 119.405 44.8186 119.166 44.7178C118.293 46.5204 118.001 48.548 118.329 50.5228C118.657 52.4976 119.589 54.3229 120.998 55.7486L120.325 61.7321L123.785 67.1001L131.475 61.3487C131.475 61.3487 131.572 62.8125 131.887 57.7988C133.377 57.1353 134.675 56.1092 135.664 54.8147C136.652 53.5203 137.298 51.9989 137.543 50.3904C137.387 50.744 137.279 50.974 137.267 51.038Z" fill="#FFB8B8"/>
<path opacity="0.56" d="M137.543 50.7738C138.393 48.8467 140.67 43.1742 136.672 39.7563C133.364 36.9285 121.695 34.4049 117.966 41.9124C117.825 42.1987 117.743 42.5109 117.727 42.8297C117.712 43.1485 117.762 43.4672 117.874 43.766C117.987 44.0649 118.159 44.3375 118.382 44.5672C118.604 44.7968 118.871 44.9786 119.167 45.1013C119.22 44.9903 119.281 44.8835 119.339 44.7749C119.526 44.8406 119.72 44.882 119.918 44.898C123.73 45.1607 129.975 43.4462 129.975 43.4462C129.975 43.4462 132.455 50.9643 134.53 49.7669C136.518 48.6195 137.212 50.8492 137.267 51.0381C137.279 50.974 137.388 50.744 137.543 50.3904C137.606 49.9615 137.641 49.5288 137.646 49.0954C137.648 49.1716 137.652 49.2473 137.652 49.324C137.652 49.8092 137.616 50.2939 137.543 50.7738Z" fill="#2F2E41"/>
<path d="M63.8584 252C99.1264 252 127.717 247.556 127.717 242.075C127.717 236.594 99.1264 232.15 63.8584 232.15C28.5904 232.15 0 236.594 0 242.075C0 247.556 28.5904 252 63.8584 252Z" fill="#E6E6E6"/>
<path d="M162.342 222.018L148.451 238.055L148.193 238.353L66.7617 225.947V133.313H162.135L162.342 222.018Z" fill="#3F3D56"/>
<path d="M74.8784 168.259L74.8164 169.083L91.403 170.324L91.465 169.499L74.8784 168.259Z" fill="#E6E6E6"/>
<path d="M115.513 171.981L115.454 172.805L132.87 174.046L132.929 173.221L115.513 171.981Z" fill="#E6E6E6"/>
<path d="M148.268 159.16L66.5787 154.198L66.5283 155.023L103.875 157.292L104.51 231.764L105.339 231.757L104.705 157.342L148.217 159.986L148.268 159.16Z" fill="#E6E6E6"/>
<path opacity="0.2" d="M162.341 222.018L148.45 238.055V133.313H162.134L162.341 222.018Z" fill="black"/>
<path d="M72.3595 135.174H64.8955V130.211L84.7994 126.49L86.0434 124.008L164 126.076V133.106L148.451 138.767L138.291 138.482C138.291 138.482 122.949 151.302 104.703 150.062C86.458 148.821 72.3595 135.174 72.3595 135.174Z" fill="#E6E6E6"/>
<path d="M140.157 130.418L135.803 133.52L123.607 133.226C123.607 133.23 123.603 133.226 123.603 133.226H123.582L122.654 133.205H122.649L121.878 133.185L119.444 133.127L119.241 133.123L117.089 133.073L117.01 133.069L114.335 133.007L114.161 133.003L112.183 132.953L111.864 132.949L109.542 132.891L108.795 132.875L104.62 132.775L103.567 132.751L92.4701 132.486C92.4701 132.486 84.5624 132.879 84.1892 130.588C84.1808 130.532 84.1766 130.475 84.1768 130.418C84.1768 129.116 85.5535 128.838 86.8555 128.872C87.6293 128.9 88.3986 129.002 89.1528 129.178L92.3374 129.256L94.3236 129.302L100.556 129.455L105.884 129.583L107.771 129.632L110.471 129.699L111.541 129.723L115.513 129.819L117.371 129.864L121.293 129.959L140.157 130.418Z" fill="#CCCCCC"/>
<path d="M116.936 132.486C117.394 132.486 117.765 132.116 117.765 131.659C117.765 131.202 117.394 130.832 116.936 130.832C116.478 130.832 116.106 131.202 116.106 131.659C116.106 132.116 116.478 132.486 116.936 132.486Z" fill="#3F3D56"/>
<path d="M117.35 129.591C121.702 129.591 125.229 129.221 125.229 128.764C125.229 128.307 121.702 127.937 117.35 127.937C112.999 127.937 109.472 128.307 109.472 128.764C109.472 129.221 112.999 129.591 117.35 129.591Z" fill="#CCCCCC"/>
<path d="M112.419 118.252L119.294 119.924L118.509 123.138L108.645 120.74L108.702 120.506C108.895 119.716 109.396 119.034 110.093 118.612C110.79 118.189 111.626 118.06 112.419 118.252Z" fill="#3F3D56"/>
<path d="M109.822 120.846L113.513 121.399L113.495 121.518C113.434 121.921 113.216 122.282 112.888 122.524C112.56 122.766 112.149 122.868 111.746 122.807L111.097 122.71C110.693 122.649 110.331 122.432 110.088 122.104C109.846 121.777 109.744 121.367 109.804 120.965L109.822 120.846L109.822 120.846Z" fill="#3F3D56"/>
<path opacity="0.2" d="M118.509 122.311L113.353 121.057C113.198 121.371 112.948 121.628 112.638 121.791C112.327 121.953 111.973 122.013 111.627 121.962L111.217 121.901C110.813 121.839 110.447 121.632 110.188 121.317C109.929 121.003 109.796 120.604 109.814 120.197L108.936 119.984C108.808 120.223 108.711 120.477 108.646 120.74L109.814 121.024C109.796 121.431 109.929 121.83 110.188 122.144C110.447 122.459 110.813 122.667 111.217 122.728L111.627 122.789C111.973 122.84 112.327 122.78 112.638 122.618C112.948 122.455 113.198 122.198 113.353 121.884L118.509 123.138L119.294 119.924L119.104 119.877L118.509 122.311Z" fill="black"/>
<path d="M117.64 129.178C117.228 129.178 116.822 129.094 116.444 128.932C116.066 128.77 115.726 128.534 115.443 128.236C115.16 127.939 114.941 127.587 114.798 127.202C114.656 126.818 114.594 126.408 114.616 125.999L115.07 117.392L120.668 117.185V126.158C120.668 126.554 120.589 126.947 120.437 127.313C120.285 127.68 120.062 128.013 119.781 128.293C119.5 128.573 119.166 128.796 118.798 128.948C118.431 129.099 118.037 129.178 117.64 129.178Z" fill="#3F3D56"/>
<path d="M120.253 117.392H115.211C116.086 116.069 115.54 114.714 114.317 113.343C114.246 113.263 114.201 113.165 114.185 113.061C114.169 112.956 114.184 112.849 114.228 112.753C114.271 112.656 114.342 112.574 114.431 112.517C114.52 112.459 114.624 112.429 114.731 112.429H116.652C118.641 112.429 120.253 114.281 120.253 116.565V117.392Z" fill="#3F3D56"/>
<path opacity="0.2" d="M115.975 113.343C115.905 113.263 115.859 113.165 115.843 113.061C115.828 112.956 115.843 112.849 115.886 112.753C115.93 112.656 116.001 112.574 116.09 112.517C116.179 112.459 116.283 112.429 116.389 112.429H114.731C114.624 112.429 114.52 112.459 114.431 112.517C114.342 112.574 114.271 112.656 114.228 112.753C114.184 112.849 114.169 112.956 114.185 113.061C114.201 113.165 114.246 113.263 114.317 113.343C115.54 114.714 116.086 116.069 115.211 117.392H116.87C117.744 116.069 117.199 114.714 115.975 113.343Z" fill="black"/>
<path d="M92.05 122.266L98.4272 124.514C98.4272 124.514 113.597 125.721 111.628 129.569C109.66 133.417 96.677 130.931 96.677 130.931L90.5283 126.674L92.05 122.266Z" fill="#FFB8B8"/>
<path d="M101.593 127.937C101.168 127.937 100.76 128.101 100.453 128.393C100.146 128.685 99.9632 129.084 99.9425 129.506C99.8497 129.421 99.7446 129.351 99.6306 129.298C99.9438 129.085 100.175 128.772 100.286 128.411C100.396 128.05 100.38 127.662 100.24 127.311C100.099 126.96 99.843 126.668 99.5133 126.482C99.1835 126.296 98.8 126.228 98.4262 126.289C98.0524 126.35 97.7106 126.536 97.4574 126.817C97.2043 127.098 97.0548 127.457 97.0338 127.834C97.0128 128.211 97.1215 128.584 97.3419 128.891C97.5623 129.199 97.8813 129.422 98.246 129.524C98.1044 129.658 97.9967 129.825 97.9318 130.009C97.8669 130.193 97.8466 130.39 97.8726 130.584C97.8986 130.778 97.97 130.962 98.0812 131.123C98.1924 131.284 98.3401 131.416 98.5123 131.509C98.6846 131.602 98.8764 131.653 99.0722 131.658C99.268 131.663 99.4622 131.622 99.6389 131.538C99.8157 131.454 99.97 131.329 100.089 131.175C100.209 131.02 100.29 130.839 100.325 130.647C100.504 130.86 100.734 131.025 100.993 131.126C101.253 131.227 101.534 131.261 101.81 131.225C102.086 131.189 102.349 131.084 102.574 130.92C102.799 130.756 102.978 130.538 103.096 130.286C103.214 130.034 103.266 129.756 103.248 129.479C103.229 129.202 103.141 128.934 102.991 128.7C102.841 128.465 102.634 128.273 102.39 128.139C102.145 128.006 101.871 127.936 101.593 127.937Z" fill="white"/>
<path d="M104.496 128.764C104.071 128.765 103.664 128.928 103.356 129.22C103.049 129.512 102.867 129.911 102.846 130.334C102.753 130.249 102.648 130.178 102.534 130.125C102.847 129.912 103.078 129.6 103.189 129.238C103.3 128.877 103.284 128.489 103.143 128.138C103.003 127.787 102.746 127.495 102.417 127.309C102.087 127.123 101.703 127.055 101.329 127.116C100.956 127.177 100.614 127.363 100.361 127.644C100.108 127.925 99.9581 128.284 99.9371 128.661C99.9161 129.038 100.025 129.411 100.245 129.719C100.466 130.026 100.785 130.249 101.149 130.351C101.008 130.486 100.9 130.652 100.835 130.836C100.77 131.021 100.75 131.217 100.776 131.411C100.802 131.605 100.873 131.789 100.985 131.95C101.096 132.111 101.243 132.243 101.416 132.336C101.588 132.429 101.78 132.48 101.975 132.486C102.171 132.491 102.365 132.449 102.542 132.365C102.719 132.281 102.873 132.157 102.993 132.002C103.112 131.847 103.193 131.666 103.229 131.474C103.407 131.687 103.637 131.852 103.897 131.953C104.156 132.054 104.437 132.088 104.714 132.052C104.99 132.016 105.253 131.911 105.477 131.747C105.702 131.583 105.882 131.365 105.999 131.113C106.117 130.861 106.169 130.584 106.151 130.306C106.133 130.029 106.044 129.761 105.894 129.527C105.745 129.292 105.538 129.1 105.293 128.966C105.049 128.833 104.775 128.764 104.496 128.764Z" fill="white"/>
<path d="M96.6916 122.085L90.9194 131.593L78.7822 123.467L64.8411 114.137L56.4359 92.1282L47.8896 76.5211L58.6005 73.374C58.6005 73.374 62.2868 73.5146 67.0513 82.2363C71.8117 90.962 76.0537 106.065 76.0537 106.065L81.747 110.485L96.6916 122.085Z" fill="#28DF99"/>
<path opacity="0.2" d="M96.6916 122.085L90.9194 131.593L78.7822 123.467L64.8411 114.137L56.4359 92.1282L47.8896 76.5211L58.6005 73.374C58.6005 73.374 62.2868 73.5146 67.0513 82.2363C71.8117 90.962 76.0537 106.065 76.0537 106.065L81.747 110.485L96.6916 122.085Z" fill="black"/>
<path d="M123.583 133.226L108.796 132.875L107.622 131.547L106.793 130.608L105.885 129.583L104.877 128.446L106.594 125.791L107.411 124.525L110.72 126.692L113.067 128.226C113.067 128.226 115.032 128.88 117.371 129.864C119.544 130.782 122.044 131.99 123.583 133.226Z" fill="#FFB8B8"/>
<path d="M66.3514 57.4569C71.9513 57.4569 76.4909 52.9296 76.4909 47.3448C76.4909 41.7601 71.9513 37.2328 66.3514 37.2328C60.7515 37.2328 56.2119 41.7601 56.2119 47.3448C56.2119 52.9296 60.7515 57.4569 66.3514 57.4569Z" fill="#FFB8B8"/>
<path d="M58.4934 50.1256L57.4795 64.7881L70.1538 66.3049C70.1538 66.3049 70.1538 54.1704 71.1678 52.6536C72.1817 51.1368 58.4934 50.1256 58.4934 50.1256Z" fill="#FFB8B8"/>
<path d="M86.63 69.0858L70.2128 62.1522C70.2128 62.1522 62.3704 56.1173 57.7701 60.5791L55.7046 63.5241C55.7046 63.5241 43.125 70.269 43.125 75.8306L44.5512 103.972C44.5512 103.972 40.4954 119.646 46.5791 120.657L79.5324 123.691C79.5324 123.691 84.0951 118.129 80.0393 111.051L81.5603 94.3659L86.63 69.0858Z" fill="#28DF99"/>
<path d="M75.4766 69.5913L86.63 69.0857C86.63 69.0857 87.4473 69.9459 89.9821 79.5524C92.517 89.1588 95.7555 104.983 95.7555 104.983L111.959 125.456L104.081 133.313L82.9328 110.155L80.0393 86.7818L75.4766 69.5913Z" fill="#28DF99"/>
<path d="M81.0535 122.679L44.6038 119.481C44.6038 119.481 41.0026 142.398 41.5096 151.499C42.0166 160.6 42.5235 174.756 42.5235 174.756L38.4678 236.44L54.184 234.418L56.2118 183.352L62.8025 155.544L70.4071 190.936L75.4768 236.44L89.1651 234.923L84.6023 179.812C84.6023 179.812 88.6581 130.263 81.0535 122.679Z" fill="#2F2E41"/>
<path d="M86.1229 232.395L90.6856 233.912C90.6856 233.912 100.318 231.384 97.7832 237.957C95.2484 244.53 88.1507 243.518 88.1507 243.518C88.1507 243.518 79.5322 250.091 75.9834 245.035L78.0113 234.418L86.1229 232.395Z" fill="#2F2E41"/>
<path d="M49.1141 232.395L53.6768 233.912C53.6768 233.912 63.3093 231.384 60.7745 237.957C58.2396 244.53 51.142 243.518 51.142 243.518C51.142 243.518 42.5234 250.091 38.9746 245.035L41.0025 234.418L49.1141 232.395Z" fill="#2F2E41"/>
<path d="M58.4934 56.1929C58.4934 56.1929 47.8469 48.6088 53.4237 39.508C57.2925 33.1944 65.3092 33.6941 69.8567 34.5924C71.0818 34.8179 72.2336 35.3372 73.2127 36.1055C74.1918 36.8737 74.9689 37.8679 75.477 39.0024C76.2374 40.772 76.2374 42.5416 73.1956 42.5416C67.1119 42.5416 70.1538 47.092 70.1538 47.092C70.1538 47.092 66.098 48.1032 67.1119 51.6424C68.1259 55.1817 58.4934 56.1929 58.4934 56.1929Z" fill="#2F2E41"/>
<path d="M123.155 133.313C123.842 133.313 124.399 132.758 124.399 132.072C124.399 131.387 123.842 130.832 123.155 130.832C122.468 130.832 121.911 131.387 121.911 132.072C121.911 132.758 122.468 133.313 123.155 133.313Z" fill="white"/>
<path d="M121.912 131.245C121.912 130.998 121.857 130.755 121.75 130.532C121.643 130.309 121.487 130.114 121.294 129.959C120.999 129.722 120.632 129.592 120.253 129.591C120.232 129.591 120.216 129.595 120.195 129.595C120.111 129.264 119.926 128.967 119.666 128.745C119.405 128.523 119.082 128.388 118.741 128.357C118.399 128.327 118.057 128.403 117.761 128.575C117.465 128.747 117.23 129.007 117.089 129.318C116.826 129.181 116.522 129.142 116.233 129.211C115.945 129.279 115.69 129.45 115.517 129.69C114.297 129.535 113.101 129.224 111.96 128.764C111.648 128.764 111.343 128.851 111.08 129.017C110.816 129.182 110.605 129.419 110.471 129.699C110.358 129.922 110.3 130.168 110.301 130.418C110.302 130.716 110.386 131.008 110.542 131.262C110.245 131.303 109.974 131.45 109.777 131.675C109.581 131.9 109.472 132.188 109.472 132.486C109.471 132.624 109.495 132.761 109.542 132.891L111.864 132.949C111.896 132.873 111.92 132.794 111.935 132.713C112.009 132.802 112.093 132.882 112.184 132.953L114.162 133.003L114.274 132.916C114.292 132.948 114.313 132.978 114.336 133.007L117.01 133.069C117.027 133.051 117.042 133.031 117.056 133.011C117.065 133.033 117.076 133.053 117.089 133.073L119.241 133.123C119.327 132.981 119.384 132.824 119.407 132.66C119.419 132.668 119.431 132.675 119.444 132.68C119.431 132.753 119.424 132.826 119.424 132.9C119.424 132.976 119.431 133.052 119.444 133.127L121.878 133.185C121.9 133.091 121.911 132.996 121.912 132.9C121.91 132.624 121.817 132.356 121.646 132.139C121.819 131.873 121.911 131.562 121.912 131.245ZM117.471 131.212C117.399 131.299 117.317 131.375 117.226 131.44C117.251 131.502 117.263 131.568 117.284 131.63C117.389 131.519 117.514 131.429 117.653 131.365C117.589 131.319 117.528 131.268 117.471 131.212V131.212Z" fill="white"/>
<path d="M134.351 133.727C135.038 133.727 135.595 133.171 135.595 132.486C135.595 131.801 135.038 131.245 134.351 131.245C133.664 131.245 133.107 131.801 133.107 132.486C133.107 133.171 133.664 133.727 134.351 133.727Z" fill="white"/>
<path d="M133.107 131.659C133.107 131.412 133.052 131.168 132.945 130.945C132.838 130.723 132.682 130.527 132.489 130.373C132.194 130.136 131.827 130.006 131.448 130.005C131.428 130.005 131.411 130.009 131.39 130.009C131.307 129.677 131.122 129.38 130.861 129.158C130.601 128.937 130.277 128.801 129.936 128.771C129.595 128.74 129.252 128.816 128.957 128.989C128.661 129.161 128.426 129.42 128.284 129.732C128.022 129.594 127.718 129.556 127.429 129.624C127.14 129.693 126.886 129.863 126.713 130.104C125.492 129.949 124.296 129.637 123.155 129.178C122.844 129.177 122.539 129.265 122.275 129.43C122.012 129.596 121.801 129.832 121.666 130.112C121.553 130.335 121.495 130.582 121.496 130.832C121.498 131.13 121.581 131.421 121.737 131.675C121.441 131.717 121.169 131.863 120.973 132.088C120.776 132.313 120.668 132.601 120.667 132.899C120.667 133.038 120.691 133.175 120.737 133.305L123.06 133.363C123.092 133.287 123.115 133.208 123.13 133.127C123.205 133.215 123.288 133.295 123.379 133.367L125.357 133.416L125.469 133.33C125.487 133.361 125.508 133.392 125.531 133.421L128.206 133.483C128.222 133.464 128.237 133.445 128.251 133.425C128.261 133.446 128.272 133.467 128.284 133.487L130.436 133.536C130.523 133.395 130.579 133.237 130.602 133.073C130.614 133.082 130.626 133.089 130.64 133.094C130.627 133.166 130.62 133.24 130.619 133.313C130.619 133.389 130.626 133.465 130.64 133.54L133.074 133.598C133.095 133.505 133.107 133.409 133.107 133.313C133.105 133.037 133.012 132.769 132.842 132.552C133.015 132.286 133.107 131.976 133.107 131.659ZM128.666 131.626C128.595 131.712 128.512 131.789 128.421 131.853C128.446 131.915 128.459 131.981 128.479 132.043C128.584 131.932 128.709 131.842 128.848 131.779C128.784 131.732 128.723 131.681 128.666 131.626H128.666Z" fill="white"/>
<path d="M116.417 132.9C116.933 132.9 117.35 132.483 117.35 131.969C117.35 131.455 116.933 131.039 116.417 131.039C115.902 131.039 115.484 131.455 115.484 131.969C115.484 132.483 115.902 132.9 116.417 132.9Z" fill="white"/>
<path d="M115.484 131.349C115.485 131.163 115.443 130.981 115.363 130.814C115.283 130.647 115.166 130.5 115.021 130.384C114.8 130.206 114.524 130.109 114.24 130.108C114.225 130.108 114.212 130.111 114.197 130.111C114.134 129.863 113.995 129.64 113.8 129.473C113.604 129.307 113.362 129.205 113.106 129.182C112.85 129.16 112.593 129.217 112.371 129.346C112.15 129.475 111.973 129.67 111.867 129.903C111.67 129.8 111.442 129.771 111.226 129.823C111.009 129.874 110.818 130.002 110.689 130.182C109.773 130.066 108.876 129.833 108.02 129.488C107.787 129.487 107.558 129.553 107.36 129.677C107.163 129.801 107.005 129.979 106.904 130.189C106.819 130.356 106.775 130.541 106.776 130.728C106.777 130.952 106.84 131.17 106.957 131.361C106.735 131.392 106.531 131.502 106.384 131.671C106.236 131.839 106.155 132.055 106.154 132.279C106.154 132.383 106.172 132.486 106.207 132.583L107.949 132.626C107.973 132.57 107.991 132.51 108.002 132.45C108.058 132.516 108.12 132.576 108.188 132.63L109.672 132.667L109.756 132.602C109.769 132.626 109.785 132.648 109.802 132.67L111.808 132.716C111.821 132.703 111.832 132.688 111.842 132.673C111.85 132.689 111.858 132.705 111.867 132.72L113.481 132.757C113.546 132.651 113.588 132.532 113.606 132.409C113.614 132.416 113.624 132.421 113.634 132.425C113.624 132.479 113.619 132.534 113.618 132.589C113.619 132.646 113.624 132.703 113.634 132.76L115.459 132.803C115.476 132.733 115.484 132.661 115.484 132.589C115.483 132.382 115.413 132.182 115.285 132.019C115.415 131.819 115.484 131.586 115.484 131.349ZM112.153 131.324C112.1 131.388 112.038 131.446 111.97 131.494C111.989 131.541 111.998 131.591 112.014 131.637C112.092 131.554 112.186 131.486 112.29 131.439C112.242 131.404 112.196 131.365 112.153 131.324Z" fill="white"/>
<path d="M103.148 132.9C103.663 132.9 104.081 132.483 104.081 131.969C104.081 131.455 103.663 131.039 103.148 131.039C102.633 131.039 102.215 131.455 102.215 131.969C102.215 132.483 102.633 132.9 103.148 132.9Z" fill="white"/>
<path d="M102.215 131.349C102.215 131.163 102.174 130.981 102.093 130.814C102.013 130.647 101.896 130.5 101.751 130.384C101.53 130.206 101.255 130.109 100.971 130.108C100.955 130.108 100.943 130.111 100.927 130.111C100.864 129.863 100.726 129.64 100.53 129.473C100.335 129.307 100.092 129.205 99.8365 129.182C99.5806 129.16 99.3238 129.217 99.1019 129.346C98.88 129.475 98.7038 129.67 98.5978 129.903C98.4007 129.8 98.1727 129.771 97.9561 129.823C97.7394 129.874 97.5487 130.002 97.4191 130.182C96.5035 130.066 95.6066 129.833 94.7508 129.488C94.5173 129.487 94.2885 129.553 94.0909 129.677C93.8933 129.801 93.735 129.979 93.6343 130.189C93.5495 130.356 93.5058 130.541 93.5068 130.728C93.5078 130.952 93.5702 131.17 93.6871 131.361C93.465 131.392 93.2615 131.502 93.1141 131.671C92.9667 131.839 92.8853 132.055 92.8848 132.279C92.8846 132.383 92.9025 132.486 92.9376 132.583L94.6792 132.626C94.7034 132.57 94.7211 132.51 94.7321 132.45C94.788 132.516 94.8505 132.576 94.9187 132.63L96.4022 132.667L96.4861 132.602C96.4999 132.626 96.5155 132.648 96.5328 132.67L98.5387 132.716C98.5511 132.703 98.5625 132.688 98.5729 132.673C98.58 132.689 98.5883 132.705 98.5978 132.72L100.212 132.757C100.277 132.651 100.319 132.532 100.336 132.409C100.345 132.416 100.354 132.421 100.364 132.425C100.355 132.479 100.349 132.534 100.349 132.589C100.349 132.646 100.354 132.703 100.364 132.76L102.19 132.803C102.206 132.733 102.214 132.661 102.215 132.589C102.214 132.382 102.144 132.182 102.016 132.019C102.145 131.819 102.215 131.586 102.215 131.349ZM98.8839 131.324C98.8306 131.388 98.7689 131.446 98.7005 131.494C98.7191 131.541 98.7284 131.591 98.744 131.637C98.8225 131.554 98.9165 131.486 99.0208 131.439C98.9724 131.404 98.9267 131.365 98.8839 131.324Z" fill="white"/>
<path d="M146.688 119.434V116.953H144.615V117.367C144.386 117.367 144.2 117.644 144.2 117.987C144.2 118.33 144.386 118.607 144.615 118.607V119.434H142.956V127.705H148.347V119.434H146.688Z" fill="#3F3D56"/>
</g>
<defs>
<clipPath id="clip0">
<rect width="164" height="252" fill="white"/>
</clipPath>
</defs>
</svg>
